G04 #@! TF.GenerationSoftware,KiCad,Pcbnew,(5.1.6)-1*
G04 #@! TF.CreationDate,2021-05-26T01:20:37+09:00*
G04 #@! TF.ProjectId,ble_macro_keyboard,626c655f-6d61-4637-926f-5f6b6579626f,rev?*
G04 #@! TF.SameCoordinates,Original*
G04 #@! TF.FileFunction,Soldermask,Bot*
G04 #@! TF.FilePolarity,Negative*
%FSLAX46Y46*%
G04 Gerber Fmt 4.6, Leading zero omitted, Abs format (unit mm)*
G04 Created by KiCad (PCBNEW (5.1.6)-1) date 2021-05-26 01:20:37*
%MOMM*%
%LPD*%
G01*
G04 APERTURE LIST*
%ADD10C,1.800000*%
%ADD11C,2.100000*%
%ADD12C,3.300000*%
%ADD13R,1.800000X1.800000*%
%ADD14R,0.658800X1.370000*%
%ADD15R,2.650000X2.600000*%
%ADD16C,3.100000*%
%ADD17C,4.087800*%
%ADD18C,1.801800*%
%ADD19R,0.750000X1.150000*%
%ADD20R,1.000000X0.900000*%
%ADD21O,1.850000X1.300000*%
%ADD22R,1.850000X3.300000*%
%ADD23R,1.850000X1.050000*%
%ADD24O,1.900000X1.170000*%
%ADD25R,1.900000X1.170000*%
%ADD26C,1.900000*%
%ADD27R,1.900000X1.900000*%
%ADD28C,1.700000*%
%ADD29R,1.700000X1.700000*%
G04 APERTURE END LIST*
D10*
X34480000Y-12700000D03*
X30480000Y-12700000D03*
X26480000Y-12700000D03*
D11*
X24480000Y-8450000D03*
X36480000Y-8450000D03*
X36480000Y-14450000D03*
X24480000Y-14450000D03*
D12*
X87000000Y-51000000D03*
X87000000Y-4000000D03*
X4000000Y-4000000D03*
X4000000Y-51000000D03*
D10*
X44450000Y-34290000D03*
X46990000Y-34290000D03*
X49530000Y-34290000D03*
X52070000Y-34290000D03*
X54610000Y-34290000D03*
X57150000Y-34290000D03*
X59690000Y-34290000D03*
X62230000Y-34290000D03*
X64770000Y-34290000D03*
X67310000Y-34290000D03*
X69850000Y-34290000D03*
X72390000Y-34290000D03*
X74930000Y-34290000D03*
X77470000Y-34290000D03*
X80010000Y-34290000D03*
X80010000Y-8890000D03*
X77470000Y-8890000D03*
X74930000Y-8890000D03*
X72390000Y-8890000D03*
X69850000Y-8890000D03*
X67310000Y-8890000D03*
X64770000Y-8890000D03*
X62230000Y-8890000D03*
X59690000Y-8890000D03*
X57150000Y-8890000D03*
X54610000Y-8890000D03*
X52070000Y-8890000D03*
X49530000Y-8890000D03*
X46990000Y-8890000D03*
D13*
X44450000Y-8890000D03*
D14*
X16179800Y-13944600D03*
X14300200Y-13944600D03*
X14300200Y-16535400D03*
X15240000Y-16535400D03*
X16179800Y-16535400D03*
D15*
X79950000Y-39370000D03*
D16*
X76200000Y-39370000D03*
X69850000Y-41910000D03*
D17*
X73660000Y-44450000D03*
D18*
X78740000Y-44450000D03*
X68580000Y-44450000D03*
D15*
X66100000Y-41910000D03*
X60900000Y-39370000D03*
D16*
X57150000Y-39370000D03*
X50800000Y-41910000D03*
D17*
X54610000Y-44450000D03*
D18*
X59690000Y-44450000D03*
X49530000Y-44450000D03*
D15*
X47050000Y-41910000D03*
X41850000Y-39370000D03*
D16*
X38100000Y-39370000D03*
X31750000Y-41910000D03*
D17*
X35560000Y-44450000D03*
D18*
X40640000Y-44450000D03*
X30480000Y-44450000D03*
D15*
X28000000Y-41910000D03*
X22800000Y-39370000D03*
D16*
X19050000Y-39370000D03*
X12700000Y-41910000D03*
D17*
X16510000Y-44450000D03*
D18*
X21590000Y-44450000D03*
X11430000Y-44450000D03*
D15*
X8950000Y-41910000D03*
X79950000Y-20320000D03*
D16*
X76200000Y-20320000D03*
X69850000Y-22860000D03*
D17*
X73660000Y-25400000D03*
D18*
X78740000Y-25400000D03*
X68580000Y-25400000D03*
D15*
X66100000Y-22860000D03*
X60900000Y-20320000D03*
D16*
X57150000Y-20320000D03*
X50800000Y-22860000D03*
D17*
X54610000Y-25400000D03*
D18*
X59690000Y-25400000D03*
X49530000Y-25400000D03*
D15*
X47050000Y-22860000D03*
X41850000Y-20320000D03*
D16*
X38100000Y-20320000D03*
X31750000Y-22860000D03*
D17*
X35560000Y-25400000D03*
D18*
X40640000Y-25400000D03*
X30480000Y-25400000D03*
D15*
X28000000Y-22860000D03*
X22800000Y-20320000D03*
D16*
X19050000Y-20320000D03*
X12700000Y-22860000D03*
D17*
X16510000Y-25400000D03*
D18*
X21590000Y-25400000D03*
X11430000Y-25400000D03*
D15*
X8950000Y-22860000D03*
D19*
X87435000Y-43985000D03*
X87435000Y-39835000D03*
X85285000Y-43985000D03*
X85285000Y-39835000D03*
G36*
G01*
X35260000Y-50537500D02*
X35260000Y-51062500D01*
G75*
G02*
X34997500Y-51325000I-262500J0D01*
G01*
X34372500Y-51325000D01*
G75*
G02*
X34110000Y-51062500I0J262500D01*
G01*
X34110000Y-50537500D01*
G75*
G02*
X34372500Y-50275000I262500J0D01*
G01*
X34997500Y-50275000D01*
G75*
G02*
X35260000Y-50537500I0J-262500D01*
G01*
G37*
G36*
G01*
X37010000Y-50537500D02*
X37010000Y-51062500D01*
G75*
G02*
X36747500Y-51325000I-262500J0D01*
G01*
X36122500Y-51325000D01*
G75*
G02*
X35860000Y-51062500I0J262500D01*
G01*
X35860000Y-50537500D01*
G75*
G02*
X36122500Y-50275000I262500J0D01*
G01*
X36747500Y-50275000D01*
G75*
G02*
X37010000Y-50537500I0J-262500D01*
G01*
G37*
G36*
G01*
X31450000Y-48632500D02*
X31450000Y-49157500D01*
G75*
G02*
X31187500Y-49420000I-262500J0D01*
G01*
X30562500Y-49420000D01*
G75*
G02*
X30300000Y-49157500I0J262500D01*
G01*
X30300000Y-48632500D01*
G75*
G02*
X30562500Y-48370000I262500J0D01*
G01*
X31187500Y-48370000D01*
G75*
G02*
X31450000Y-48632500I0J-262500D01*
G01*
G37*
G36*
G01*
X33200000Y-48632500D02*
X33200000Y-49157500D01*
G75*
G02*
X32937500Y-49420000I-262500J0D01*
G01*
X32312500Y-49420000D01*
G75*
G02*
X32050000Y-49157500I0J262500D01*
G01*
X32050000Y-48632500D01*
G75*
G02*
X32312500Y-48370000I262500J0D01*
G01*
X32937500Y-48370000D01*
G75*
G02*
X33200000Y-48632500I0J-262500D01*
G01*
G37*
G36*
G01*
X31450000Y-46727500D02*
X31450000Y-47252500D01*
G75*
G02*
X31187500Y-47515000I-262500J0D01*
G01*
X30562500Y-47515000D01*
G75*
G02*
X30300000Y-47252500I0J262500D01*
G01*
X30300000Y-46727500D01*
G75*
G02*
X30562500Y-46465000I262500J0D01*
G01*
X31187500Y-46465000D01*
G75*
G02*
X31450000Y-46727500I0J-262500D01*
G01*
G37*
G36*
G01*
X33200000Y-46727500D02*
X33200000Y-47252500D01*
G75*
G02*
X32937500Y-47515000I-262500J0D01*
G01*
X32312500Y-47515000D01*
G75*
G02*
X32050000Y-47252500I0J262500D01*
G01*
X32050000Y-46727500D01*
G75*
G02*
X32312500Y-46465000I262500J0D01*
G01*
X32937500Y-46465000D01*
G75*
G02*
X33200000Y-46727500I0J-262500D01*
G01*
G37*
G36*
G01*
X31450000Y-50537500D02*
X31450000Y-51062500D01*
G75*
G02*
X31187500Y-51325000I-262500J0D01*
G01*
X30562500Y-51325000D01*
G75*
G02*
X30300000Y-51062500I0J262500D01*
G01*
X30300000Y-50537500D01*
G75*
G02*
X30562500Y-50275000I262500J0D01*
G01*
X31187500Y-50275000D01*
G75*
G02*
X31450000Y-50537500I0J-262500D01*
G01*
G37*
G36*
G01*
X33200000Y-50537500D02*
X33200000Y-51062500D01*
G75*
G02*
X32937500Y-51325000I-262500J0D01*
G01*
X32312500Y-51325000D01*
G75*
G02*
X32050000Y-51062500I0J262500D01*
G01*
X32050000Y-50537500D01*
G75*
G02*
X32312500Y-50275000I262500J0D01*
G01*
X32937500Y-50275000D01*
G75*
G02*
X33200000Y-50537500I0J-262500D01*
G01*
G37*
G36*
G01*
X58120000Y-50537500D02*
X58120000Y-51062500D01*
G75*
G02*
X57857500Y-51325000I-262500J0D01*
G01*
X57232500Y-51325000D01*
G75*
G02*
X56970000Y-51062500I0J262500D01*
G01*
X56970000Y-50537500D01*
G75*
G02*
X57232500Y-50275000I262500J0D01*
G01*
X57857500Y-50275000D01*
G75*
G02*
X58120000Y-50537500I0J-262500D01*
G01*
G37*
G36*
G01*
X59870000Y-50537500D02*
X59870000Y-51062500D01*
G75*
G02*
X59607500Y-51325000I-262500J0D01*
G01*
X58982500Y-51325000D01*
G75*
G02*
X58720000Y-51062500I0J262500D01*
G01*
X58720000Y-50537500D01*
G75*
G02*
X58982500Y-50275000I262500J0D01*
G01*
X59607500Y-50275000D01*
G75*
G02*
X59870000Y-50537500I0J-262500D01*
G01*
G37*
G36*
G01*
X18787500Y-15540000D02*
X19312500Y-15540000D01*
G75*
G02*
X19575000Y-15802500I0J-262500D01*
G01*
X19575000Y-16427500D01*
G75*
G02*
X19312500Y-16690000I-262500J0D01*
G01*
X18787500Y-16690000D01*
G75*
G02*
X18525000Y-16427500I0J262500D01*
G01*
X18525000Y-15802500D01*
G75*
G02*
X18787500Y-15540000I262500J0D01*
G01*
G37*
G36*
G01*
X18787500Y-13790000D02*
X19312500Y-13790000D01*
G75*
G02*
X19575000Y-14052500I0J-262500D01*
G01*
X19575000Y-14677500D01*
G75*
G02*
X19312500Y-14940000I-262500J0D01*
G01*
X18787500Y-14940000D01*
G75*
G02*
X18525000Y-14677500I0J262500D01*
G01*
X18525000Y-14052500D01*
G75*
G02*
X18787500Y-13790000I262500J0D01*
G01*
G37*
G36*
G01*
X21327500Y-15540000D02*
X21852500Y-15540000D01*
G75*
G02*
X22115000Y-15802500I0J-262500D01*
G01*
X22115000Y-16427500D01*
G75*
G02*
X21852500Y-16690000I-262500J0D01*
G01*
X21327500Y-16690000D01*
G75*
G02*
X21065000Y-16427500I0J262500D01*
G01*
X21065000Y-15802500D01*
G75*
G02*
X21327500Y-15540000I262500J0D01*
G01*
G37*
G36*
G01*
X21327500Y-13790000D02*
X21852500Y-13790000D01*
G75*
G02*
X22115000Y-14052500I0J-262500D01*
G01*
X22115000Y-14677500D01*
G75*
G02*
X21852500Y-14940000I-262500J0D01*
G01*
X21327500Y-14940000D01*
G75*
G02*
X21065000Y-14677500I0J262500D01*
G01*
X21065000Y-14052500D01*
G75*
G02*
X21327500Y-13790000I262500J0D01*
G01*
G37*
D20*
X10430000Y-13335000D03*
X12430000Y-14285000D03*
X12430000Y-12385000D03*
D21*
X26670000Y-31020000D03*
G36*
G01*
X27324168Y-33670000D02*
X26015832Y-33670000D01*
G75*
G02*
X25745000Y-33399168I0J270832D01*
G01*
X25745000Y-32640832D01*
G75*
G02*
X26015832Y-32370000I270832J0D01*
G01*
X27324168Y-32370000D01*
G75*
G02*
X27595000Y-32640832I0J-270832D01*
G01*
X27595000Y-33399168D01*
G75*
G02*
X27324168Y-33670000I-270832J0D01*
G01*
G37*
D22*
X21565000Y-8255000D03*
D23*
X15265000Y-5955000D03*
X15265000Y-8255000D03*
X15265000Y-10555000D03*
D24*
X26035000Y-46990000D03*
X26035000Y-48260000D03*
X26035000Y-49530000D03*
D25*
X26035000Y-50800000D03*
D26*
X64135000Y-48260000D03*
D27*
X64135000Y-50800000D03*
G36*
G01*
X11586738Y-9680000D02*
X12543262Y-9680000D01*
G75*
G02*
X12815000Y-9951738I0J-271738D01*
G01*
X12815000Y-10658262D01*
G75*
G02*
X12543262Y-10930000I-271738J0D01*
G01*
X11586738Y-10930000D01*
G75*
G02*
X11315000Y-10658262I0J271738D01*
G01*
X11315000Y-9951738D01*
G75*
G02*
X11586738Y-9680000I271738J0D01*
G01*
G37*
G36*
G01*
X11586738Y-7630000D02*
X12543262Y-7630000D01*
G75*
G02*
X12815000Y-7901738I0J-271738D01*
G01*
X12815000Y-8608262D01*
G75*
G02*
X12543262Y-8880000I-271738J0D01*
G01*
X11586738Y-8880000D01*
G75*
G02*
X11315000Y-8608262I0J271738D01*
G01*
X11315000Y-7901738D01*
G75*
G02*
X11586738Y-7630000I271738J0D01*
G01*
G37*
G36*
G01*
X11030000Y-16031738D02*
X11030000Y-16988262D01*
G75*
G02*
X10758262Y-17260000I-271738J0D01*
G01*
X10051738Y-17260000D01*
G75*
G02*
X9780000Y-16988262I0J271738D01*
G01*
X9780000Y-16031738D01*
G75*
G02*
X10051738Y-15760000I271738J0D01*
G01*
X10758262Y-15760000D01*
G75*
G02*
X11030000Y-16031738I0J-271738D01*
G01*
G37*
G36*
G01*
X13080000Y-16031738D02*
X13080000Y-16988262D01*
G75*
G02*
X12808262Y-17260000I-271738J0D01*
G01*
X12101738Y-17260000D01*
G75*
G02*
X11830000Y-16988262I0J271738D01*
G01*
X11830000Y-16031738D01*
G75*
G02*
X12101738Y-15760000I271738J0D01*
G01*
X12808262Y-15760000D01*
G75*
G02*
X13080000Y-16031738I0J-271738D01*
G01*
G37*
D28*
X45085000Y-50260000D03*
D29*
X45085000Y-48260000D03*
M02*
