G04 #@! TF.GenerationSoftware,KiCad,Pcbnew,(6.0.6)*
G04 #@! TF.CreationDate,2022-07-26T07:29:36+09:00*
G04 #@! TF.ProjectId,ble_macro_keyboard,626c655f-6d61-4637-926f-5f6b6579626f,rev?*
G04 #@! TF.SameCoordinates,Original*
G04 #@! TF.FileFunction,Soldermask,Bot*
G04 #@! TF.FilePolarity,Negative*
%FSLAX46Y46*%
G04 Gerber Fmt 4.6, Leading zero omitted, Abs format (unit mm)*
G04 Created by KiCad (PCBNEW (6.0.6)) date 2022-07-26 07:29:36*
%MOMM*%
%LPD*%
G01*
G04 APERTURE LIST*
G04 Aperture macros list*
%AMRoundRect*
0 Rectangle with rounded corners*
0 $1 Rounding radius*
0 $2 $3 $4 $5 $6 $7 $8 $9 X,Y pos of 4 corners*
0 Add a 4 corners polygon primitive as box body*
4,1,4,$2,$3,$4,$5,$6,$7,$8,$9,$2,$3,0*
0 Add four circle primitives for the rounded corners*
1,1,$1+$1,$2,$3*
1,1,$1+$1,$4,$5*
1,1,$1+$1,$6,$7*
1,1,$1+$1,$8,$9*
0 Add four rect primitives between the rounded corners*
20,1,$1+$1,$2,$3,$4,$5,0*
20,1,$1+$1,$4,$5,$6,$7,0*
20,1,$1+$1,$6,$7,$8,$9,0*
20,1,$1+$1,$8,$9,$2,$3,0*%
G04 Aperture macros list end*
%ADD10C,3.000000*%
%ADD11C,1.701800*%
%ADD12C,3.987800*%
%ADD13R,2.550000X2.500000*%
%ADD14C,3.200000*%
%ADD15C,8.000000*%
%ADD16C,0.800000*%
%ADD17R,1.560000X1.560000*%
%ADD18C,1.560000*%
%ADD19RoundRect,0.237500X-0.287500X-0.237500X0.287500X-0.237500X0.287500X0.237500X-0.287500X0.237500X0*%
%ADD20RoundRect,0.237500X-0.300000X-0.237500X0.300000X-0.237500X0.300000X0.237500X-0.300000X0.237500X0*%
%ADD21R,1.600000X1.600000*%
%ADD22C,1.600000*%
%ADD23RoundRect,0.237500X0.287500X0.237500X-0.287500X0.237500X-0.287500X-0.237500X0.287500X-0.237500X0*%
%ADD24R,1.800000X1.800000*%
%ADD25C,1.800000*%
%ADD26R,0.900000X0.800000*%
%ADD27R,1.800000X1.070000*%
%ADD28O,1.800000X1.070000*%
%ADD29R,1.270000X0.558800*%
%ADD30RoundRect,0.237500X0.237500X-0.300000X0.237500X0.300000X-0.237500X0.300000X-0.237500X-0.300000X0*%
%ADD31R,1.750000X0.950000*%
%ADD32R,1.750000X3.200000*%
%ADD33RoundRect,0.150000X0.475000X-0.150000X0.475000X0.150000X-0.475000X0.150000X-0.475000X-0.150000X0*%
%ADD34RoundRect,0.225000X0.625000X-0.225000X0.625000X0.225000X-0.625000X0.225000X-0.625000X-0.225000X0*%
G04 APERTURE END LIST*
D10*
X-25908000Y2080000D03*
D11*
X-23368000Y-3000000D03*
D12*
X-28448000Y-3000000D03*
D11*
X-33528000Y-3000000D03*
D10*
X-32258000Y-460000D03*
D13*
X-22158000Y2080000D03*
X-36008000Y-460000D03*
D11*
X23622000Y-22050000D03*
D10*
X31242000Y-16970000D03*
D12*
X28702000Y-22050000D03*
D10*
X24892000Y-19510000D03*
D11*
X33782000Y-22050000D03*
D13*
X34992000Y-16970000D03*
X21142000Y-19510000D03*
D10*
X-13208000Y-460000D03*
X-6858000Y2080000D03*
D11*
X-14478000Y-3000000D03*
X-4318000Y-3000000D03*
D12*
X-9398000Y-3000000D03*
D13*
X-3108000Y2080000D03*
X-16958000Y-460000D03*
D11*
X-14478000Y-22050000D03*
X-4318000Y-22050000D03*
D10*
X-13208000Y-19510000D03*
D12*
X-9398000Y-22050000D03*
D10*
X-6858000Y-16970000D03*
D13*
X-3108000Y-16970000D03*
X-16958000Y-19510000D03*
D11*
X33782000Y-3000000D03*
D10*
X24892000Y-460000D03*
D12*
X28702000Y-3000000D03*
D10*
X31242000Y2080000D03*
D11*
X23622000Y-3000000D03*
D13*
X34992000Y2080000D03*
X21142000Y-460000D03*
D11*
X4572000Y-22050000D03*
X14732000Y-22050000D03*
D10*
X5842000Y-19510000D03*
X12192000Y-16970000D03*
D12*
X9652000Y-22050000D03*
D13*
X15942000Y-16970000D03*
X2092000Y-19510000D03*
D10*
X12192000Y2080000D03*
D11*
X4572000Y-3000000D03*
D10*
X5842000Y-460000D03*
D11*
X14732000Y-3000000D03*
D12*
X9652000Y-3000000D03*
D13*
X15942000Y2080000D03*
X2092000Y-460000D03*
D12*
X-28448000Y-22050000D03*
D11*
X-23368000Y-22050000D03*
X-33528000Y-22050000D03*
D10*
X-32258000Y-19510000D03*
X-25908000Y-16970000D03*
D13*
X-22158000Y-16970000D03*
X-36008000Y-19510000D03*
D14*
X-40500000Y40500000D03*
X40500000Y40500000D03*
D11*
X-14478000Y-41100000D03*
D10*
X-13208000Y-38560000D03*
D12*
X-9398000Y-41100000D03*
D11*
X-4318000Y-41100000D03*
D10*
X-6858000Y-36020000D03*
D13*
X-3108000Y-36020000D03*
X-16958000Y-38560000D03*
D11*
X-23368000Y-41100000D03*
D10*
X-32258000Y-38560000D03*
D11*
X-33528000Y-41100000D03*
D10*
X-25908000Y-36020000D03*
D12*
X-28448000Y-41100000D03*
D13*
X-22158000Y-36020000D03*
X-36008000Y-38560000D03*
D14*
X40500000Y5000000D03*
X-40500000Y5000000D03*
D15*
X18000000Y33500000D03*
D11*
X23622000Y-41100000D03*
D10*
X31242000Y-36020000D03*
D11*
X33782000Y-41100000D03*
D12*
X28702000Y-41100000D03*
D10*
X24892000Y-38560000D03*
D13*
X34992000Y-36020000D03*
X21142000Y-38560000D03*
D16*
X31930000Y41148000D03*
X29030000Y41148000D03*
D14*
X-40500000Y-48000000D03*
D11*
X14732000Y-41100000D03*
D10*
X5842000Y-38560000D03*
X12192000Y-36020000D03*
D11*
X4572000Y-41100000D03*
D12*
X9652000Y-41100000D03*
D13*
X15942000Y-36020000D03*
X2092000Y-38560000D03*
D17*
X4064000Y35560000D03*
D18*
X1524000Y35560000D03*
X-1016000Y35560000D03*
X-3556000Y35560000D03*
X-6096000Y35560000D03*
X-8636000Y35560000D03*
X-11176000Y35560000D03*
X-13716000Y35560000D03*
X-16256000Y35560000D03*
X-18796000Y35560000D03*
X-21336000Y35560000D03*
X-23876000Y35560000D03*
X-26416000Y35560000D03*
X-28956000Y35560000D03*
X-31496000Y35560000D03*
X-34036000Y35560000D03*
X-36576000Y35560000D03*
X-39116000Y35560000D03*
X-41656000Y35560000D03*
X4064000Y10160000D03*
X1524000Y10160000D03*
X-1016000Y10160000D03*
X-3556000Y10160000D03*
X-6096000Y10160000D03*
X-8636000Y10160000D03*
X-11176000Y10160000D03*
X-13716000Y10160000D03*
X-16256000Y10160000D03*
X-18796000Y10160000D03*
X-21336000Y10160000D03*
X-23876000Y10160000D03*
X-26416000Y10160000D03*
X-28956000Y10160000D03*
X-31496000Y10160000D03*
X-34036000Y10160000D03*
X-36576000Y10160000D03*
X-39116000Y10160000D03*
X-41656000Y10160000D03*
D14*
X40500000Y-48000000D03*
D19*
X-6322000Y32512000D03*
X-4572000Y32512000D03*
D20*
X-4926500Y22352000D03*
X-3201500Y22352000D03*
D21*
X-16703112Y30988000D03*
D22*
X-14703112Y30988000D03*
D19*
X-10132000Y28448000D03*
X-8382000Y28448000D03*
X-6322000Y28448000D03*
X-4572000Y28448000D03*
D23*
X-36576000Y26924000D03*
X-38326000Y26924000D03*
D24*
X-36576000Y30988000D03*
D25*
X-39116000Y30988000D03*
D19*
X-38326000Y19304000D03*
X-36576000Y19304000D03*
X-6322000Y30480000D03*
X-4572000Y30480000D03*
D21*
X-29016887Y30988000D03*
D22*
X-31016887Y30988000D03*
D26*
X-23860000Y14798000D03*
X-23860000Y16698000D03*
X-21860000Y15748000D03*
D19*
X-23735000Y32004000D03*
X-21985000Y32004000D03*
D27*
X0Y28448000D03*
D28*
X0Y29718000D03*
X0Y30988000D03*
X0Y32258000D03*
D29*
X-21564600Y29387800D03*
X-21564600Y28448000D03*
X-21564600Y27508200D03*
X-24155400Y27508200D03*
X-24155400Y29387800D03*
D20*
X-23722500Y19304000D03*
X-21997500Y19304000D03*
D30*
X34544000Y16409500D03*
X34544000Y18134500D03*
D31*
X-914000Y19572000D03*
X-914000Y17272000D03*
X-914000Y14972000D03*
D32*
X-7214000Y17272000D03*
D33*
X31647000Y16272000D03*
X31647000Y17272000D03*
X31647000Y18272000D03*
D34*
X28522000Y14822000D03*
X28522000Y19722000D03*
D20*
X-38301000Y22352000D03*
X-36576000Y22352000D03*
M02*
