G04 #@! TF.GenerationSoftware,KiCad,Pcbnew,(6.0.6)*
G04 #@! TF.CreationDate,2022-07-26T08:16:13+09:00*
G04 #@! TF.ProjectId,ble_macro_keyboard,626c655f-6d61-4637-926f-5f6b6579626f,rev?*
G04 #@! TF.SameCoordinates,Original*
G04 #@! TF.FileFunction,Legend,Bot*
G04 #@! TF.FilePolarity,Positive*
%FSLAX46Y46*%
G04 Gerber Fmt 4.6, Leading zero omitted, Abs format (unit mm)*
G04 Created by KiCad (PCBNEW (6.0.6)) date 2022-07-26 08:16:13*
%MOMM*%
%LPD*%
G01*
G04 APERTURE LIST*
G04 Aperture macros list*
%AMRoundRect*
0 Rectangle with rounded corners*
0 $1 Rounding radius*
0 $2 $3 $4 $5 $6 $7 $8 $9 X,Y pos of 4 corners*
0 Add a 4 corners polygon primitive as box body*
4,1,4,$2,$3,$4,$5,$6,$7,$8,$9,$2,$3,0*
0 Add four circle primitives for the rounded corners*
1,1,$1+$1,$2,$3*
1,1,$1+$1,$4,$5*
1,1,$1+$1,$6,$7*
1,1,$1+$1,$8,$9*
0 Add four rect primitives between the rounded corners*
20,1,$1+$1,$2,$3,$4,$5,0*
20,1,$1+$1,$4,$5,$6,$7,0*
20,1,$1+$1,$6,$7,$8,$9,0*
20,1,$1+$1,$8,$9,$2,$3,0*%
G04 Aperture macros list end*
%ADD10C,0.150000*%
%ADD11C,0.060000*%
%ADD12C,0.254000*%
%ADD13C,0.120000*%
%ADD14C,0.152400*%
%ADD15C,0.100000*%
%ADD16C,0.200000*%
%ADD17R,2.550000X2.500000*%
%ADD18C,3.000000*%
%ADD19C,1.701800*%
%ADD20C,3.987800*%
%ADD21C,3.200000*%
%ADD22C,8.000000*%
%ADD23C,0.800000*%
%ADD24C,1.560000*%
%ADD25R,1.560000X1.560000*%
%ADD26RoundRect,0.237500X-0.287500X-0.237500X0.287500X-0.237500X0.287500X0.237500X-0.287500X0.237500X0*%
%ADD27RoundRect,0.237500X-0.300000X-0.237500X0.300000X-0.237500X0.300000X0.237500X-0.300000X0.237500X0*%
%ADD28C,1.600000*%
%ADD29R,1.600000X1.600000*%
%ADD30RoundRect,0.237500X0.287500X0.237500X-0.287500X0.237500X-0.287500X-0.237500X0.287500X-0.237500X0*%
%ADD31C,1.800000*%
%ADD32R,1.800000X1.800000*%
%ADD33R,0.900000X0.800000*%
%ADD34O,1.800000X1.070000*%
%ADD35R,1.800000X1.070000*%
%ADD36R,1.270000X0.558800*%
%ADD37RoundRect,0.237500X0.237500X-0.300000X0.237500X0.300000X-0.237500X0.300000X-0.237500X-0.300000X0*%
%ADD38R,1.750000X0.950000*%
%ADD39R,1.750000X3.200000*%
%ADD40RoundRect,0.150000X0.475000X-0.150000X0.475000X0.150000X-0.475000X0.150000X-0.475000X-0.150000X0*%
%ADD41RoundRect,0.225000X0.625000X-0.225000X0.625000X0.225000X-0.625000X0.225000X-0.625000X-0.225000X0*%
G04 APERTURE END LIST*
D10*
X37385333Y-71000761D02*
X37242476Y-71048380D01*
X37004380Y-71048380D01*
X36909142Y-71000761D01*
X36861523Y-70953142D01*
X36813904Y-70857904D01*
X36813904Y-70762666D01*
X36861523Y-70667428D01*
X36909142Y-70619809D01*
X37004380Y-70572190D01*
X37194857Y-70524571D01*
X37290095Y-70476952D01*
X37337714Y-70429333D01*
X37385333Y-70334095D01*
X37385333Y-70238857D01*
X37337714Y-70143619D01*
X37290095Y-70096000D01*
X37194857Y-70048380D01*
X36956761Y-70048380D01*
X36813904Y-70096000D01*
X36480571Y-70048380D02*
X36242476Y-71048380D01*
X36052000Y-70334095D01*
X35861523Y-71048380D01*
X35623428Y-70048380D01*
X35337714Y-70048380D02*
X34718666Y-70048380D01*
X35052000Y-70429333D01*
X34909142Y-70429333D01*
X34813904Y-70476952D01*
X34766285Y-70524571D01*
X34718666Y-70619809D01*
X34718666Y-70857904D01*
X34766285Y-70953142D01*
X34813904Y-71000761D01*
X34909142Y-71048380D01*
X35194857Y-71048380D01*
X35290095Y-71000761D01*
X35337714Y-70953142D01*
X95011523Y-90050761D02*
X94868666Y-90098380D01*
X94630571Y-90098380D01*
X94535333Y-90050761D01*
X94487714Y-90003142D01*
X94440095Y-89907904D01*
X94440095Y-89812666D01*
X94487714Y-89717428D01*
X94535333Y-89669809D01*
X94630571Y-89622190D01*
X94821047Y-89574571D01*
X94916285Y-89526952D01*
X94963904Y-89479333D01*
X95011523Y-89384095D01*
X95011523Y-89288857D01*
X94963904Y-89193619D01*
X94916285Y-89146000D01*
X94821047Y-89098380D01*
X94582952Y-89098380D01*
X94440095Y-89146000D01*
X94106761Y-89098380D02*
X93868666Y-90098380D01*
X93678190Y-89384095D01*
X93487714Y-90098380D01*
X93249619Y-89098380D01*
X92344857Y-90098380D02*
X92916285Y-90098380D01*
X92630571Y-90098380D02*
X92630571Y-89098380D01*
X92725809Y-89241238D01*
X92821047Y-89336476D01*
X92916285Y-89384095D01*
X91725809Y-89098380D02*
X91630571Y-89098380D01*
X91535333Y-89146000D01*
X91487714Y-89193619D01*
X91440095Y-89288857D01*
X91392476Y-89479333D01*
X91392476Y-89717428D01*
X91440095Y-89907904D01*
X91487714Y-90003142D01*
X91535333Y-90050761D01*
X91630571Y-90098380D01*
X91725809Y-90098380D01*
X91821047Y-90050761D01*
X91868666Y-90003142D01*
X91916285Y-89907904D01*
X91963904Y-89717428D01*
X91963904Y-89479333D01*
X91916285Y-89288857D01*
X91868666Y-89193619D01*
X91821047Y-89146000D01*
X91725809Y-89098380D01*
X56435333Y-71000761D02*
X56292476Y-71048380D01*
X56054380Y-71048380D01*
X55959142Y-71000761D01*
X55911523Y-70953142D01*
X55863904Y-70857904D01*
X55863904Y-70762666D01*
X55911523Y-70667428D01*
X55959142Y-70619809D01*
X56054380Y-70572190D01*
X56244857Y-70524571D01*
X56340095Y-70476952D01*
X56387714Y-70429333D01*
X56435333Y-70334095D01*
X56435333Y-70238857D01*
X56387714Y-70143619D01*
X56340095Y-70096000D01*
X56244857Y-70048380D01*
X56006761Y-70048380D01*
X55863904Y-70096000D01*
X55530571Y-70048380D02*
X55292476Y-71048380D01*
X55102000Y-70334095D01*
X54911523Y-71048380D01*
X54673428Y-70048380D01*
X53863904Y-70381714D02*
X53863904Y-71048380D01*
X54102000Y-70000761D02*
X54340095Y-70715047D01*
X53721047Y-70715047D01*
X56435333Y-90050761D02*
X56292476Y-90098380D01*
X56054380Y-90098380D01*
X55959142Y-90050761D01*
X55911523Y-90003142D01*
X55863904Y-89907904D01*
X55863904Y-89812666D01*
X55911523Y-89717428D01*
X55959142Y-89669809D01*
X56054380Y-89622190D01*
X56244857Y-89574571D01*
X56340095Y-89526952D01*
X56387714Y-89479333D01*
X56435333Y-89384095D01*
X56435333Y-89288857D01*
X56387714Y-89193619D01*
X56340095Y-89146000D01*
X56244857Y-89098380D01*
X56006761Y-89098380D01*
X55863904Y-89146000D01*
X55530571Y-89098380D02*
X55292476Y-90098380D01*
X55102000Y-89384095D01*
X54911523Y-90098380D01*
X54673428Y-89098380D01*
X54149619Y-89526952D02*
X54244857Y-89479333D01*
X54292476Y-89431714D01*
X54340095Y-89336476D01*
X54340095Y-89288857D01*
X54292476Y-89193619D01*
X54244857Y-89146000D01*
X54149619Y-89098380D01*
X53959142Y-89098380D01*
X53863904Y-89146000D01*
X53816285Y-89193619D01*
X53768666Y-89288857D01*
X53768666Y-89336476D01*
X53816285Y-89431714D01*
X53863904Y-89479333D01*
X53959142Y-89526952D01*
X54149619Y-89526952D01*
X54244857Y-89574571D01*
X54292476Y-89622190D01*
X54340095Y-89717428D01*
X54340095Y-89907904D01*
X54292476Y-90003142D01*
X54244857Y-90050761D01*
X54149619Y-90098380D01*
X53959142Y-90098380D01*
X53863904Y-90050761D01*
X53816285Y-90003142D01*
X53768666Y-89907904D01*
X53768666Y-89717428D01*
X53816285Y-89622190D01*
X53863904Y-89574571D01*
X53959142Y-89526952D01*
X94535333Y-71000761D02*
X94392476Y-71048380D01*
X94154380Y-71048380D01*
X94059142Y-71000761D01*
X94011523Y-70953142D01*
X93963904Y-70857904D01*
X93963904Y-70762666D01*
X94011523Y-70667428D01*
X94059142Y-70619809D01*
X94154380Y-70572190D01*
X94344857Y-70524571D01*
X94440095Y-70476952D01*
X94487714Y-70429333D01*
X94535333Y-70334095D01*
X94535333Y-70238857D01*
X94487714Y-70143619D01*
X94440095Y-70096000D01*
X94344857Y-70048380D01*
X94106761Y-70048380D01*
X93963904Y-70096000D01*
X93630571Y-70048380D02*
X93392476Y-71048380D01*
X93202000Y-70334095D01*
X93011523Y-71048380D01*
X92773428Y-70048380D01*
X91963904Y-70048380D02*
X92154380Y-70048380D01*
X92249619Y-70096000D01*
X92297238Y-70143619D01*
X92392476Y-70286476D01*
X92440095Y-70476952D01*
X92440095Y-70857904D01*
X92392476Y-70953142D01*
X92344857Y-71000761D01*
X92249619Y-71048380D01*
X92059142Y-71048380D01*
X91963904Y-71000761D01*
X91916285Y-70953142D01*
X91868666Y-70857904D01*
X91868666Y-70619809D01*
X91916285Y-70524571D01*
X91963904Y-70476952D01*
X92059142Y-70429333D01*
X92249619Y-70429333D01*
X92344857Y-70476952D01*
X92392476Y-70524571D01*
X92440095Y-70619809D01*
X75485333Y-90050761D02*
X75342476Y-90098380D01*
X75104380Y-90098380D01*
X75009142Y-90050761D01*
X74961523Y-90003142D01*
X74913904Y-89907904D01*
X74913904Y-89812666D01*
X74961523Y-89717428D01*
X75009142Y-89669809D01*
X75104380Y-89622190D01*
X75294857Y-89574571D01*
X75390095Y-89526952D01*
X75437714Y-89479333D01*
X75485333Y-89384095D01*
X75485333Y-89288857D01*
X75437714Y-89193619D01*
X75390095Y-89146000D01*
X75294857Y-89098380D01*
X75056761Y-89098380D01*
X74913904Y-89146000D01*
X74580571Y-89098380D02*
X74342476Y-90098380D01*
X74152000Y-89384095D01*
X73961523Y-90098380D01*
X73723428Y-89098380D01*
X73294857Y-90098380D02*
X73104380Y-90098380D01*
X73009142Y-90050761D01*
X72961523Y-90003142D01*
X72866285Y-89860285D01*
X72818666Y-89669809D01*
X72818666Y-89288857D01*
X72866285Y-89193619D01*
X72913904Y-89146000D01*
X73009142Y-89098380D01*
X73199619Y-89098380D01*
X73294857Y-89146000D01*
X73342476Y-89193619D01*
X73390095Y-89288857D01*
X73390095Y-89526952D01*
X73342476Y-89622190D01*
X73294857Y-89669809D01*
X73199619Y-89717428D01*
X73009142Y-89717428D01*
X72913904Y-89669809D01*
X72866285Y-89622190D01*
X72818666Y-89526952D01*
X75485333Y-71000761D02*
X75342476Y-71048380D01*
X75104380Y-71048380D01*
X75009142Y-71000761D01*
X74961523Y-70953142D01*
X74913904Y-70857904D01*
X74913904Y-70762666D01*
X74961523Y-70667428D01*
X75009142Y-70619809D01*
X75104380Y-70572190D01*
X75294857Y-70524571D01*
X75390095Y-70476952D01*
X75437714Y-70429333D01*
X75485333Y-70334095D01*
X75485333Y-70238857D01*
X75437714Y-70143619D01*
X75390095Y-70096000D01*
X75294857Y-70048380D01*
X75056761Y-70048380D01*
X74913904Y-70096000D01*
X74580571Y-70048380D02*
X74342476Y-71048380D01*
X74152000Y-70334095D01*
X73961523Y-71048380D01*
X73723428Y-70048380D01*
X72866285Y-70048380D02*
X73342476Y-70048380D01*
X73390095Y-70524571D01*
X73342476Y-70476952D01*
X73247238Y-70429333D01*
X73009142Y-70429333D01*
X72913904Y-70476952D01*
X72866285Y-70524571D01*
X72818666Y-70619809D01*
X72818666Y-70857904D01*
X72866285Y-70953142D01*
X72913904Y-71000761D01*
X73009142Y-71048380D01*
X73247238Y-71048380D01*
X73342476Y-71000761D01*
X73390095Y-70953142D01*
X37385333Y-90050761D02*
X37242476Y-90098380D01*
X37004380Y-90098380D01*
X36909142Y-90050761D01*
X36861523Y-90003142D01*
X36813904Y-89907904D01*
X36813904Y-89812666D01*
X36861523Y-89717428D01*
X36909142Y-89669809D01*
X37004380Y-89622190D01*
X37194857Y-89574571D01*
X37290095Y-89526952D01*
X37337714Y-89479333D01*
X37385333Y-89384095D01*
X37385333Y-89288857D01*
X37337714Y-89193619D01*
X37290095Y-89146000D01*
X37194857Y-89098380D01*
X36956761Y-89098380D01*
X36813904Y-89146000D01*
X36480571Y-89098380D02*
X36242476Y-90098380D01*
X36052000Y-89384095D01*
X35861523Y-90098380D01*
X35623428Y-89098380D01*
X35337714Y-89098380D02*
X34671047Y-89098380D01*
X35099619Y-90098380D01*
X56911523Y-109100761D02*
X56768666Y-109148380D01*
X56530571Y-109148380D01*
X56435333Y-109100761D01*
X56387714Y-109053142D01*
X56340095Y-108957904D01*
X56340095Y-108862666D01*
X56387714Y-108767428D01*
X56435333Y-108719809D01*
X56530571Y-108672190D01*
X56721047Y-108624571D01*
X56816285Y-108576952D01*
X56863904Y-108529333D01*
X56911523Y-108434095D01*
X56911523Y-108338857D01*
X56863904Y-108243619D01*
X56816285Y-108196000D01*
X56721047Y-108148380D01*
X56482952Y-108148380D01*
X56340095Y-108196000D01*
X56006761Y-108148380D02*
X55768666Y-109148380D01*
X55578190Y-108434095D01*
X55387714Y-109148380D01*
X55149619Y-108148380D01*
X54244857Y-109148380D02*
X54816285Y-109148380D01*
X54530571Y-109148380D02*
X54530571Y-108148380D01*
X54625809Y-108291238D01*
X54721047Y-108386476D01*
X54816285Y-108434095D01*
X53863904Y-108243619D02*
X53816285Y-108196000D01*
X53721047Y-108148380D01*
X53482952Y-108148380D01*
X53387714Y-108196000D01*
X53340095Y-108243619D01*
X53292476Y-108338857D01*
X53292476Y-108434095D01*
X53340095Y-108576952D01*
X53911523Y-109148380D01*
X53292476Y-109148380D01*
X37861523Y-109100761D02*
X37718666Y-109148380D01*
X37480571Y-109148380D01*
X37385333Y-109100761D01*
X37337714Y-109053142D01*
X37290095Y-108957904D01*
X37290095Y-108862666D01*
X37337714Y-108767428D01*
X37385333Y-108719809D01*
X37480571Y-108672190D01*
X37671047Y-108624571D01*
X37766285Y-108576952D01*
X37813904Y-108529333D01*
X37861523Y-108434095D01*
X37861523Y-108338857D01*
X37813904Y-108243619D01*
X37766285Y-108196000D01*
X37671047Y-108148380D01*
X37432952Y-108148380D01*
X37290095Y-108196000D01*
X36956761Y-108148380D02*
X36718666Y-109148380D01*
X36528190Y-108434095D01*
X36337714Y-109148380D01*
X36099619Y-108148380D01*
X35194857Y-109148380D02*
X35766285Y-109148380D01*
X35480571Y-109148380D02*
X35480571Y-108148380D01*
X35575809Y-108291238D01*
X35671047Y-108386476D01*
X35766285Y-108434095D01*
X34242476Y-109148380D02*
X34813904Y-109148380D01*
X34528190Y-109148380D02*
X34528190Y-108148380D01*
X34623428Y-108291238D01*
X34718666Y-108386476D01*
X34813904Y-108434095D01*
X95011523Y-109100761D02*
X94868666Y-109148380D01*
X94630571Y-109148380D01*
X94535333Y-109100761D01*
X94487714Y-109053142D01*
X94440095Y-108957904D01*
X94440095Y-108862666D01*
X94487714Y-108767428D01*
X94535333Y-108719809D01*
X94630571Y-108672190D01*
X94821047Y-108624571D01*
X94916285Y-108576952D01*
X94963904Y-108529333D01*
X95011523Y-108434095D01*
X95011523Y-108338857D01*
X94963904Y-108243619D01*
X94916285Y-108196000D01*
X94821047Y-108148380D01*
X94582952Y-108148380D01*
X94440095Y-108196000D01*
X94106761Y-108148380D02*
X93868666Y-109148380D01*
X93678190Y-108434095D01*
X93487714Y-109148380D01*
X93249619Y-108148380D01*
X92344857Y-109148380D02*
X92916285Y-109148380D01*
X92630571Y-109148380D02*
X92630571Y-108148380D01*
X92725809Y-108291238D01*
X92821047Y-108386476D01*
X92916285Y-108434095D01*
X91487714Y-108481714D02*
X91487714Y-109148380D01*
X91725809Y-108100761D02*
X91963904Y-108815047D01*
X91344857Y-108815047D01*
X75961523Y-109100761D02*
X75818666Y-109148380D01*
X75580571Y-109148380D01*
X75485333Y-109100761D01*
X75437714Y-109053142D01*
X75390095Y-108957904D01*
X75390095Y-108862666D01*
X75437714Y-108767428D01*
X75485333Y-108719809D01*
X75580571Y-108672190D01*
X75771047Y-108624571D01*
X75866285Y-108576952D01*
X75913904Y-108529333D01*
X75961523Y-108434095D01*
X75961523Y-108338857D01*
X75913904Y-108243619D01*
X75866285Y-108196000D01*
X75771047Y-108148380D01*
X75532952Y-108148380D01*
X75390095Y-108196000D01*
X75056761Y-108148380D02*
X74818666Y-109148380D01*
X74628190Y-108434095D01*
X74437714Y-109148380D01*
X74199619Y-108148380D01*
X73294857Y-109148380D02*
X73866285Y-109148380D01*
X73580571Y-109148380D02*
X73580571Y-108148380D01*
X73675809Y-108291238D01*
X73771047Y-108386476D01*
X73866285Y-108434095D01*
X72961523Y-108148380D02*
X72342476Y-108148380D01*
X72675809Y-108529333D01*
X72532952Y-108529333D01*
X72437714Y-108576952D01*
X72390095Y-108624571D01*
X72342476Y-108719809D01*
X72342476Y-108957904D01*
X72390095Y-109053142D01*
X72437714Y-109100761D01*
X72532952Y-109148380D01*
X72818666Y-109148380D01*
X72913904Y-109100761D01*
X72961523Y-109053142D01*
D11*
X56946666Y-29168952D02*
X57080000Y-28978476D01*
X57175238Y-29168952D02*
X57175238Y-28768952D01*
X57022857Y-28768952D01*
X56984761Y-28788000D01*
X56965714Y-28807047D01*
X56946666Y-28845142D01*
X56946666Y-28902285D01*
X56965714Y-28940380D01*
X56984761Y-28959428D01*
X57022857Y-28978476D01*
X57175238Y-28978476D01*
X56565714Y-29168952D02*
X56794285Y-29168952D01*
X56680000Y-29168952D02*
X56680000Y-28768952D01*
X56718095Y-28826095D01*
X56756190Y-28864190D01*
X56794285Y-28883238D01*
X60502666Y-38274857D02*
X60521714Y-38293904D01*
X60578857Y-38312952D01*
X60616952Y-38312952D01*
X60674095Y-38293904D01*
X60712190Y-38255809D01*
X60731238Y-38217714D01*
X60750285Y-38141523D01*
X60750285Y-38084380D01*
X60731238Y-38008190D01*
X60712190Y-37970095D01*
X60674095Y-37932000D01*
X60616952Y-37912952D01*
X60578857Y-37912952D01*
X60521714Y-37932000D01*
X60502666Y-37951047D01*
X60159809Y-38046285D02*
X60159809Y-38312952D01*
X60255047Y-37893904D02*
X60350285Y-38179619D01*
X60102666Y-38179619D01*
X47863554Y-32178857D02*
X47882602Y-32197904D01*
X47939745Y-32216952D01*
X47977840Y-32216952D01*
X48034983Y-32197904D01*
X48073078Y-32159809D01*
X48092126Y-32121714D01*
X48111173Y-32045523D01*
X48111173Y-31988380D01*
X48092126Y-31912190D01*
X48073078Y-31874095D01*
X48034983Y-31836000D01*
X47977840Y-31816952D01*
X47939745Y-31816952D01*
X47882602Y-31836000D01*
X47863554Y-31855047D01*
X47520697Y-31816952D02*
X47596888Y-31816952D01*
X47634983Y-31836000D01*
X47654030Y-31855047D01*
X47692126Y-31912190D01*
X47711173Y-31988380D01*
X47711173Y-32140761D01*
X47692126Y-32178857D01*
X47673078Y-32197904D01*
X47634983Y-32216952D01*
X47558792Y-32216952D01*
X47520697Y-32197904D01*
X47501649Y-32178857D01*
X47482602Y-32140761D01*
X47482602Y-32045523D01*
X47501649Y-32007428D01*
X47520697Y-31988380D01*
X47558792Y-31969333D01*
X47634983Y-31969333D01*
X47673078Y-31988380D01*
X47692126Y-32007428D01*
X47711173Y-32045523D01*
X53136666Y-33232952D02*
X53270000Y-33042476D01*
X53365238Y-33232952D02*
X53365238Y-32832952D01*
X53212857Y-32832952D01*
X53174761Y-32852000D01*
X53155714Y-32871047D01*
X53136666Y-32909142D01*
X53136666Y-32966285D01*
X53155714Y-33004380D01*
X53174761Y-33023428D01*
X53212857Y-33042476D01*
X53365238Y-33042476D01*
X52793809Y-32966285D02*
X52793809Y-33232952D01*
X52889047Y-32813904D02*
X52984285Y-33099619D01*
X52736666Y-33099619D01*
X59119666Y-34375952D02*
X59253000Y-34185476D01*
X59348238Y-34375952D02*
X59348238Y-33975952D01*
X59195857Y-33975952D01*
X59157761Y-33995000D01*
X59138714Y-34014047D01*
X59119666Y-34052142D01*
X59119666Y-34109285D01*
X59138714Y-34147380D01*
X59157761Y-34166428D01*
X59195857Y-34185476D01*
X59348238Y-34185476D01*
X58986333Y-33975952D02*
X58738714Y-33975952D01*
X58872047Y-34128333D01*
X58814904Y-34128333D01*
X58776809Y-34147380D01*
X58757761Y-34166428D01*
X58738714Y-34204523D01*
X58738714Y-34299761D01*
X58757761Y-34337857D01*
X58776809Y-34356904D01*
X58814904Y-34375952D01*
X58929190Y-34375952D01*
X58967285Y-34356904D01*
X58986333Y-34337857D01*
X27101666Y-33740952D02*
X27235000Y-33550476D01*
X27330238Y-33740952D02*
X27330238Y-33340952D01*
X27177857Y-33340952D01*
X27139761Y-33360000D01*
X27120714Y-33379047D01*
X27101666Y-33417142D01*
X27101666Y-33474285D01*
X27120714Y-33512380D01*
X27139761Y-33531428D01*
X27177857Y-33550476D01*
X27330238Y-33550476D01*
X26739761Y-33340952D02*
X26930238Y-33340952D01*
X26949285Y-33531428D01*
X26930238Y-33512380D01*
X26892142Y-33493333D01*
X26796904Y-33493333D01*
X26758809Y-33512380D01*
X26739761Y-33531428D01*
X26720714Y-33569523D01*
X26720714Y-33664761D01*
X26739761Y-33702857D01*
X26758809Y-33721904D01*
X26796904Y-33740952D01*
X26892142Y-33740952D01*
X26930238Y-33721904D01*
X26949285Y-33702857D01*
X28981238Y-28914952D02*
X28981238Y-28514952D01*
X28886000Y-28514952D01*
X28828857Y-28534000D01*
X28790761Y-28572095D01*
X28771714Y-28610190D01*
X28752666Y-28686380D01*
X28752666Y-28743523D01*
X28771714Y-28819714D01*
X28790761Y-28857809D01*
X28828857Y-28895904D01*
X28886000Y-28914952D01*
X28981238Y-28914952D01*
X28371714Y-28914952D02*
X28600285Y-28914952D01*
X28486000Y-28914952D02*
X28486000Y-28514952D01*
X28524095Y-28572095D01*
X28562190Y-28610190D01*
X28600285Y-28629238D01*
X27101666Y-41360952D02*
X27235000Y-41170476D01*
X27330238Y-41360952D02*
X27330238Y-40960952D01*
X27177857Y-40960952D01*
X27139761Y-40980000D01*
X27120714Y-40999047D01*
X27101666Y-41037142D01*
X27101666Y-41094285D01*
X27120714Y-41132380D01*
X27139761Y-41151428D01*
X27177857Y-41170476D01*
X27330238Y-41170476D01*
X26968333Y-40960952D02*
X26701666Y-40960952D01*
X26873095Y-41360952D01*
X56946666Y-31200952D02*
X57080000Y-31010476D01*
X57175238Y-31200952D02*
X57175238Y-30800952D01*
X57022857Y-30800952D01*
X56984761Y-30820000D01*
X56965714Y-30839047D01*
X56946666Y-30877142D01*
X56946666Y-30934285D01*
X56965714Y-30972380D01*
X56984761Y-30991428D01*
X57022857Y-31010476D01*
X57175238Y-31010476D01*
X56794285Y-30839047D02*
X56775238Y-30820000D01*
X56737142Y-30800952D01*
X56641904Y-30800952D01*
X56603809Y-30820000D01*
X56584761Y-30839047D01*
X56565714Y-30877142D01*
X56565714Y-30915238D01*
X56584761Y-30972380D01*
X56813333Y-31200952D01*
X56565714Y-31200952D01*
X35549779Y-29130857D02*
X35568827Y-29149904D01*
X35625970Y-29168952D01*
X35664065Y-29168952D01*
X35721208Y-29149904D01*
X35759303Y-29111809D01*
X35778351Y-29073714D01*
X35797398Y-28997523D01*
X35797398Y-28940380D01*
X35778351Y-28864190D01*
X35759303Y-28826095D01*
X35721208Y-28788000D01*
X35664065Y-28768952D01*
X35625970Y-28768952D01*
X35568827Y-28788000D01*
X35549779Y-28807047D01*
X35187874Y-28768952D02*
X35378351Y-28768952D01*
X35397398Y-28959428D01*
X35378351Y-28940380D01*
X35340255Y-28921333D01*
X35245017Y-28921333D01*
X35206922Y-28940380D01*
X35187874Y-28959428D01*
X35168827Y-28997523D01*
X35168827Y-29092761D01*
X35187874Y-29130857D01*
X35206922Y-29149904D01*
X35245017Y-29168952D01*
X35340255Y-29168952D01*
X35378351Y-29149904D01*
X35397398Y-29130857D01*
X41678095Y-45971047D02*
X41716190Y-45952000D01*
X41754285Y-45913904D01*
X41811428Y-45856761D01*
X41849523Y-45837714D01*
X41887619Y-45837714D01*
X41868571Y-45932952D02*
X41906666Y-45913904D01*
X41944761Y-45875809D01*
X41963809Y-45799619D01*
X41963809Y-45666285D01*
X41944761Y-45590095D01*
X41906666Y-45552000D01*
X41868571Y-45532952D01*
X41792380Y-45532952D01*
X41754285Y-45552000D01*
X41716190Y-45590095D01*
X41697142Y-45666285D01*
X41697142Y-45799619D01*
X41716190Y-45875809D01*
X41754285Y-45913904D01*
X41792380Y-45932952D01*
X41868571Y-45932952D01*
X41316190Y-45932952D02*
X41544761Y-45932952D01*
X41430476Y-45932952D02*
X41430476Y-45532952D01*
X41468571Y-45590095D01*
X41506666Y-45628190D01*
X41544761Y-45647238D01*
X41706666Y-28660952D02*
X41840000Y-28470476D01*
X41935238Y-28660952D02*
X41935238Y-28260952D01*
X41782857Y-28260952D01*
X41744761Y-28280000D01*
X41725714Y-28299047D01*
X41706666Y-28337142D01*
X41706666Y-28394285D01*
X41725714Y-28432380D01*
X41744761Y-28451428D01*
X41782857Y-28470476D01*
X41935238Y-28470476D01*
X41363809Y-28260952D02*
X41440000Y-28260952D01*
X41478095Y-28280000D01*
X41497142Y-28299047D01*
X41535238Y-28356190D01*
X41554285Y-28432380D01*
X41554285Y-28584761D01*
X41535238Y-28622857D01*
X41516190Y-28641904D01*
X41478095Y-28660952D01*
X41401904Y-28660952D01*
X41363809Y-28641904D01*
X41344761Y-28622857D01*
X41325714Y-28584761D01*
X41325714Y-28489523D01*
X41344761Y-28451428D01*
X41363809Y-28432380D01*
X41401904Y-28413333D01*
X41478095Y-28413333D01*
X41516190Y-28432380D01*
X41535238Y-28451428D01*
X41554285Y-28489523D01*
X67335238Y-28660952D02*
X67335238Y-28260952D01*
X67240000Y-28260952D01*
X67182857Y-28280000D01*
X67144761Y-28318095D01*
X67125714Y-28356190D01*
X67106666Y-28432380D01*
X67106666Y-28489523D01*
X67125714Y-28565714D01*
X67144761Y-28603809D01*
X67182857Y-28641904D01*
X67240000Y-28660952D01*
X67335238Y-28660952D01*
X66954285Y-28299047D02*
X66935238Y-28280000D01*
X66897142Y-28260952D01*
X66801904Y-28260952D01*
X66763809Y-28280000D01*
X66744761Y-28299047D01*
X66725714Y-28337142D01*
X66725714Y-28375238D01*
X66744761Y-28432380D01*
X66973333Y-28660952D01*
X66725714Y-28660952D01*
X41944761Y-32832952D02*
X41944761Y-33156761D01*
X41925714Y-33194857D01*
X41906666Y-33213904D01*
X41868571Y-33232952D01*
X41792380Y-33232952D01*
X41754285Y-33213904D01*
X41735238Y-33194857D01*
X41716190Y-33156761D01*
X41716190Y-32832952D01*
X41316190Y-33232952D02*
X41544761Y-33232952D01*
X41430476Y-33232952D02*
X41430476Y-32832952D01*
X41468571Y-32890095D01*
X41506666Y-32928190D01*
X41544761Y-32947238D01*
X41706666Y-41322857D02*
X41725714Y-41341904D01*
X41782857Y-41360952D01*
X41820952Y-41360952D01*
X41878095Y-41341904D01*
X41916190Y-41303809D01*
X41935238Y-41265714D01*
X41954285Y-41189523D01*
X41954285Y-41132380D01*
X41935238Y-41056190D01*
X41916190Y-41018095D01*
X41878095Y-40980000D01*
X41820952Y-40960952D01*
X41782857Y-40960952D01*
X41725714Y-40980000D01*
X41706666Y-40999047D01*
X41573333Y-40960952D02*
X41325714Y-40960952D01*
X41459047Y-41113333D01*
X41401904Y-41113333D01*
X41363809Y-41132380D01*
X41344761Y-41151428D01*
X41325714Y-41189523D01*
X41325714Y-41284761D01*
X41344761Y-41322857D01*
X41363809Y-41341904D01*
X41401904Y-41360952D01*
X41516190Y-41360952D01*
X41554285Y-41341904D01*
X41573333Y-41322857D01*
X99110666Y-42338857D02*
X99129714Y-42357904D01*
X99186857Y-42376952D01*
X99224952Y-42376952D01*
X99282095Y-42357904D01*
X99320190Y-42319809D01*
X99339238Y-42281714D01*
X99358285Y-42205523D01*
X99358285Y-42148380D01*
X99339238Y-42072190D01*
X99320190Y-42034095D01*
X99282095Y-41996000D01*
X99224952Y-41976952D01*
X99186857Y-41976952D01*
X99129714Y-41996000D01*
X99110666Y-42015047D01*
X98958285Y-42015047D02*
X98939238Y-41996000D01*
X98901142Y-41976952D01*
X98805904Y-41976952D01*
X98767809Y-41996000D01*
X98748761Y-42015047D01*
X98729714Y-42053142D01*
X98729714Y-42091238D01*
X98748761Y-42148380D01*
X98977333Y-42376952D01*
X98729714Y-42376952D01*
D12*
X61675761Y-44802523D02*
X61675761Y-43532523D01*
X60345285Y-44681571D02*
X60405761Y-44742047D01*
X60587190Y-44802523D01*
X60708142Y-44802523D01*
X60889571Y-44742047D01*
X61010523Y-44621095D01*
X61071000Y-44500142D01*
X61131476Y-44258238D01*
X61131476Y-44076809D01*
X61071000Y-43834904D01*
X61010523Y-43713952D01*
X60889571Y-43593000D01*
X60708142Y-43532523D01*
X60587190Y-43532523D01*
X60405761Y-43593000D01*
X60345285Y-43653476D01*
X59135761Y-44802523D02*
X59861476Y-44802523D01*
X59498619Y-44802523D02*
X59498619Y-43532523D01*
X59619571Y-43713952D01*
X59740523Y-43834904D01*
X59861476Y-43895380D01*
D10*
X93662333Y-43680380D02*
X93662333Y-44394666D01*
X93709952Y-44537523D01*
X93805190Y-44632761D01*
X93948047Y-44680380D01*
X94043285Y-44680380D01*
X92662333Y-44680380D02*
X93233761Y-44680380D01*
X92948047Y-44680380D02*
X92948047Y-43680380D01*
X93043285Y-43823238D01*
X93138523Y-43918476D01*
X93233761Y-43966095D01*
D11*
X27101666Y-38274857D02*
X27120714Y-38293904D01*
X27177857Y-38312952D01*
X27215952Y-38312952D01*
X27273095Y-38293904D01*
X27311190Y-38255809D01*
X27330238Y-38217714D01*
X27349285Y-38141523D01*
X27349285Y-38084380D01*
X27330238Y-38008190D01*
X27311190Y-37970095D01*
X27273095Y-37932000D01*
X27215952Y-37912952D01*
X27177857Y-37912952D01*
X27120714Y-37932000D01*
X27101666Y-37951047D01*
X26720714Y-38312952D02*
X26949285Y-38312952D01*
X26835000Y-38312952D02*
X26835000Y-37912952D01*
X26873095Y-37970095D01*
X26911190Y-38008190D01*
X26949285Y-38027238D01*
D10*
X32242000Y-57515000D02*
G75*
G03*
X29702000Y-60055000I1J-2540001D01*
G01*
X36052000Y-61959999D02*
G75*
G03*
X33587838Y-63883960I0J-2540000D01*
G01*
X30083000Y-63865000D02*
X29702000Y-63865000D01*
X29702000Y-60055000D02*
X29702000Y-60436000D01*
X41132000Y-57515000D02*
X41132000Y-57896000D01*
X41132000Y-60944000D02*
X41132000Y-61960000D01*
X41132000Y-61960000D02*
X36052000Y-61960000D01*
X33587838Y-63865000D02*
X31861000Y-63865000D01*
X29702000Y-63484000D02*
X29702000Y-63865000D01*
X32242000Y-57515000D02*
X41132000Y-57515000D01*
X93202000Y-81009999D02*
G75*
G03*
X90737838Y-82933960I0J-2540000D01*
G01*
X89392000Y-76565000D02*
G75*
G03*
X86852000Y-79105000I1J-2540001D01*
G01*
X86852000Y-79105000D02*
X86852000Y-79486000D01*
X87233000Y-82915000D02*
X86852000Y-82915000D01*
X98282000Y-79994000D02*
X98282000Y-81010000D01*
X98282000Y-76565000D02*
X98282000Y-76946000D01*
X86852000Y-82534000D02*
X86852000Y-82915000D01*
X98282000Y-81010000D02*
X93202000Y-81010000D01*
X90737838Y-82915000D02*
X89011000Y-82915000D01*
X89392000Y-76565000D02*
X98282000Y-76565000D01*
X55102000Y-61959999D02*
G75*
G03*
X52637838Y-63883960I0J-2540000D01*
G01*
X51292000Y-57515000D02*
G75*
G03*
X48752000Y-60055000I1J-2540001D01*
G01*
X48752000Y-63484000D02*
X48752000Y-63865000D01*
X60182000Y-60944000D02*
X60182000Y-61960000D01*
X49133000Y-63865000D02*
X48752000Y-63865000D01*
X52637838Y-63865000D02*
X50911000Y-63865000D01*
X51292000Y-57515000D02*
X60182000Y-57515000D01*
X60182000Y-61960000D02*
X55102000Y-61960000D01*
X48752000Y-60055000D02*
X48752000Y-60436000D01*
X60182000Y-57515000D02*
X60182000Y-57896000D01*
X51292000Y-76565000D02*
G75*
G03*
X48752000Y-79105000I1J-2540001D01*
G01*
X55102000Y-81009999D02*
G75*
G03*
X52637838Y-82933960I0J-2540000D01*
G01*
X51292000Y-76565000D02*
X60182000Y-76565000D01*
X60182000Y-79994000D02*
X60182000Y-81010000D01*
X48752000Y-79105000D02*
X48752000Y-79486000D01*
X52637838Y-82915000D02*
X50911000Y-82915000D01*
X48752000Y-82534000D02*
X48752000Y-82915000D01*
X49133000Y-82915000D02*
X48752000Y-82915000D01*
X60182000Y-81010000D02*
X55102000Y-81010000D01*
X60182000Y-76565000D02*
X60182000Y-76946000D01*
X89392000Y-57515000D02*
G75*
G03*
X86852000Y-60055000I1J-2540001D01*
G01*
X93202000Y-61959999D02*
G75*
G03*
X90737838Y-63883960I0J-2540000D01*
G01*
X98282000Y-57515000D02*
X98282000Y-57896000D01*
X87233000Y-63865000D02*
X86852000Y-63865000D01*
X86852000Y-63484000D02*
X86852000Y-63865000D01*
X89392000Y-57515000D02*
X98282000Y-57515000D01*
X86852000Y-60055000D02*
X86852000Y-60436000D01*
X98282000Y-61960000D02*
X93202000Y-61960000D01*
X90737838Y-63865000D02*
X89011000Y-63865000D01*
X98282000Y-60944000D02*
X98282000Y-61960000D01*
X70342000Y-76565000D02*
G75*
G03*
X67802000Y-79105000I1J-2540001D01*
G01*
X74152000Y-81009999D02*
G75*
G03*
X71687838Y-82933960I0J-2540000D01*
G01*
X67802000Y-79105000D02*
X67802000Y-79486000D01*
X70342000Y-76565000D02*
X79232000Y-76565000D01*
X67802000Y-82534000D02*
X67802000Y-82915000D01*
X71687838Y-82915000D02*
X69961000Y-82915000D01*
X68183000Y-82915000D02*
X67802000Y-82915000D01*
X79232000Y-79994000D02*
X79232000Y-81010000D01*
X79232000Y-81010000D02*
X74152000Y-81010000D01*
X79232000Y-76565000D02*
X79232000Y-76946000D01*
X74152000Y-61959999D02*
G75*
G03*
X71687838Y-63883960I0J-2540000D01*
G01*
X70342000Y-57515000D02*
G75*
G03*
X67802000Y-60055000I1J-2540001D01*
G01*
X79232000Y-61960000D02*
X74152000Y-61960000D01*
X71687838Y-63865000D02*
X69961000Y-63865000D01*
X67802000Y-60055000D02*
X67802000Y-60436000D01*
X79232000Y-57515000D02*
X79232000Y-57896000D01*
X68183000Y-63865000D02*
X67802000Y-63865000D01*
X67802000Y-63484000D02*
X67802000Y-63865000D01*
X70342000Y-57515000D02*
X79232000Y-57515000D01*
X79232000Y-60944000D02*
X79232000Y-61960000D01*
X32242000Y-76565000D02*
G75*
G03*
X29702000Y-79105000I1J-2540001D01*
G01*
X36052000Y-81009999D02*
G75*
G03*
X33587838Y-82933960I0J-2540000D01*
G01*
X29702000Y-79105000D02*
X29702000Y-79486000D01*
X41132000Y-81010000D02*
X36052000Y-81010000D01*
X30083000Y-82915000D02*
X29702000Y-82915000D01*
X33587838Y-82915000D02*
X31861000Y-82915000D01*
X41132000Y-76565000D02*
X41132000Y-76946000D01*
X41132000Y-79994000D02*
X41132000Y-81010000D01*
X29702000Y-82534000D02*
X29702000Y-82915000D01*
X32242000Y-76565000D02*
X41132000Y-76565000D01*
X55102000Y-100059999D02*
G75*
G03*
X52637838Y-101983960I0J-2540000D01*
G01*
X51292000Y-95615000D02*
G75*
G03*
X48752000Y-98155000I1J-2540001D01*
G01*
X48752000Y-98155000D02*
X48752000Y-98536000D01*
X60182000Y-99044000D02*
X60182000Y-100060000D01*
X49133000Y-101965000D02*
X48752000Y-101965000D01*
X51292000Y-95615000D02*
X60182000Y-95615000D01*
X60182000Y-95615000D02*
X60182000Y-95996000D01*
X52637838Y-101965000D02*
X50911000Y-101965000D01*
X48752000Y-101584000D02*
X48752000Y-101965000D01*
X60182000Y-100060000D02*
X55102000Y-100060000D01*
X36052000Y-100059999D02*
G75*
G03*
X33587838Y-101983960I0J-2540000D01*
G01*
X32242000Y-95615000D02*
G75*
G03*
X29702000Y-98155000I1J-2540001D01*
G01*
X41132000Y-99044000D02*
X41132000Y-100060000D01*
X41132000Y-100060000D02*
X36052000Y-100060000D01*
X30083000Y-101965000D02*
X29702000Y-101965000D01*
X32242000Y-95615000D02*
X41132000Y-95615000D01*
X33587838Y-101965000D02*
X31861000Y-101965000D01*
X29702000Y-98155000D02*
X29702000Y-98536000D01*
X29702000Y-101584000D02*
X29702000Y-101965000D01*
X41132000Y-95615000D02*
X41132000Y-95996000D01*
X93202000Y-100059999D02*
G75*
G03*
X90737838Y-101983960I0J-2540000D01*
G01*
X89392000Y-95615000D02*
G75*
G03*
X86852000Y-98155000I1J-2540001D01*
G01*
X87233000Y-101965000D02*
X86852000Y-101965000D01*
X86852000Y-98155000D02*
X86852000Y-98536000D01*
X98282000Y-95615000D02*
X98282000Y-95996000D01*
X86852000Y-101584000D02*
X86852000Y-101965000D01*
X98282000Y-99044000D02*
X98282000Y-100060000D01*
X90737838Y-101965000D02*
X89011000Y-101965000D01*
X89392000Y-95615000D02*
X98282000Y-95615000D01*
X98282000Y-100060000D02*
X93202000Y-100060000D01*
X74152000Y-100059999D02*
G75*
G03*
X71687838Y-101983960I0J-2540000D01*
G01*
X70342000Y-95615000D02*
G75*
G03*
X67802000Y-98155000I1J-2540001D01*
G01*
X70342000Y-95615000D02*
X79232000Y-95615000D01*
X79232000Y-100060000D02*
X74152000Y-100060000D01*
X67802000Y-101584000D02*
X67802000Y-101965000D01*
X67802000Y-98155000D02*
X67802000Y-98536000D01*
X79232000Y-95615000D02*
X79232000Y-95996000D01*
X71687838Y-101965000D02*
X69961000Y-101965000D01*
X68183000Y-101965000D02*
X67802000Y-101965000D01*
X79232000Y-99044000D02*
X79232000Y-100060000D01*
D13*
X58881733Y-29498000D02*
X59224267Y-29498000D01*
X58881733Y-28478000D02*
X59224267Y-28478000D01*
X60289733Y-38638000D02*
X60582267Y-38638000D01*
X60289733Y-39658000D02*
X60582267Y-39658000D01*
X51416888Y-30512000D02*
G75*
G03*
X51416888Y-30512000I-2620000J0D01*
G01*
X50317888Y-29472000D02*
X50317888Y-28417000D01*
X50517888Y-32449000D02*
X50517888Y-31552000D01*
X49476888Y-33003000D02*
X49476888Y-31552000D01*
X48996888Y-29472000D02*
X48996888Y-27939000D01*
X50677888Y-29472000D02*
X50677888Y-28727000D01*
X48876888Y-33091000D02*
X48876888Y-31552000D01*
X49837888Y-29472000D02*
X49837888Y-28147000D01*
X50277888Y-32634000D02*
X50277888Y-31552000D01*
X50077888Y-32759000D02*
X50077888Y-31552000D01*
X50997888Y-31895000D02*
X50997888Y-29129000D01*
X50397888Y-32547000D02*
X50397888Y-31552000D01*
X50117888Y-32736000D02*
X50117888Y-31552000D01*
X50877888Y-32066000D02*
X50877888Y-28958000D01*
X49436888Y-33013000D02*
X49436888Y-31552000D01*
X51237888Y-31427000D02*
X51237888Y-29597000D01*
X50917888Y-32012000D02*
X50917888Y-29012000D01*
X50597888Y-29472000D02*
X50597888Y-28648000D01*
X49116888Y-29472000D02*
X49116888Y-27951000D01*
X50237888Y-32661000D02*
X50237888Y-31552000D01*
X50157888Y-32712000D02*
X50157888Y-31552000D01*
X48836888Y-29472000D02*
X48836888Y-27932000D01*
X49677888Y-32940000D02*
X49677888Y-31552000D01*
X48916888Y-29472000D02*
X48916888Y-27934000D01*
X49797888Y-29472000D02*
X49797888Y-28130000D01*
X49637888Y-29472000D02*
X49637888Y-28070000D01*
X50277888Y-29472000D02*
X50277888Y-28390000D01*
X50837888Y-32117000D02*
X50837888Y-28907000D01*
X50717888Y-32255000D02*
X50717888Y-31552000D01*
X51117888Y-31690000D02*
X51117888Y-29334000D01*
X49597888Y-32967000D02*
X49597888Y-31552000D01*
X49076888Y-33077000D02*
X49076888Y-31552000D01*
X49757888Y-29472000D02*
X49757888Y-28114000D01*
X50117888Y-29472000D02*
X50117888Y-28288000D01*
X50197888Y-32687000D02*
X50197888Y-31552000D01*
X49557888Y-29472000D02*
X49557888Y-28044000D01*
X51037888Y-31831000D02*
X51037888Y-29193000D01*
X49837888Y-32877000D02*
X49837888Y-31552000D01*
X49276888Y-33048000D02*
X49276888Y-31552000D01*
X50037888Y-32780000D02*
X50037888Y-31552000D01*
X50317888Y-32607000D02*
X50317888Y-31552000D01*
X49917888Y-29472000D02*
X49917888Y-28183000D01*
X48956888Y-29472000D02*
X48956888Y-27936000D01*
X48796888Y-33092000D02*
X48796888Y-31552000D01*
X49316888Y-33040000D02*
X49316888Y-31552000D01*
X51277888Y-31317000D02*
X51277888Y-29707000D01*
X50477888Y-29472000D02*
X50477888Y-28541000D01*
X50677888Y-32297000D02*
X50677888Y-31552000D01*
X49356888Y-33032000D02*
X49356888Y-31552000D01*
X49276888Y-29472000D02*
X49276888Y-27976000D01*
X49076888Y-29472000D02*
X49076888Y-27947000D01*
X49757888Y-32910000D02*
X49757888Y-31552000D01*
X49677888Y-29472000D02*
X49677888Y-28084000D01*
X49997888Y-29472000D02*
X49997888Y-28222000D01*
X49196888Y-33062000D02*
X49196888Y-31552000D01*
X49436888Y-29472000D02*
X49436888Y-28011000D01*
X50157888Y-29472000D02*
X50157888Y-28312000D01*
X50757888Y-29472000D02*
X50757888Y-28813000D01*
X50957888Y-31955000D02*
X50957888Y-29069000D01*
X50637888Y-29472000D02*
X50637888Y-28686000D01*
X49196888Y-29472000D02*
X49196888Y-27962000D01*
X49797888Y-32894000D02*
X49797888Y-31552000D01*
X50077888Y-29472000D02*
X50077888Y-28265000D01*
X51397888Y-30796000D02*
X51397888Y-30228000D01*
X50357888Y-32577000D02*
X50357888Y-31552000D01*
X49597888Y-29472000D02*
X49597888Y-28057000D01*
X51197888Y-31523000D02*
X51197888Y-29501000D01*
X49476888Y-29472000D02*
X49476888Y-28021000D01*
X49396888Y-29472000D02*
X49396888Y-28001000D01*
X49236888Y-33055000D02*
X49236888Y-31552000D01*
X50637888Y-32338000D02*
X50637888Y-31552000D01*
X49396888Y-33023000D02*
X49396888Y-31552000D01*
X49517888Y-32992000D02*
X49517888Y-31552000D01*
X49997888Y-32802000D02*
X49997888Y-31552000D01*
X50717888Y-29472000D02*
X50717888Y-28769000D01*
X48876888Y-29472000D02*
X48876888Y-27933000D01*
X50237888Y-29472000D02*
X50237888Y-28363000D01*
X50437888Y-29472000D02*
X50437888Y-28508000D01*
X51077888Y-31763000D02*
X51077888Y-29261000D01*
X49877888Y-32860000D02*
X49877888Y-31552000D01*
X48836888Y-33092000D02*
X48836888Y-31552000D01*
X49637888Y-32954000D02*
X49637888Y-31552000D01*
X48916888Y-33090000D02*
X48916888Y-31552000D01*
X50477888Y-32483000D02*
X50477888Y-31552000D01*
X49036888Y-29472000D02*
X49036888Y-27943000D01*
X51357888Y-31030000D02*
X51357888Y-29994000D01*
X50557888Y-29472000D02*
X50557888Y-28611000D01*
X49036888Y-33081000D02*
X49036888Y-31552000D01*
X50437888Y-32516000D02*
X50437888Y-31552000D01*
X46242113Y-32237000D02*
X46242113Y-31737000D01*
X49316888Y-29472000D02*
X49316888Y-27984000D01*
X49356888Y-29472000D02*
X49356888Y-27992000D01*
X50037888Y-29472000D02*
X50037888Y-28244000D01*
X50357888Y-29472000D02*
X50357888Y-28447000D01*
X49957888Y-29472000D02*
X49957888Y-28202000D01*
X50597888Y-32376000D02*
X50597888Y-31552000D01*
X49957888Y-32822000D02*
X49957888Y-31552000D01*
X50557888Y-32413000D02*
X50557888Y-31552000D01*
X50757888Y-32211000D02*
X50757888Y-31552000D01*
X50797888Y-29472000D02*
X50797888Y-28859000D01*
X48956888Y-33088000D02*
X48956888Y-31552000D01*
X48796888Y-29472000D02*
X48796888Y-27932000D01*
X49156888Y-29472000D02*
X49156888Y-27956000D01*
X50197888Y-29472000D02*
X50197888Y-28337000D01*
X51317888Y-31189000D02*
X51317888Y-29835000D01*
X50397888Y-29472000D02*
X50397888Y-28477000D01*
X49717888Y-32926000D02*
X49717888Y-31552000D01*
X49236888Y-29472000D02*
X49236888Y-27969000D01*
X45992113Y-31987000D02*
X46492113Y-31987000D01*
X49517888Y-29472000D02*
X49517888Y-28032000D01*
X49717888Y-29472000D02*
X49717888Y-28098000D01*
X51157888Y-31610000D02*
X51157888Y-29414000D01*
X50797888Y-32165000D02*
X50797888Y-31552000D01*
X49116888Y-33073000D02*
X49116888Y-31552000D01*
X49156888Y-33068000D02*
X49156888Y-31552000D01*
X50517888Y-29472000D02*
X50517888Y-28575000D01*
X49877888Y-29472000D02*
X49877888Y-28164000D01*
X49557888Y-32980000D02*
X49557888Y-31552000D01*
X48996888Y-33085000D02*
X48996888Y-31552000D01*
X49917888Y-32841000D02*
X49917888Y-31552000D01*
X55071733Y-32542000D02*
X55414267Y-32542000D01*
X55071733Y-33562000D02*
X55414267Y-33562000D01*
X58881733Y-32542000D02*
X59224267Y-32542000D01*
X58881733Y-33562000D02*
X59224267Y-33562000D01*
X27220267Y-34066000D02*
X26877733Y-34066000D01*
X27220267Y-35086000D02*
X26877733Y-35086000D01*
X24981665Y-31590608D02*
G75*
G03*
X28214000Y-31747516I1672335J1078608D01*
G01*
X27694961Y-29432000D02*
G75*
G03*
X25612870Y-29432163I-1040961J-1080000D01*
G01*
X28214000Y-29276484D02*
G75*
G03*
X24981665Y-29433392I-1560000J-1235516D01*
G01*
X25612870Y-31591837D02*
G75*
G03*
X27694961Y-31592000I1041130J1079837D01*
G01*
X28214000Y-31592000D02*
X28214000Y-31748000D01*
X28214000Y-29276000D02*
X28214000Y-29432000D01*
X26877733Y-42706000D02*
X27220267Y-42706000D01*
X26877733Y-41686000D02*
X27220267Y-41686000D01*
X58881733Y-31530000D02*
X59224267Y-31530000D01*
X58881733Y-30510000D02*
X59224267Y-30510000D01*
X37103113Y-30512000D02*
G75*
G03*
X37103113Y-30512000I-2620000J0D01*
G01*
X34043113Y-31552000D02*
X34043113Y-33055000D01*
X32322113Y-29069000D02*
X32322113Y-31955000D01*
X33202113Y-28265000D02*
X33202113Y-29472000D01*
X32962113Y-28417000D02*
X32962113Y-29472000D01*
X32002113Y-29707000D02*
X32002113Y-31317000D01*
X34283113Y-27939000D02*
X34283113Y-29472000D01*
X33762113Y-28032000D02*
X33762113Y-29472000D01*
X33402113Y-28164000D02*
X33402113Y-29472000D01*
X33082113Y-31552000D02*
X33082113Y-32687000D01*
X32562113Y-31552000D02*
X32562113Y-32255000D01*
X34363113Y-27934000D02*
X34363113Y-29472000D01*
X33562113Y-31552000D02*
X33562113Y-32926000D01*
X32162113Y-29334000D02*
X32162113Y-31690000D01*
X32562113Y-28769000D02*
X32562113Y-29472000D01*
X33282113Y-28222000D02*
X33282113Y-29472000D01*
X32442113Y-28907000D02*
X32442113Y-32117000D01*
X33642113Y-31552000D02*
X33642113Y-32954000D01*
X33682113Y-28057000D02*
X33682113Y-29472000D01*
X33122113Y-28312000D02*
X33122113Y-29472000D01*
X33482113Y-28130000D02*
X33482113Y-29472000D01*
X32282113Y-29129000D02*
X32282113Y-31895000D01*
X31962113Y-29835000D02*
X31962113Y-31189000D01*
X33522113Y-31552000D02*
X33522113Y-32910000D01*
X34123113Y-27956000D02*
X34123113Y-29472000D01*
X33883113Y-31552000D02*
X33883113Y-33023000D01*
X33762113Y-31552000D02*
X33762113Y-32992000D01*
X34323113Y-31552000D02*
X34323113Y-33088000D01*
X32642113Y-31552000D02*
X32642113Y-32338000D01*
X32682113Y-31552000D02*
X32682113Y-32376000D01*
X34163113Y-27951000D02*
X34163113Y-29472000D01*
X34363113Y-31552000D02*
X34363113Y-33090000D01*
X32882113Y-28477000D02*
X32882113Y-29472000D01*
X33442113Y-31552000D02*
X33442113Y-32877000D01*
X34123113Y-31552000D02*
X34123113Y-33068000D01*
X34483113Y-27932000D02*
X34483113Y-29472000D01*
X33722113Y-28044000D02*
X33722113Y-29472000D01*
X32642113Y-28686000D02*
X32642113Y-29472000D01*
X33482113Y-31552000D02*
X33482113Y-32894000D01*
X33162113Y-31552000D02*
X33162113Y-32736000D01*
X33162113Y-28288000D02*
X33162113Y-29472000D01*
X33602113Y-31552000D02*
X33602113Y-32940000D01*
X32242113Y-29193000D02*
X32242113Y-31831000D01*
X32402113Y-28958000D02*
X32402113Y-32066000D01*
X34043113Y-27969000D02*
X34043113Y-29472000D01*
X32962113Y-31552000D02*
X32962113Y-32607000D01*
X32522113Y-31552000D02*
X32522113Y-32211000D01*
X33282113Y-31552000D02*
X33282113Y-32802000D01*
X33322113Y-31552000D02*
X33322113Y-32822000D01*
X33923113Y-31552000D02*
X33923113Y-33032000D01*
X33682113Y-31552000D02*
X33682113Y-32967000D01*
X33442113Y-28147000D02*
X33442113Y-29472000D01*
X34243113Y-27943000D02*
X34243113Y-29472000D01*
X33402113Y-31552000D02*
X33402113Y-32860000D01*
X34243113Y-31552000D02*
X34243113Y-33081000D01*
X33362113Y-28183000D02*
X33362113Y-29472000D01*
X33803113Y-31552000D02*
X33803113Y-33003000D01*
X33082113Y-28337000D02*
X33082113Y-29472000D01*
X32482113Y-31552000D02*
X32482113Y-32165000D01*
X33883113Y-28001000D02*
X33883113Y-29472000D01*
X32202113Y-29261000D02*
X32202113Y-31763000D01*
X33242113Y-31552000D02*
X33242113Y-32780000D01*
X33002113Y-31552000D02*
X33002113Y-32634000D01*
X33322113Y-28202000D02*
X33322113Y-29472000D01*
X31882113Y-30228000D02*
X31882113Y-30796000D01*
X33362113Y-31552000D02*
X33362113Y-32841000D01*
X32602113Y-31552000D02*
X32602113Y-32297000D01*
X32842113Y-28508000D02*
X32842113Y-29472000D01*
X32842113Y-31552000D02*
X32842113Y-32516000D01*
X32802113Y-28541000D02*
X32802113Y-29472000D01*
X34283113Y-31552000D02*
X34283113Y-33085000D01*
X33642113Y-28070000D02*
X33642113Y-29472000D01*
X33803113Y-28021000D02*
X33803113Y-29472000D01*
X34403113Y-27933000D02*
X34403113Y-29472000D01*
X34203113Y-27947000D02*
X34203113Y-29472000D01*
X32722113Y-28611000D02*
X32722113Y-29472000D01*
X32602113Y-28727000D02*
X32602113Y-29472000D01*
X34083113Y-27962000D02*
X34083113Y-29472000D01*
X32762113Y-31552000D02*
X32762113Y-32449000D01*
X32122113Y-29414000D02*
X32122113Y-31610000D01*
X32922113Y-31552000D02*
X32922113Y-32577000D01*
X32882113Y-31552000D02*
X32882113Y-32547000D01*
X33042113Y-31552000D02*
X33042113Y-32661000D01*
X32482113Y-28859000D02*
X32482113Y-29472000D01*
X32082113Y-29501000D02*
X32082113Y-31523000D01*
X33002113Y-28390000D02*
X33002113Y-29472000D01*
X34083113Y-31552000D02*
X34083113Y-33062000D01*
X32362113Y-29012000D02*
X32362113Y-32012000D01*
X33923113Y-27992000D02*
X33923113Y-29472000D01*
X33042113Y-28363000D02*
X33042113Y-29472000D01*
X34003113Y-27976000D02*
X34003113Y-29472000D01*
X33843113Y-31552000D02*
X33843113Y-33013000D01*
X32682113Y-28648000D02*
X32682113Y-29472000D01*
X34443113Y-31552000D02*
X34443113Y-33092000D01*
X32762113Y-28575000D02*
X32762113Y-29472000D01*
X33242113Y-28244000D02*
X33242113Y-29472000D01*
X32042113Y-29597000D02*
X32042113Y-31427000D01*
X34323113Y-27936000D02*
X34323113Y-29472000D01*
X33202113Y-31552000D02*
X33202113Y-32759000D01*
X33122113Y-31552000D02*
X33122113Y-32712000D01*
X34163113Y-31552000D02*
X34163113Y-33073000D01*
X34443113Y-27932000D02*
X34443113Y-29472000D01*
X33963113Y-27984000D02*
X33963113Y-29472000D01*
X34003113Y-31552000D02*
X34003113Y-33048000D01*
X37287888Y-29037000D02*
X36787888Y-29037000D01*
X32802113Y-31552000D02*
X32802113Y-32483000D01*
X37037888Y-28787000D02*
X37037888Y-29287000D01*
X33602113Y-28084000D02*
X33602113Y-29472000D01*
X33522113Y-28114000D02*
X33522113Y-29472000D01*
X34483113Y-31552000D02*
X34483113Y-33092000D01*
X32922113Y-28447000D02*
X32922113Y-29472000D01*
X33963113Y-31552000D02*
X33963113Y-33040000D01*
X33722113Y-31552000D02*
X33722113Y-32980000D01*
X31922113Y-29994000D02*
X31922113Y-31030000D01*
X34403113Y-31552000D02*
X34403113Y-33091000D01*
X32522113Y-28813000D02*
X32522113Y-29472000D01*
X34203113Y-31552000D02*
X34203113Y-33077000D01*
X33843113Y-28011000D02*
X33843113Y-29472000D01*
X32722113Y-31552000D02*
X32722113Y-32413000D01*
X33562113Y-28098000D02*
X33562113Y-29472000D01*
X42400000Y-44172000D02*
X40940000Y-44172000D01*
X42400000Y-47332000D02*
X42400000Y-46402000D01*
X42400000Y-47332000D02*
X40240000Y-47332000D01*
X42400000Y-44172000D02*
X42400000Y-45102000D01*
X41468733Y-30006000D02*
X41811267Y-30006000D01*
X41468733Y-28986000D02*
X41811267Y-28986000D01*
X63419173Y-28359185D02*
G75*
G03*
X62955170Y-33707000I1080827J-2787815D01*
G01*
X65580000Y-33401684D02*
G75*
G03*
X65580429Y-28892521I-1080000J2254684D01*
G01*
X63419571Y-28892521D02*
G75*
G03*
X63420000Y-33401684I1080429J-2254479D01*
G01*
X66044830Y-33707000D02*
G75*
G03*
X65580827Y-28359185I-1544830J2560000D01*
G01*
X66045000Y-33707000D02*
X65580000Y-33707000D01*
X63420000Y-33707000D02*
X62955000Y-33707000D01*
D14*
X41335200Y-31502600D02*
X41944800Y-31502600D01*
X41944800Y-31502600D02*
X42249600Y-31502600D01*
X41030400Y-31502600D02*
X41335200Y-31502600D01*
D15*
X41335200Y-31502600D02*
G75*
G03*
X41944800Y-31502600I304800J0D01*
G01*
D13*
X41493733Y-41686000D02*
X41786267Y-41686000D01*
X41493733Y-42706000D02*
X41786267Y-42706000D01*
X98534000Y-44374267D02*
X98534000Y-44081733D01*
X99554000Y-44374267D02*
X99554000Y-44081733D01*
D16*
X62186000Y-47478000D02*
X62186000Y-40978000D01*
X58686000Y-40978000D02*
X58686000Y-47478000D01*
X58686000Y-47478000D02*
X62186000Y-47478000D01*
X62186000Y-40978000D02*
X58686000Y-40978000D01*
X64461000Y-41103000D02*
X62711000Y-41103000D01*
D13*
X95882000Y-45788000D02*
X96772000Y-45788000D01*
X95882000Y-47238000D02*
X95882000Y-45788000D01*
X91912000Y-47238000D02*
X91362000Y-47238000D01*
X94132000Y-47238000D02*
X95882000Y-47238000D01*
X94132000Y-41218000D02*
X95882000Y-41218000D01*
X91362000Y-41218000D02*
X91912000Y-41218000D01*
X95882000Y-41218000D02*
X95882000Y-42668000D01*
X91362000Y-47238000D02*
X91362000Y-41218000D01*
X26915233Y-38638000D02*
X27207767Y-38638000D01*
X26915233Y-39658000D02*
X27207767Y-39658000D01*
%LPC*%
D17*
X28492000Y-61960000D03*
X42342000Y-59420000D03*
D18*
X32242000Y-61960000D03*
D19*
X30972000Y-64500000D03*
D20*
X36052000Y-64500000D03*
D19*
X41132000Y-64500000D03*
D18*
X38592000Y-59420000D03*
D17*
X85642000Y-81010000D03*
X99492000Y-78470000D03*
D19*
X98282000Y-83550000D03*
D18*
X89392000Y-81010000D03*
D20*
X93202000Y-83550000D03*
D18*
X95742000Y-78470000D03*
D19*
X88122000Y-83550000D03*
D17*
X47542000Y-61960000D03*
X61392000Y-59420000D03*
D20*
X55102000Y-64500000D03*
D19*
X60182000Y-64500000D03*
X50022000Y-64500000D03*
D18*
X57642000Y-59420000D03*
X51292000Y-61960000D03*
D17*
X47542000Y-81010000D03*
X61392000Y-78470000D03*
D18*
X57642000Y-78470000D03*
D20*
X55102000Y-83550000D03*
D18*
X51292000Y-81010000D03*
D19*
X60182000Y-83550000D03*
X50022000Y-83550000D03*
D17*
X85642000Y-61960000D03*
X99492000Y-59420000D03*
D19*
X88122000Y-64500000D03*
D18*
X95742000Y-59420000D03*
D20*
X93202000Y-64500000D03*
D18*
X89392000Y-61960000D03*
D19*
X98282000Y-64500000D03*
D17*
X66592000Y-81010000D03*
X80442000Y-78470000D03*
D20*
X74152000Y-83550000D03*
D18*
X76692000Y-78470000D03*
X70342000Y-81010000D03*
D19*
X79232000Y-83550000D03*
X69072000Y-83550000D03*
D17*
X66592000Y-61960000D03*
X80442000Y-59420000D03*
D20*
X74152000Y-64500000D03*
D19*
X79232000Y-64500000D03*
D18*
X70342000Y-61960000D03*
D19*
X69072000Y-64500000D03*
D18*
X76692000Y-59420000D03*
D17*
X28492000Y-81010000D03*
X42342000Y-78470000D03*
D18*
X38592000Y-78470000D03*
X32242000Y-81010000D03*
D19*
X30972000Y-83550000D03*
X41132000Y-83550000D03*
D20*
X36052000Y-83550000D03*
D21*
X24000000Y-21000000D03*
X105000000Y-21000000D03*
D17*
X47542000Y-100060000D03*
X61392000Y-97520000D03*
D18*
X57642000Y-97520000D03*
D19*
X60182000Y-102600000D03*
D20*
X55102000Y-102600000D03*
D18*
X51292000Y-100060000D03*
D19*
X50022000Y-102600000D03*
D17*
X28492000Y-100060000D03*
X42342000Y-97520000D03*
D20*
X36052000Y-102600000D03*
D18*
X38592000Y-97520000D03*
D19*
X30972000Y-102600000D03*
D18*
X32242000Y-100060000D03*
D19*
X41132000Y-102600000D03*
D21*
X105000000Y-56500000D03*
X24000000Y-56500000D03*
D22*
X82500000Y-28000000D03*
D17*
X85642000Y-100060000D03*
X99492000Y-97520000D03*
D18*
X89392000Y-100060000D03*
D20*
X93202000Y-102600000D03*
D19*
X98282000Y-102600000D03*
D18*
X95742000Y-97520000D03*
D19*
X88122000Y-102600000D03*
D23*
X93530000Y-20352000D03*
X96430000Y-20352000D03*
D21*
X24000000Y-110000000D03*
D17*
X66592000Y-100060000D03*
X80442000Y-97520000D03*
D20*
X74152000Y-102600000D03*
D19*
X69072000Y-102600000D03*
D18*
X76692000Y-97520000D03*
X70342000Y-100060000D03*
D19*
X79232000Y-102600000D03*
D24*
X22844000Y-51340000D03*
X25384000Y-51340000D03*
X27924000Y-51340000D03*
X30464000Y-51340000D03*
X33004000Y-51340000D03*
X35544000Y-51340000D03*
X38084000Y-51340000D03*
X40624000Y-51340000D03*
X43164000Y-51340000D03*
X45704000Y-51340000D03*
X48244000Y-51340000D03*
X50784000Y-51340000D03*
X53324000Y-51340000D03*
X55864000Y-51340000D03*
X58404000Y-51340000D03*
X60944000Y-51340000D03*
X63484000Y-51340000D03*
X66024000Y-51340000D03*
X68564000Y-51340000D03*
X22844000Y-25940000D03*
X25384000Y-25940000D03*
X27924000Y-25940000D03*
X30464000Y-25940000D03*
X33004000Y-25940000D03*
X35544000Y-25940000D03*
X38084000Y-25940000D03*
X40624000Y-25940000D03*
X43164000Y-25940000D03*
X45704000Y-25940000D03*
X48244000Y-25940000D03*
X50784000Y-25940000D03*
X53324000Y-25940000D03*
X55864000Y-25940000D03*
X58404000Y-25940000D03*
X60944000Y-25940000D03*
X63484000Y-25940000D03*
X66024000Y-25940000D03*
D25*
X68564000Y-25940000D03*
D21*
X105000000Y-110000000D03*
D26*
X58178000Y-28988000D03*
X59928000Y-28988000D03*
D27*
X59573500Y-39148000D03*
X61298500Y-39148000D03*
D28*
X49796888Y-30512000D03*
D29*
X47796888Y-30512000D03*
D26*
X54368000Y-33052000D03*
X56118000Y-33052000D03*
X58178000Y-33052000D03*
X59928000Y-33052000D03*
D30*
X27924000Y-34576000D03*
X26174000Y-34576000D03*
D31*
X25384000Y-30512000D03*
D32*
X27924000Y-30512000D03*
D26*
X26174000Y-42196000D03*
X27924000Y-42196000D03*
X58178000Y-31020000D03*
X59928000Y-31020000D03*
D28*
X33483113Y-30512000D03*
D29*
X35483113Y-30512000D03*
D33*
X40640000Y-46702000D03*
X40640000Y-44802000D03*
X42640000Y-45752000D03*
D26*
X40765000Y-29496000D03*
X42515000Y-29496000D03*
D34*
X64500000Y-29242000D03*
X64500000Y-30512000D03*
X64500000Y-31782000D03*
D35*
X64500000Y-33052000D03*
D36*
X42935400Y-32112200D03*
X42935400Y-33052000D03*
X42935400Y-33991800D03*
X40344600Y-33991800D03*
X40344600Y-32112200D03*
D27*
X40777500Y-42196000D03*
X42502500Y-42196000D03*
D37*
X99044000Y-45090500D03*
X99044000Y-43365500D03*
D38*
X63586000Y-41928000D03*
X63586000Y-44228000D03*
X63586000Y-46528000D03*
D39*
X57286000Y-44228000D03*
D40*
X96147000Y-45228000D03*
X96147000Y-44228000D03*
X96147000Y-43228000D03*
D41*
X93022000Y-46678000D03*
X93022000Y-41778000D03*
D27*
X26199000Y-39148000D03*
X27924000Y-39148000D03*
M02*
