G04 #@! TF.GenerationSoftware,KiCad,Pcbnew,(6.0.6)*
G04 #@! TF.CreationDate,2022-07-26T07:08:53+09:00*
G04 #@! TF.ProjectId,ble_macro_keyboard,626c655f-6d61-4637-926f-5f6b6579626f,rev?*
G04 #@! TF.SameCoordinates,Original*
G04 #@! TF.FileFunction,Legend,Bot*
G04 #@! TF.FilePolarity,Positive*
%FSLAX46Y46*%
G04 Gerber Fmt 4.6, Leading zero omitted, Abs format (unit mm)*
G04 Created by KiCad (PCBNEW (6.0.6)) date 2022-07-26 07:08:53*
%MOMM*%
%LPD*%
G01*
G04 APERTURE LIST*
G04 Aperture macros list*
%AMRoundRect*
0 Rectangle with rounded corners*
0 $1 Rounding radius*
0 $2 $3 $4 $5 $6 $7 $8 $9 X,Y pos of 4 corners*
0 Add a 4 corners polygon primitive as box body*
4,1,4,$2,$3,$4,$5,$6,$7,$8,$9,$2,$3,0*
0 Add four circle primitives for the rounded corners*
1,1,$1+$1,$2,$3*
1,1,$1+$1,$4,$5*
1,1,$1+$1,$6,$7*
1,1,$1+$1,$8,$9*
0 Add four rect primitives between the rounded corners*
20,1,$1+$1,$2,$3,$4,$5,0*
20,1,$1+$1,$4,$5,$6,$7,0*
20,1,$1+$1,$6,$7,$8,$9,0*
20,1,$1+$1,$8,$9,$2,$3,0*%
G04 Aperture macros list end*
%ADD10C,0.150000*%
%ADD11C,0.060000*%
%ADD12C,0.254000*%
%ADD13C,0.120000*%
%ADD14C,0.152400*%
%ADD15C,0.100000*%
%ADD16C,0.200000*%
%ADD17C,3.000000*%
%ADD18C,1.701800*%
%ADD19C,3.987800*%
%ADD20R,2.550000X2.500000*%
%ADD21C,3.200000*%
%ADD22C,8.000000*%
%ADD23C,0.800000*%
%ADD24R,1.560000X1.560000*%
%ADD25C,1.560000*%
%ADD26RoundRect,0.237500X-0.287500X-0.237500X0.287500X-0.237500X0.287500X0.237500X-0.287500X0.237500X0*%
%ADD27RoundRect,0.237500X-0.300000X-0.237500X0.300000X-0.237500X0.300000X0.237500X-0.300000X0.237500X0*%
%ADD28R,1.600000X1.600000*%
%ADD29C,1.600000*%
%ADD30RoundRect,0.237500X0.287500X0.237500X-0.287500X0.237500X-0.287500X-0.237500X0.287500X-0.237500X0*%
%ADD31R,1.800000X1.800000*%
%ADD32C,1.800000*%
%ADD33R,0.900000X0.800000*%
%ADD34R,1.800000X1.070000*%
%ADD35O,1.800000X1.070000*%
%ADD36R,1.270000X0.558800*%
%ADD37RoundRect,0.237500X0.237500X-0.300000X0.237500X0.300000X-0.237500X0.300000X-0.237500X-0.300000X0*%
%ADD38R,1.750000X0.950000*%
%ADD39R,1.750000X3.200000*%
%ADD40RoundRect,0.150000X0.475000X-0.150000X0.475000X0.150000X-0.475000X0.150000X-0.475000X-0.150000X0*%
%ADD41RoundRect,0.225000X0.625000X-0.225000X0.625000X0.225000X-0.625000X0.225000X-0.625000X-0.225000X0*%
G04 APERTURE END LIST*
D10*
X-27114666Y-9500761D02*
X-27257523Y-9548380D01*
X-27495619Y-9548380D01*
X-27590857Y-9500761D01*
X-27638476Y-9453142D01*
X-27686095Y-9357904D01*
X-27686095Y-9262666D01*
X-27638476Y-9167428D01*
X-27590857Y-9119809D01*
X-27495619Y-9072190D01*
X-27305142Y-9024571D01*
X-27209904Y-8976952D01*
X-27162285Y-8929333D01*
X-27114666Y-8834095D01*
X-27114666Y-8738857D01*
X-27162285Y-8643619D01*
X-27209904Y-8596000D01*
X-27305142Y-8548380D01*
X-27543238Y-8548380D01*
X-27686095Y-8596000D01*
X-28019428Y-8548380D02*
X-28257523Y-9548380D01*
X-28448000Y-8834095D01*
X-28638476Y-9548380D01*
X-28876571Y-8548380D01*
X-29162285Y-8548380D02*
X-29781333Y-8548380D01*
X-29448000Y-8929333D01*
X-29590857Y-8929333D01*
X-29686095Y-8976952D01*
X-29733714Y-9024571D01*
X-29781333Y-9119809D01*
X-29781333Y-9357904D01*
X-29733714Y-9453142D01*
X-29686095Y-9500761D01*
X-29590857Y-9548380D01*
X-29305142Y-9548380D01*
X-29209904Y-9500761D01*
X-29162285Y-9453142D01*
X30511523Y-28550761D02*
X30368666Y-28598380D01*
X30130571Y-28598380D01*
X30035333Y-28550761D01*
X29987714Y-28503142D01*
X29940095Y-28407904D01*
X29940095Y-28312666D01*
X29987714Y-28217428D01*
X30035333Y-28169809D01*
X30130571Y-28122190D01*
X30321047Y-28074571D01*
X30416285Y-28026952D01*
X30463904Y-27979333D01*
X30511523Y-27884095D01*
X30511523Y-27788857D01*
X30463904Y-27693619D01*
X30416285Y-27646000D01*
X30321047Y-27598380D01*
X30082952Y-27598380D01*
X29940095Y-27646000D01*
X29606761Y-27598380D02*
X29368666Y-28598380D01*
X29178190Y-27884095D01*
X28987714Y-28598380D01*
X28749619Y-27598380D01*
X27844857Y-28598380D02*
X28416285Y-28598380D01*
X28130571Y-28598380D02*
X28130571Y-27598380D01*
X28225809Y-27741238D01*
X28321047Y-27836476D01*
X28416285Y-27884095D01*
X27225809Y-27598380D02*
X27130571Y-27598380D01*
X27035333Y-27646000D01*
X26987714Y-27693619D01*
X26940095Y-27788857D01*
X26892476Y-27979333D01*
X26892476Y-28217428D01*
X26940095Y-28407904D01*
X26987714Y-28503142D01*
X27035333Y-28550761D01*
X27130571Y-28598380D01*
X27225809Y-28598380D01*
X27321047Y-28550761D01*
X27368666Y-28503142D01*
X27416285Y-28407904D01*
X27463904Y-28217428D01*
X27463904Y-27979333D01*
X27416285Y-27788857D01*
X27368666Y-27693619D01*
X27321047Y-27646000D01*
X27225809Y-27598380D01*
X-8064666Y-9500761D02*
X-8207523Y-9548380D01*
X-8445619Y-9548380D01*
X-8540857Y-9500761D01*
X-8588476Y-9453142D01*
X-8636095Y-9357904D01*
X-8636095Y-9262666D01*
X-8588476Y-9167428D01*
X-8540857Y-9119809D01*
X-8445619Y-9072190D01*
X-8255142Y-9024571D01*
X-8159904Y-8976952D01*
X-8112285Y-8929333D01*
X-8064666Y-8834095D01*
X-8064666Y-8738857D01*
X-8112285Y-8643619D01*
X-8159904Y-8596000D01*
X-8255142Y-8548380D01*
X-8493238Y-8548380D01*
X-8636095Y-8596000D01*
X-8969428Y-8548380D02*
X-9207523Y-9548380D01*
X-9398000Y-8834095D01*
X-9588476Y-9548380D01*
X-9826571Y-8548380D01*
X-10636095Y-8881714D02*
X-10636095Y-9548380D01*
X-10398000Y-8500761D02*
X-10159904Y-9215047D01*
X-10778952Y-9215047D01*
X-8064666Y-28550761D02*
X-8207523Y-28598380D01*
X-8445619Y-28598380D01*
X-8540857Y-28550761D01*
X-8588476Y-28503142D01*
X-8636095Y-28407904D01*
X-8636095Y-28312666D01*
X-8588476Y-28217428D01*
X-8540857Y-28169809D01*
X-8445619Y-28122190D01*
X-8255142Y-28074571D01*
X-8159904Y-28026952D01*
X-8112285Y-27979333D01*
X-8064666Y-27884095D01*
X-8064666Y-27788857D01*
X-8112285Y-27693619D01*
X-8159904Y-27646000D01*
X-8255142Y-27598380D01*
X-8493238Y-27598380D01*
X-8636095Y-27646000D01*
X-8969428Y-27598380D02*
X-9207523Y-28598380D01*
X-9398000Y-27884095D01*
X-9588476Y-28598380D01*
X-9826571Y-27598380D01*
X-10350380Y-28026952D02*
X-10255142Y-27979333D01*
X-10207523Y-27931714D01*
X-10159904Y-27836476D01*
X-10159904Y-27788857D01*
X-10207523Y-27693619D01*
X-10255142Y-27646000D01*
X-10350380Y-27598380D01*
X-10540857Y-27598380D01*
X-10636095Y-27646000D01*
X-10683714Y-27693619D01*
X-10731333Y-27788857D01*
X-10731333Y-27836476D01*
X-10683714Y-27931714D01*
X-10636095Y-27979333D01*
X-10540857Y-28026952D01*
X-10350380Y-28026952D01*
X-10255142Y-28074571D01*
X-10207523Y-28122190D01*
X-10159904Y-28217428D01*
X-10159904Y-28407904D01*
X-10207523Y-28503142D01*
X-10255142Y-28550761D01*
X-10350380Y-28598380D01*
X-10540857Y-28598380D01*
X-10636095Y-28550761D01*
X-10683714Y-28503142D01*
X-10731333Y-28407904D01*
X-10731333Y-28217428D01*
X-10683714Y-28122190D01*
X-10636095Y-28074571D01*
X-10540857Y-28026952D01*
X30035333Y-9500761D02*
X29892476Y-9548380D01*
X29654380Y-9548380D01*
X29559142Y-9500761D01*
X29511523Y-9453142D01*
X29463904Y-9357904D01*
X29463904Y-9262666D01*
X29511523Y-9167428D01*
X29559142Y-9119809D01*
X29654380Y-9072190D01*
X29844857Y-9024571D01*
X29940095Y-8976952D01*
X29987714Y-8929333D01*
X30035333Y-8834095D01*
X30035333Y-8738857D01*
X29987714Y-8643619D01*
X29940095Y-8596000D01*
X29844857Y-8548380D01*
X29606761Y-8548380D01*
X29463904Y-8596000D01*
X29130571Y-8548380D02*
X28892476Y-9548380D01*
X28702000Y-8834095D01*
X28511523Y-9548380D01*
X28273428Y-8548380D01*
X27463904Y-8548380D02*
X27654380Y-8548380D01*
X27749619Y-8596000D01*
X27797238Y-8643619D01*
X27892476Y-8786476D01*
X27940095Y-8976952D01*
X27940095Y-9357904D01*
X27892476Y-9453142D01*
X27844857Y-9500761D01*
X27749619Y-9548380D01*
X27559142Y-9548380D01*
X27463904Y-9500761D01*
X27416285Y-9453142D01*
X27368666Y-9357904D01*
X27368666Y-9119809D01*
X27416285Y-9024571D01*
X27463904Y-8976952D01*
X27559142Y-8929333D01*
X27749619Y-8929333D01*
X27844857Y-8976952D01*
X27892476Y-9024571D01*
X27940095Y-9119809D01*
X10985333Y-28550761D02*
X10842476Y-28598380D01*
X10604380Y-28598380D01*
X10509142Y-28550761D01*
X10461523Y-28503142D01*
X10413904Y-28407904D01*
X10413904Y-28312666D01*
X10461523Y-28217428D01*
X10509142Y-28169809D01*
X10604380Y-28122190D01*
X10794857Y-28074571D01*
X10890095Y-28026952D01*
X10937714Y-27979333D01*
X10985333Y-27884095D01*
X10985333Y-27788857D01*
X10937714Y-27693619D01*
X10890095Y-27646000D01*
X10794857Y-27598380D01*
X10556761Y-27598380D01*
X10413904Y-27646000D01*
X10080571Y-27598380D02*
X9842476Y-28598380D01*
X9652000Y-27884095D01*
X9461523Y-28598380D01*
X9223428Y-27598380D01*
X8794857Y-28598380D02*
X8604380Y-28598380D01*
X8509142Y-28550761D01*
X8461523Y-28503142D01*
X8366285Y-28360285D01*
X8318666Y-28169809D01*
X8318666Y-27788857D01*
X8366285Y-27693619D01*
X8413904Y-27646000D01*
X8509142Y-27598380D01*
X8699619Y-27598380D01*
X8794857Y-27646000D01*
X8842476Y-27693619D01*
X8890095Y-27788857D01*
X8890095Y-28026952D01*
X8842476Y-28122190D01*
X8794857Y-28169809D01*
X8699619Y-28217428D01*
X8509142Y-28217428D01*
X8413904Y-28169809D01*
X8366285Y-28122190D01*
X8318666Y-28026952D01*
X10985333Y-9500761D02*
X10842476Y-9548380D01*
X10604380Y-9548380D01*
X10509142Y-9500761D01*
X10461523Y-9453142D01*
X10413904Y-9357904D01*
X10413904Y-9262666D01*
X10461523Y-9167428D01*
X10509142Y-9119809D01*
X10604380Y-9072190D01*
X10794857Y-9024571D01*
X10890095Y-8976952D01*
X10937714Y-8929333D01*
X10985333Y-8834095D01*
X10985333Y-8738857D01*
X10937714Y-8643619D01*
X10890095Y-8596000D01*
X10794857Y-8548380D01*
X10556761Y-8548380D01*
X10413904Y-8596000D01*
X10080571Y-8548380D02*
X9842476Y-9548380D01*
X9652000Y-8834095D01*
X9461523Y-9548380D01*
X9223428Y-8548380D01*
X8366285Y-8548380D02*
X8842476Y-8548380D01*
X8890095Y-9024571D01*
X8842476Y-8976952D01*
X8747238Y-8929333D01*
X8509142Y-8929333D01*
X8413904Y-8976952D01*
X8366285Y-9024571D01*
X8318666Y-9119809D01*
X8318666Y-9357904D01*
X8366285Y-9453142D01*
X8413904Y-9500761D01*
X8509142Y-9548380D01*
X8747238Y-9548380D01*
X8842476Y-9500761D01*
X8890095Y-9453142D01*
X-27114666Y-28550761D02*
X-27257523Y-28598380D01*
X-27495619Y-28598380D01*
X-27590857Y-28550761D01*
X-27638476Y-28503142D01*
X-27686095Y-28407904D01*
X-27686095Y-28312666D01*
X-27638476Y-28217428D01*
X-27590857Y-28169809D01*
X-27495619Y-28122190D01*
X-27305142Y-28074571D01*
X-27209904Y-28026952D01*
X-27162285Y-27979333D01*
X-27114666Y-27884095D01*
X-27114666Y-27788857D01*
X-27162285Y-27693619D01*
X-27209904Y-27646000D01*
X-27305142Y-27598380D01*
X-27543238Y-27598380D01*
X-27686095Y-27646000D01*
X-28019428Y-27598380D02*
X-28257523Y-28598380D01*
X-28448000Y-27884095D01*
X-28638476Y-28598380D01*
X-28876571Y-27598380D01*
X-29162285Y-27598380D02*
X-29828952Y-27598380D01*
X-29400380Y-28598380D01*
X-7588476Y-47600761D02*
X-7731333Y-47648380D01*
X-7969428Y-47648380D01*
X-8064666Y-47600761D01*
X-8112285Y-47553142D01*
X-8159904Y-47457904D01*
X-8159904Y-47362666D01*
X-8112285Y-47267428D01*
X-8064666Y-47219809D01*
X-7969428Y-47172190D01*
X-7778952Y-47124571D01*
X-7683714Y-47076952D01*
X-7636095Y-47029333D01*
X-7588476Y-46934095D01*
X-7588476Y-46838857D01*
X-7636095Y-46743619D01*
X-7683714Y-46696000D01*
X-7778952Y-46648380D01*
X-8017047Y-46648380D01*
X-8159904Y-46696000D01*
X-8493238Y-46648380D02*
X-8731333Y-47648380D01*
X-8921809Y-46934095D01*
X-9112285Y-47648380D01*
X-9350380Y-46648380D01*
X-10255142Y-47648380D02*
X-9683714Y-47648380D01*
X-9969428Y-47648380D02*
X-9969428Y-46648380D01*
X-9874190Y-46791238D01*
X-9778952Y-46886476D01*
X-9683714Y-46934095D01*
X-10636095Y-46743619D02*
X-10683714Y-46696000D01*
X-10778952Y-46648380D01*
X-11017047Y-46648380D01*
X-11112285Y-46696000D01*
X-11159904Y-46743619D01*
X-11207523Y-46838857D01*
X-11207523Y-46934095D01*
X-11159904Y-47076952D01*
X-10588476Y-47648380D01*
X-11207523Y-47648380D01*
X-26638476Y-47600761D02*
X-26781333Y-47648380D01*
X-27019428Y-47648380D01*
X-27114666Y-47600761D01*
X-27162285Y-47553142D01*
X-27209904Y-47457904D01*
X-27209904Y-47362666D01*
X-27162285Y-47267428D01*
X-27114666Y-47219809D01*
X-27019428Y-47172190D01*
X-26828952Y-47124571D01*
X-26733714Y-47076952D01*
X-26686095Y-47029333D01*
X-26638476Y-46934095D01*
X-26638476Y-46838857D01*
X-26686095Y-46743619D01*
X-26733714Y-46696000D01*
X-26828952Y-46648380D01*
X-27067047Y-46648380D01*
X-27209904Y-46696000D01*
X-27543238Y-46648380D02*
X-27781333Y-47648380D01*
X-27971809Y-46934095D01*
X-28162285Y-47648380D01*
X-28400380Y-46648380D01*
X-29305142Y-47648380D02*
X-28733714Y-47648380D01*
X-29019428Y-47648380D02*
X-29019428Y-46648380D01*
X-28924190Y-46791238D01*
X-28828952Y-46886476D01*
X-28733714Y-46934095D01*
X-30257523Y-47648380D02*
X-29686095Y-47648380D01*
X-29971809Y-47648380D02*
X-29971809Y-46648380D01*
X-29876571Y-46791238D01*
X-29781333Y-46886476D01*
X-29686095Y-46934095D01*
X30511523Y-47600761D02*
X30368666Y-47648380D01*
X30130571Y-47648380D01*
X30035333Y-47600761D01*
X29987714Y-47553142D01*
X29940095Y-47457904D01*
X29940095Y-47362666D01*
X29987714Y-47267428D01*
X30035333Y-47219809D01*
X30130571Y-47172190D01*
X30321047Y-47124571D01*
X30416285Y-47076952D01*
X30463904Y-47029333D01*
X30511523Y-46934095D01*
X30511523Y-46838857D01*
X30463904Y-46743619D01*
X30416285Y-46696000D01*
X30321047Y-46648380D01*
X30082952Y-46648380D01*
X29940095Y-46696000D01*
X29606761Y-46648380D02*
X29368666Y-47648380D01*
X29178190Y-46934095D01*
X28987714Y-47648380D01*
X28749619Y-46648380D01*
X27844857Y-47648380D02*
X28416285Y-47648380D01*
X28130571Y-47648380D02*
X28130571Y-46648380D01*
X28225809Y-46791238D01*
X28321047Y-46886476D01*
X28416285Y-46934095D01*
X26987714Y-46981714D02*
X26987714Y-47648380D01*
X27225809Y-46600761D02*
X27463904Y-47315047D01*
X26844857Y-47315047D01*
X11461523Y-47600761D02*
X11318666Y-47648380D01*
X11080571Y-47648380D01*
X10985333Y-47600761D01*
X10937714Y-47553142D01*
X10890095Y-47457904D01*
X10890095Y-47362666D01*
X10937714Y-47267428D01*
X10985333Y-47219809D01*
X11080571Y-47172190D01*
X11271047Y-47124571D01*
X11366285Y-47076952D01*
X11413904Y-47029333D01*
X11461523Y-46934095D01*
X11461523Y-46838857D01*
X11413904Y-46743619D01*
X11366285Y-46696000D01*
X11271047Y-46648380D01*
X11032952Y-46648380D01*
X10890095Y-46696000D01*
X10556761Y-46648380D02*
X10318666Y-47648380D01*
X10128190Y-46934095D01*
X9937714Y-47648380D01*
X9699619Y-46648380D01*
X8794857Y-47648380D02*
X9366285Y-47648380D01*
X9080571Y-47648380D02*
X9080571Y-46648380D01*
X9175809Y-46791238D01*
X9271047Y-46886476D01*
X9366285Y-46934095D01*
X8461523Y-46648380D02*
X7842476Y-46648380D01*
X8175809Y-47029333D01*
X8032952Y-47029333D01*
X7937714Y-47076952D01*
X7890095Y-47124571D01*
X7842476Y-47219809D01*
X7842476Y-47457904D01*
X7890095Y-47553142D01*
X7937714Y-47600761D01*
X8032952Y-47648380D01*
X8318666Y-47648380D01*
X8413904Y-47600761D01*
X8461523Y-47553142D01*
D11*
X-7553333Y32331047D02*
X-7420000Y32521523D01*
X-7324761Y32331047D02*
X-7324761Y32731047D01*
X-7477142Y32731047D01*
X-7515238Y32712000D01*
X-7534285Y32692952D01*
X-7553333Y32654857D01*
X-7553333Y32597714D01*
X-7534285Y32559619D01*
X-7515238Y32540571D01*
X-7477142Y32521523D01*
X-7324761Y32521523D01*
X-7934285Y32331047D02*
X-7705714Y32331047D01*
X-7820000Y32331047D02*
X-7820000Y32731047D01*
X-7781904Y32673904D01*
X-7743809Y32635809D01*
X-7705714Y32616761D01*
X-3997333Y23225142D02*
X-3978285Y23206095D01*
X-3921142Y23187047D01*
X-3883047Y23187047D01*
X-3825904Y23206095D01*
X-3787809Y23244190D01*
X-3768761Y23282285D01*
X-3749714Y23358476D01*
X-3749714Y23415619D01*
X-3768761Y23491809D01*
X-3787809Y23529904D01*
X-3825904Y23568000D01*
X-3883047Y23587047D01*
X-3921142Y23587047D01*
X-3978285Y23568000D01*
X-3997333Y23548952D01*
X-4340190Y23453714D02*
X-4340190Y23187047D01*
X-4244952Y23606095D02*
X-4149714Y23320380D01*
X-4397333Y23320380D01*
X-16636445Y29321142D02*
X-16617397Y29302095D01*
X-16560254Y29283047D01*
X-16522159Y29283047D01*
X-16465016Y29302095D01*
X-16426921Y29340190D01*
X-16407873Y29378285D01*
X-16388826Y29454476D01*
X-16388826Y29511619D01*
X-16407873Y29587809D01*
X-16426921Y29625904D01*
X-16465016Y29664000D01*
X-16522159Y29683047D01*
X-16560254Y29683047D01*
X-16617397Y29664000D01*
X-16636445Y29644952D01*
X-16979302Y29683047D02*
X-16903112Y29683047D01*
X-16865016Y29664000D01*
X-16845969Y29644952D01*
X-16807873Y29587809D01*
X-16788826Y29511619D01*
X-16788826Y29359238D01*
X-16807873Y29321142D01*
X-16826921Y29302095D01*
X-16865016Y29283047D01*
X-16941207Y29283047D01*
X-16979302Y29302095D01*
X-16998350Y29321142D01*
X-17017397Y29359238D01*
X-17017397Y29454476D01*
X-16998350Y29492571D01*
X-16979302Y29511619D01*
X-16941207Y29530666D01*
X-16865016Y29530666D01*
X-16826921Y29511619D01*
X-16807873Y29492571D01*
X-16788826Y29454476D01*
X-11363333Y28267047D02*
X-11230000Y28457523D01*
X-11134761Y28267047D02*
X-11134761Y28667047D01*
X-11287142Y28667047D01*
X-11325238Y28648000D01*
X-11344285Y28628952D01*
X-11363333Y28590857D01*
X-11363333Y28533714D01*
X-11344285Y28495619D01*
X-11325238Y28476571D01*
X-11287142Y28457523D01*
X-11134761Y28457523D01*
X-11706190Y28533714D02*
X-11706190Y28267047D01*
X-11610952Y28686095D02*
X-11515714Y28400380D01*
X-11763333Y28400380D01*
X-5380333Y27124047D02*
X-5247000Y27314523D01*
X-5151761Y27124047D02*
X-5151761Y27524047D01*
X-5304142Y27524047D01*
X-5342238Y27505000D01*
X-5361285Y27485952D01*
X-5380333Y27447857D01*
X-5380333Y27390714D01*
X-5361285Y27352619D01*
X-5342238Y27333571D01*
X-5304142Y27314523D01*
X-5151761Y27314523D01*
X-5513666Y27524047D02*
X-5761285Y27524047D01*
X-5627952Y27371666D01*
X-5685095Y27371666D01*
X-5723190Y27352619D01*
X-5742238Y27333571D01*
X-5761285Y27295476D01*
X-5761285Y27200238D01*
X-5742238Y27162142D01*
X-5723190Y27143095D01*
X-5685095Y27124047D01*
X-5570809Y27124047D01*
X-5532714Y27143095D01*
X-5513666Y27162142D01*
X-37398333Y27759047D02*
X-37265000Y27949523D01*
X-37169761Y27759047D02*
X-37169761Y28159047D01*
X-37322142Y28159047D01*
X-37360238Y28140000D01*
X-37379285Y28120952D01*
X-37398333Y28082857D01*
X-37398333Y28025714D01*
X-37379285Y27987619D01*
X-37360238Y27968571D01*
X-37322142Y27949523D01*
X-37169761Y27949523D01*
X-37760238Y28159047D02*
X-37569761Y28159047D01*
X-37550714Y27968571D01*
X-37569761Y27987619D01*
X-37607857Y28006666D01*
X-37703095Y28006666D01*
X-37741190Y27987619D01*
X-37760238Y27968571D01*
X-37779285Y27930476D01*
X-37779285Y27835238D01*
X-37760238Y27797142D01*
X-37741190Y27778095D01*
X-37703095Y27759047D01*
X-37607857Y27759047D01*
X-37569761Y27778095D01*
X-37550714Y27797142D01*
X-35518761Y32585047D02*
X-35518761Y32985047D01*
X-35614000Y32985047D01*
X-35671142Y32966000D01*
X-35709238Y32927904D01*
X-35728285Y32889809D01*
X-35747333Y32813619D01*
X-35747333Y32756476D01*
X-35728285Y32680285D01*
X-35709238Y32642190D01*
X-35671142Y32604095D01*
X-35614000Y32585047D01*
X-35518761Y32585047D01*
X-36128285Y32585047D02*
X-35899714Y32585047D01*
X-36014000Y32585047D02*
X-36014000Y32985047D01*
X-35975904Y32927904D01*
X-35937809Y32889809D01*
X-35899714Y32870761D01*
X-37398333Y20139047D02*
X-37265000Y20329523D01*
X-37169761Y20139047D02*
X-37169761Y20539047D01*
X-37322142Y20539047D01*
X-37360238Y20520000D01*
X-37379285Y20500952D01*
X-37398333Y20462857D01*
X-37398333Y20405714D01*
X-37379285Y20367619D01*
X-37360238Y20348571D01*
X-37322142Y20329523D01*
X-37169761Y20329523D01*
X-37531666Y20539047D02*
X-37798333Y20539047D01*
X-37626904Y20139047D01*
X-7553333Y30299047D02*
X-7420000Y30489523D01*
X-7324761Y30299047D02*
X-7324761Y30699047D01*
X-7477142Y30699047D01*
X-7515238Y30680000D01*
X-7534285Y30660952D01*
X-7553333Y30622857D01*
X-7553333Y30565714D01*
X-7534285Y30527619D01*
X-7515238Y30508571D01*
X-7477142Y30489523D01*
X-7324761Y30489523D01*
X-7705714Y30660952D02*
X-7724761Y30680000D01*
X-7762857Y30699047D01*
X-7858095Y30699047D01*
X-7896190Y30680000D01*
X-7915238Y30660952D01*
X-7934285Y30622857D01*
X-7934285Y30584761D01*
X-7915238Y30527619D01*
X-7686666Y30299047D01*
X-7934285Y30299047D01*
X-28950220Y32369142D02*
X-28931172Y32350095D01*
X-28874029Y32331047D01*
X-28835934Y32331047D01*
X-28778791Y32350095D01*
X-28740696Y32388190D01*
X-28721648Y32426285D01*
X-28702601Y32502476D01*
X-28702601Y32559619D01*
X-28721648Y32635809D01*
X-28740696Y32673904D01*
X-28778791Y32712000D01*
X-28835934Y32731047D01*
X-28874029Y32731047D01*
X-28931172Y32712000D01*
X-28950220Y32692952D01*
X-29312125Y32731047D02*
X-29121648Y32731047D01*
X-29102601Y32540571D01*
X-29121648Y32559619D01*
X-29159744Y32578666D01*
X-29254982Y32578666D01*
X-29293077Y32559619D01*
X-29312125Y32540571D01*
X-29331172Y32502476D01*
X-29331172Y32407238D01*
X-29312125Y32369142D01*
X-29293077Y32350095D01*
X-29254982Y32331047D01*
X-29159744Y32331047D01*
X-29121648Y32350095D01*
X-29102601Y32369142D01*
X-22821904Y15528952D02*
X-22783809Y15548000D01*
X-22745714Y15586095D01*
X-22688571Y15643238D01*
X-22650476Y15662285D01*
X-22612380Y15662285D01*
X-22631428Y15567047D02*
X-22593333Y15586095D01*
X-22555238Y15624190D01*
X-22536190Y15700380D01*
X-22536190Y15833714D01*
X-22555238Y15909904D01*
X-22593333Y15948000D01*
X-22631428Y15967047D01*
X-22707619Y15967047D01*
X-22745714Y15948000D01*
X-22783809Y15909904D01*
X-22802857Y15833714D01*
X-22802857Y15700380D01*
X-22783809Y15624190D01*
X-22745714Y15586095D01*
X-22707619Y15567047D01*
X-22631428Y15567047D01*
X-23183809Y15567047D02*
X-22955238Y15567047D01*
X-23069523Y15567047D02*
X-23069523Y15967047D01*
X-23031428Y15909904D01*
X-22993333Y15871809D01*
X-22955238Y15852761D01*
X-22793333Y32839047D02*
X-22660000Y33029523D01*
X-22564761Y32839047D02*
X-22564761Y33239047D01*
X-22717142Y33239047D01*
X-22755238Y33220000D01*
X-22774285Y33200952D01*
X-22793333Y33162857D01*
X-22793333Y33105714D01*
X-22774285Y33067619D01*
X-22755238Y33048571D01*
X-22717142Y33029523D01*
X-22564761Y33029523D01*
X-23136190Y33239047D02*
X-23060000Y33239047D01*
X-23021904Y33220000D01*
X-23002857Y33200952D01*
X-22964761Y33143809D01*
X-22945714Y33067619D01*
X-22945714Y32915238D01*
X-22964761Y32877142D01*
X-22983809Y32858095D01*
X-23021904Y32839047D01*
X-23098095Y32839047D01*
X-23136190Y32858095D01*
X-23155238Y32877142D01*
X-23174285Y32915238D01*
X-23174285Y33010476D01*
X-23155238Y33048571D01*
X-23136190Y33067619D01*
X-23098095Y33086666D01*
X-23021904Y33086666D01*
X-22983809Y33067619D01*
X-22964761Y33048571D01*
X-22945714Y33010476D01*
X2835238Y32839047D02*
X2835238Y33239047D01*
X2740000Y33239047D01*
X2682857Y33220000D01*
X2644761Y33181904D01*
X2625714Y33143809D01*
X2606666Y33067619D01*
X2606666Y33010476D01*
X2625714Y32934285D01*
X2644761Y32896190D01*
X2682857Y32858095D01*
X2740000Y32839047D01*
X2835238Y32839047D01*
X2454285Y33200952D02*
X2435238Y33220000D01*
X2397142Y33239047D01*
X2301904Y33239047D01*
X2263809Y33220000D01*
X2244761Y33200952D01*
X2225714Y33162857D01*
X2225714Y33124761D01*
X2244761Y33067619D01*
X2473333Y32839047D01*
X2225714Y32839047D01*
X-22555238Y28667047D02*
X-22555238Y28343238D01*
X-22574285Y28305142D01*
X-22593333Y28286095D01*
X-22631428Y28267047D01*
X-22707619Y28267047D01*
X-22745714Y28286095D01*
X-22764761Y28305142D01*
X-22783809Y28343238D01*
X-22783809Y28667047D01*
X-23183809Y28267047D02*
X-22955238Y28267047D01*
X-23069523Y28267047D02*
X-23069523Y28667047D01*
X-23031428Y28609904D01*
X-22993333Y28571809D01*
X-22955238Y28552761D01*
X-22793333Y20177142D02*
X-22774285Y20158095D01*
X-22717142Y20139047D01*
X-22679047Y20139047D01*
X-22621904Y20158095D01*
X-22583809Y20196190D01*
X-22564761Y20234285D01*
X-22545714Y20310476D01*
X-22545714Y20367619D01*
X-22564761Y20443809D01*
X-22583809Y20481904D01*
X-22621904Y20520000D01*
X-22679047Y20539047D01*
X-22717142Y20539047D01*
X-22774285Y20520000D01*
X-22793333Y20500952D01*
X-22926666Y20539047D02*
X-23174285Y20539047D01*
X-23040952Y20386666D01*
X-23098095Y20386666D01*
X-23136190Y20367619D01*
X-23155238Y20348571D01*
X-23174285Y20310476D01*
X-23174285Y20215238D01*
X-23155238Y20177142D01*
X-23136190Y20158095D01*
X-23098095Y20139047D01*
X-22983809Y20139047D01*
X-22945714Y20158095D01*
X-22926666Y20177142D01*
X34610666Y19161142D02*
X34629714Y19142095D01*
X34686857Y19123047D01*
X34724952Y19123047D01*
X34782095Y19142095D01*
X34820190Y19180190D01*
X34839238Y19218285D01*
X34858285Y19294476D01*
X34858285Y19351619D01*
X34839238Y19427809D01*
X34820190Y19465904D01*
X34782095Y19504000D01*
X34724952Y19523047D01*
X34686857Y19523047D01*
X34629714Y19504000D01*
X34610666Y19484952D01*
X34458285Y19484952D02*
X34439238Y19504000D01*
X34401142Y19523047D01*
X34305904Y19523047D01*
X34267809Y19504000D01*
X34248761Y19484952D01*
X34229714Y19446857D01*
X34229714Y19408761D01*
X34248761Y19351619D01*
X34477333Y19123047D01*
X34229714Y19123047D01*
D12*
X-2824238Y16697476D02*
X-2824238Y17967476D01*
X-4154714Y16818428D02*
X-4094238Y16757952D01*
X-3912809Y16697476D01*
X-3791857Y16697476D01*
X-3610428Y16757952D01*
X-3489476Y16878904D01*
X-3429000Y16999857D01*
X-3368523Y17241761D01*
X-3368523Y17423190D01*
X-3429000Y17665095D01*
X-3489476Y17786047D01*
X-3610428Y17907000D01*
X-3791857Y17967476D01*
X-3912809Y17967476D01*
X-4094238Y17907000D01*
X-4154714Y17846523D01*
X-5364238Y16697476D02*
X-4638523Y16697476D01*
X-5001380Y16697476D02*
X-5001380Y17967476D01*
X-4880428Y17786047D01*
X-4759476Y17665095D01*
X-4638523Y17604619D01*
D10*
X29162333Y17819619D02*
X29162333Y17105333D01*
X29209952Y16962476D01*
X29305190Y16867238D01*
X29448047Y16819619D01*
X29543285Y16819619D01*
X28162333Y16819619D02*
X28733761Y16819619D01*
X28448047Y16819619D02*
X28448047Y17819619D01*
X28543285Y17676761D01*
X28638523Y17581523D01*
X28733761Y17533904D01*
D11*
X-37398333Y23225142D02*
X-37379285Y23206095D01*
X-37322142Y23187047D01*
X-37284047Y23187047D01*
X-37226904Y23206095D01*
X-37188809Y23244190D01*
X-37169761Y23282285D01*
X-37150714Y23358476D01*
X-37150714Y23415619D01*
X-37169761Y23491809D01*
X-37188809Y23529904D01*
X-37226904Y23568000D01*
X-37284047Y23587047D01*
X-37322142Y23587047D01*
X-37379285Y23568000D01*
X-37398333Y23548952D01*
X-37779285Y23187047D02*
X-37550714Y23187047D01*
X-37665000Y23187047D02*
X-37665000Y23587047D01*
X-37626904Y23529904D01*
X-37588809Y23491809D01*
X-37550714Y23472761D01*
D10*
X-32258000Y3985000D02*
X-23368000Y3985000D01*
X-34798000Y-1984000D02*
X-34798000Y-2365000D01*
X-30912162Y-2365000D02*
X-32639000Y-2365000D01*
X-23368000Y-460000D02*
X-28448000Y-460000D01*
X-23368000Y556000D02*
X-23368000Y-460000D01*
X-23368000Y3985000D02*
X-23368000Y3604000D01*
X-34798000Y1445000D02*
X-34798000Y1064000D01*
X-34417000Y-2365000D02*
X-34798000Y-2365000D01*
X-28448000Y-459999D02*
G75*
G03*
X-30912162Y-2383960I0J-2540000D01*
G01*
X-32258000Y3985000D02*
G75*
G03*
X-34798000Y1445000I1J-2540001D01*
G01*
X24892000Y-15065000D02*
X33782000Y-15065000D01*
X26237838Y-21415000D02*
X24511000Y-21415000D01*
X33782000Y-19510000D02*
X28702000Y-19510000D01*
X22352000Y-21034000D02*
X22352000Y-21415000D01*
X33782000Y-15065000D02*
X33782000Y-15446000D01*
X33782000Y-18494000D02*
X33782000Y-19510000D01*
X22733000Y-21415000D02*
X22352000Y-21415000D01*
X22352000Y-17605000D02*
X22352000Y-17986000D01*
X24892000Y-15065000D02*
G75*
G03*
X22352000Y-17605000I1J-2540001D01*
G01*
X28702000Y-19509999D02*
G75*
G03*
X26237838Y-21433960I0J-2540000D01*
G01*
X-4318000Y3985000D02*
X-4318000Y3604000D01*
X-15748000Y1445000D02*
X-15748000Y1064000D01*
X-4318000Y-460000D02*
X-9398000Y-460000D01*
X-13208000Y3985000D02*
X-4318000Y3985000D01*
X-11862162Y-2365000D02*
X-13589000Y-2365000D01*
X-15367000Y-2365000D02*
X-15748000Y-2365000D01*
X-4318000Y556000D02*
X-4318000Y-460000D01*
X-15748000Y-1984000D02*
X-15748000Y-2365000D01*
X-13208000Y3985000D02*
G75*
G03*
X-15748000Y1445000I1J-2540001D01*
G01*
X-9398000Y-459999D02*
G75*
G03*
X-11862162Y-2383960I0J-2540000D01*
G01*
X-4318000Y-15065000D02*
X-4318000Y-15446000D01*
X-4318000Y-19510000D02*
X-9398000Y-19510000D01*
X-15367000Y-21415000D02*
X-15748000Y-21415000D01*
X-15748000Y-21034000D02*
X-15748000Y-21415000D01*
X-11862162Y-21415000D02*
X-13589000Y-21415000D01*
X-15748000Y-17605000D02*
X-15748000Y-17986000D01*
X-4318000Y-18494000D02*
X-4318000Y-19510000D01*
X-13208000Y-15065000D02*
X-4318000Y-15065000D01*
X-9398000Y-19509999D02*
G75*
G03*
X-11862162Y-21433960I0J-2540000D01*
G01*
X-13208000Y-15065000D02*
G75*
G03*
X-15748000Y-17605000I1J-2540001D01*
G01*
X33782000Y556000D02*
X33782000Y-460000D01*
X26237838Y-2365000D02*
X24511000Y-2365000D01*
X33782000Y-460000D02*
X28702000Y-460000D01*
X22352000Y1445000D02*
X22352000Y1064000D01*
X24892000Y3985000D02*
X33782000Y3985000D01*
X22352000Y-1984000D02*
X22352000Y-2365000D01*
X22733000Y-2365000D02*
X22352000Y-2365000D01*
X33782000Y3985000D02*
X33782000Y3604000D01*
X28702000Y-459999D02*
G75*
G03*
X26237838Y-2383960I0J-2540000D01*
G01*
X24892000Y3985000D02*
G75*
G03*
X22352000Y1445000I1J-2540001D01*
G01*
X14732000Y-15065000D02*
X14732000Y-15446000D01*
X14732000Y-19510000D02*
X9652000Y-19510000D01*
X14732000Y-18494000D02*
X14732000Y-19510000D01*
X3683000Y-21415000D02*
X3302000Y-21415000D01*
X7187838Y-21415000D02*
X5461000Y-21415000D01*
X3302000Y-21034000D02*
X3302000Y-21415000D01*
X5842000Y-15065000D02*
X14732000Y-15065000D01*
X3302000Y-17605000D02*
X3302000Y-17986000D01*
X9652000Y-19509999D02*
G75*
G03*
X7187838Y-21433960I0J-2540000D01*
G01*
X5842000Y-15065000D02*
G75*
G03*
X3302000Y-17605000I1J-2540001D01*
G01*
X14732000Y556000D02*
X14732000Y-460000D01*
X5842000Y3985000D02*
X14732000Y3985000D01*
X3302000Y-1984000D02*
X3302000Y-2365000D01*
X3683000Y-2365000D02*
X3302000Y-2365000D01*
X14732000Y3985000D02*
X14732000Y3604000D01*
X3302000Y1445000D02*
X3302000Y1064000D01*
X7187838Y-2365000D02*
X5461000Y-2365000D01*
X14732000Y-460000D02*
X9652000Y-460000D01*
X5842000Y3985000D02*
G75*
G03*
X3302000Y1445000I1J-2540001D01*
G01*
X9652000Y-459999D02*
G75*
G03*
X7187838Y-2383960I0J-2540000D01*
G01*
X-32258000Y-15065000D02*
X-23368000Y-15065000D01*
X-34798000Y-21034000D02*
X-34798000Y-21415000D01*
X-23368000Y-18494000D02*
X-23368000Y-19510000D01*
X-23368000Y-15065000D02*
X-23368000Y-15446000D01*
X-30912162Y-21415000D02*
X-32639000Y-21415000D01*
X-34417000Y-21415000D02*
X-34798000Y-21415000D01*
X-23368000Y-19510000D02*
X-28448000Y-19510000D01*
X-34798000Y-17605000D02*
X-34798000Y-17986000D01*
X-28448000Y-19509999D02*
G75*
G03*
X-30912162Y-21433960I0J-2540000D01*
G01*
X-32258000Y-15065000D02*
G75*
G03*
X-34798000Y-17605000I1J-2540001D01*
G01*
X-4318000Y-38560000D02*
X-9398000Y-38560000D01*
X-15748000Y-40084000D02*
X-15748000Y-40465000D01*
X-11862162Y-40465000D02*
X-13589000Y-40465000D01*
X-4318000Y-34115000D02*
X-4318000Y-34496000D01*
X-13208000Y-34115000D02*
X-4318000Y-34115000D01*
X-15367000Y-40465000D02*
X-15748000Y-40465000D01*
X-4318000Y-37544000D02*
X-4318000Y-38560000D01*
X-15748000Y-36655000D02*
X-15748000Y-37036000D01*
X-13208000Y-34115000D02*
G75*
G03*
X-15748000Y-36655000I1J-2540001D01*
G01*
X-9398000Y-38559999D02*
G75*
G03*
X-11862162Y-40483960I0J-2540000D01*
G01*
X-23368000Y-34115000D02*
X-23368000Y-34496000D01*
X-34798000Y-40084000D02*
X-34798000Y-40465000D01*
X-34798000Y-36655000D02*
X-34798000Y-37036000D01*
X-30912162Y-40465000D02*
X-32639000Y-40465000D01*
X-32258000Y-34115000D02*
X-23368000Y-34115000D01*
X-34417000Y-40465000D02*
X-34798000Y-40465000D01*
X-23368000Y-38560000D02*
X-28448000Y-38560000D01*
X-23368000Y-37544000D02*
X-23368000Y-38560000D01*
X-32258000Y-34115000D02*
G75*
G03*
X-34798000Y-36655000I1J-2540001D01*
G01*
X-28448000Y-38559999D02*
G75*
G03*
X-30912162Y-40483960I0J-2540000D01*
G01*
X33782000Y-38560000D02*
X28702000Y-38560000D01*
X24892000Y-34115000D02*
X33782000Y-34115000D01*
X26237838Y-40465000D02*
X24511000Y-40465000D01*
X33782000Y-37544000D02*
X33782000Y-38560000D01*
X22352000Y-40084000D02*
X22352000Y-40465000D01*
X33782000Y-34115000D02*
X33782000Y-34496000D01*
X22352000Y-36655000D02*
X22352000Y-37036000D01*
X22733000Y-40465000D02*
X22352000Y-40465000D01*
X24892000Y-34115000D02*
G75*
G03*
X22352000Y-36655000I1J-2540001D01*
G01*
X28702000Y-38559999D02*
G75*
G03*
X26237838Y-40483960I0J-2540000D01*
G01*
X14732000Y-37544000D02*
X14732000Y-38560000D01*
X3683000Y-40465000D02*
X3302000Y-40465000D01*
X7187838Y-40465000D02*
X5461000Y-40465000D01*
X14732000Y-34115000D02*
X14732000Y-34496000D01*
X3302000Y-36655000D02*
X3302000Y-37036000D01*
X3302000Y-40084000D02*
X3302000Y-40465000D01*
X14732000Y-38560000D02*
X9652000Y-38560000D01*
X5842000Y-34115000D02*
X14732000Y-34115000D01*
X5842000Y-34115000D02*
G75*
G03*
X3302000Y-36655000I1J-2540001D01*
G01*
X9652000Y-38559999D02*
G75*
G03*
X7187838Y-40483960I0J-2540000D01*
G01*
D13*
X-5618267Y32002000D02*
X-5275733Y32002000D01*
X-5618267Y33022000D02*
X-5275733Y33022000D01*
X-4210267Y22862000D02*
X-3917733Y22862000D01*
X-4210267Y21842000D02*
X-3917733Y21842000D01*
X-14582112Y28659000D02*
X-14582112Y29948000D01*
X-15503112Y28415000D02*
X-15503112Y29948000D01*
X-14942112Y28520000D02*
X-14942112Y29948000D01*
X-14622112Y32028000D02*
X-14622112Y33336000D01*
X-13982112Y32028000D02*
X-13982112Y32925000D01*
X-15343112Y28432000D02*
X-15343112Y29948000D01*
X-15383112Y28427000D02*
X-15383112Y29948000D01*
X-13702112Y29335000D02*
X-13702112Y29948000D01*
X-13342112Y29890000D02*
X-13342112Y32086000D01*
X-14782112Y32028000D02*
X-14782112Y33402000D01*
X-14982112Y32028000D02*
X-14982112Y33468000D01*
X-18507887Y29513000D02*
X-18007887Y29513000D01*
X-15263112Y32028000D02*
X-15263112Y33531000D01*
X-14782112Y28574000D02*
X-14782112Y29948000D01*
X-14102112Y32028000D02*
X-14102112Y33023000D01*
X-13182112Y30311000D02*
X-13182112Y31665000D01*
X-14302112Y32028000D02*
X-14302112Y33163000D01*
X-15343112Y32028000D02*
X-15343112Y33544000D01*
X-15703112Y32028000D02*
X-15703112Y33568000D01*
X-15543112Y28412000D02*
X-15543112Y29948000D01*
X-13702112Y32028000D02*
X-13702112Y32641000D01*
X-13742112Y29289000D02*
X-13742112Y29948000D01*
X-13942112Y29087000D02*
X-13942112Y29948000D01*
X-14542112Y28678000D02*
X-14542112Y29948000D01*
X-13902112Y29124000D02*
X-13902112Y29948000D01*
X-14542112Y32028000D02*
X-14542112Y33298000D01*
X-14142112Y32028000D02*
X-14142112Y33053000D01*
X-14462112Y32028000D02*
X-14462112Y33256000D01*
X-15143112Y32028000D02*
X-15143112Y33508000D01*
X-15183112Y32028000D02*
X-15183112Y33516000D01*
X-18257887Y29263000D02*
X-18257887Y29763000D01*
X-14062112Y28984000D02*
X-14062112Y29948000D01*
X-15463112Y28419000D02*
X-15463112Y29948000D01*
X-13942112Y32028000D02*
X-13942112Y32889000D01*
X-13142112Y30470000D02*
X-13142112Y31506000D01*
X-15463112Y32028000D02*
X-15463112Y33557000D01*
X-14022112Y29017000D02*
X-14022112Y29948000D01*
X-15583112Y28410000D02*
X-15583112Y29948000D01*
X-14862112Y28546000D02*
X-14862112Y29948000D01*
X-15663112Y28408000D02*
X-15663112Y29948000D01*
X-14622112Y28640000D02*
X-14622112Y29948000D01*
X-13422112Y29737000D02*
X-13422112Y32239000D01*
X-14062112Y32028000D02*
X-14062112Y32992000D01*
X-14262112Y32028000D02*
X-14262112Y33137000D01*
X-15623112Y32028000D02*
X-15623112Y33567000D01*
X-13782112Y32028000D02*
X-13782112Y32731000D01*
X-14502112Y28698000D02*
X-14502112Y29948000D01*
X-14982112Y28508000D02*
X-14982112Y29948000D01*
X-15103112Y28477000D02*
X-15103112Y29948000D01*
X-13862112Y29162000D02*
X-13862112Y29948000D01*
X-15263112Y28445000D02*
X-15263112Y29948000D01*
X-15103112Y32028000D02*
X-15103112Y33499000D01*
X-15023112Y32028000D02*
X-15023112Y33479000D01*
X-13302112Y29977000D02*
X-13302112Y31999000D01*
X-14902112Y32028000D02*
X-14902112Y33443000D01*
X-14142112Y28923000D02*
X-14142112Y29948000D01*
X-13102112Y30704000D02*
X-13102112Y31272000D01*
X-14422112Y32028000D02*
X-14422112Y33235000D01*
X-14702112Y28606000D02*
X-14702112Y29948000D01*
X-15303112Y32028000D02*
X-15303112Y33538000D01*
X-13862112Y32028000D02*
X-13862112Y32814000D01*
X-13542112Y29545000D02*
X-13542112Y32431000D01*
X-13742112Y32028000D02*
X-13742112Y32687000D01*
X-14342112Y32028000D02*
X-14342112Y33188000D01*
X-15063112Y32028000D02*
X-15063112Y33489000D01*
X-15303112Y28438000D02*
X-15303112Y29948000D01*
X-14502112Y32028000D02*
X-14502112Y33278000D01*
X-14822112Y32028000D02*
X-14822112Y33416000D01*
X-14742112Y28590000D02*
X-14742112Y29948000D01*
X-15423112Y32028000D02*
X-15423112Y33553000D01*
X-15223112Y32028000D02*
X-15223112Y33524000D01*
X-15143112Y28468000D02*
X-15143112Y29948000D01*
X-13822112Y29203000D02*
X-13822112Y29948000D01*
X-14022112Y32028000D02*
X-14022112Y32959000D01*
X-13222112Y30183000D02*
X-13222112Y31793000D01*
X-15183112Y28460000D02*
X-15183112Y29948000D01*
X-15703112Y28408000D02*
X-15703112Y29948000D01*
X-15543112Y32028000D02*
X-15543112Y33564000D01*
X-14582112Y32028000D02*
X-14582112Y33317000D01*
X-14182112Y28893000D02*
X-14182112Y29948000D01*
X-14462112Y28720000D02*
X-14462112Y29948000D01*
X-15223112Y28452000D02*
X-15223112Y29948000D01*
X-14662112Y28623000D02*
X-14662112Y29948000D01*
X-13462112Y29669000D02*
X-13462112Y32307000D01*
X-14942112Y32028000D02*
X-14942112Y33456000D01*
X-14302112Y28813000D02*
X-14302112Y29948000D01*
X-14382112Y32028000D02*
X-14382112Y33212000D01*
X-14742112Y32028000D02*
X-14742112Y33386000D01*
X-15423112Y28423000D02*
X-15423112Y29948000D01*
X-14902112Y28533000D02*
X-14902112Y29948000D01*
X-13382112Y29810000D02*
X-13382112Y32166000D01*
X-13782112Y29245000D02*
X-13782112Y29948000D01*
X-13662112Y29383000D02*
X-13662112Y32593000D01*
X-14222112Y32028000D02*
X-14222112Y33110000D01*
X-14862112Y32028000D02*
X-14862112Y33430000D01*
X-14702112Y32028000D02*
X-14702112Y33370000D01*
X-15583112Y32028000D02*
X-15583112Y33566000D01*
X-14822112Y28560000D02*
X-14822112Y29948000D01*
X-15663112Y32028000D02*
X-15663112Y33568000D01*
X-14342112Y28788000D02*
X-14342112Y29948000D01*
X-14262112Y28839000D02*
X-14262112Y29948000D01*
X-15383112Y32028000D02*
X-15383112Y33549000D01*
X-13902112Y32028000D02*
X-13902112Y32852000D01*
X-13582112Y29488000D02*
X-13582112Y32488000D01*
X-13262112Y30073000D02*
X-13262112Y31903000D01*
X-15063112Y28487000D02*
X-15063112Y29948000D01*
X-13622112Y29434000D02*
X-13622112Y32542000D01*
X-14382112Y28764000D02*
X-14382112Y29948000D01*
X-14102112Y28953000D02*
X-14102112Y29948000D01*
X-13502112Y29605000D02*
X-13502112Y32371000D01*
X-14422112Y28741000D02*
X-14422112Y29948000D01*
X-14222112Y28866000D02*
X-14222112Y29948000D01*
X-14662112Y32028000D02*
X-14662112Y33353000D01*
X-15623112Y28409000D02*
X-15623112Y29948000D01*
X-13822112Y32028000D02*
X-13822112Y32773000D01*
X-15503112Y32028000D02*
X-15503112Y33561000D01*
X-15023112Y28497000D02*
X-15023112Y29948000D01*
X-13982112Y29051000D02*
X-13982112Y29948000D01*
X-14182112Y32028000D02*
X-14182112Y33083000D01*
X-13083112Y30988000D02*
G75*
G03*
X-13083112Y30988000I-2620000J0D01*
G01*
X-9428267Y28958000D02*
X-9085733Y28958000D01*
X-9428267Y27938000D02*
X-9085733Y27938000D01*
X-5618267Y28958000D02*
X-5275733Y28958000D01*
X-5618267Y27938000D02*
X-5275733Y27938000D01*
X-37279733Y27434000D02*
X-37622267Y27434000D01*
X-37279733Y26414000D02*
X-37622267Y26414000D01*
X-36286000Y32224000D02*
X-36286000Y32068000D01*
X-36286000Y29908000D02*
X-36286000Y29752000D01*
X-38887130Y29908163D02*
G75*
G03*
X-36805039Y29908000I1041130J1079837D01*
G01*
X-36286000Y32223516D02*
G75*
G03*
X-39518335Y32066608I-1560000J-1235516D01*
G01*
X-36805039Y32068000D02*
G75*
G03*
X-38887130Y32067837I-1040961J-1080000D01*
G01*
X-39518335Y29909392D02*
G75*
G03*
X-36286000Y29752484I1672335J1078608D01*
G01*
X-37622267Y18794000D02*
X-37279733Y18794000D01*
X-37622267Y19814000D02*
X-37279733Y19814000D01*
X-5618267Y29970000D02*
X-5275733Y29970000D01*
X-5618267Y30990000D02*
X-5275733Y30990000D01*
X-30937887Y33402000D02*
X-30937887Y32028000D01*
X-31777887Y29948000D02*
X-31777887Y29087000D01*
X-30656887Y33489000D02*
X-30656887Y32028000D01*
X-30296887Y29948000D02*
X-30296887Y28423000D01*
X-31977887Y32687000D02*
X-31977887Y32028000D01*
X-30096887Y29948000D02*
X-30096887Y28409000D01*
X-32577887Y31506000D02*
X-32577887Y30470000D01*
X-30777887Y29948000D02*
X-30777887Y28520000D01*
X-30536887Y29948000D02*
X-30536887Y28460000D01*
X-31577887Y33053000D02*
X-31577887Y32028000D01*
X-30016887Y29948000D02*
X-30016887Y28408000D01*
X-30977887Y33386000D02*
X-30977887Y32028000D01*
X-30897887Y33416000D02*
X-30897887Y32028000D01*
X-27462112Y32713000D02*
X-27462112Y32213000D01*
X-31697887Y29948000D02*
X-31697887Y29017000D01*
X-27212112Y32463000D02*
X-27712112Y32463000D01*
X-30496887Y29948000D02*
X-30496887Y28452000D01*
X-30536887Y33516000D02*
X-30536887Y32028000D01*
X-30056887Y33568000D02*
X-30056887Y32028000D01*
X-30336887Y29948000D02*
X-30336887Y28427000D01*
X-31377887Y29948000D02*
X-31377887Y28788000D01*
X-31297887Y29948000D02*
X-31297887Y28741000D01*
X-30176887Y33564000D02*
X-30176887Y32028000D01*
X-32457887Y31903000D02*
X-32457887Y30073000D01*
X-31257887Y33256000D02*
X-31257887Y32028000D01*
X-31737887Y32925000D02*
X-31737887Y32028000D01*
X-30056887Y29948000D02*
X-30056887Y28408000D01*
X-31817887Y32852000D02*
X-31817887Y32028000D01*
X-30656887Y29948000D02*
X-30656887Y28487000D01*
X-30496887Y33524000D02*
X-30496887Y32028000D01*
X-31457887Y33137000D02*
X-31457887Y32028000D01*
X-30576887Y33508000D02*
X-30576887Y32028000D01*
X-32137887Y32488000D02*
X-32137887Y29488000D01*
X-30416887Y29948000D02*
X-30416887Y28438000D01*
X-31497887Y33110000D02*
X-31497887Y32028000D01*
X-32417887Y31999000D02*
X-32417887Y29977000D01*
X-32017887Y32641000D02*
X-32017887Y32028000D01*
X-31457887Y29948000D02*
X-31457887Y28839000D01*
X-31617887Y29948000D02*
X-31617887Y28953000D01*
X-31577887Y29948000D02*
X-31577887Y28923000D01*
X-32377887Y32086000D02*
X-32377887Y29890000D01*
X-31737887Y29948000D02*
X-31737887Y29051000D01*
X-30416887Y33538000D02*
X-30416887Y32028000D01*
X-31897887Y32773000D02*
X-31897887Y32028000D01*
X-31777887Y32889000D02*
X-31777887Y32028000D01*
X-30296887Y33553000D02*
X-30296887Y32028000D01*
X-30096887Y33567000D02*
X-30096887Y32028000D01*
X-30696887Y33479000D02*
X-30696887Y32028000D01*
X-30857887Y33430000D02*
X-30857887Y32028000D01*
X-30216887Y29948000D02*
X-30216887Y28415000D01*
X-31697887Y32959000D02*
X-31697887Y32028000D01*
X-31657887Y29948000D02*
X-31657887Y28984000D01*
X-31657887Y32992000D02*
X-31657887Y32028000D01*
X-31897887Y29948000D02*
X-31897887Y29203000D01*
X-31137887Y29948000D02*
X-31137887Y28659000D01*
X-32617887Y31272000D02*
X-32617887Y30704000D01*
X-31177887Y33298000D02*
X-31177887Y32028000D01*
X-31497887Y29948000D02*
X-31497887Y28866000D01*
X-31257887Y29948000D02*
X-31257887Y28720000D01*
X-32297887Y32239000D02*
X-32297887Y29737000D01*
X-30616887Y33499000D02*
X-30616887Y32028000D01*
X-32017887Y29948000D02*
X-32017887Y29335000D01*
X-31417887Y33163000D02*
X-31417887Y32028000D01*
X-30696887Y29948000D02*
X-30696887Y28497000D01*
X-31137887Y33317000D02*
X-31137887Y32028000D01*
X-30256887Y29948000D02*
X-30256887Y28419000D01*
X-31097887Y29948000D02*
X-31097887Y28640000D01*
X-30256887Y33557000D02*
X-30256887Y32028000D01*
X-31057887Y33353000D02*
X-31057887Y32028000D01*
X-30817887Y29948000D02*
X-30817887Y28533000D01*
X-30576887Y29948000D02*
X-30576887Y28468000D01*
X-31177887Y29948000D02*
X-31177887Y28678000D01*
X-31217887Y29948000D02*
X-31217887Y28698000D01*
X-31977887Y29948000D02*
X-31977887Y29289000D01*
X-31537887Y29948000D02*
X-31537887Y28893000D01*
X-30456887Y33531000D02*
X-30456887Y32028000D01*
X-32097887Y32542000D02*
X-32097887Y29434000D01*
X-32257887Y32307000D02*
X-32257887Y29669000D01*
X-30897887Y29948000D02*
X-30897887Y28560000D01*
X-31337887Y33212000D02*
X-31337887Y32028000D01*
X-31337887Y29948000D02*
X-31337887Y28764000D01*
X-31017887Y29948000D02*
X-31017887Y28606000D01*
X-31857887Y32814000D02*
X-31857887Y32028000D01*
X-30777887Y33456000D02*
X-30777887Y32028000D01*
X-30016887Y33568000D02*
X-30016887Y32028000D01*
X-30376887Y29948000D02*
X-30376887Y28432000D01*
X-31057887Y29948000D02*
X-31057887Y28623000D01*
X-31617887Y33023000D02*
X-31617887Y32028000D01*
X-30136887Y29948000D02*
X-30136887Y28410000D01*
X-30336887Y33549000D02*
X-30336887Y32028000D01*
X-31817887Y29948000D02*
X-31817887Y29124000D01*
X-31857887Y29948000D02*
X-31857887Y29162000D01*
X-30176887Y29948000D02*
X-30176887Y28412000D01*
X-30737887Y29948000D02*
X-30737887Y28508000D01*
X-30616887Y29948000D02*
X-30616887Y28477000D01*
X-30376887Y33544000D02*
X-30376887Y32028000D01*
X-30977887Y29948000D02*
X-30977887Y28590000D01*
X-32537887Y31665000D02*
X-32537887Y30311000D01*
X-32217887Y32371000D02*
X-32217887Y29605000D01*
X-31017887Y33370000D02*
X-31017887Y32028000D01*
X-31377887Y33188000D02*
X-31377887Y32028000D01*
X-30817887Y33443000D02*
X-30817887Y32028000D01*
X-30857887Y29948000D02*
X-30857887Y28546000D01*
X-32057887Y32593000D02*
X-32057887Y29383000D01*
X-31217887Y33278000D02*
X-31217887Y32028000D01*
X-31937887Y32731000D02*
X-31937887Y32028000D01*
X-32337887Y32166000D02*
X-32337887Y29810000D01*
X-30937887Y29948000D02*
X-30937887Y28574000D01*
X-30136887Y33566000D02*
X-30136887Y32028000D01*
X-31937887Y29948000D02*
X-31937887Y29245000D01*
X-31417887Y29948000D02*
X-31417887Y28813000D01*
X-31097887Y33336000D02*
X-31097887Y32028000D01*
X-30737887Y33468000D02*
X-30737887Y32028000D01*
X-30216887Y33561000D02*
X-30216887Y32028000D01*
X-32497887Y31793000D02*
X-32497887Y30183000D01*
X-31537887Y33083000D02*
X-31537887Y32028000D01*
X-31297887Y33235000D02*
X-31297887Y32028000D01*
X-32177887Y32431000D02*
X-32177887Y29545000D01*
X-30456887Y29948000D02*
X-30456887Y28445000D01*
X-27396887Y30988000D02*
G75*
G03*
X-27396887Y30988000I-2620000J0D01*
G01*
X-22100000Y17328000D02*
X-23560000Y17328000D01*
X-22100000Y14168000D02*
X-22100000Y15098000D01*
X-22100000Y14168000D02*
X-24260000Y14168000D01*
X-22100000Y17328000D02*
X-22100000Y16398000D01*
X-23031267Y31494000D02*
X-22688733Y31494000D01*
X-23031267Y32514000D02*
X-22688733Y32514000D01*
X-1080000Y27793000D02*
X-1545000Y27793000D01*
X1545000Y27793000D02*
X1080000Y27793000D01*
X1544830Y27793000D02*
G75*
G03*
X1080827Y33140815I-1544830J2560000D01*
G01*
X-1080429Y32607479D02*
G75*
G03*
X-1080000Y28098316I1080429J-2254479D01*
G01*
X1080000Y28098316D02*
G75*
G03*
X1080429Y32607479I-1080000J2254684D01*
G01*
X-1080827Y33140815D02*
G75*
G03*
X-1544830Y27793000I1080827J-2787815D01*
G01*
D14*
X-23164800Y29997400D02*
X-22555200Y29997400D01*
X-22555200Y29997400D02*
X-22250400Y29997400D01*
X-23469600Y29997400D02*
X-23164800Y29997400D01*
D15*
X-23164800Y29997400D02*
G75*
G03*
X-22555200Y29997400I304800J0D01*
G01*
D13*
X-23006267Y19814000D02*
X-22713733Y19814000D01*
X-23006267Y18794000D02*
X-22713733Y18794000D01*
X34034000Y17125733D02*
X34034000Y17418267D01*
X35054000Y17125733D02*
X35054000Y17418267D01*
D16*
X-2314000Y14022000D02*
X-2314000Y20522000D01*
X-5814000Y20522000D02*
X-5814000Y14022000D01*
X-5814000Y14022000D02*
X-2314000Y14022000D01*
X-2314000Y20522000D02*
X-5814000Y20522000D01*
X-39000Y20397000D02*
X-1789000Y20397000D01*
D13*
X31382000Y15712000D02*
X32272000Y15712000D01*
X31382000Y14262000D02*
X31382000Y15712000D01*
X27412000Y14262000D02*
X26862000Y14262000D01*
X29632000Y14262000D02*
X31382000Y14262000D01*
X29632000Y20282000D02*
X31382000Y20282000D01*
X26862000Y20282000D02*
X27412000Y20282000D01*
X31382000Y20282000D02*
X31382000Y18832000D01*
X26862000Y14262000D02*
X26862000Y20282000D01*
X-37584767Y22862000D02*
X-37292233Y22862000D01*
X-37584767Y21842000D02*
X-37292233Y21842000D01*
%LPC*%
D17*
X-25908000Y2080000D03*
D18*
X-23368000Y-3000000D03*
D19*
X-28448000Y-3000000D03*
D18*
X-33528000Y-3000000D03*
D17*
X-32258000Y-460000D03*
D20*
X-22158000Y2080000D03*
X-36008000Y-460000D03*
D18*
X23622000Y-22050000D03*
D17*
X31242000Y-16970000D03*
D19*
X28702000Y-22050000D03*
D17*
X24892000Y-19510000D03*
D18*
X33782000Y-22050000D03*
D20*
X34992000Y-16970000D03*
X21142000Y-19510000D03*
D17*
X-13208000Y-460000D03*
X-6858000Y2080000D03*
D18*
X-14478000Y-3000000D03*
X-4318000Y-3000000D03*
D19*
X-9398000Y-3000000D03*
D20*
X-3108000Y2080000D03*
X-16958000Y-460000D03*
D18*
X-14478000Y-22050000D03*
X-4318000Y-22050000D03*
D17*
X-13208000Y-19510000D03*
D19*
X-9398000Y-22050000D03*
D17*
X-6858000Y-16970000D03*
D20*
X-3108000Y-16970000D03*
X-16958000Y-19510000D03*
D18*
X33782000Y-3000000D03*
D17*
X24892000Y-460000D03*
D19*
X28702000Y-3000000D03*
D17*
X31242000Y2080000D03*
D18*
X23622000Y-3000000D03*
D20*
X34992000Y2080000D03*
X21142000Y-460000D03*
D18*
X4572000Y-22050000D03*
X14732000Y-22050000D03*
D17*
X5842000Y-19510000D03*
X12192000Y-16970000D03*
D19*
X9652000Y-22050000D03*
D20*
X15942000Y-16970000D03*
X2092000Y-19510000D03*
D17*
X12192000Y2080000D03*
D18*
X4572000Y-3000000D03*
D17*
X5842000Y-460000D03*
D18*
X14732000Y-3000000D03*
D19*
X9652000Y-3000000D03*
D20*
X15942000Y2080000D03*
X2092000Y-460000D03*
D19*
X-28448000Y-22050000D03*
D18*
X-23368000Y-22050000D03*
X-33528000Y-22050000D03*
D17*
X-32258000Y-19510000D03*
X-25908000Y-16970000D03*
D20*
X-22158000Y-16970000D03*
X-36008000Y-19510000D03*
D21*
X-40500000Y40500000D03*
X40500000Y40500000D03*
D18*
X-14478000Y-41100000D03*
D17*
X-13208000Y-38560000D03*
D19*
X-9398000Y-41100000D03*
D18*
X-4318000Y-41100000D03*
D17*
X-6858000Y-36020000D03*
D20*
X-3108000Y-36020000D03*
X-16958000Y-38560000D03*
D18*
X-23368000Y-41100000D03*
D17*
X-32258000Y-38560000D03*
D18*
X-33528000Y-41100000D03*
D17*
X-25908000Y-36020000D03*
D19*
X-28448000Y-41100000D03*
D20*
X-22158000Y-36020000D03*
X-36008000Y-38560000D03*
D21*
X40500000Y5000000D03*
X-40500000Y5000000D03*
D22*
X18000000Y33500000D03*
D18*
X23622000Y-41100000D03*
D17*
X31242000Y-36020000D03*
D18*
X33782000Y-41100000D03*
D19*
X28702000Y-41100000D03*
D17*
X24892000Y-38560000D03*
D20*
X34992000Y-36020000D03*
X21142000Y-38560000D03*
D23*
X31930000Y41148000D03*
X29030000Y41148000D03*
D21*
X-40500000Y-48000000D03*
D18*
X14732000Y-41100000D03*
D17*
X5842000Y-38560000D03*
X12192000Y-36020000D03*
D18*
X4572000Y-41100000D03*
D19*
X9652000Y-41100000D03*
D20*
X15942000Y-36020000D03*
X2092000Y-38560000D03*
D24*
X4064000Y35560000D03*
D25*
X1524000Y35560000D03*
X-1016000Y35560000D03*
X-3556000Y35560000D03*
X-6096000Y35560000D03*
X-8636000Y35560000D03*
X-11176000Y35560000D03*
X-13716000Y35560000D03*
X-16256000Y35560000D03*
X-18796000Y35560000D03*
X-21336000Y35560000D03*
X-23876000Y35560000D03*
X-26416000Y35560000D03*
X-28956000Y35560000D03*
X-31496000Y35560000D03*
X-34036000Y35560000D03*
X-36576000Y35560000D03*
X-39116000Y35560000D03*
X-41656000Y35560000D03*
X4064000Y10160000D03*
X1524000Y10160000D03*
X-1016000Y10160000D03*
X-3556000Y10160000D03*
X-6096000Y10160000D03*
X-8636000Y10160000D03*
X-11176000Y10160000D03*
X-13716000Y10160000D03*
X-16256000Y10160000D03*
X-18796000Y10160000D03*
X-21336000Y10160000D03*
X-23876000Y10160000D03*
X-26416000Y10160000D03*
X-28956000Y10160000D03*
X-31496000Y10160000D03*
X-34036000Y10160000D03*
X-36576000Y10160000D03*
X-39116000Y10160000D03*
X-41656000Y10160000D03*
D21*
X40500000Y-48000000D03*
D26*
X-6322000Y32512000D03*
X-4572000Y32512000D03*
D27*
X-4926500Y22352000D03*
X-3201500Y22352000D03*
D28*
X-16703112Y30988000D03*
D29*
X-14703112Y30988000D03*
D26*
X-10132000Y28448000D03*
X-8382000Y28448000D03*
X-6322000Y28448000D03*
X-4572000Y28448000D03*
D30*
X-36576000Y26924000D03*
X-38326000Y26924000D03*
D31*
X-36576000Y30988000D03*
D32*
X-39116000Y30988000D03*
D26*
X-38326000Y19304000D03*
X-36576000Y19304000D03*
X-6322000Y30480000D03*
X-4572000Y30480000D03*
D28*
X-29016887Y30988000D03*
D29*
X-31016887Y30988000D03*
D33*
X-23860000Y14798000D03*
X-23860000Y16698000D03*
X-21860000Y15748000D03*
D26*
X-23735000Y32004000D03*
X-21985000Y32004000D03*
D34*
X0Y28448000D03*
D35*
X0Y29718000D03*
X0Y30988000D03*
X0Y32258000D03*
D36*
X-21564600Y29387800D03*
X-21564600Y28448000D03*
X-21564600Y27508200D03*
X-24155400Y27508200D03*
X-24155400Y29387800D03*
D27*
X-23722500Y19304000D03*
X-21997500Y19304000D03*
D37*
X34544000Y16409500D03*
X34544000Y18134500D03*
D38*
X-914000Y19572000D03*
X-914000Y17272000D03*
X-914000Y14972000D03*
D39*
X-7214000Y17272000D03*
D40*
X31647000Y16272000D03*
X31647000Y17272000D03*
X31647000Y18272000D03*
D41*
X28522000Y14822000D03*
X28522000Y19722000D03*
D27*
X-38301000Y22352000D03*
X-36576000Y22352000D03*
M02*
