M48
; DRILL file {KiCad (5.1.6)-1} date 05/26/21 01:20:42
; FORMAT={-:-/ absolute / metric / decimal}
; #@! TF.CreationDate,2021-05-26T01:20:42+09:00
; #@! TF.GenerationSoftware,Kicad,Pcbnew,(5.1.6)-1
FMAT,2
METRIC
T1C0.400
T2C0.750
T3C0.800
T4C0.900
T5C1.000
T6C1.200
T7C1.702
T8C3.000
T9C3.200
T10C3.988
%
G90
G05
T1
X5.08Y-10.16
X5.08Y-20.32
X5.08Y-30.48
X5.08Y-40.64
X10.16Y-5.08
X16.51Y-17.78
X22.86Y-10.795
X22.86Y-15.24
X30.48Y-5.08
X40.64Y-5.08
X43.18Y-48.26
X45.72Y-44.45
X50.8Y-5.08
X55.88Y-50.8
X60.96Y-5.08
X63.5Y-45.72
X66.04Y-38.1
X71.12Y-5.08
X81.28Y-5.08
X81.28Y-45.72
X86.36Y-10.16
X86.36Y-20.32
X86.36Y-30.48
T2
X26.67Y-31.02
X26.67Y-33.02
T3
X45.085Y-48.26
X45.085Y-50.26
T4
X64.135Y-48.26
X64.135Y-50.8
X26.035Y-46.99
X26.035Y-48.26
X26.035Y-49.53
X26.035Y-50.8
X26.48Y-12.7
X30.48Y-12.7
X34.48Y-12.7
T5
X44.45Y-8.89
X44.45Y-34.29
X46.99Y-8.89
X46.99Y-34.29
X49.53Y-8.89
X49.53Y-34.29
X52.07Y-8.89
X52.07Y-34.29
X54.61Y-8.89
X54.61Y-34.29
X57.15Y-8.89
X57.15Y-34.29
X59.69Y-8.89
X59.69Y-34.29
X62.23Y-8.89
X62.23Y-34.29
X64.77Y-8.89
X64.77Y-34.29
X67.31Y-8.89
X67.31Y-34.29
X69.85Y-8.89
X69.85Y-34.29
X72.39Y-8.89
X72.39Y-34.29
X74.93Y-8.89
X74.93Y-34.29
X77.47Y-8.89
X77.47Y-34.29
X80.01Y-8.89
X80.01Y-34.29
T6
X24.48Y-8.45
X24.48Y-14.45
X36.48Y-8.45
X36.48Y-14.45
T7
X11.43Y-44.45
X21.59Y-44.45
X30.48Y-25.4
X40.64Y-25.4
X49.53Y-44.45
X59.69Y-44.45
X49.53Y-25.4
X59.69Y-25.4
X11.43Y-25.4
X21.59Y-25.4
X68.58Y-25.4
X78.74Y-25.4
X30.48Y-44.45
X40.64Y-44.45
X68.58Y-44.45
X78.74Y-44.45
T8
X69.85Y-41.91
X76.2Y-39.37
X12.7Y-41.91
X19.05Y-39.37
X31.75Y-22.86
X38.1Y-20.32
X50.8Y-41.91
X57.15Y-39.37
X50.8Y-22.86
X57.15Y-20.32
X12.7Y-22.86
X19.05Y-20.32
X69.85Y-22.86
X76.2Y-20.32
X31.75Y-41.91
X38.1Y-39.37
T9
X87.0Y-51.0
X87.0Y-4.0
X4.0Y-51.0
X4.0Y-4.0
T10
X16.51Y-44.45
X35.56Y-25.4
X54.61Y-44.45
X54.61Y-25.4
X16.51Y-25.4
X73.66Y-25.4
X35.56Y-44.45
X73.66Y-44.45
T0
M30
