G04 #@! TF.GenerationSoftware,KiCad,Pcbnew,(6.0.6)*
G04 #@! TF.CreationDate,2022-07-26T07:29:36+09:00*
G04 #@! TF.ProjectId,ble_macro_keyboard,626c655f-6d61-4637-926f-5f6b6579626f,rev?*
G04 #@! TF.SameCoordinates,Original*
G04 #@! TF.FileFunction,Soldermask,Top*
G04 #@! TF.FilePolarity,Negative*
%FSLAX46Y46*%
G04 Gerber Fmt 4.6, Leading zero omitted, Abs format (unit mm)*
G04 Created by KiCad (PCBNEW (6.0.6)) date 2022-07-26 07:29:36*
%MOMM*%
%LPD*%
G01*
G04 APERTURE LIST*
%ADD10C,3.000000*%
%ADD11C,1.701800*%
%ADD12C,3.987800*%
%ADD13C,3.200000*%
%ADD14C,8.000000*%
%ADD15R,0.700000X1.000000*%
%ADD16C,0.800000*%
%ADD17R,1.000000X1.600000*%
%ADD18R,1.560000X1.560000*%
%ADD19C,1.560000*%
%ADD20R,1.600000X1.600000*%
%ADD21C,1.600000*%
%ADD22R,1.800000X1.800000*%
%ADD23C,1.800000*%
%ADD24R,1.800000X1.070000*%
%ADD25O,1.800000X1.070000*%
G04 APERTURE END LIST*
D10*
X-25908000Y2080000D03*
D11*
X-23368000Y-3000000D03*
D12*
X-28448000Y-3000000D03*
D11*
X-33528000Y-3000000D03*
D10*
X-32258000Y-460000D03*
D11*
X23622000Y-22050000D03*
D10*
X31242000Y-16970000D03*
D12*
X28702000Y-22050000D03*
D10*
X24892000Y-19510000D03*
D11*
X33782000Y-22050000D03*
D10*
X-13208000Y-460000D03*
X-6858000Y2080000D03*
D11*
X-14478000Y-3000000D03*
X-4318000Y-3000000D03*
D12*
X-9398000Y-3000000D03*
D11*
X-14478000Y-22050000D03*
X-4318000Y-22050000D03*
D10*
X-13208000Y-19510000D03*
D12*
X-9398000Y-22050000D03*
D10*
X-6858000Y-16970000D03*
D11*
X33782000Y-3000000D03*
D10*
X24892000Y-460000D03*
D12*
X28702000Y-3000000D03*
D10*
X31242000Y2080000D03*
D11*
X23622000Y-3000000D03*
X4572000Y-22050000D03*
X14732000Y-22050000D03*
D10*
X5842000Y-19510000D03*
X12192000Y-16970000D03*
D12*
X9652000Y-22050000D03*
D10*
X12192000Y2080000D03*
D11*
X4572000Y-3000000D03*
D10*
X5842000Y-460000D03*
D11*
X14732000Y-3000000D03*
D12*
X9652000Y-3000000D03*
X-28448000Y-22050000D03*
D11*
X-23368000Y-22050000D03*
X-33528000Y-22050000D03*
D10*
X-32258000Y-19510000D03*
X-25908000Y-16970000D03*
D13*
X-40500000Y40500000D03*
X40500000Y40500000D03*
D11*
X-14478000Y-41100000D03*
D10*
X-13208000Y-38560000D03*
D12*
X-9398000Y-41100000D03*
D11*
X-4318000Y-41100000D03*
D10*
X-6858000Y-36020000D03*
D11*
X-23368000Y-41100000D03*
D10*
X-32258000Y-38560000D03*
D11*
X-33528000Y-41100000D03*
D10*
X-25908000Y-36020000D03*
D12*
X-28448000Y-41100000D03*
D13*
X40500000Y5000000D03*
X-40500000Y5000000D03*
D14*
X18000000Y33500000D03*
D15*
X38650000Y29500000D03*
X38650000Y35500000D03*
X42350000Y35500000D03*
X42350000Y29500000D03*
D11*
X23622000Y-41100000D03*
D10*
X31242000Y-36020000D03*
D11*
X33782000Y-41100000D03*
D12*
X28702000Y-41100000D03*
D10*
X24892000Y-38560000D03*
D16*
X31930000Y41148000D03*
X29030000Y41148000D03*
D17*
X28280000Y38998000D03*
X29780000Y38998000D03*
X32680000Y38998000D03*
D13*
X-40500000Y-48000000D03*
D11*
X14732000Y-41100000D03*
D10*
X5842000Y-38560000D03*
X12192000Y-36020000D03*
D11*
X4572000Y-41100000D03*
D12*
X9652000Y-41100000D03*
D18*
X4064000Y35560000D03*
D19*
X1524000Y35560000D03*
X-1016000Y35560000D03*
X-3556000Y35560000D03*
X-6096000Y35560000D03*
X-8636000Y35560000D03*
X-11176000Y35560000D03*
X-13716000Y35560000D03*
X-16256000Y35560000D03*
X-18796000Y35560000D03*
X-21336000Y35560000D03*
X-23876000Y35560000D03*
X-26416000Y35560000D03*
X-28956000Y35560000D03*
X-31496000Y35560000D03*
X-34036000Y35560000D03*
X-36576000Y35560000D03*
X-39116000Y35560000D03*
X-41656000Y35560000D03*
X4064000Y10160000D03*
X1524000Y10160000D03*
X-1016000Y10160000D03*
X-3556000Y10160000D03*
X-6096000Y10160000D03*
X-8636000Y10160000D03*
X-11176000Y10160000D03*
X-13716000Y10160000D03*
X-16256000Y10160000D03*
X-18796000Y10160000D03*
X-21336000Y10160000D03*
X-23876000Y10160000D03*
X-26416000Y10160000D03*
X-28956000Y10160000D03*
X-31496000Y10160000D03*
X-34036000Y10160000D03*
X-36576000Y10160000D03*
X-39116000Y10160000D03*
X-41656000Y10160000D03*
D13*
X40500000Y-48000000D03*
D20*
X-16703112Y30988000D03*
D21*
X-14703112Y30988000D03*
D22*
X-36576000Y30988000D03*
D23*
X-39116000Y30988000D03*
D20*
X-29016887Y30988000D03*
D21*
X-31016887Y30988000D03*
D24*
X0Y28448000D03*
D25*
X0Y29718000D03*
X0Y30988000D03*
X0Y32258000D03*
M02*
