M48
; DRILL file {KiCad (6.0.6)} date Tue Jul 26 08:16:19 2022
; FORMAT={-:-/ absolute / metric / decimal}
; #@! TF.CreationDate,2022-07-26T08:16:19+09:00
; #@! TF.GenerationSoftware,Kicad,Pcbnew,(6.0.6)
; #@! TF.FileFunction,MixedPlating,1,2
FMAT,2
METRIC
; #@! TA.AperFunction,Plated,PTH,ViaDrill
T1C0.400
; #@! TA.AperFunction,Plated,PTH,ComponentDrill
T2C0.800
; #@! TA.AperFunction,Plated,PTH,ComponentDrill
T3C0.900
; #@! TA.AperFunction,Plated,PTH,ComponentDrill
T4C1.040
; #@! TA.AperFunction,NonPlated,NPTH,ComponentDrill
T5C0.800
; #@! TA.AperFunction,NonPlated,NPTH,ComponentDrill
T6C1.702
; #@! TA.AperFunction,NonPlated,NPTH,ComponentDrill
T7C3.000
; #@! TA.AperFunction,NonPlated,NPTH,ComponentDrill
T8C3.200
; #@! TA.AperFunction,NonPlated,NPTH,ComponentDrill
T9C3.988
; #@! TA.AperFunction,NonPlated,NPTH,ComponentDrill
T10C8.000
%
G90
G05
T1
X32.75Y-42.45
X32.75Y-67.85
X32.75Y-86.9
X32.75Y-105.95
X39.1Y-20.86
X39.674Y-46.702
X40.116Y-35.084
X40.116Y-37.624
X42.148Y-39.656
X51.8Y-67.85
X51.8Y-86.9
X51.8Y-105.95
X54.34Y-41.18
X64.5Y-20.86
X64.5Y-36.1
X70.85Y-67.85
X70.85Y-86.9
X70.85Y-105.95
X74.66Y-31.02
X88.376Y-45.752
X89.9Y-31.02
X89.9Y-67.85
X89.9Y-86.9
X89.9Y-105.95
X103.108Y-24.924
X105.14Y-86.9
T2
X33.483Y-30.512
X35.483Y-30.512
X47.797Y-30.512
X49.797Y-30.512
T3
X25.384Y-30.512
X27.924Y-30.512
X64.5Y-29.242
X64.5Y-30.512
X64.5Y-31.782
X64.5Y-33.052
T4
X22.844Y-25.94
X22.844Y-51.34
X25.384Y-25.94
X25.384Y-51.34
X27.924Y-25.94
X27.924Y-51.34
X30.464Y-25.94
X30.464Y-51.34
X33.004Y-25.94
X33.004Y-51.34
X35.544Y-25.94
X35.544Y-51.34
X38.084Y-25.94
X38.084Y-51.34
X40.624Y-25.94
X40.624Y-51.34
X43.164Y-25.94
X43.164Y-51.34
X45.704Y-25.94
X45.704Y-51.34
X48.244Y-25.94
X48.244Y-51.34
X50.784Y-25.94
X50.784Y-51.34
X53.324Y-25.94
X53.324Y-51.34
X55.864Y-25.94
X55.864Y-51.34
X58.404Y-25.94
X58.404Y-51.34
X60.944Y-25.94
X60.944Y-51.34
X63.484Y-25.94
X63.484Y-51.34
X66.024Y-25.94
X66.024Y-51.34
X68.564Y-25.94
X68.564Y-51.34
T5
X93.53Y-20.352
X96.43Y-20.352
T6
X30.972Y-64.5
X30.972Y-83.55
X30.972Y-102.6
X41.132Y-64.5
X41.132Y-83.55
X41.132Y-102.6
X50.022Y-64.5
X50.022Y-83.55
X50.022Y-102.6
X60.182Y-64.5
X60.182Y-83.55
X60.182Y-102.6
X69.072Y-64.5
X69.072Y-83.55
X69.072Y-102.6
X79.232Y-64.5
X79.232Y-83.55
X79.232Y-102.6
X88.122Y-64.5
X88.122Y-83.55
X88.122Y-102.6
X98.282Y-64.5
X98.282Y-83.55
X98.282Y-102.6
T7
X32.242Y-61.96
X32.242Y-81.01
X32.242Y-100.06
X38.592Y-59.42
X38.592Y-78.47
X38.592Y-97.52
X51.292Y-61.96
X51.292Y-81.01
X51.292Y-100.06
X57.642Y-59.42
X57.642Y-78.47
X57.642Y-97.52
X70.342Y-61.96
X70.342Y-81.01
X70.342Y-100.06
X76.692Y-59.42
X76.692Y-78.47
X76.692Y-97.52
X89.392Y-61.96
X89.392Y-81.01
X89.392Y-100.06
X95.742Y-59.42
X95.742Y-78.47
X95.742Y-97.52
T8
X24.0Y-21.0
X24.0Y-56.5
X24.0Y-110.0
X105.0Y-21.0
X105.0Y-56.5
X105.0Y-110.0
T9
X36.052Y-64.5
X36.052Y-83.55
X36.052Y-102.6
X55.102Y-64.5
X55.102Y-83.55
X55.102Y-102.6
X74.152Y-64.5
X74.152Y-83.55
X74.152Y-102.6
X93.202Y-64.5
X93.202Y-83.55
X93.202Y-102.6
T10
X82.5Y-28.0
T0
M30
