M48
; DRILL file {KiCad (6.0.6)} date Tue Jul 26 07:09:51 2022
; FORMAT={-:-/ absolute / metric / decimal}
; #@! TF.CreationDate,2022-07-26T07:09:51+09:00
; #@! TF.GenerationSoftware,Kicad,Pcbnew,(6.0.6)
; #@! TF.FileFunction,MixedPlating,1,2
FMAT,2
METRIC
; #@! TA.AperFunction,Plated,PTH,ViaDrill
T1C0.400
; #@! TA.AperFunction,Plated,PTH,ComponentDrill
T2C0.800
; #@! TA.AperFunction,Plated,PTH,ComponentDrill
T3C0.900
; #@! TA.AperFunction,Plated,PTH,ComponentDrill
T4C1.040
; #@! TA.AperFunction,NonPlated,NPTH,ComponentDrill
T5C0.800
; #@! TA.AperFunction,NonPlated,NPTH,ComponentDrill
T6C1.702
; #@! TA.AperFunction,NonPlated,NPTH,ComponentDrill
T7C3.000
; #@! TA.AperFunction,NonPlated,NPTH,ComponentDrill
T8C3.200
; #@! TA.AperFunction,NonPlated,NPTH,ComponentDrill
T9C3.988
; #@! TA.AperFunction,NonPlated,NPTH,ComponentDrill
T10C8.000
%
G90
G05
T1
X-31.75Y19.05
X-31.75Y-6.35
X-31.75Y-25.4
X-31.75Y-44.45
X-25.4Y40.64
X-24.826Y14.798
X-24.384Y26.416
X-24.384Y23.876
X-22.352Y21.844
X-12.7Y-6.35
X-12.7Y-25.4
X-12.7Y-44.45
X-10.16Y20.32
X0.0Y40.64
X0.0Y25.4
X6.35Y-6.35
X6.35Y-25.4
X6.35Y-44.45
X10.16Y30.48
X23.876Y15.748
X25.4Y30.48
X25.4Y-6.35
X25.4Y-25.4
X25.4Y-44.45
X38.608Y36.576
X40.64Y-25.4
T2
X-31.017Y30.988
X-29.017Y30.988
X-16.703Y30.988
X-14.703Y30.988
T3
X-39.116Y30.988
X-36.576Y30.988
X0.0Y32.258
X0.0Y30.988
X0.0Y29.718
X0.0Y28.448
T4
X-41.656Y35.56
X-41.656Y10.16
X-39.116Y35.56
X-39.116Y10.16
X-36.576Y35.56
X-36.576Y10.16
X-34.036Y35.56
X-34.036Y10.16
X-31.496Y35.56
X-31.496Y10.16
X-28.956Y35.56
X-28.956Y10.16
X-26.416Y35.56
X-26.416Y10.16
X-23.876Y35.56
X-23.876Y10.16
X-21.336Y35.56
X-21.336Y10.16
X-18.796Y35.56
X-18.796Y10.16
X-16.256Y35.56
X-16.256Y10.16
X-13.716Y35.56
X-13.716Y10.16
X-11.176Y35.56
X-11.176Y10.16
X-8.636Y35.56
X-8.636Y10.16
X-6.096Y35.56
X-6.096Y10.16
X-3.556Y35.56
X-3.556Y10.16
X-1.016Y35.56
X-1.016Y10.16
X1.524Y35.56
X1.524Y10.16
X4.064Y35.56
X4.064Y10.16
T5
X29.03Y41.148
X31.93Y41.148
T6
X-33.528Y-3.0
X-33.528Y-22.05
X-33.528Y-41.1
X-23.368Y-3.0
X-23.368Y-22.05
X-23.368Y-41.1
X-14.478Y-3.0
X-14.478Y-22.05
X-14.478Y-41.1
X-4.318Y-3.0
X-4.318Y-22.05
X-4.318Y-41.1
X4.572Y-3.0
X4.572Y-22.05
X4.572Y-41.1
X14.732Y-3.0
X14.732Y-22.05
X14.732Y-41.1
X23.622Y-3.0
X23.622Y-22.05
X23.622Y-41.1
X33.782Y-3.0
X33.782Y-22.05
X33.782Y-41.1
T7
X-32.258Y-0.46
X-32.258Y-19.51
X-32.258Y-38.56
X-25.908Y2.08
X-25.908Y-16.97
X-25.908Y-36.02
X-13.208Y-0.46
X-13.208Y-19.51
X-13.208Y-38.56
X-6.858Y2.08
X-6.858Y-16.97
X-6.858Y-36.02
X5.842Y-0.46
X5.842Y-19.51
X5.842Y-38.56
X12.192Y2.08
X12.192Y-16.97
X12.192Y-36.02
X24.892Y-0.46
X24.892Y-19.51
X24.892Y-38.56
X31.242Y2.08
X31.242Y-16.97
X31.242Y-36.02
T8
X-40.5Y40.5
X-40.5Y5.0
X-40.5Y-48.0
X40.5Y40.5
X40.5Y5.0
X40.5Y-48.0
T9
X-28.448Y-3.0
X-28.448Y-22.05
X-28.448Y-41.1
X-9.398Y-3.0
X-9.398Y-22.05
X-9.398Y-41.1
X9.652Y-3.0
X9.652Y-22.05
X9.652Y-41.1
X28.702Y-3.0
X28.702Y-22.05
X28.702Y-41.1
T10
X18.0Y33.5
T0
M30
