G04 #@! TF.GenerationSoftware,KiCad,Pcbnew,(6.0.6)*
G04 #@! TF.CreationDate,2022-07-26T08:16:13+09:00*
G04 #@! TF.ProjectId,ble_macro_keyboard,626c655f-6d61-4637-926f-5f6b6579626f,rev?*
G04 #@! TF.SameCoordinates,Original*
G04 #@! TF.FileFunction,Legend,Top*
G04 #@! TF.FilePolarity,Positive*
%FSLAX46Y46*%
G04 Gerber Fmt 4.6, Leading zero omitted, Abs format (unit mm)*
G04 Created by KiCad (PCBNEW (6.0.6)) date 2022-07-26 08:16:13*
%MOMM*%
%LPD*%
G01*
G04 APERTURE LIST*
%ADD10C,0.150000*%
%ADD11C,0.060000*%
%ADD12C,0.120000*%
%ADD13C,0.127000*%
%ADD14C,3.000000*%
%ADD15C,1.701800*%
%ADD16C,3.987800*%
%ADD17C,3.200000*%
%ADD18C,8.000000*%
%ADD19R,0.700000X1.000000*%
%ADD20R,1.000000X1.600000*%
%ADD21C,0.800000*%
%ADD22C,1.560000*%
%ADD23R,1.560000X1.560000*%
%ADD24C,1.600000*%
%ADD25R,1.600000X1.600000*%
%ADD26C,1.800000*%
%ADD27R,1.800000X1.800000*%
%ADD28O,1.800000X1.070000*%
%ADD29R,1.800000X1.070000*%
G04 APERTURE END LIST*
D10*
X103666666Y-29404761D02*
X103809523Y-29452380D01*
X104047619Y-29452380D01*
X104142857Y-29404761D01*
X104190476Y-29357142D01*
X104238095Y-29261904D01*
X104238095Y-29166666D01*
X104190476Y-29071428D01*
X104142857Y-29023809D01*
X104047619Y-28976190D01*
X103857142Y-28928571D01*
X103761904Y-28880952D01*
X103714285Y-28833333D01*
X103666666Y-28738095D01*
X103666666Y-28642857D01*
X103714285Y-28547619D01*
X103761904Y-28500000D01*
X103857142Y-28452380D01*
X104095238Y-28452380D01*
X104238095Y-28500000D01*
X104571428Y-28452380D02*
X104809523Y-29452380D01*
X105000000Y-28738095D01*
X105190476Y-29452380D01*
X105428571Y-28452380D01*
X105761904Y-28547619D02*
X105809523Y-28500000D01*
X105904761Y-28452380D01*
X106142857Y-28452380D01*
X106238095Y-28500000D01*
X106285714Y-28547619D01*
X106333333Y-28642857D01*
X106333333Y-28738095D01*
X106285714Y-28880952D01*
X105714285Y-29452380D01*
X106333333Y-29452380D01*
D11*
X94446666Y-20513904D02*
X94503809Y-20532952D01*
X94599047Y-20532952D01*
X94637142Y-20513904D01*
X94656190Y-20494857D01*
X94675238Y-20456761D01*
X94675238Y-20418666D01*
X94656190Y-20380571D01*
X94637142Y-20361523D01*
X94599047Y-20342476D01*
X94522857Y-20323428D01*
X94484761Y-20304380D01*
X94465714Y-20285333D01*
X94446666Y-20247238D01*
X94446666Y-20209142D01*
X94465714Y-20171047D01*
X94484761Y-20152000D01*
X94522857Y-20132952D01*
X94618095Y-20132952D01*
X94675238Y-20152000D01*
X94808571Y-20132952D02*
X94903809Y-20532952D01*
X94980000Y-20247238D01*
X95056190Y-20532952D01*
X95151428Y-20132952D01*
X95513333Y-20532952D02*
X95284761Y-20532952D01*
X95399047Y-20532952D02*
X95399047Y-20132952D01*
X95360952Y-20190095D01*
X95322857Y-20228190D01*
X95284761Y-20247238D01*
D10*
X22081801Y-38092169D02*
X22081801Y-38902005D01*
X22129438Y-38997280D01*
X22177076Y-39044918D01*
X22272350Y-39092555D01*
X22462900Y-39092555D01*
X22558175Y-39044918D01*
X22605812Y-38997280D01*
X22653450Y-38902005D01*
X22653450Y-38092169D01*
X23082187Y-38187444D02*
X23129824Y-38139807D01*
X23225099Y-38092169D01*
X23463286Y-38092169D01*
X23558561Y-38139807D01*
X23606198Y-38187444D01*
X23653836Y-38282719D01*
X23653836Y-38377994D01*
X23606198Y-38520906D01*
X23034549Y-39092555D01*
X23653836Y-39092555D01*
X29052000Y-71500000D02*
X30052000Y-71500000D01*
X29052000Y-58500000D02*
X29052000Y-57500000D01*
X43052000Y-57500000D02*
X42052000Y-57500000D01*
X43052000Y-57500000D02*
X43052000Y-58500000D01*
X30052000Y-57500000D02*
X29052000Y-57500000D01*
X43052000Y-70500000D02*
X43052000Y-71500000D01*
X29052000Y-71500000D02*
X29052000Y-70500000D01*
X42052000Y-71500000D02*
X43052000Y-71500000D01*
X99202000Y-90550000D02*
X100202000Y-90550000D01*
X100202000Y-89550000D02*
X100202000Y-90550000D01*
X100202000Y-76550000D02*
X99202000Y-76550000D01*
X86202000Y-90550000D02*
X86202000Y-89550000D01*
X87202000Y-76550000D02*
X86202000Y-76550000D01*
X86202000Y-90550000D02*
X87202000Y-90550000D01*
X86202000Y-77550000D02*
X86202000Y-76550000D01*
X100202000Y-76550000D02*
X100202000Y-77550000D01*
X48102000Y-71500000D02*
X48102000Y-70500000D01*
X48102000Y-71500000D02*
X49102000Y-71500000D01*
X49102000Y-57500000D02*
X48102000Y-57500000D01*
X62102000Y-57500000D02*
X61102000Y-57500000D01*
X48102000Y-58500000D02*
X48102000Y-57500000D01*
X62102000Y-57500000D02*
X62102000Y-58500000D01*
X62102000Y-70500000D02*
X62102000Y-71500000D01*
X61102000Y-71500000D02*
X62102000Y-71500000D01*
X61102000Y-90550000D02*
X62102000Y-90550000D01*
X62102000Y-89550000D02*
X62102000Y-90550000D01*
X62102000Y-76550000D02*
X62102000Y-77550000D01*
X48102000Y-90550000D02*
X48102000Y-89550000D01*
X48102000Y-77550000D02*
X48102000Y-76550000D01*
X62102000Y-76550000D02*
X61102000Y-76550000D01*
X48102000Y-90550000D02*
X49102000Y-90550000D01*
X49102000Y-76550000D02*
X48102000Y-76550000D01*
X100202000Y-57500000D02*
X100202000Y-58500000D01*
X99202000Y-71500000D02*
X100202000Y-71500000D01*
X100202000Y-70500000D02*
X100202000Y-71500000D01*
X86202000Y-71500000D02*
X87202000Y-71500000D01*
X87202000Y-57500000D02*
X86202000Y-57500000D01*
X86202000Y-71500000D02*
X86202000Y-70500000D01*
X100202000Y-57500000D02*
X99202000Y-57500000D01*
X86202000Y-58500000D02*
X86202000Y-57500000D01*
X67152000Y-77550000D02*
X67152000Y-76550000D01*
X81152000Y-76550000D02*
X81152000Y-77550000D01*
X81152000Y-76550000D02*
X80152000Y-76550000D01*
X67152000Y-90550000D02*
X67152000Y-89550000D01*
X81152000Y-89550000D02*
X81152000Y-90550000D01*
X80152000Y-90550000D02*
X81152000Y-90550000D01*
X67152000Y-90550000D02*
X68152000Y-90550000D01*
X68152000Y-76550000D02*
X67152000Y-76550000D01*
X68152000Y-57500000D02*
X67152000Y-57500000D01*
X81152000Y-57500000D02*
X80152000Y-57500000D01*
X80152000Y-71500000D02*
X81152000Y-71500000D01*
X67152000Y-58500000D02*
X67152000Y-57500000D01*
X67152000Y-71500000D02*
X68152000Y-71500000D01*
X81152000Y-70500000D02*
X81152000Y-71500000D01*
X67152000Y-71500000D02*
X67152000Y-70500000D01*
X81152000Y-57500000D02*
X81152000Y-58500000D01*
X29052000Y-77550000D02*
X29052000Y-76550000D01*
X29052000Y-90550000D02*
X29052000Y-89550000D01*
X43052000Y-89550000D02*
X43052000Y-90550000D01*
X42052000Y-90550000D02*
X43052000Y-90550000D01*
X30052000Y-76550000D02*
X29052000Y-76550000D01*
X43052000Y-76550000D02*
X42052000Y-76550000D01*
X43052000Y-76550000D02*
X43052000Y-77550000D01*
X29052000Y-90550000D02*
X30052000Y-90550000D01*
X61102000Y-109600000D02*
X62102000Y-109600000D01*
X49102000Y-95600000D02*
X48102000Y-95600000D01*
X48102000Y-109600000D02*
X49102000Y-109600000D01*
X62102000Y-95600000D02*
X62102000Y-96600000D01*
X62102000Y-95600000D02*
X61102000Y-95600000D01*
X48102000Y-96600000D02*
X48102000Y-95600000D01*
X48102000Y-109600000D02*
X48102000Y-108600000D01*
X62102000Y-108600000D02*
X62102000Y-109600000D01*
X29052000Y-109600000D02*
X29052000Y-108600000D01*
X29052000Y-109600000D02*
X30052000Y-109600000D01*
X30052000Y-95600000D02*
X29052000Y-95600000D01*
X43052000Y-108600000D02*
X43052000Y-109600000D01*
X29052000Y-96600000D02*
X29052000Y-95600000D01*
X43052000Y-95600000D02*
X42052000Y-95600000D01*
X42052000Y-109600000D02*
X43052000Y-109600000D01*
X43052000Y-95600000D02*
X43052000Y-96600000D01*
D12*
X103700000Y-31600000D02*
X106300000Y-31600000D01*
X107600000Y-30300000D02*
X107600000Y-27700000D01*
X102400000Y-27700000D02*
X102400000Y-30300000D01*
X106300000Y-26400000D02*
X103700000Y-26400000D01*
X106300000Y-31600000D02*
X107600000Y-30300000D01*
X103700000Y-26400000D02*
X102400000Y-27700000D01*
X102400000Y-30300000D02*
X103700000Y-31600000D01*
X107600000Y-27700000D02*
X106300000Y-26400000D01*
D10*
X87202000Y-95600000D02*
X86202000Y-95600000D01*
X86202000Y-109600000D02*
X87202000Y-109600000D01*
X100202000Y-95600000D02*
X100202000Y-96600000D01*
X100202000Y-95600000D02*
X99202000Y-95600000D01*
X86202000Y-96600000D02*
X86202000Y-95600000D01*
X100202000Y-108600000D02*
X100202000Y-109600000D01*
X86202000Y-109600000D02*
X86202000Y-108600000D01*
X99202000Y-109600000D02*
X100202000Y-109600000D01*
D12*
X98280000Y-21702000D02*
X97780000Y-21702000D01*
X98280000Y-19002000D02*
X98280000Y-21702000D01*
X91680000Y-21702000D02*
X91680000Y-19002000D01*
X91680000Y-19002000D02*
X98280000Y-19002000D01*
X91680000Y-21702000D02*
X92180000Y-21702000D01*
D10*
X67152000Y-96600000D02*
X67152000Y-95600000D01*
X68152000Y-95600000D02*
X67152000Y-95600000D01*
X67152000Y-109600000D02*
X67152000Y-108600000D01*
X81152000Y-108600000D02*
X81152000Y-109600000D01*
X81152000Y-95600000D02*
X81152000Y-96600000D01*
X81152000Y-95600000D02*
X80152000Y-95600000D01*
X67152000Y-109600000D02*
X68152000Y-109600000D01*
X80152000Y-109600000D02*
X81152000Y-109600000D01*
D13*
X21554000Y-24690000D02*
X75954000Y-24690000D01*
X21554000Y-52590000D02*
X21554000Y-24690000D01*
X75954000Y-52590000D02*
X21554000Y-52590000D01*
X75954000Y-24690000D02*
X75954000Y-52590000D01*
%LPC*%
D14*
X32242000Y-61960000D03*
D15*
X30972000Y-64500000D03*
D16*
X36052000Y-64500000D03*
D15*
X41132000Y-64500000D03*
D14*
X38592000Y-59420000D03*
D15*
X98282000Y-83550000D03*
D14*
X89392000Y-81010000D03*
D16*
X93202000Y-83550000D03*
D14*
X95742000Y-78470000D03*
D15*
X88122000Y-83550000D03*
D16*
X55102000Y-64500000D03*
D15*
X60182000Y-64500000D03*
X50022000Y-64500000D03*
D14*
X57642000Y-59420000D03*
X51292000Y-61960000D03*
X57642000Y-78470000D03*
D16*
X55102000Y-83550000D03*
D14*
X51292000Y-81010000D03*
D15*
X60182000Y-83550000D03*
X50022000Y-83550000D03*
X88122000Y-64500000D03*
D14*
X95742000Y-59420000D03*
D16*
X93202000Y-64500000D03*
D14*
X89392000Y-61960000D03*
D15*
X98282000Y-64500000D03*
D16*
X74152000Y-83550000D03*
D14*
X76692000Y-78470000D03*
X70342000Y-81010000D03*
D15*
X79232000Y-83550000D03*
X69072000Y-83550000D03*
D16*
X74152000Y-64500000D03*
D15*
X79232000Y-64500000D03*
D14*
X70342000Y-61960000D03*
D15*
X69072000Y-64500000D03*
D14*
X76692000Y-59420000D03*
X38592000Y-78470000D03*
X32242000Y-81010000D03*
D15*
X30972000Y-83550000D03*
X41132000Y-83550000D03*
D16*
X36052000Y-83550000D03*
D17*
X24000000Y-21000000D03*
X105000000Y-21000000D03*
D14*
X57642000Y-97520000D03*
D15*
X60182000Y-102600000D03*
D16*
X55102000Y-102600000D03*
D14*
X51292000Y-100060000D03*
D15*
X50022000Y-102600000D03*
D16*
X36052000Y-102600000D03*
D14*
X38592000Y-97520000D03*
D15*
X30972000Y-102600000D03*
D14*
X32242000Y-100060000D03*
D15*
X41132000Y-102600000D03*
D17*
X105000000Y-56500000D03*
X24000000Y-56500000D03*
D18*
X82500000Y-28000000D03*
D19*
X103150000Y-32000000D03*
X103150000Y-26000000D03*
X106850000Y-26000000D03*
X106850000Y-32000000D03*
D14*
X89392000Y-100060000D03*
D16*
X93202000Y-102600000D03*
D15*
X98282000Y-102600000D03*
D14*
X95742000Y-97520000D03*
D15*
X88122000Y-102600000D03*
D20*
X97180000Y-22502000D03*
X94280000Y-22502000D03*
X92780000Y-22502000D03*
D21*
X93530000Y-20352000D03*
X96430000Y-20352000D03*
D17*
X24000000Y-110000000D03*
D16*
X74152000Y-102600000D03*
D15*
X69072000Y-102600000D03*
D14*
X76692000Y-97520000D03*
X70342000Y-100060000D03*
D15*
X79232000Y-102600000D03*
D22*
X22844000Y-51340000D03*
X25384000Y-51340000D03*
X27924000Y-51340000D03*
X30464000Y-51340000D03*
X33004000Y-51340000D03*
X35544000Y-51340000D03*
X38084000Y-51340000D03*
X40624000Y-51340000D03*
X43164000Y-51340000D03*
X45704000Y-51340000D03*
X48244000Y-51340000D03*
X50784000Y-51340000D03*
X53324000Y-51340000D03*
X55864000Y-51340000D03*
X58404000Y-51340000D03*
X60944000Y-51340000D03*
X63484000Y-51340000D03*
X66024000Y-51340000D03*
X68564000Y-51340000D03*
X22844000Y-25940000D03*
X25384000Y-25940000D03*
X27924000Y-25940000D03*
X30464000Y-25940000D03*
X33004000Y-25940000D03*
X35544000Y-25940000D03*
X38084000Y-25940000D03*
X40624000Y-25940000D03*
X43164000Y-25940000D03*
X45704000Y-25940000D03*
X48244000Y-25940000D03*
X50784000Y-25940000D03*
X53324000Y-25940000D03*
X55864000Y-25940000D03*
X58404000Y-25940000D03*
X60944000Y-25940000D03*
X63484000Y-25940000D03*
X66024000Y-25940000D03*
D23*
X68564000Y-25940000D03*
D17*
X105000000Y-110000000D03*
D24*
X49796888Y-30512000D03*
D25*
X47796888Y-30512000D03*
D26*
X25384000Y-30512000D03*
D27*
X27924000Y-30512000D03*
D24*
X33483113Y-30512000D03*
D25*
X35483113Y-30512000D03*
D28*
X64500000Y-29242000D03*
X64500000Y-30512000D03*
X64500000Y-31782000D03*
D29*
X64500000Y-33052000D03*
M02*
