  0
SECTION
  2
HEADER
  9
$ANGBASE
  50
0.0
  9
$ANGDIR
  70
1
  9
$MEASUREMENT
  70
1
  0
ENDSEC
  0
SECTION
  2
TABLES
  0
TABLE
  2
LTYPE
  70
4
  0
LTYPE
  5
40F
  2
CONTINUOUS
  70
0
  3
Solid line
  72
65
  73
0
  40
0.0
  0
LTYPE
  5
410
  2
DASHDOT
 70
0
  3
Dash Dot ____ _ ____ _
 72
65
 73
4
 40
2.0
 49
1.25
 49
-0.25
 49
0.25
 49
-0.25
  0
LTYPE
  5
411
  2
DASHED
 70
0
  3
Dashed __ __ __ __ __
 72
65
 73
2
 40
0.75
 49
0.5
 49
-0.25
  0
LTYPE
  5
43B
  2
DOTTED
 70
0
  3
Dotted .  .  .  .
 72
65
 73
2
 40
0.2
 49
0.0
 49
-0.2
  0
ENDTAB
  0
TABLE
  2
STYLE
  70
4
  0
STYLE
  2
KICAD
  70
0
  40
0
  41
1
  42
1
  50
0
  71
0
  3
isocp.shx
  0
STYLE
  2
KICADB
  70
0
  40
0
  41
1
  42
1
  50
0
  71
0
  3
isocp.shx
  0
STYLE
  2
KICADI
  70
0
  40
0
  41
1
  42
1
  50
15
  71
0
  3
isocp.shx
  0
STYLE
  2
KICADBI
  70
0
  40
0
  41
1
  42
1
  50
15
  71
0
  3
isocp.shx
  0
ENDTAB
  0
TABLE
  2
LAYER
  70
1
  0
LAYER
  2
BLACK
  70
0
  62
7
  6
CONTINUOUS
  0
ENDTAB
  0
ENDSEC
  0
SECTION
  2
ENTITIES
0
LINE
8
BLACK
6
CONTINUOUS
10
43.3591
20
43.9867
11
43.525
21
43.9093
0
LINE
8
BLACK
6
CONTINUOUS
10
43.525
20
43.9093
11
43.6749
21
43.8043
0
LINE
8
BLACK
6
CONTINUOUS
10
43.6749
20
43.8043
11
43.8043
21
43.6749
0
LINE
8
BLACK
6
CONTINUOUS
10
43.8043
20
43.6749
11
43.9093
21
43.525
0
LINE
8
BLACK
6
CONTINUOUS
10
43.9093
20
43.525
11
43.9867
21
43.3591
0
LINE
8
BLACK
6
CONTINUOUS
10
43.9867
20
43.3591
11
44.034
21
43.1823
0
LINE
8
BLACK
6
CONTINUOUS
10
44.034
20
43.1823
11
44.05
21
43
0
LINE
8
BLACK
6
CONTINUOUS
10
44.05
20
43
11
44.05
21
-50.5
0
LINE
8
BLACK
6
CONTINUOUS
10
44.05
20
-50.5
11
44.034
21
-50.6823
0
LINE
8
BLACK
6
CONTINUOUS
10
44.034
20
-50.6823
11
43.9867
21
-50.8591
0
LINE
8
BLACK
6
CONTINUOUS
10
43.9867
20
-50.8591
11
43.9093
21
-51.025
0
LINE
8
BLACK
6
CONTINUOUS
10
43.9093
20
-51.025
11
43.8043
21
-51.1749
0
LINE
8
BLACK
6
CONTINUOUS
10
43.8043
20
-51.1749
11
43.6749
21
-51.3043
0
LINE
8
BLACK
6
CONTINUOUS
10
43.6749
20
-51.3043
11
43.525
21
-51.4093
0
LINE
8
BLACK
6
CONTINUOUS
10
43.525
20
-51.4093
11
43.3591
21
-51.4867
0
LINE
8
BLACK
6
CONTINUOUS
10
43.3591
20
-51.4867
11
43.1823
21
-51.534
0
LINE
8
BLACK
6
CONTINUOUS
10
43.1823
20
-51.534
11
43
21
-51.55
0
LINE
8
BLACK
6
CONTINUOUS
10
43
20
-51.55
11
43
21
-51.55
0
LINE
8
BLACK
6
CONTINUOUS
10
43
20
-51.55
11
-43
21
-51.55
0
LINE
8
BLACK
6
CONTINUOUS
10
-43
20
-51.55
11
-43.1823
21
-51.534
0
LINE
8
BLACK
6
CONTINUOUS
10
-43.1823
20
-51.534
11
-43.3591
21
-51.4867
0
LINE
8
BLACK
6
CONTINUOUS
10
-43.3591
20
-51.4867
11
-43.525
21
-51.4093
0
LINE
8
BLACK
6
CONTINUOUS
10
-43.525
20
-51.4093
11
-43.6749
21
-51.3043
0
LINE
8
BLACK
6
CONTINUOUS
10
-43.6749
20
-51.3043
11
-43.8043
21
-51.1749
0
LINE
8
BLACK
6
CONTINUOUS
10
-43.8043
20
-51.1749
11
-43.9093
21
-51.025
0
LINE
8
BLACK
6
CONTINUOUS
10
-43.9093
20
-51.025
11
-43.9867
21
-50.8591
0
LINE
8
BLACK
6
CONTINUOUS
10
-43.9867
20
-50.8591
11
-44.034
21
-50.6823
0
LINE
8
BLACK
6
CONTINUOUS
10
-44.034
20
-50.6823
11
-44.05
21
-50.5
0
LINE
8
BLACK
6
CONTINUOUS
10
-44.05
20
-50.5
11
-44.05
21
7.5
0
LINE
8
BLACK
6
CONTINUOUS
10
-44.05
20
7.5
11
-44.034
21
7.68233
0
LINE
8
BLACK
6
CONTINUOUS
10
-44.034
20
7.68233
11
-43.9867
21
7.85912
0
LINE
8
BLACK
6
CONTINUOUS
10
-43.9867
20
7.85912
11
-43.9093
21
8.025
0
LINE
8
BLACK
6
CONTINUOUS
10
-43.9093
20
8.025
11
-43.8043
21
8.17492
0
LINE
8
BLACK
6
CONTINUOUS
10
-43.8043
20
8.17492
11
-43.6749
21
8.30434
0
LINE
8
BLACK
6
CONTINUOUS
10
-43.6749
20
8.30434
11
-43.525
21
8.40932
0
LINE
8
BLACK
6
CONTINUOUS
10
-43.525
20
8.40932
11
-43.3591
21
8.48668
0
LINE
8
BLACK
6
CONTINUOUS
10
-43.3591
20
8.48668
11
-43.1823
21
8.53405
0
LINE
8
BLACK
6
CONTINUOUS
10
-43.1823
20
8.53405
11
-43
21
8.55
0
LINE
8
BLACK
6
CONTINUOUS
10
-43
20
8.55
11
11.95
21
8.55
0
LINE
8
BLACK
6
CONTINUOUS
10
11.95
20
8.55
11
11.95
21
43
0
LINE
8
BLACK
6
CONTINUOUS
10
11.95
20
43
11
11.966
21
43.1823
0
LINE
8
BLACK
6
CONTINUOUS
10
11.966
20
43.1823
11
12.0133
21
43.3591
0
LINE
8
BLACK
6
CONTINUOUS
10
12.0133
20
43.3591
11
12.0907
21
43.525
0
LINE
8
BLACK
6
CONTINUOUS
10
12.0907
20
43.525
11
12.1957
21
43.6749
0
LINE
8
BLACK
6
CONTINUOUS
10
12.1957
20
43.6749
11
12.3251
21
43.8043
0
LINE
8
BLACK
6
CONTINUOUS
10
12.3251
20
43.8043
11
12.475
21
43.9093
0
LINE
8
BLACK
6
CONTINUOUS
10
12.475
20
43.9093
11
12.6409
21
43.9867
0
LINE
8
BLACK
6
CONTINUOUS
10
12.6409
20
43.9867
11
12.8177
21
44.034
0
LINE
8
BLACK
6
CONTINUOUS
10
12.8177
20
44.034
11
13
21
44.05
0
LINE
8
BLACK
6
CONTINUOUS
10
13
20
44.05
11
13
21
44.05
0
LINE
8
BLACK
6
CONTINUOUS
10
13
20
44.05
11
43
21
44.05
0
LINE
8
BLACK
6
CONTINUOUS
10
43
20
44.05
11
43.1823
21
44.034
0
LINE
8
BLACK
6
CONTINUOUS
10
43.1823
20
44.034
11
43.3591
21
43.9867
0
LINE
8
BLACK
6
CONTINUOUS
10
12.9928
20
43.953
11
12.8344
21
43.9391
0
LINE
8
BLACK
6
CONTINUOUS
10
12.8344
20
43.9391
11
12.6738
21
43.8961
0
LINE
8
BLACK
6
CONTINUOUS
10
12.6738
20
43.8961
11
12.5232
21
43.8259
0
LINE
8
BLACK
6
CONTINUOUS
10
12.5232
20
43.8259
11
12.387
21
43.7305
0
LINE
8
BLACK
6
CONTINUOUS
10
12.387
20
43.7305
11
12.2695
21
43.613
0
LINE
8
BLACK
6
CONTINUOUS
10
12.2695
20
43.613
11
12.1741
21
43.4768
0
LINE
8
BLACK
6
CONTINUOUS
10
12.1741
20
43.4768
11
12.1039
21
43.3262
0
LINE
8
BLACK
6
CONTINUOUS
10
12.1039
20
43.3262
11
12.0609
21
43.1656
0
LINE
8
BLACK
6
CONTINUOUS
10
12.0609
20
43.1656
11
12.047
21
43.0072
0
LINE
8
BLACK
6
CONTINUOUS
10
12.047
20
43.0072
11
12.05
21
43
0
LINE
8
BLACK
6
CONTINUOUS
10
12.05
20
43
11
12.05
21
8.5
0
LINE
8
BLACK
6
CONTINUOUS
10
12.05
20
8.5
11
12.0354
21
8.46464
0
LINE
8
BLACK
6
CONTINUOUS
10
12.0354
20
8.46464
11
12
21
8.45
0
LINE
8
BLACK
6
CONTINUOUS
10
12
20
8.45
11
-43
21
8.45
0
LINE
8
BLACK
6
CONTINUOUS
10
-43
20
8.45
11
-43.0072
21
8.45299
0
LINE
8
BLACK
6
CONTINUOUS
10
-43.0072
20
8.45299
11
-43.1656
21
8.43914
0
LINE
8
BLACK
6
CONTINUOUS
10
-43.1656
20
8.43914
11
-43.3262
21
8.39612
0
LINE
8
BLACK
6
CONTINUOUS
10
-43.3262
20
8.39612
11
-43.4768
21
8.32587
0
LINE
8
BLACK
6
CONTINUOUS
10
-43.4768
20
8.32587
11
-43.613
21
8.23052
0
LINE
8
BLACK
6
CONTINUOUS
10
-43.613
20
8.23052
11
-43.7305
21
8.11298
0
LINE
8
BLACK
6
CONTINUOUS
10
-43.7305
20
8.11298
11
-43.8259
21
7.97681
0
LINE
8
BLACK
6
CONTINUOUS
10
-43.8259
20
7.97681
11
-43.8961
21
7.82616
0
LINE
8
BLACK
6
CONTINUOUS
10
-43.8961
20
7.82616
11
-43.9391
21
7.66559
0
LINE
8
BLACK
6
CONTINUOUS
10
-43.9391
20
7.66559
11
-43.953
21
7.50723
0
LINE
8
BLACK
6
CONTINUOUS
10
-43.953
20
7.50723
11
-43.95
21
7.5
0
LINE
8
BLACK
6
CONTINUOUS
10
-43.95
20
7.5
11
-43.95
21
-50.5
0
LINE
8
BLACK
6
CONTINUOUS
10
-43.95
20
-50.5
11
-43.953
21
-50.5072
0
LINE
8
BLACK
6
CONTINUOUS
10
-43.953
20
-50.5072
11
-43.9391
21
-50.6656
0
LINE
8
BLACK
6
CONTINUOUS
10
-43.9391
20
-50.6656
11
-43.8961
21
-50.8262
0
LINE
8
BLACK
6
CONTINUOUS
10
-43.8961
20
-50.8262
11
-43.8259
21
-50.9768
0
LINE
8
BLACK
6
CONTINUOUS
10
-43.8259
20
-50.9768
11
-43.7305
21
-51.113
0
LINE
8
BLACK
6
CONTINUOUS
10
-43.7305
20
-51.113
11
-43.613
21
-51.2305
0
LINE
8
BLACK
6
CONTINUOUS
10
-43.613
20
-51.2305
11
-43.4768
21
-51.3259
0
LINE
8
BLACK
6
CONTINUOUS
10
-43.4768
20
-51.3259
11
-43.3262
21
-51.3961
0
LINE
8
BLACK
6
CONTINUOUS
10
-43.3262
20
-51.3961
11
-43.1656
21
-51.4391
0
LINE
8
BLACK
6
CONTINUOUS
10
-43.1656
20
-51.4391
11
-43.0072
21
-51.453
0
LINE
8
BLACK
6
CONTINUOUS
10
-43.0072
20
-51.453
11
-43.0072
21
-51.453
0
LINE
8
BLACK
6
CONTINUOUS
10
-43.0072
20
-51.453
11
-43
21
-51.45
0
LINE
8
BLACK
6
CONTINUOUS
10
-43
20
-51.45
11
43
21
-51.45
0
LINE
8
BLACK
6
CONTINUOUS
10
43
20
-51.45
11
43.0072
21
-51.453
0
LINE
8
BLACK
6
CONTINUOUS
10
43.0072
20
-51.453
11
43.1656
21
-51.4391
0
LINE
8
BLACK
6
CONTINUOUS
10
43.1656
20
-51.4391
11
43.3262
21
-51.3961
0
LINE
8
BLACK
6
CONTINUOUS
10
43.3262
20
-51.3961
11
43.4768
21
-51.3259
0
LINE
8
BLACK
6
CONTINUOUS
10
43.4768
20
-51.3259
11
43.613
21
-51.2305
0
LINE
8
BLACK
6
CONTINUOUS
10
43.613
20
-51.2305
11
43.7305
21
-51.113
0
LINE
8
BLACK
6
CONTINUOUS
10
43.7305
20
-51.113
11
43.8259
21
-50.9768
0
LINE
8
BLACK
6
CONTINUOUS
10
43.8259
20
-50.9768
11
43.8961
21
-50.8262
0
LINE
8
BLACK
6
CONTINUOUS
10
43.8961
20
-50.8262
11
43.9391
21
-50.6656
0
LINE
8
BLACK
6
CONTINUOUS
10
43.9391
20
-50.6656
11
43.953
21
-50.5072
0
LINE
8
BLACK
6
CONTINUOUS
10
43.953
20
-50.5072
11
43.95
21
-50.5
0
LINE
8
BLACK
6
CONTINUOUS
10
43.95
20
-50.5
11
43.95
21
43
0
LINE
8
BLACK
6
CONTINUOUS
10
43.95
20
43
11
43.953
21
43.0072
0
LINE
8
BLACK
6
CONTINUOUS
10
43.953
20
43.0072
11
43.9391
21
43.1656
0
LINE
8
BLACK
6
CONTINUOUS
10
43.9391
20
43.1656
11
43.8961
21
43.3262
0
LINE
8
BLACK
6
CONTINUOUS
10
43.8961
20
43.3262
11
43.8259
21
43.4768
0
LINE
8
BLACK
6
CONTINUOUS
10
43.8259
20
43.4768
11
43.7305
21
43.613
0
LINE
8
BLACK
6
CONTINUOUS
10
43.7305
20
43.613
11
43.613
21
43.7305
0
LINE
8
BLACK
6
CONTINUOUS
10
43.613
20
43.7305
11
43.4768
21
43.8259
0
LINE
8
BLACK
6
CONTINUOUS
10
43.4768
20
43.8259
11
43.3262
21
43.8961
0
LINE
8
BLACK
6
CONTINUOUS
10
43.3262
20
43.8961
11
43.1656
21
43.9391
0
LINE
8
BLACK
6
CONTINUOUS
10
43.1656
20
43.9391
11
43.0072
21
43.953
0
LINE
8
BLACK
6
CONTINUOUS
10
43.0072
20
43.953
11
43
21
43.95
0
LINE
8
BLACK
6
CONTINUOUS
10
43
20
43.95
11
13
21
43.95
0
LINE
8
BLACK
6
CONTINUOUS
10
13
20
43.95
11
12.9928
21
43.953
0
LINE
8
BLACK
6
CONTINUOUS
10
21.1646
20
-48.6354
11
21.15
21
-48.6
0
LINE
8
BLACK
6
CONTINUOUS
10
21.15
20
-48.6
11
21.15
21
-33.6
0
LINE
8
BLACK
6
CONTINUOUS
10
21.15
20
-33.6
11
21.1646
21
-33.5646
0
LINE
8
BLACK
6
CONTINUOUS
10
21.1646
20
-33.5646
11
21.2
21
-33.55
0
LINE
8
BLACK
6
CONTINUOUS
10
21.2
20
-33.55
11
36.2
21
-33.55
0
LINE
8
BLACK
6
CONTINUOUS
10
36.2
20
-33.55
11
36.2354
21
-33.5646
0
LINE
8
BLACK
6
CONTINUOUS
10
36.2354
20
-33.5646
11
36.25
21
-33.6
0
LINE
8
BLACK
6
CONTINUOUS
10
36.25
20
-33.6
11
36.25
21
-48.6
0
LINE
8
BLACK
6
CONTINUOUS
10
36.25
20
-48.6
11
36.2354
21
-48.6354
0
LINE
8
BLACK
6
CONTINUOUS
10
36.2354
20
-48.6354
11
36.2
21
-48.65
0
LINE
8
BLACK
6
CONTINUOUS
10
36.2
20
-48.65
11
21.2
21
-48.65
0
LINE
8
BLACK
6
CONTINUOUS
10
21.2
20
-48.65
11
21.1646
21
-48.6354
0
LINE
8
BLACK
6
CONTINUOUS
10
21.25
20
-33.65
11
21.25
21
-48.55
0
LINE
8
BLACK
6
CONTINUOUS
10
21.25
20
-48.55
11
36.15
21
-48.55
0
LINE
8
BLACK
6
CONTINUOUS
10
36.15
20
-48.55
11
36.15
21
-33.65
0
LINE
8
BLACK
6
CONTINUOUS
10
36.15
20
-33.65
11
21.25
21
-33.65
0
LINE
8
BLACK
6
CONTINUOUS
10
-35.9854
20
-48.6354
11
-36
21
-48.6
0
LINE
8
BLACK
6
CONTINUOUS
10
-36
20
-48.6
11
-36
21
-33.6
0
LINE
8
BLACK
6
CONTINUOUS
10
-36
20
-33.6
11
-35.9854
21
-33.5646
0
LINE
8
BLACK
6
CONTINUOUS
10
-35.9854
20
-33.5646
11
-35.95
21
-33.55
0
LINE
8
BLACK
6
CONTINUOUS
10
-35.95
20
-33.55
11
-20.95
21
-33.55
0
LINE
8
BLACK
6
CONTINUOUS
10
-20.95
20
-33.55
11
-20.9146
21
-33.5646
0
LINE
8
BLACK
6
CONTINUOUS
10
-20.9146
20
-33.5646
11
-20.9
21
-33.6
0
LINE
8
BLACK
6
CONTINUOUS
10
-20.9
20
-33.6
11
-20.9
21
-48.6
0
LINE
8
BLACK
6
CONTINUOUS
10
-20.9
20
-48.6
11
-20.9146
21
-48.6354
0
LINE
8
BLACK
6
CONTINUOUS
10
-20.9146
20
-48.6354
11
-20.95
21
-48.65
0
LINE
8
BLACK
6
CONTINUOUS
10
-20.95
20
-48.65
11
-35.95
21
-48.65
0
LINE
8
BLACK
6
CONTINUOUS
10
-35.95
20
-48.65
11
-35.9854
21
-48.6354
0
LINE
8
BLACK
6
CONTINUOUS
10
-35.9
20
-33.65
11
-35.9
21
-48.55
0
LINE
8
BLACK
6
CONTINUOUS
10
-35.9
20
-48.55
11
-21
21
-48.55
0
LINE
8
BLACK
6
CONTINUOUS
10
-21
20
-48.55
11
-21
21
-33.65
0
LINE
8
BLACK
6
CONTINUOUS
10
-21
20
-33.65
11
-35.9
21
-33.65
0
LINE
8
BLACK
6
CONTINUOUS
10
-16.9354
20
-48.6354
11
-16.95
21
-48.6
0
LINE
8
BLACK
6
CONTINUOUS
10
-16.95
20
-48.6
11
-16.95
21
-33.6
0
LINE
8
BLACK
6
CONTINUOUS
10
-16.95
20
-33.6
11
-16.9354
21
-33.5646
0
LINE
8
BLACK
6
CONTINUOUS
10
-16.9354
20
-33.5646
11
-16.9
21
-33.55
0
LINE
8
BLACK
6
CONTINUOUS
10
-16.9
20
-33.55
11
-1.9
21
-33.55
0
LINE
8
BLACK
6
CONTINUOUS
10
-1.9
20
-33.55
11
-1.86464
21
-33.5646
0
LINE
8
BLACK
6
CONTINUOUS
10
-1.86464
20
-33.5646
11
-1.85
21
-33.6
0
LINE
8
BLACK
6
CONTINUOUS
10
-1.85
20
-33.6
11
-1.85
21
-48.6
0
LINE
8
BLACK
6
CONTINUOUS
10
-1.85
20
-48.6
11
-1.86464
21
-48.6354
0
LINE
8
BLACK
6
CONTINUOUS
10
-1.86464
20
-48.6354
11
-1.9
21
-48.65
0
LINE
8
BLACK
6
CONTINUOUS
10
-1.9
20
-48.65
11
-16.9
21
-48.65
0
LINE
8
BLACK
6
CONTINUOUS
10
-16.9
20
-48.65
11
-16.9354
21
-48.6354
0
LINE
8
BLACK
6
CONTINUOUS
10
-16.85
20
-33.65
11
-16.85
21
-48.55
0
LINE
8
BLACK
6
CONTINUOUS
10
-16.85
20
-48.55
11
-1.95
21
-48.55
0
LINE
8
BLACK
6
CONTINUOUS
10
-1.95
20
-48.55
11
-1.95
21
-33.65
0
LINE
8
BLACK
6
CONTINUOUS
10
-1.95
20
-33.65
11
-16.85
21
-33.65
0
LINE
8
BLACK
6
CONTINUOUS
10
2.11464
20
-48.6354
11
2.1
21
-48.6
0
LINE
8
BLACK
6
CONTINUOUS
10
2.1
20
-48.6
11
2.1
21
-33.6
0
LINE
8
BLACK
6
CONTINUOUS
10
2.1
20
-33.6
11
2.11464
21
-33.5646
0
LINE
8
BLACK
6
CONTINUOUS
10
2.11464
20
-33.5646
11
2.15
21
-33.55
0
LINE
8
BLACK
6
CONTINUOUS
10
2.15
20
-33.55
11
17.15
21
-33.55
0
LINE
8
BLACK
6
CONTINUOUS
10
17.15
20
-33.55
11
17.1854
21
-33.5646
0
LINE
8
BLACK
6
CONTINUOUS
10
17.1854
20
-33.5646
11
17.2
21
-33.6
0
LINE
8
BLACK
6
CONTINUOUS
10
17.2
20
-33.6
11
17.2
21
-48.6
0
LINE
8
BLACK
6
CONTINUOUS
10
17.2
20
-48.6
11
17.1854
21
-48.6354
0
LINE
8
BLACK
6
CONTINUOUS
10
17.1854
20
-48.6354
11
17.15
21
-48.65
0
LINE
8
BLACK
6
CONTINUOUS
10
17.15
20
-48.65
11
2.15
21
-48.65
0
LINE
8
BLACK
6
CONTINUOUS
10
2.15
20
-48.65
11
2.11464
21
-48.6354
0
LINE
8
BLACK
6
CONTINUOUS
10
2.2
20
-33.65
11
2.2
21
-48.55
0
LINE
8
BLACK
6
CONTINUOUS
10
2.2
20
-48.55
11
17.1
21
-48.55
0
LINE
8
BLACK
6
CONTINUOUS
10
17.1
20
-48.55
11
17.1
21
-33.65
0
LINE
8
BLACK
6
CONTINUOUS
10
17.1
20
-33.65
11
2.2
21
-33.65
0
LINE
8
BLACK
6
CONTINUOUS
10
-35.9854
20
-29.5854
11
-36
21
-29.55
0
LINE
8
BLACK
6
CONTINUOUS
10
-36
20
-29.55
11
-36
21
-14.55
0
LINE
8
BLACK
6
CONTINUOUS
10
-36
20
-14.55
11
-35.9854
21
-14.5146
0
LINE
8
BLACK
6
CONTINUOUS
10
-35.9854
20
-14.5146
11
-35.95
21
-14.5
0
LINE
8
BLACK
6
CONTINUOUS
10
-35.95
20
-14.5
11
-20.95
21
-14.5
0
LINE
8
BLACK
6
CONTINUOUS
10
-20.95
20
-14.5
11
-20.9146
21
-14.5146
0
LINE
8
BLACK
6
CONTINUOUS
10
-20.9146
20
-14.5146
11
-20.9
21
-14.55
0
LINE
8
BLACK
6
CONTINUOUS
10
-20.9
20
-14.55
11
-20.9
21
-29.55
0
LINE
8
BLACK
6
CONTINUOUS
10
-20.9
20
-29.55
11
-20.9146
21
-29.5854
0
LINE
8
BLACK
6
CONTINUOUS
10
-20.9146
20
-29.5854
11
-20.95
21
-29.6
0
LINE
8
BLACK
6
CONTINUOUS
10
-20.95
20
-29.6
11
-35.95
21
-29.6
0
LINE
8
BLACK
6
CONTINUOUS
10
-35.95
20
-29.6
11
-35.9854
21
-29.5854
0
LINE
8
BLACK
6
CONTINUOUS
10
-35.9
20
-14.6
11
-35.9
21
-29.5
0
LINE
8
BLACK
6
CONTINUOUS
10
-35.9
20
-29.5
11
-21
21
-29.5
0
LINE
8
BLACK
6
CONTINUOUS
10
-21
20
-29.5
11
-21
21
-14.6
0
LINE
8
BLACK
6
CONTINUOUS
10
-21
20
-14.6
11
-35.9
21
-14.6
0
LINE
8
BLACK
6
CONTINUOUS
10
-16.9354
20
-29.5854
11
-16.95
21
-29.55
0
LINE
8
BLACK
6
CONTINUOUS
10
-16.95
20
-29.55
11
-16.95
21
-14.55
0
LINE
8
BLACK
6
CONTINUOUS
10
-16.95
20
-14.55
11
-16.9354
21
-14.5146
0
LINE
8
BLACK
6
CONTINUOUS
10
-16.9354
20
-14.5146
11
-16.9
21
-14.5
0
LINE
8
BLACK
6
CONTINUOUS
10
-16.9
20
-14.5
11
-1.9
21
-14.5
0
LINE
8
BLACK
6
CONTINUOUS
10
-1.9
20
-14.5
11
-1.86464
21
-14.5146
0
LINE
8
BLACK
6
CONTINUOUS
10
-1.86464
20
-14.5146
11
-1.85
21
-14.55
0
LINE
8
BLACK
6
CONTINUOUS
10
-1.85
20
-14.55
11
-1.85
21
-29.55
0
LINE
8
BLACK
6
CONTINUOUS
10
-1.85
20
-29.55
11
-1.86464
21
-29.5854
0
LINE
8
BLACK
6
CONTINUOUS
10
-1.86464
20
-29.5854
11
-1.9
21
-29.6
0
LINE
8
BLACK
6
CONTINUOUS
10
-1.9
20
-29.6
11
-16.9
21
-29.6
0
LINE
8
BLACK
6
CONTINUOUS
10
-16.9
20
-29.6
11
-16.9354
21
-29.5854
0
LINE
8
BLACK
6
CONTINUOUS
10
-16.85
20
-14.6
11
-16.85
21
-29.5
0
LINE
8
BLACK
6
CONTINUOUS
10
-16.85
20
-29.5
11
-1.95
21
-29.5
0
LINE
8
BLACK
6
CONTINUOUS
10
-1.95
20
-29.5
11
-1.95
21
-14.6
0
LINE
8
BLACK
6
CONTINUOUS
10
-1.95
20
-14.6
11
-16.85
21
-14.6
0
LINE
8
BLACK
6
CONTINUOUS
10
2.11464
20
-29.5854
11
2.1
21
-29.55
0
LINE
8
BLACK
6
CONTINUOUS
10
2.1
20
-29.55
11
2.1
21
-14.55
0
LINE
8
BLACK
6
CONTINUOUS
10
2.1
20
-14.55
11
2.11464
21
-14.5146
0
LINE
8
BLACK
6
CONTINUOUS
10
2.11464
20
-14.5146
11
2.15
21
-14.5
0
LINE
8
BLACK
6
CONTINUOUS
10
2.15
20
-14.5
11
17.15
21
-14.5
0
LINE
8
BLACK
6
CONTINUOUS
10
17.15
20
-14.5
11
17.1854
21
-14.5146
0
LINE
8
BLACK
6
CONTINUOUS
10
17.1854
20
-14.5146
11
17.2
21
-14.55
0
LINE
8
BLACK
6
CONTINUOUS
10
17.2
20
-14.55
11
17.2
21
-29.55
0
LINE
8
BLACK
6
CONTINUOUS
10
17.2
20
-29.55
11
17.1854
21
-29.5854
0
LINE
8
BLACK
6
CONTINUOUS
10
17.1854
20
-29.5854
11
17.15
21
-29.6
0
LINE
8
BLACK
6
CONTINUOUS
10
17.15
20
-29.6
11
2.15
21
-29.6
0
LINE
8
BLACK
6
CONTINUOUS
10
2.15
20
-29.6
11
2.11464
21
-29.5854
0
LINE
8
BLACK
6
CONTINUOUS
10
2.2
20
-14.6
11
2.2
21
-29.5
0
LINE
8
BLACK
6
CONTINUOUS
10
2.2
20
-29.5
11
17.1
21
-29.5
0
LINE
8
BLACK
6
CONTINUOUS
10
17.1
20
-29.5
11
17.1
21
-14.6
0
LINE
8
BLACK
6
CONTINUOUS
10
17.1
20
-14.6
11
2.2
21
-14.6
0
LINE
8
BLACK
6
CONTINUOUS
10
21.1646
20
-29.5854
11
21.15
21
-29.55
0
LINE
8
BLACK
6
CONTINUOUS
10
21.15
20
-29.55
11
21.15
21
-14.55
0
LINE
8
BLACK
6
CONTINUOUS
10
21.15
20
-14.55
11
21.1646
21
-14.5146
0
LINE
8
BLACK
6
CONTINUOUS
10
21.1646
20
-14.5146
11
21.2
21
-14.5
0
LINE
8
BLACK
6
CONTINUOUS
10
21.2
20
-14.5
11
36.2
21
-14.5
0
LINE
8
BLACK
6
CONTINUOUS
10
36.2
20
-14.5
11
36.2354
21
-14.5146
0
LINE
8
BLACK
6
CONTINUOUS
10
36.2354
20
-14.5146
11
36.25
21
-14.55
0
LINE
8
BLACK
6
CONTINUOUS
10
36.25
20
-14.55
11
36.25
21
-29.55
0
LINE
8
BLACK
6
CONTINUOUS
10
36.25
20
-29.55
11
36.2354
21
-29.5854
0
LINE
8
BLACK
6
CONTINUOUS
10
36.2354
20
-29.5854
11
36.2
21
-29.6
0
LINE
8
BLACK
6
CONTINUOUS
10
36.2
20
-29.6
11
21.2
21
-29.6
0
LINE
8
BLACK
6
CONTINUOUS
10
21.2
20
-29.6
11
21.1646
21
-29.5854
0
LINE
8
BLACK
6
CONTINUOUS
10
21.25
20
-14.6
11
21.25
21
-29.5
0
LINE
8
BLACK
6
CONTINUOUS
10
21.25
20
-29.5
11
36.15
21
-29.5
0
LINE
8
BLACK
6
CONTINUOUS
10
36.15
20
-29.5
11
36.15
21
-14.6
0
LINE
8
BLACK
6
CONTINUOUS
10
36.15
20
-14.6
11
21.25
21
-14.6
0
LINE
8
BLACK
6
CONTINUOUS
10
21.1646
20
-10.5354
11
21.15
21
-10.5
0
LINE
8
BLACK
6
CONTINUOUS
10
21.15
20
-10.5
11
21.15
21
4.5
0
LINE
8
BLACK
6
CONTINUOUS
10
21.15
20
4.5
11
21.1646
21
4.53536
0
LINE
8
BLACK
6
CONTINUOUS
10
21.1646
20
4.53536
11
21.2
21
4.55
0
LINE
8
BLACK
6
CONTINUOUS
10
21.2
20
4.55
11
36.2
21
4.55
0
LINE
8
BLACK
6
CONTINUOUS
10
36.2
20
4.55
11
36.2354
21
4.53536
0
LINE
8
BLACK
6
CONTINUOUS
10
36.2354
20
4.53536
11
36.25
21
4.5
0
LINE
8
BLACK
6
CONTINUOUS
10
36.25
20
4.5
11
36.25
21
-10.5
0
LINE
8
BLACK
6
CONTINUOUS
10
36.25
20
-10.5
11
36.2354
21
-10.5354
0
LINE
8
BLACK
6
CONTINUOUS
10
36.2354
20
-10.5354
11
36.2
21
-10.55
0
LINE
8
BLACK
6
CONTINUOUS
10
36.2
20
-10.55
11
21.2
21
-10.55
0
LINE
8
BLACK
6
CONTINUOUS
10
21.2
20
-10.55
11
21.1646
21
-10.5354
0
LINE
8
BLACK
6
CONTINUOUS
10
21.25
20
4.45
11
21.25
21
-10.45
0
LINE
8
BLACK
6
CONTINUOUS
10
21.25
20
-10.45
11
36.15
21
-10.45
0
LINE
8
BLACK
6
CONTINUOUS
10
36.15
20
-10.45
11
36.15
21
4.45
0
LINE
8
BLACK
6
CONTINUOUS
10
36.15
20
4.45
11
21.25
21
4.45
0
LINE
8
BLACK
6
CONTINUOUS
10
-35.9854
20
-10.5354
11
-36
21
-10.5
0
LINE
8
BLACK
6
CONTINUOUS
10
-36
20
-10.5
11
-36
21
4.5
0
LINE
8
BLACK
6
CONTINUOUS
10
-36
20
4.5
11
-35.9854
21
4.53536
0
LINE
8
BLACK
6
CONTINUOUS
10
-35.9854
20
4.53536
11
-35.95
21
4.55
0
LINE
8
BLACK
6
CONTINUOUS
10
-35.95
20
4.55
11
-20.95
21
4.55
0
LINE
8
BLACK
6
CONTINUOUS
10
-20.95
20
4.55
11
-20.9146
21
4.53536
0
LINE
8
BLACK
6
CONTINUOUS
10
-20.9146
20
4.53536
11
-20.9
21
4.5
0
LINE
8
BLACK
6
CONTINUOUS
10
-20.9
20
4.5
11
-20.9
21
-10.5
0
LINE
8
BLACK
6
CONTINUOUS
10
-20.9
20
-10.5
11
-20.9146
21
-10.5354
0
LINE
8
BLACK
6
CONTINUOUS
10
-20.9146
20
-10.5354
11
-20.95
21
-10.55
0
LINE
8
BLACK
6
CONTINUOUS
10
-20.95
20
-10.55
11
-35.95
21
-10.55
0
LINE
8
BLACK
6
CONTINUOUS
10
-35.95
20
-10.55
11
-35.9854
21
-10.5354
0
LINE
8
BLACK
6
CONTINUOUS
10
-35.9
20
4.45
11
-35.9
21
-10.45
0
LINE
8
BLACK
6
CONTINUOUS
10
-35.9
20
-10.45
11
-21
21
-10.45
0
LINE
8
BLACK
6
CONTINUOUS
10
-21
20
-10.45
11
-21
21
4.45
0
LINE
8
BLACK
6
CONTINUOUS
10
-21
20
4.45
11
-35.9
21
4.45
0
LINE
8
BLACK
6
CONTINUOUS
10
2.11464
20
-10.5354
11
2.1
21
-10.5
0
LINE
8
BLACK
6
CONTINUOUS
10
2.1
20
-10.5
11
2.1
21
4.5
0
LINE
8
BLACK
6
CONTINUOUS
10
2.1
20
4.5
11
2.11464
21
4.53536
0
LINE
8
BLACK
6
CONTINUOUS
10
2.11464
20
4.53536
11
2.15
21
4.55
0
LINE
8
BLACK
6
CONTINUOUS
10
2.15
20
4.55
11
17.15
21
4.55
0
LINE
8
BLACK
6
CONTINUOUS
10
17.15
20
4.55
11
17.1854
21
4.53536
0
LINE
8
BLACK
6
CONTINUOUS
10
17.1854
20
4.53536
11
17.2
21
4.5
0
LINE
8
BLACK
6
CONTINUOUS
10
17.2
20
4.5
11
17.2
21
-10.5
0
LINE
8
BLACK
6
CONTINUOUS
10
17.2
20
-10.5
11
17.1854
21
-10.5354
0
LINE
8
BLACK
6
CONTINUOUS
10
17.1854
20
-10.5354
11
17.15
21
-10.55
0
LINE
8
BLACK
6
CONTINUOUS
10
17.15
20
-10.55
11
2.15
21
-10.55
0
LINE
8
BLACK
6
CONTINUOUS
10
2.15
20
-10.55
11
2.11464
21
-10.5354
0
LINE
8
BLACK
6
CONTINUOUS
10
2.2
20
4.45
11
2.2
21
-10.45
0
LINE
8
BLACK
6
CONTINUOUS
10
2.2
20
-10.45
11
17.1
21
-10.45
0
LINE
8
BLACK
6
CONTINUOUS
10
17.1
20
-10.45
11
17.1
21
4.45
0
LINE
8
BLACK
6
CONTINUOUS
10
17.1
20
4.45
11
2.2
21
4.45
0
LINE
8
BLACK
6
CONTINUOUS
10
-16.9354
20
-10.5354
11
-16.95
21
-10.5
0
LINE
8
BLACK
6
CONTINUOUS
10
-16.95
20
-10.5
11
-16.95
21
4.5
0
LINE
8
BLACK
6
CONTINUOUS
10
-16.95
20
4.5
11
-16.9354
21
4.53536
0
LINE
8
BLACK
6
CONTINUOUS
10
-16.9354
20
4.53536
11
-16.9
21
4.55
0
LINE
8
BLACK
6
CONTINUOUS
10
-16.9
20
4.55
11
-1.9
21
4.55
0
LINE
8
BLACK
6
CONTINUOUS
10
-1.9
20
4.55
11
-1.86464
21
4.53536
0
LINE
8
BLACK
6
CONTINUOUS
10
-1.86464
20
4.53536
11
-1.85
21
4.5
0
LINE
8
BLACK
6
CONTINUOUS
10
-1.85
20
4.5
11
-1.85
21
-10.5
0
LINE
8
BLACK
6
CONTINUOUS
10
-1.85
20
-10.5
11
-1.86464
21
-10.5354
0
LINE
8
BLACK
6
CONTINUOUS
10
-1.86464
20
-10.5354
11
-1.9
21
-10.55
0
LINE
8
BLACK
6
CONTINUOUS
10
-1.9
20
-10.55
11
-16.9
21
-10.55
0
LINE
8
BLACK
6
CONTINUOUS
10
-16.9
20
-10.55
11
-16.9354
21
-10.5354
0
LINE
8
BLACK
6
CONTINUOUS
10
-16.85
20
4.45
11
-16.85
21
-10.45
0
LINE
8
BLACK
6
CONTINUOUS
10
-16.85
20
-10.45
11
-1.95
21
-10.45
0
LINE
8
BLACK
6
CONTINUOUS
10
-1.95
20
-10.45
11
-1.95
21
4.45
0
LINE
8
BLACK
6
CONTINUOUS
10
-1.95
20
4.45
11
-16.85
21
4.45
0
LINE
8
BLACK
6
CONTINUOUS
10
-42.0692
20
-47.4901
11
-41.9702
21
-47.2509
0
LINE
8
BLACK
6
CONTINUOUS
10
-41.9702
20
-47.2509
11
-41.8349
21
-47.0302
0
LINE
8
BLACK
6
CONTINUOUS
10
-41.8349
20
-47.0302
11
-41.6667
21
-46.8333
0
LINE
8
BLACK
6
CONTINUOUS
10
-41.6667
20
-46.8333
11
-41.4698
21
-46.6651
0
LINE
8
BLACK
6
CONTINUOUS
10
-41.4698
20
-46.6651
11
-41.2491
21
-46.5298
0
LINE
8
BLACK
6
CONTINUOUS
10
-41.2491
20
-46.5298
11
-41.0099
21
-46.4308
0
LINE
8
BLACK
6
CONTINUOUS
10
-41.0099
20
-46.4308
11
-40.7581
21
-46.3703
0
LINE
8
BLACK
6
CONTINUOUS
10
-40.7581
20
-46.3703
11
-40.5
21
-46.35
0
LINE
8
BLACK
6
CONTINUOUS
10
-40.5
20
-46.35
11
-40.2419
21
-46.3703
0
LINE
8
BLACK
6
CONTINUOUS
10
-40.2419
20
-46.3703
11
-39.9901
21
-46.4308
0
LINE
8
BLACK
6
CONTINUOUS
10
-39.9901
20
-46.4308
11
-39.7509
21
-46.5298
0
LINE
8
BLACK
6
CONTINUOUS
10
-39.7509
20
-46.5298
11
-39.5302
21
-46.6651
0
LINE
8
BLACK
6
CONTINUOUS
10
-39.5302
20
-46.6651
11
-39.3333
21
-46.8333
0
LINE
8
BLACK
6
CONTINUOUS
10
-39.3333
20
-46.8333
11
-39.1651
21
-47.0302
0
LINE
8
BLACK
6
CONTINUOUS
10
-39.1651
20
-47.0302
11
-39.0298
21
-47.2509
0
LINE
8
BLACK
6
CONTINUOUS
10
-39.0298
20
-47.2509
11
-38.9308
21
-47.4901
0
LINE
8
BLACK
6
CONTINUOUS
10
-38.9308
20
-47.4901
11
-38.8703
21
-47.7419
0
LINE
8
BLACK
6
CONTINUOUS
10
-38.8703
20
-47.7419
11
-38.85
21
-48
0
LINE
8
BLACK
6
CONTINUOUS
10
-38.85
20
-48
11
-38.8703
21
-48.2581
0
LINE
8
BLACK
6
CONTINUOUS
10
-38.8703
20
-48.2581
11
-38.9308
21
-48.5099
0
LINE
8
BLACK
6
CONTINUOUS
10
-38.9308
20
-48.5099
11
-39.0298
21
-48.7491
0
LINE
8
BLACK
6
CONTINUOUS
10
-39.0298
20
-48.7491
11
-39.1651
21
-48.9698
0
LINE
8
BLACK
6
CONTINUOUS
10
-39.1651
20
-48.9698
11
-39.3333
21
-49.1667
0
LINE
8
BLACK
6
CONTINUOUS
10
-39.3333
20
-49.1667
11
-39.5302
21
-49.3349
0
LINE
8
BLACK
6
CONTINUOUS
10
-39.5302
20
-49.3349
11
-39.7509
21
-49.4702
0
LINE
8
BLACK
6
CONTINUOUS
10
-39.7509
20
-49.4702
11
-39.9901
21
-49.5692
0
LINE
8
BLACK
6
CONTINUOUS
10
-39.9901
20
-49.5692
11
-40.2419
21
-49.6297
0
LINE
8
BLACK
6
CONTINUOUS
10
-40.2419
20
-49.6297
11
-40.5
21
-49.65
0
LINE
8
BLACK
6
CONTINUOUS
10
-40.5
20
-49.65
11
-40.7581
21
-49.6297
0
LINE
8
BLACK
6
CONTINUOUS
10
-40.7581
20
-49.6297
11
-41.0099
21
-49.5692
0
LINE
8
BLACK
6
CONTINUOUS
10
-41.0099
20
-49.5692
11
-41.2491
21
-49.4702
0
LINE
8
BLACK
6
CONTINUOUS
10
-41.2491
20
-49.4702
11
-41.4698
21
-49.3349
0
LINE
8
BLACK
6
CONTINUOUS
10
-41.4698
20
-49.3349
11
-41.6667
21
-49.1667
0
LINE
8
BLACK
6
CONTINUOUS
10
-41.6667
20
-49.1667
11
-41.8349
21
-48.9698
0
LINE
8
BLACK
6
CONTINUOUS
10
-41.8349
20
-48.9698
11
-41.9702
21
-48.7491
0
LINE
8
BLACK
6
CONTINUOUS
10
-41.9702
20
-48.7491
11
-42.0692
21
-48.5099
0
LINE
8
BLACK
6
CONTINUOUS
10
-42.0692
20
-48.5099
11
-42.1297
21
-48.2581
0
LINE
8
BLACK
6
CONTINUOUS
10
-42.1297
20
-48.2581
11
-42.15
21
-48
0
LINE
8
BLACK
6
CONTINUOUS
10
-42.15
20
-48
11
-42.1297
21
-47.7419
0
LINE
8
BLACK
6
CONTINUOUS
10
-42.1297
20
-47.7419
11
-42.0692
21
-47.4901
0
LINE
8
BLACK
6
CONTINUOUS
10
-41.9787
20
-48.4805
11
-41.8853
21
-48.7059
0
LINE
8
BLACK
6
CONTINUOUS
10
-41.8853
20
-48.7059
11
-41.7579
21
-48.9139
0
LINE
8
BLACK
6
CONTINUOUS
10
-41.7579
20
-48.9139
11
-41.5994
21
-49.0994
0
LINE
8
BLACK
6
CONTINUOUS
10
-41.5994
20
-49.0994
11
-41.4139
21
-49.2579
0
LINE
8
BLACK
6
CONTINUOUS
10
-41.4139
20
-49.2579
11
-41.2059
21
-49.3853
0
LINE
8
BLACK
6
CONTINUOUS
10
-41.2059
20
-49.3853
11
-40.9805
21
-49.4787
0
LINE
8
BLACK
6
CONTINUOUS
10
-40.9805
20
-49.4787
11
-40.7432
21
-49.5357
0
LINE
8
BLACK
6
CONTINUOUS
10
-40.7432
20
-49.5357
11
-40.5
21
-49.5548
0
LINE
8
BLACK
6
CONTINUOUS
10
-40.5
20
-49.5548
11
-40.2568
21
-49.5357
0
LINE
8
BLACK
6
CONTINUOUS
10
-40.2568
20
-49.5357
11
-40.0195
21
-49.4787
0
LINE
8
BLACK
6
CONTINUOUS
10
-40.0195
20
-49.4787
11
-39.7941
21
-49.3853
0
LINE
8
BLACK
6
CONTINUOUS
10
-39.7941
20
-49.3853
11
-39.5861
21
-49.2579
0
LINE
8
BLACK
6
CONTINUOUS
10
-39.5861
20
-49.2579
11
-39.4006
21
-49.0994
0
LINE
8
BLACK
6
CONTINUOUS
10
-39.4006
20
-49.0994
11
-39.2421
21
-48.9139
0
LINE
8
BLACK
6
CONTINUOUS
10
-39.2421
20
-48.9139
11
-39.1147
21
-48.7059
0
LINE
8
BLACK
6
CONTINUOUS
10
-39.1147
20
-48.7059
11
-39.0213
21
-48.4805
0
LINE
8
BLACK
6
CONTINUOUS
10
-39.0213
20
-48.4805
11
-38.9643
21
-48.2432
0
LINE
8
BLACK
6
CONTINUOUS
10
-38.9643
20
-48.2432
11
-38.9452
21
-48
0
LINE
8
BLACK
6
CONTINUOUS
10
-38.9452
20
-48
11
-38.9643
21
-47.7568
0
LINE
8
BLACK
6
CONTINUOUS
10
-38.9643
20
-47.7568
11
-39.0213
21
-47.5195
0
LINE
8
BLACK
6
CONTINUOUS
10
-39.0213
20
-47.5195
11
-39.1147
21
-47.2941
0
LINE
8
BLACK
6
CONTINUOUS
10
-39.1147
20
-47.2941
11
-39.2421
21
-47.0861
0
LINE
8
BLACK
6
CONTINUOUS
10
-39.2421
20
-47.0861
11
-39.4006
21
-46.9006
0
LINE
8
BLACK
6
CONTINUOUS
10
-39.4006
20
-46.9006
11
-39.5861
21
-46.7421
0
LINE
8
BLACK
6
CONTINUOUS
10
-39.5861
20
-46.7421
11
-39.7941
21
-46.6147
0
LINE
8
BLACK
6
CONTINUOUS
10
-39.7941
20
-46.6147
11
-40.0195
21
-46.5213
0
LINE
8
BLACK
6
CONTINUOUS
10
-40.0195
20
-46.5213
11
-40.2568
21
-46.4643
0
LINE
8
BLACK
6
CONTINUOUS
10
-40.2568
20
-46.4643
11
-40.5
21
-46.4452
0
LINE
8
BLACK
6
CONTINUOUS
10
-40.5
20
-46.4452
11
-40.7432
21
-46.4643
0
LINE
8
BLACK
6
CONTINUOUS
10
-40.7432
20
-46.4643
11
-40.9805
21
-46.5213
0
LINE
8
BLACK
6
CONTINUOUS
10
-40.9805
20
-46.5213
11
-41.2059
21
-46.6147
0
LINE
8
BLACK
6
CONTINUOUS
10
-41.2059
20
-46.6147
11
-41.4139
21
-46.7421
0
LINE
8
BLACK
6
CONTINUOUS
10
-41.4139
20
-46.7421
11
-41.5994
21
-46.9006
0
LINE
8
BLACK
6
CONTINUOUS
10
-41.5994
20
-46.9006
11
-41.7579
21
-47.0861
0
LINE
8
BLACK
6
CONTINUOUS
10
-41.7579
20
-47.0861
11
-41.8853
21
-47.2941
0
LINE
8
BLACK
6
CONTINUOUS
10
-41.8853
20
-47.2941
11
-41.9787
21
-47.5195
0
LINE
8
BLACK
6
CONTINUOUS
10
-41.9787
20
-47.5195
11
-42.0357
21
-47.7568
0
LINE
8
BLACK
6
CONTINUOUS
10
-42.0357
20
-47.7568
11
-42.0548
21
-48
0
LINE
8
BLACK
6
CONTINUOUS
10
-42.0548
20
-48
11
-42.0357
21
-48.2432
0
LINE
8
BLACK
6
CONTINUOUS
10
-42.0357
20
-48.2432
11
-41.9787
21
-48.4805
0
LINE
8
BLACK
6
CONTINUOUS
10
38.9308
20
-47.4901
11
39.0298
21
-47.2509
0
LINE
8
BLACK
6
CONTINUOUS
10
39.0298
20
-47.2509
11
39.1651
21
-47.0302
0
LINE
8
BLACK
6
CONTINUOUS
10
39.1651
20
-47.0302
11
39.3333
21
-46.8333
0
LINE
8
BLACK
6
CONTINUOUS
10
39.3333
20
-46.8333
11
39.5302
21
-46.6651
0
LINE
8
BLACK
6
CONTINUOUS
10
39.5302
20
-46.6651
11
39.7509
21
-46.5298
0
LINE
8
BLACK
6
CONTINUOUS
10
39.7509
20
-46.5298
11
39.9901
21
-46.4308
0
LINE
8
BLACK
6
CONTINUOUS
10
39.9901
20
-46.4308
11
40.2419
21
-46.3703
0
LINE
8
BLACK
6
CONTINUOUS
10
40.2419
20
-46.3703
11
40.5
21
-46.35
0
LINE
8
BLACK
6
CONTINUOUS
10
40.5
20
-46.35
11
40.7581
21
-46.3703
0
LINE
8
BLACK
6
CONTINUOUS
10
40.7581
20
-46.3703
11
41.0099
21
-46.4308
0
LINE
8
BLACK
6
CONTINUOUS
10
41.0099
20
-46.4308
11
41.2491
21
-46.5298
0
LINE
8
BLACK
6
CONTINUOUS
10
41.2491
20
-46.5298
11
41.4698
21
-46.6651
0
LINE
8
BLACK
6
CONTINUOUS
10
41.4698
20
-46.6651
11
41.6667
21
-46.8333
0
LINE
8
BLACK
6
CONTINUOUS
10
41.6667
20
-46.8333
11
41.8349
21
-47.0302
0
LINE
8
BLACK
6
CONTINUOUS
10
41.8349
20
-47.0302
11
41.9702
21
-47.2509
0
LINE
8
BLACK
6
CONTINUOUS
10
41.9702
20
-47.2509
11
42.0692
21
-47.4901
0
LINE
8
BLACK
6
CONTINUOUS
10
42.0692
20
-47.4901
11
42.1297
21
-47.7419
0
LINE
8
BLACK
6
CONTINUOUS
10
42.1297
20
-47.7419
11
42.15
21
-48
0
LINE
8
BLACK
6
CONTINUOUS
10
42.15
20
-48
11
42.1297
21
-48.2581
0
LINE
8
BLACK
6
CONTINUOUS
10
42.1297
20
-48.2581
11
42.0692
21
-48.5099
0
LINE
8
BLACK
6
CONTINUOUS
10
42.0692
20
-48.5099
11
41.9702
21
-48.7491
0
LINE
8
BLACK
6
CONTINUOUS
10
41.9702
20
-48.7491
11
41.8349
21
-48.9698
0
LINE
8
BLACK
6
CONTINUOUS
10
41.8349
20
-48.9698
11
41.6667
21
-49.1667
0
LINE
8
BLACK
6
CONTINUOUS
10
41.6667
20
-49.1667
11
41.4698
21
-49.3349
0
LINE
8
BLACK
6
CONTINUOUS
10
41.4698
20
-49.3349
11
41.2491
21
-49.4702
0
LINE
8
BLACK
6
CONTINUOUS
10
41.2491
20
-49.4702
11
41.0099
21
-49.5692
0
LINE
8
BLACK
6
CONTINUOUS
10
41.0099
20
-49.5692
11
40.7581
21
-49.6297
0
LINE
8
BLACK
6
CONTINUOUS
10
40.7581
20
-49.6297
11
40.5
21
-49.65
0
LINE
8
BLACK
6
CONTINUOUS
10
40.5
20
-49.65
11
40.2419
21
-49.6297
0
LINE
8
BLACK
6
CONTINUOUS
10
40.2419
20
-49.6297
11
39.9901
21
-49.5692
0
LINE
8
BLACK
6
CONTINUOUS
10
39.9901
20
-49.5692
11
39.7509
21
-49.4702
0
LINE
8
BLACK
6
CONTINUOUS
10
39.7509
20
-49.4702
11
39.5302
21
-49.3349
0
LINE
8
BLACK
6
CONTINUOUS
10
39.5302
20
-49.3349
11
39.3333
21
-49.1667
0
LINE
8
BLACK
6
CONTINUOUS
10
39.3333
20
-49.1667
11
39.1651
21
-48.9698
0
LINE
8
BLACK
6
CONTINUOUS
10
39.1651
20
-48.9698
11
39.0298
21
-48.7491
0
LINE
8
BLACK
6
CONTINUOUS
10
39.0298
20
-48.7491
11
38.9308
21
-48.5099
0
LINE
8
BLACK
6
CONTINUOUS
10
38.9308
20
-48.5099
11
38.8703
21
-48.2581
0
LINE
8
BLACK
6
CONTINUOUS
10
38.8703
20
-48.2581
11
38.85
21
-48
0
LINE
8
BLACK
6
CONTINUOUS
10
38.85
20
-48
11
38.8703
21
-47.7419
0
LINE
8
BLACK
6
CONTINUOUS
10
38.8703
20
-47.7419
11
38.9308
21
-47.4901
0
LINE
8
BLACK
6
CONTINUOUS
10
39.0213
20
-48.4805
11
39.1147
21
-48.7059
0
LINE
8
BLACK
6
CONTINUOUS
10
39.1147
20
-48.7059
11
39.2421
21
-48.9139
0
LINE
8
BLACK
6
CONTINUOUS
10
39.2421
20
-48.9139
11
39.4006
21
-49.0994
0
LINE
8
BLACK
6
CONTINUOUS
10
39.4006
20
-49.0994
11
39.5861
21
-49.2579
0
LINE
8
BLACK
6
CONTINUOUS
10
39.5861
20
-49.2579
11
39.7941
21
-49.3853
0
LINE
8
BLACK
6
CONTINUOUS
10
39.7941
20
-49.3853
11
40.0195
21
-49.4787
0
LINE
8
BLACK
6
CONTINUOUS
10
40.0195
20
-49.4787
11
40.2568
21
-49.5357
0
LINE
8
BLACK
6
CONTINUOUS
10
40.2568
20
-49.5357
11
40.5
21
-49.5548
0
LINE
8
BLACK
6
CONTINUOUS
10
40.5
20
-49.5548
11
40.7432
21
-49.5357
0
LINE
8
BLACK
6
CONTINUOUS
10
40.7432
20
-49.5357
11
40.9805
21
-49.4787
0
LINE
8
BLACK
6
CONTINUOUS
10
40.9805
20
-49.4787
11
41.2059
21
-49.3853
0
LINE
8
BLACK
6
CONTINUOUS
10
41.2059
20
-49.3853
11
41.4139
21
-49.2579
0
LINE
8
BLACK
6
CONTINUOUS
10
41.4139
20
-49.2579
11
41.5994
21
-49.0994
0
LINE
8
BLACK
6
CONTINUOUS
10
41.5994
20
-49.0994
11
41.7579
21
-48.9139
0
LINE
8
BLACK
6
CONTINUOUS
10
41.7579
20
-48.9139
11
41.8853
21
-48.7059
0
LINE
8
BLACK
6
CONTINUOUS
10
41.8853
20
-48.7059
11
41.9787
21
-48.4805
0
LINE
8
BLACK
6
CONTINUOUS
10
41.9787
20
-48.4805
11
42.0357
21
-48.2432
0
LINE
8
BLACK
6
CONTINUOUS
10
42.0357
20
-48.2432
11
42.0548
21
-48
0
LINE
8
BLACK
6
CONTINUOUS
10
42.0548
20
-48
11
42.0357
21
-47.7568
0
LINE
8
BLACK
6
CONTINUOUS
10
42.0357
20
-47.7568
11
41.9787
21
-47.5195
0
LINE
8
BLACK
6
CONTINUOUS
10
41.9787
20
-47.5195
11
41.8853
21
-47.2941
0
LINE
8
BLACK
6
CONTINUOUS
10
41.8853
20
-47.2941
11
41.7579
21
-47.0861
0
LINE
8
BLACK
6
CONTINUOUS
10
41.7579
20
-47.0861
11
41.5994
21
-46.9006
0
LINE
8
BLACK
6
CONTINUOUS
10
41.5994
20
-46.9006
11
41.4139
21
-46.7421
0
LINE
8
BLACK
6
CONTINUOUS
10
41.4139
20
-46.7421
11
41.2059
21
-46.6147
0
LINE
8
BLACK
6
CONTINUOUS
10
41.2059
20
-46.6147
11
40.9805
21
-46.5213
0
LINE
8
BLACK
6
CONTINUOUS
10
40.9805
20
-46.5213
11
40.7432
21
-46.4643
0
LINE
8
BLACK
6
CONTINUOUS
10
40.7432
20
-46.4643
11
40.5
21
-46.4452
0
LINE
8
BLACK
6
CONTINUOUS
10
40.5
20
-46.4452
11
40.2568
21
-46.4643
0
LINE
8
BLACK
6
CONTINUOUS
10
40.2568
20
-46.4643
11
40.0195
21
-46.5213
0
LINE
8
BLACK
6
CONTINUOUS
10
40.0195
20
-46.5213
11
39.7941
21
-46.6147
0
LINE
8
BLACK
6
CONTINUOUS
10
39.7941
20
-46.6147
11
39.5861
21
-46.7421
0
LINE
8
BLACK
6
CONTINUOUS
10
39.5861
20
-46.7421
11
39.4006
21
-46.9006
0
LINE
8
BLACK
6
CONTINUOUS
10
39.4006
20
-46.9006
11
39.2421
21
-47.0861
0
LINE
8
BLACK
6
CONTINUOUS
10
39.2421
20
-47.0861
11
39.1147
21
-47.2941
0
LINE
8
BLACK
6
CONTINUOUS
10
39.1147
20
-47.2941
11
39.0213
21
-47.5195
0
LINE
8
BLACK
6
CONTINUOUS
10
39.0213
20
-47.5195
11
38.9643
21
-47.7568
0
LINE
8
BLACK
6
CONTINUOUS
10
38.9643
20
-47.7568
11
38.9452
21
-48
0
LINE
8
BLACK
6
CONTINUOUS
10
38.9452
20
-48
11
38.9643
21
-48.2432
0
LINE
8
BLACK
6
CONTINUOUS
10
38.9643
20
-48.2432
11
39.0213
21
-48.4805
0
LINE
8
BLACK
6
CONTINUOUS
10
-42.0692
20
5.50988
11
-41.9702
21
5.74908
0
LINE
8
BLACK
6
CONTINUOUS
10
-41.9702
20
5.74908
11
-41.8349
21
5.96985
0
LINE
8
BLACK
6
CONTINUOUS
10
-41.8349
20
5.96985
11
-41.6667
21
6.16673
0
LINE
8
BLACK
6
CONTINUOUS
10
-41.6667
20
6.16673
11
-41.4698
21
6.33488
0
LINE
8
BLACK
6
CONTINUOUS
10
-41.4698
20
6.33488
11
-41.2491
21
6.47016
0
LINE
8
BLACK
6
CONTINUOUS
10
-41.2491
20
6.47016
11
-41.0099
21
6.56924
0
LINE
8
BLACK
6
CONTINUOUS
10
-41.0099
20
6.56924
11
-40.7581
21
6.62969
0
LINE
8
BLACK
6
CONTINUOUS
10
-40.7581
20
6.62969
11
-40.5
21
6.65
0
LINE
8
BLACK
6
CONTINUOUS
10
-40.5
20
6.65
11
-40.2419
21
6.62969
0
LINE
8
BLACK
6
CONTINUOUS
10
-40.2419
20
6.62969
11
-39.9901
21
6.56924
0
LINE
8
BLACK
6
CONTINUOUS
10
-39.9901
20
6.56924
11
-39.7509
21
6.47016
0
LINE
8
BLACK
6
CONTINUOUS
10
-39.7509
20
6.47016
11
-39.5302
21
6.33488
0
LINE
8
BLACK
6
CONTINUOUS
10
-39.5302
20
6.33488
11
-39.3333
21
6.16673
0
LINE
8
BLACK
6
CONTINUOUS
10
-39.3333
20
6.16673
11
-39.1651
21
5.96985
0
LINE
8
BLACK
6
CONTINUOUS
10
-39.1651
20
5.96985
11
-39.0298
21
5.74908
0
LINE
8
BLACK
6
CONTINUOUS
10
-39.0298
20
5.74908
11
-38.9308
21
5.50988
0
LINE
8
BLACK
6
CONTINUOUS
10
-38.9308
20
5.50988
11
-38.8703
21
5.25812
0
LINE
8
BLACK
6
CONTINUOUS
10
-38.8703
20
5.25812
11
-38.85
21
5
0
LINE
8
BLACK
6
CONTINUOUS
10
-38.85
20
5
11
-38.8703
21
4.74188
0
LINE
8
BLACK
6
CONTINUOUS
10
-38.8703
20
4.74188
11
-38.9308
21
4.49012
0
LINE
8
BLACK
6
CONTINUOUS
10
-38.9308
20
4.49012
11
-39.0298
21
4.25092
0
LINE
8
BLACK
6
CONTINUOUS
10
-39.0298
20
4.25092
11
-39.1651
21
4.03015
0
LINE
8
BLACK
6
CONTINUOUS
10
-39.1651
20
4.03015
11
-39.3333
21
3.83327
0
LINE
8
BLACK
6
CONTINUOUS
10
-39.3333
20
3.83327
11
-39.5302
21
3.66512
0
LINE
8
BLACK
6
CONTINUOUS
10
-39.5302
20
3.66512
11
-39.7509
21
3.52984
0
LINE
8
BLACK
6
CONTINUOUS
10
-39.7509
20
3.52984
11
-39.9901
21
3.43076
0
LINE
8
BLACK
6
CONTINUOUS
10
-39.9901
20
3.43076
11
-40.2419
21
3.37031
0
LINE
8
BLACK
6
CONTINUOUS
10
-40.2419
20
3.37031
11
-40.5
21
3.35
0
LINE
8
BLACK
6
CONTINUOUS
10
-40.5
20
3.35
11
-40.7581
21
3.37031
0
LINE
8
BLACK
6
CONTINUOUS
10
-40.7581
20
3.37031
11
-41.0099
21
3.43076
0
LINE
8
BLACK
6
CONTINUOUS
10
-41.0099
20
3.43076
11
-41.2491
21
3.52984
0
LINE
8
BLACK
6
CONTINUOUS
10
-41.2491
20
3.52984
11
-41.4698
21
3.66512
0
LINE
8
BLACK
6
CONTINUOUS
10
-41.4698
20
3.66512
11
-41.6667
21
3.83327
0
LINE
8
BLACK
6
CONTINUOUS
10
-41.6667
20
3.83327
11
-41.8349
21
4.03015
0
LINE
8
BLACK
6
CONTINUOUS
10
-41.8349
20
4.03015
11
-41.9702
21
4.25092
0
LINE
8
BLACK
6
CONTINUOUS
10
-41.9702
20
4.25092
11
-42.0692
21
4.49012
0
LINE
8
BLACK
6
CONTINUOUS
10
-42.0692
20
4.49012
11
-42.1297
21
4.74188
0
LINE
8
BLACK
6
CONTINUOUS
10
-42.1297
20
4.74188
11
-42.15
21
5
0
LINE
8
BLACK
6
CONTINUOUS
10
-42.15
20
5
11
-42.1297
21
5.25812
0
LINE
8
BLACK
6
CONTINUOUS
10
-42.1297
20
5.25812
11
-42.0692
21
5.50988
0
LINE
8
BLACK
6
CONTINUOUS
10
-41.9787
20
4.51954
11
-41.8853
21
4.29414
0
LINE
8
BLACK
6
CONTINUOUS
10
-41.8853
20
4.29414
11
-41.7579
21
4.08612
0
LINE
8
BLACK
6
CONTINUOUS
10
-41.7579
20
4.08612
11
-41.5994
21
3.9006
0
LINE
8
BLACK
6
CONTINUOUS
10
-41.5994
20
3.9006
11
-41.4139
21
3.74215
0
LINE
8
BLACK
6
CONTINUOUS
10
-41.4139
20
3.74215
11
-41.2059
21
3.61467
0
LINE
8
BLACK
6
CONTINUOUS
10
-41.2059
20
3.61467
11
-40.9805
21
3.5213
0
LINE
8
BLACK
6
CONTINUOUS
10
-40.9805
20
3.5213
11
-40.7432
21
3.46435
0
LINE
8
BLACK
6
CONTINUOUS
10
-40.7432
20
3.46435
11
-40.5
21
3.44521
0
LINE
8
BLACK
6
CONTINUOUS
10
-40.5
20
3.44521
11
-40.2568
21
3.46435
0
LINE
8
BLACK
6
CONTINUOUS
10
-40.2568
20
3.46435
11
-40.0195
21
3.5213
0
LINE
8
BLACK
6
CONTINUOUS
10
-40.0195
20
3.5213
11
-39.7941
21
3.61467
0
LINE
8
BLACK
6
CONTINUOUS
10
-39.7941
20
3.61467
11
-39.5861
21
3.74215
0
LINE
8
BLACK
6
CONTINUOUS
10
-39.5861
20
3.74215
11
-39.4006
21
3.9006
0
LINE
8
BLACK
6
CONTINUOUS
10
-39.4006
20
3.9006
11
-39.2421
21
4.08612
0
LINE
8
BLACK
6
CONTINUOUS
10
-39.2421
20
4.08612
11
-39.1147
21
4.29414
0
LINE
8
BLACK
6
CONTINUOUS
10
-39.1147
20
4.29414
11
-39.0213
21
4.51954
0
LINE
8
BLACK
6
CONTINUOUS
10
-39.0213
20
4.51954
11
-38.9643
21
4.75678
0
LINE
8
BLACK
6
CONTINUOUS
10
-38.9643
20
4.75678
11
-38.9452
21
5
0
LINE
8
BLACK
6
CONTINUOUS
10
-38.9452
20
5
11
-38.9643
21
5.24322
0
LINE
8
BLACK
6
CONTINUOUS
10
-38.9643
20
5.24322
11
-39.0213
21
5.48046
0
LINE
8
BLACK
6
CONTINUOUS
10
-39.0213
20
5.48046
11
-39.1147
21
5.70586
0
LINE
8
BLACK
6
CONTINUOUS
10
-39.1147
20
5.70586
11
-39.2421
21
5.91388
0
LINE
8
BLACK
6
CONTINUOUS
10
-39.2421
20
5.91388
11
-39.4006
21
6.0994
0
LINE
8
BLACK
6
CONTINUOUS
10
-39.4006
20
6.0994
11
-39.5861
21
6.25785
0
LINE
8
BLACK
6
CONTINUOUS
10
-39.5861
20
6.25785
11
-39.7941
21
6.38533
0
LINE
8
BLACK
6
CONTINUOUS
10
-39.7941
20
6.38533
11
-40.0195
21
6.4787
0
LINE
8
BLACK
6
CONTINUOUS
10
-40.0195
20
6.4787
11
-40.2568
21
6.53565
0
LINE
8
BLACK
6
CONTINUOUS
10
-40.2568
20
6.53565
11
-40.5
21
6.55479
0
LINE
8
BLACK
6
CONTINUOUS
10
-40.5
20
6.55479
11
-40.7432
21
6.53565
0
LINE
8
BLACK
6
CONTINUOUS
10
-40.7432
20
6.53565
11
-40.9805
21
6.4787
0
LINE
8
BLACK
6
CONTINUOUS
10
-40.9805
20
6.4787
11
-41.2059
21
6.38533
0
LINE
8
BLACK
6
CONTINUOUS
10
-41.2059
20
6.38533
11
-41.4139
21
6.25785
0
LINE
8
BLACK
6
CONTINUOUS
10
-41.4139
20
6.25785
11
-41.5994
21
6.0994
0
LINE
8
BLACK
6
CONTINUOUS
10
-41.5994
20
6.0994
11
-41.7579
21
5.91388
0
LINE
8
BLACK
6
CONTINUOUS
10
-41.7579
20
5.91388
11
-41.8853
21
5.70586
0
LINE
8
BLACK
6
CONTINUOUS
10
-41.8853
20
5.70586
11
-41.9787
21
5.48046
0
LINE
8
BLACK
6
CONTINUOUS
10
-41.9787
20
5.48046
11
-42.0357
21
5.24322
0
LINE
8
BLACK
6
CONTINUOUS
10
-42.0357
20
5.24322
11
-42.0548
21
5
0
LINE
8
BLACK
6
CONTINUOUS
10
-42.0548
20
5
11
-42.0357
21
4.75678
0
LINE
8
BLACK
6
CONTINUOUS
10
-42.0357
20
4.75678
11
-41.9787
21
4.51954
0
LINE
8
BLACK
6
CONTINUOUS
10
38.9308
20
5.50988
11
39.0298
21
5.74908
0
LINE
8
BLACK
6
CONTINUOUS
10
39.0298
20
5.74908
11
39.1651
21
5.96985
0
LINE
8
BLACK
6
CONTINUOUS
10
39.1651
20
5.96985
11
39.3333
21
6.16673
0
LINE
8
BLACK
6
CONTINUOUS
10
39.3333
20
6.16673
11
39.5302
21
6.33488
0
LINE
8
BLACK
6
CONTINUOUS
10
39.5302
20
6.33488
11
39.7509
21
6.47016
0
LINE
8
BLACK
6
CONTINUOUS
10
39.7509
20
6.47016
11
39.9901
21
6.56924
0
LINE
8
BLACK
6
CONTINUOUS
10
39.9901
20
6.56924
11
40.2419
21
6.62969
0
LINE
8
BLACK
6
CONTINUOUS
10
40.2419
20
6.62969
11
40.5
21
6.65
0
LINE
8
BLACK
6
CONTINUOUS
10
40.5
20
6.65
11
40.7581
21
6.62969
0
LINE
8
BLACK
6
CONTINUOUS
10
40.7581
20
6.62969
11
41.0099
21
6.56924
0
LINE
8
BLACK
6
CONTINUOUS
10
41.0099
20
6.56924
11
41.2491
21
6.47016
0
LINE
8
BLACK
6
CONTINUOUS
10
41.2491
20
6.47016
11
41.4698
21
6.33488
0
LINE
8
BLACK
6
CONTINUOUS
10
41.4698
20
6.33488
11
41.6667
21
6.16673
0
LINE
8
BLACK
6
CONTINUOUS
10
41.6667
20
6.16673
11
41.8349
21
5.96985
0
LINE
8
BLACK
6
CONTINUOUS
10
41.8349
20
5.96985
11
41.9702
21
5.74908
0
LINE
8
BLACK
6
CONTINUOUS
10
41.9702
20
5.74908
11
42.0692
21
5.50988
0
LINE
8
BLACK
6
CONTINUOUS
10
42.0692
20
5.50988
11
42.1297
21
5.25812
0
LINE
8
BLACK
6
CONTINUOUS
10
42.1297
20
5.25812
11
42.15
21
5
0
LINE
8
BLACK
6
CONTINUOUS
10
42.15
20
5
11
42.1297
21
4.74188
0
LINE
8
BLACK
6
CONTINUOUS
10
42.1297
20
4.74188
11
42.0692
21
4.49012
0
LINE
8
BLACK
6
CONTINUOUS
10
42.0692
20
4.49012
11
41.9702
21
4.25092
0
LINE
8
BLACK
6
CONTINUOUS
10
41.9702
20
4.25092
11
41.8349
21
4.03015
0
LINE
8
BLACK
6
CONTINUOUS
10
41.8349
20
4.03015
11
41.6667
21
3.83327
0
LINE
8
BLACK
6
CONTINUOUS
10
41.6667
20
3.83327
11
41.4698
21
3.66512
0
LINE
8
BLACK
6
CONTINUOUS
10
41.4698
20
3.66512
11
41.2491
21
3.52984
0
LINE
8
BLACK
6
CONTINUOUS
10
41.2491
20
3.52984
11
41.0099
21
3.43076
0
LINE
8
BLACK
6
CONTINUOUS
10
41.0099
20
3.43076
11
40.7581
21
3.37031
0
LINE
8
BLACK
6
CONTINUOUS
10
40.7581
20
3.37031
11
40.5
21
3.35
0
LINE
8
BLACK
6
CONTINUOUS
10
40.5
20
3.35
11
40.2419
21
3.37031
0
LINE
8
BLACK
6
CONTINUOUS
10
40.2419
20
3.37031
11
39.9901
21
3.43076
0
LINE
8
BLACK
6
CONTINUOUS
10
39.9901
20
3.43076
11
39.7509
21
3.52984
0
LINE
8
BLACK
6
CONTINUOUS
10
39.7509
20
3.52984
11
39.5302
21
3.66512
0
LINE
8
BLACK
6
CONTINUOUS
10
39.5302
20
3.66512
11
39.3333
21
3.83327
0
LINE
8
BLACK
6
CONTINUOUS
10
39.3333
20
3.83327
11
39.1651
21
4.03015
0
LINE
8
BLACK
6
CONTINUOUS
10
39.1651
20
4.03015
11
39.0298
21
4.25092
0
LINE
8
BLACK
6
CONTINUOUS
10
39.0298
20
4.25092
11
38.9308
21
4.49012
0
LINE
8
BLACK
6
CONTINUOUS
10
38.9308
20
4.49012
11
38.8703
21
4.74188
0
LINE
8
BLACK
6
CONTINUOUS
10
38.8703
20
4.74188
11
38.85
21
5
0
LINE
8
BLACK
6
CONTINUOUS
10
38.85
20
5
11
38.8703
21
5.25812
0
LINE
8
BLACK
6
CONTINUOUS
10
38.8703
20
5.25812
11
38.9308
21
5.50988
0
LINE
8
BLACK
6
CONTINUOUS
10
39.0213
20
4.51954
11
39.1147
21
4.29414
0
LINE
8
BLACK
6
CONTINUOUS
10
39.1147
20
4.29414
11
39.2421
21
4.08612
0
LINE
8
BLACK
6
CONTINUOUS
10
39.2421
20
4.08612
11
39.4006
21
3.9006
0
LINE
8
BLACK
6
CONTINUOUS
10
39.4006
20
3.9006
11
39.5861
21
3.74215
0
LINE
8
BLACK
6
CONTINUOUS
10
39.5861
20
3.74215
11
39.7941
21
3.61467
0
LINE
8
BLACK
6
CONTINUOUS
10
39.7941
20
3.61467
11
40.0195
21
3.5213
0
LINE
8
BLACK
6
CONTINUOUS
10
40.0195
20
3.5213
11
40.2568
21
3.46435
0
LINE
8
BLACK
6
CONTINUOUS
10
40.2568
20
3.46435
11
40.5
21
3.44521
0
LINE
8
BLACK
6
CONTINUOUS
10
40.5
20
3.44521
11
40.7432
21
3.46435
0
LINE
8
BLACK
6
CONTINUOUS
10
40.7432
20
3.46435
11
40.9805
21
3.5213
0
LINE
8
BLACK
6
CONTINUOUS
10
40.9805
20
3.5213
11
41.2059
21
3.61467
0
LINE
8
BLACK
6
CONTINUOUS
10
41.2059
20
3.61467
11
41.4139
21
3.74215
0
LINE
8
BLACK
6
CONTINUOUS
10
41.4139
20
3.74215
11
41.5994
21
3.9006
0
LINE
8
BLACK
6
CONTINUOUS
10
41.5994
20
3.9006
11
41.7579
21
4.08612
0
LINE
8
BLACK
6
CONTINUOUS
10
41.7579
20
4.08612
11
41.8853
21
4.29414
0
LINE
8
BLACK
6
CONTINUOUS
10
41.8853
20
4.29414
11
41.9787
21
4.51954
0
LINE
8
BLACK
6
CONTINUOUS
10
41.9787
20
4.51954
11
42.0357
21
4.75678
0
LINE
8
BLACK
6
CONTINUOUS
10
42.0357
20
4.75678
11
42.0548
21
5
0
LINE
8
BLACK
6
CONTINUOUS
10
42.0548
20
5
11
42.0357
21
5.24322
0
LINE
8
BLACK
6
CONTINUOUS
10
42.0357
20
5.24322
11
41.9787
21
5.48046
0
LINE
8
BLACK
6
CONTINUOUS
10
41.9787
20
5.48046
11
41.8853
21
5.70586
0
LINE
8
BLACK
6
CONTINUOUS
10
41.8853
20
5.70586
11
41.7579
21
5.91388
0
LINE
8
BLACK
6
CONTINUOUS
10
41.7579
20
5.91388
11
41.5994
21
6.0994
0
LINE
8
BLACK
6
CONTINUOUS
10
41.5994
20
6.0994
11
41.4139
21
6.25785
0
LINE
8
BLACK
6
CONTINUOUS
10
41.4139
20
6.25785
11
41.2059
21
6.38533
0
LINE
8
BLACK
6
CONTINUOUS
10
41.2059
20
6.38533
11
40.9805
21
6.4787
0
LINE
8
BLACK
6
CONTINUOUS
10
40.9805
20
6.4787
11
40.7432
21
6.53565
0
LINE
8
BLACK
6
CONTINUOUS
10
40.7432
20
6.53565
11
40.5
21
6.55479
0
LINE
8
BLACK
6
CONTINUOUS
10
40.5
20
6.55479
11
40.2568
21
6.53565
0
LINE
8
BLACK
6
CONTINUOUS
10
40.2568
20
6.53565
11
40.0195
21
6.4787
0
LINE
8
BLACK
6
CONTINUOUS
10
40.0195
20
6.4787
11
39.7941
21
6.38533
0
LINE
8
BLACK
6
CONTINUOUS
10
39.7941
20
6.38533
11
39.5861
21
6.25785
0
LINE
8
BLACK
6
CONTINUOUS
10
39.5861
20
6.25785
11
39.4006
21
6.0994
0
LINE
8
BLACK
6
CONTINUOUS
10
39.4006
20
6.0994
11
39.2421
21
5.91388
0
LINE
8
BLACK
6
CONTINUOUS
10
39.2421
20
5.91388
11
39.1147
21
5.70586
0
LINE
8
BLACK
6
CONTINUOUS
10
39.1147
20
5.70586
11
39.0213
21
5.48046
0
LINE
8
BLACK
6
CONTINUOUS
10
39.0213
20
5.48046
11
38.9643
21
5.24322
0
LINE
8
BLACK
6
CONTINUOUS
10
38.9643
20
5.24322
11
38.9452
21
5
0
LINE
8
BLACK
6
CONTINUOUS
10
38.9452
20
5
11
38.9643
21
4.75678
0
LINE
8
BLACK
6
CONTINUOUS
10
38.9643
20
4.75678
11
39.0213
21
4.51954
0
LINE
8
BLACK
6
CONTINUOUS
10
39.3254
20
32.9275
11
39.4175
21
33.125
0
LINE
8
BLACK
6
CONTINUOUS
10
39.4175
20
33.125
11
39.5424
21
33.3035
0
LINE
8
BLACK
6
CONTINUOUS
10
39.5424
20
33.3035
11
39.6965
21
33.4576
0
LINE
8
BLACK
6
CONTINUOUS
10
39.6965
20
33.4576
11
39.875
21
33.5825
0
LINE
8
BLACK
6
CONTINUOUS
10
39.875
20
33.5825
11
40.0725
21
33.6746
0
LINE
8
BLACK
6
CONTINUOUS
10
40.0725
20
33.6746
11
40.2829
21
33.731
0
LINE
8
BLACK
6
CONTINUOUS
10
40.2829
20
33.731
11
40.5
21
33.75
0
LINE
8
BLACK
6
CONTINUOUS
10
40.5
20
33.75
11
40.7171
21
33.731
0
LINE
8
BLACK
6
CONTINUOUS
10
40.7171
20
33.731
11
40.9275
21
33.6746
0
LINE
8
BLACK
6
CONTINUOUS
10
40.9275
20
33.6746
11
41.125
21
33.5825
0
LINE
8
BLACK
6
CONTINUOUS
10
41.125
20
33.5825
11
41.3035
21
33.4576
0
LINE
8
BLACK
6
CONTINUOUS
10
41.3035
20
33.4576
11
41.4576
21
33.3035
0
LINE
8
BLACK
6
CONTINUOUS
10
41.4576
20
33.3035
11
41.5825
21
33.125
0
LINE
8
BLACK
6
CONTINUOUS
10
41.5825
20
33.125
11
41.6746
21
32.9275
0
LINE
8
BLACK
6
CONTINUOUS
10
41.6746
20
32.9275
11
41.731
21
32.7171
0
LINE
8
BLACK
6
CONTINUOUS
10
41.731
20
32.7171
11
41.75
21
32.5
0
LINE
8
BLACK
6
CONTINUOUS
10
41.75
20
32.5
11
41.731
21
32.2829
0
LINE
8
BLACK
6
CONTINUOUS
10
41.731
20
32.2829
11
41.6746
21
32.0725
0
LINE
8
BLACK
6
CONTINUOUS
10
41.6746
20
32.0725
11
41.5825
21
31.875
0
LINE
8
BLACK
6
CONTINUOUS
10
41.5825
20
31.875
11
41.4576
21
31.6965
0
LINE
8
BLACK
6
CONTINUOUS
10
41.4576
20
31.6965
11
41.3035
21
31.5424
0
LINE
8
BLACK
6
CONTINUOUS
10
41.3035
20
31.5424
11
41.125
21
31.4175
0
LINE
8
BLACK
6
CONTINUOUS
10
41.125
20
31.4175
11
40.9275
21
31.3254
0
LINE
8
BLACK
6
CONTINUOUS
10
40.9275
20
31.3254
11
40.7171
21
31.269
0
LINE
8
BLACK
6
CONTINUOUS
10
40.7171
20
31.269
11
40.5
21
31.25
0
LINE
8
BLACK
6
CONTINUOUS
10
40.5
20
31.25
11
40.2829
21
31.269
0
LINE
8
BLACK
6
CONTINUOUS
10
40.2829
20
31.269
11
40.0725
21
31.3254
0
LINE
8
BLACK
6
CONTINUOUS
10
40.0725
20
31.3254
11
39.875
21
31.4175
0
LINE
8
BLACK
6
CONTINUOUS
10
39.875
20
31.4175
11
39.6965
21
31.5424
0
LINE
8
BLACK
6
CONTINUOUS
10
39.6965
20
31.5424
11
39.5424
21
31.6965
0
LINE
8
BLACK
6
CONTINUOUS
10
39.5424
20
31.6965
11
39.4175
21
31.875
0
LINE
8
BLACK
6
CONTINUOUS
10
39.4175
20
31.875
11
39.3254
21
32.0725
0
LINE
8
BLACK
6
CONTINUOUS
10
39.3254
20
32.0725
11
39.269
21
32.2829
0
LINE
8
BLACK
6
CONTINUOUS
10
39.269
20
32.2829
11
39.25
21
32.5
0
LINE
8
BLACK
6
CONTINUOUS
10
39.25
20
32.5
11
39.2526
21
32.5302
0
LINE
8
BLACK
6
CONTINUOUS
10
39.2526
20
32.5302
11
39.269
21
32.7171
0
LINE
8
BLACK
6
CONTINUOUS
10
39.269
20
32.7171
11
39.3254
21
32.9275
0
LINE
8
BLACK
6
CONTINUOUS
10
39.4113
20
32.1145
11
39.4998
21
31.9225
0
LINE
8
BLACK
6
CONTINUOUS
10
39.4998
20
31.9225
11
39.6218
21
31.7499
0
LINE
8
BLACK
6
CONTINUOUS
10
39.6218
20
31.7499
11
39.7732
21
31.6025
0
LINE
8
BLACK
6
CONTINUOUS
10
39.7732
20
31.6025
11
39.9489
21
31.485
0
LINE
8
BLACK
6
CONTINUOUS
10
39.9489
20
31.485
11
40.1431
21
31.4016
0
LINE
8
BLACK
6
CONTINUOUS
10
40.1431
20
31.4016
11
40.3493
21
31.355
0
LINE
8
BLACK
6
CONTINUOUS
10
40.3493
20
31.355
11
40.5604
21
31.3467
0
LINE
8
BLACK
6
CONTINUOUS
10
40.5604
20
31.3467
11
40.7696
21
31.377
0
LINE
8
BLACK
6
CONTINUOUS
10
40.7696
20
31.377
11
40.9698
21
31.4449
0
LINE
8
BLACK
6
CONTINUOUS
10
40.9698
20
31.4449
11
41.1542
21
31.5482
0
LINE
8
BLACK
6
CONTINUOUS
10
41.1542
20
31.5482
11
41.3167
21
31.6833
0
LINE
8
BLACK
6
CONTINUOUS
10
41.3167
20
31.6833
11
41.4518
21
31.8458
0
LINE
8
BLACK
6
CONTINUOUS
10
41.4518
20
31.8458
11
41.5551
21
32.0302
0
LINE
8
BLACK
6
CONTINUOUS
10
41.5551
20
32.0302
11
41.623
21
32.2304
0
LINE
8
BLACK
6
CONTINUOUS
10
41.623
20
32.2304
11
41.6533
21
32.4396
0
LINE
8
BLACK
6
CONTINUOUS
10
41.6533
20
32.4396
11
41.6549
21
32.5
0
LINE
8
BLACK
6
CONTINUOUS
10
41.6549
20
32.5
11
41.6356
21
32.7105
0
LINE
8
BLACK
6
CONTINUOUS
10
41.6356
20
32.7105
11
41.5782
21
32.9139
0
LINE
8
BLACK
6
CONTINUOUS
10
41.5782
20
32.9139
11
41.4847
21
33.1034
0
LINE
8
BLACK
6
CONTINUOUS
10
41.4847
20
33.1034
11
41.3583
21
33.2728
0
LINE
8
BLACK
6
CONTINUOUS
10
41.3583
20
33.2728
11
41.2031
21
33.4163
0
LINE
8
BLACK
6
CONTINUOUS
10
41.2031
20
33.4163
11
41.0243
21
33.529
0
LINE
8
BLACK
6
CONTINUOUS
10
41.0243
20
33.529
11
40.828
21
33.6074
0
LINE
8
BLACK
6
CONTINUOUS
10
40.828
20
33.6074
11
40.6207
21
33.6486
0
LINE
8
BLACK
6
CONTINUOUS
10
40.6207
20
33.6486
11
40.4094
21
33.6514
0
LINE
8
BLACK
6
CONTINUOUS
10
40.4094
20
33.6514
11
40.2011
21
33.6156
0
LINE
8
BLACK
6
CONTINUOUS
10
40.2011
20
33.6156
11
40.0028
21
33.5424
0
LINE
8
BLACK
6
CONTINUOUS
10
40.0028
20
33.5424
11
39.8212
21
33.4344
0
LINE
8
BLACK
6
CONTINUOUS
10
39.8212
20
33.4344
11
39.6622
21
33.295
0
LINE
8
BLACK
6
CONTINUOUS
10
39.6622
20
33.295
11
39.5314
21
33.129
0
LINE
8
BLACK
6
CONTINUOUS
10
39.5314
20
33.129
11
39.433
21
32.942
0
LINE
8
BLACK
6
CONTINUOUS
10
39.433
20
32.942
11
39.3703
21
32.7401
0
LINE
8
BLACK
6
CONTINUOUS
10
39.3703
20
32.7401
11
39.3455
21
32.5302
0
LINE
8
BLACK
6
CONTINUOUS
10
39.3455
20
32.5302
11
39.3593
21
32.3193
0
LINE
8
BLACK
6
CONTINUOUS
10
39.3593
20
32.3193
11
39.4113
21
32.1145
0
LINE
8
BLACK
6
CONTINUOUS
10
38.9308
20
41.0099
11
39.0298
21
41.2491
0
LINE
8
BLACK
6
CONTINUOUS
10
39.0298
20
41.2491
11
39.1651
21
41.4698
0
LINE
8
BLACK
6
CONTINUOUS
10
39.1651
20
41.4698
11
39.3333
21
41.6667
0
LINE
8
BLACK
6
CONTINUOUS
10
39.3333
20
41.6667
11
39.5302
21
41.8349
0
LINE
8
BLACK
6
CONTINUOUS
10
39.5302
20
41.8349
11
39.7509
21
41.9702
0
LINE
8
BLACK
6
CONTINUOUS
10
39.7509
20
41.9702
11
39.9901
21
42.0692
0
LINE
8
BLACK
6
CONTINUOUS
10
39.9901
20
42.0692
11
40.2419
21
42.1297
0
LINE
8
BLACK
6
CONTINUOUS
10
40.2419
20
42.1297
11
40.5
21
42.15
0
LINE
8
BLACK
6
CONTINUOUS
10
40.5
20
42.15
11
40.7581
21
42.1297
0
LINE
8
BLACK
6
CONTINUOUS
10
40.7581
20
42.1297
11
41.0099
21
42.0692
0
LINE
8
BLACK
6
CONTINUOUS
10
41.0099
20
42.0692
11
41.2491
21
41.9702
0
LINE
8
BLACK
6
CONTINUOUS
10
41.2491
20
41.9702
11
41.4698
21
41.8349
0
LINE
8
BLACK
6
CONTINUOUS
10
41.4698
20
41.8349
11
41.6667
21
41.6667
0
LINE
8
BLACK
6
CONTINUOUS
10
41.6667
20
41.6667
11
41.8349
21
41.4698
0
LINE
8
BLACK
6
CONTINUOUS
10
41.8349
20
41.4698
11
41.9702
21
41.2491
0
LINE
8
BLACK
6
CONTINUOUS
10
41.9702
20
41.2491
11
42.0692
21
41.0099
0
LINE
8
BLACK
6
CONTINUOUS
10
42.0692
20
41.0099
11
42.1297
21
40.7581
0
LINE
8
BLACK
6
CONTINUOUS
10
42.1297
20
40.7581
11
42.15
21
40.5
0
LINE
8
BLACK
6
CONTINUOUS
10
42.15
20
40.5
11
42.1297
21
40.2419
0
LINE
8
BLACK
6
CONTINUOUS
10
42.1297
20
40.2419
11
42.0692
21
39.9901
0
LINE
8
BLACK
6
CONTINUOUS
10
42.0692
20
39.9901
11
41.9702
21
39.7509
0
LINE
8
BLACK
6
CONTINUOUS
10
41.9702
20
39.7509
11
41.8349
21
39.5302
0
LINE
8
BLACK
6
CONTINUOUS
10
41.8349
20
39.5302
11
41.6667
21
39.3333
0
LINE
8
BLACK
6
CONTINUOUS
10
41.6667
20
39.3333
11
41.4698
21
39.1651
0
LINE
8
BLACK
6
CONTINUOUS
10
41.4698
20
39.1651
11
41.2491
21
39.0298
0
LINE
8
BLACK
6
CONTINUOUS
10
41.2491
20
39.0298
11
41.0099
21
38.9308
0
LINE
8
BLACK
6
CONTINUOUS
10
41.0099
20
38.9308
11
40.7581
21
38.8703
0
LINE
8
BLACK
6
CONTINUOUS
10
40.7581
20
38.8703
11
40.5
21
38.85
0
LINE
8
BLACK
6
CONTINUOUS
10
40.5
20
38.85
11
40.2419
21
38.8703
0
LINE
8
BLACK
6
CONTINUOUS
10
40.2419
20
38.8703
11
39.9901
21
38.9308
0
LINE
8
BLACK
6
CONTINUOUS
10
39.9901
20
38.9308
11
39.7509
21
39.0298
0
LINE
8
BLACK
6
CONTINUOUS
10
39.7509
20
39.0298
11
39.5302
21
39.1651
0
LINE
8
BLACK
6
CONTINUOUS
10
39.5302
20
39.1651
11
39.3333
21
39.3333
0
LINE
8
BLACK
6
CONTINUOUS
10
39.3333
20
39.3333
11
39.1651
21
39.5302
0
LINE
8
BLACK
6
CONTINUOUS
10
39.1651
20
39.5302
11
39.0298
21
39.7509
0
LINE
8
BLACK
6
CONTINUOUS
10
39.0298
20
39.7509
11
38.9308
21
39.9901
0
LINE
8
BLACK
6
CONTINUOUS
10
38.9308
20
39.9901
11
38.8703
21
40.2419
0
LINE
8
BLACK
6
CONTINUOUS
10
38.8703
20
40.2419
11
38.85
21
40.5
0
LINE
8
BLACK
6
CONTINUOUS
10
38.85
20
40.5
11
38.8703
21
40.7581
0
LINE
8
BLACK
6
CONTINUOUS
10
38.8703
20
40.7581
11
38.9308
21
41.0099
0
LINE
8
BLACK
6
CONTINUOUS
10
39.0213
20
40.0195
11
39.1147
21
39.7941
0
LINE
8
BLACK
6
CONTINUOUS
10
39.1147
20
39.7941
11
39.2421
21
39.5861
0
LINE
8
BLACK
6
CONTINUOUS
10
39.2421
20
39.5861
11
39.4006
21
39.4006
0
LINE
8
BLACK
6
CONTINUOUS
10
39.4006
20
39.4006
11
39.5861
21
39.2421
0
LINE
8
BLACK
6
CONTINUOUS
10
39.5861
20
39.2421
11
39.7941
21
39.1147
0
LINE
8
BLACK
6
CONTINUOUS
10
39.7941
20
39.1147
11
40.0195
21
39.0213
0
LINE
8
BLACK
6
CONTINUOUS
10
40.0195
20
39.0213
11
40.2568
21
38.9643
0
LINE
8
BLACK
6
CONTINUOUS
10
40.2568
20
38.9643
11
40.5
21
38.9452
0
LINE
8
BLACK
6
CONTINUOUS
10
40.5
20
38.9452
11
40.7432
21
38.9643
0
LINE
8
BLACK
6
CONTINUOUS
10
40.7432
20
38.9643
11
40.9805
21
39.0213
0
LINE
8
BLACK
6
CONTINUOUS
10
40.9805
20
39.0213
11
41.2059
21
39.1147
0
LINE
8
BLACK
6
CONTINUOUS
10
41.2059
20
39.1147
11
41.4139
21
39.2421
0
LINE
8
BLACK
6
CONTINUOUS
10
41.4139
20
39.2421
11
41.5994
21
39.4006
0
LINE
8
BLACK
6
CONTINUOUS
10
41.5994
20
39.4006
11
41.7579
21
39.5861
0
LINE
8
BLACK
6
CONTINUOUS
10
41.7579
20
39.5861
11
41.8853
21
39.7941
0
LINE
8
BLACK
6
CONTINUOUS
10
41.8853
20
39.7941
11
41.9787
21
40.0195
0
LINE
8
BLACK
6
CONTINUOUS
10
41.9787
20
40.0195
11
42.0357
21
40.2568
0
LINE
8
BLACK
6
CONTINUOUS
10
42.0357
20
40.2568
11
42.0548
21
40.5
0
LINE
8
BLACK
6
CONTINUOUS
10
42.0548
20
40.5
11
42.0357
21
40.7432
0
LINE
8
BLACK
6
CONTINUOUS
10
42.0357
20
40.7432
11
41.9787
21
40.9805
0
LINE
8
BLACK
6
CONTINUOUS
10
41.9787
20
40.9805
11
41.8853
21
41.2059
0
LINE
8
BLACK
6
CONTINUOUS
10
41.8853
20
41.2059
11
41.7579
21
41.4139
0
LINE
8
BLACK
6
CONTINUOUS
10
41.7579
20
41.4139
11
41.5994
21
41.5994
0
LINE
8
BLACK
6
CONTINUOUS
10
41.5994
20
41.5994
11
41.4139
21
41.7579
0
LINE
8
BLACK
6
CONTINUOUS
10
41.4139
20
41.7579
11
41.2059
21
41.8853
0
LINE
8
BLACK
6
CONTINUOUS
10
41.2059
20
41.8853
11
40.9805
21
41.9787
0
LINE
8
BLACK
6
CONTINUOUS
10
40.9805
20
41.9787
11
40.7432
21
42.0357
0
LINE
8
BLACK
6
CONTINUOUS
10
40.7432
20
42.0357
11
40.5
21
42.0548
0
LINE
8
BLACK
6
CONTINUOUS
10
40.5
20
42.0548
11
40.2568
21
42.0357
0
LINE
8
BLACK
6
CONTINUOUS
10
40.2568
20
42.0357
11
40.0195
21
41.9787
0
LINE
8
BLACK
6
CONTINUOUS
10
40.0195
20
41.9787
11
39.7941
21
41.8853
0
LINE
8
BLACK
6
CONTINUOUS
10
39.7941
20
41.8853
11
39.5861
21
41.7579
0
LINE
8
BLACK
6
CONTINUOUS
10
39.5861
20
41.7579
11
39.4006
21
41.5994
0
LINE
8
BLACK
6
CONTINUOUS
10
39.4006
20
41.5994
11
39.2421
21
41.4139
0
LINE
8
BLACK
6
CONTINUOUS
10
39.2421
20
41.4139
11
39.1147
21
41.2059
0
LINE
8
BLACK
6
CONTINUOUS
10
39.1147
20
41.2059
11
39.0213
21
40.9805
0
LINE
8
BLACK
6
CONTINUOUS
10
39.0213
20
40.9805
11
38.9643
21
40.7432
0
LINE
8
BLACK
6
CONTINUOUS
10
38.9643
20
40.7432
11
38.9452
21
40.5
0
LINE
8
BLACK
6
CONTINUOUS
10
38.9452
20
40.5
11
38.9643
21
40.2568
0
LINE
8
BLACK
6
CONTINUOUS
10
38.9643
20
40.2568
11
39.0213
21
40.0195
  0
ENDSEC
  0
EOF
