  0
SECTION
  2
HEADER
  9
$ANGBASE
  50
0.0
  9
$ANGDIR
  70
1
  9
$MEASUREMENT
  70
1
  0
ENDSEC
  0
SECTION
  2
TABLES
  0
TABLE
  2
LTYPE
  70
4
  0
LTYPE
  5
40F
  2
CONTINUOUS
  70
0
  3
Solid line
  72
65
  73
0
  40
0.0
  0
LTYPE
  5
410
  2
DASHDOT
 70
0
  3
Dash Dot ____ _ ____ _
 72
65
 73
4
 40
2.0
 49
1.25
 49
-0.25
 49
0.25
 49
-0.25
  0
LTYPE
  5
411
  2
DASHED
 70
0
  3
Dashed __ __ __ __ __
 72
65
 73
2
 40
0.75
 49
0.5
 49
-0.25
  0
LTYPE
  5
43B
  2
DOTTED
 70
0
  3
Dotted .  .  .  .
 72
65
 73
2
 40
0.2
 49
0.0
 49
-0.2
  0
ENDTAB
  0
TABLE
  2
STYLE
  70
4
  0
STYLE
  2
KICAD
  70
0
  40
0
  41
1
  42
1
  50
0
  71
0
  3
isocp.shx
  0
STYLE
  2
KICADB
  70
0
  40
0
  41
1
  42
1
  50
0
  71
0
  3
isocp.shx
  0
STYLE
  2
KICADI
  70
0
  40
0
  41
1
  42
1
  50
15
  71
0
  3
isocp.shx
  0
STYLE
  2
KICADBI
  70
0
  40
0
  41
1
  42
1
  50
15
  71
0
  3
isocp.shx
  0
ENDTAB
  0
TABLE
  2
LAYER
  70
1
  0
LAYER
  2
BLACK
  70
0
  62
7
  6
CONTINUOUS
  0
ENDTAB
  0
ENDSEC
  0
SECTION
  2
ENTITIES
0
LINE
8
BLACK
6
CONTINUOUS
10
-44.0354
20
-51.5354
11
-44.05
21
-51.5
0
LINE
8
BLACK
6
CONTINUOUS
10
-44.05
20
-51.5
11
-44.05
21
44
0
LINE
8
BLACK
6
CONTINUOUS
10
-44.05
20
44
11
-44.0354
21
44.0354
0
LINE
8
BLACK
6
CONTINUOUS
10
-44.0354
20
44.0354
11
-44
21
44.05
0
LINE
8
BLACK
6
CONTINUOUS
10
-44
20
44.05
11
44
21
44.05
0
LINE
8
BLACK
6
CONTINUOUS
10
44
20
44.05
11
44.0354
21
44.0354
0
LINE
8
BLACK
6
CONTINUOUS
10
44.0354
20
44.0354
11
44.05
21
44
0
LINE
8
BLACK
6
CONTINUOUS
10
44.05
20
44
11
44.05
21
-51.5
0
LINE
8
BLACK
6
CONTINUOUS
10
44.05
20
-51.5
11
44.0354
21
-51.5354
0
LINE
8
BLACK
6
CONTINUOUS
10
44.0354
20
-51.5354
11
44
21
-51.55
0
LINE
8
BLACK
6
CONTINUOUS
10
44
20
-51.55
11
-44
21
-51.55
0
LINE
8
BLACK
6
CONTINUOUS
10
-44
20
-51.55
11
-44.0354
21
-51.5354
0
LINE
8
BLACK
6
CONTINUOUS
10
-43.95
20
43.95
11
-43.95
21
-51.45
0
LINE
8
BLACK
6
CONTINUOUS
10
-43.95
20
-51.45
11
43.95
21
-51.45
0
LINE
8
BLACK
6
CONTINUOUS
10
43.95
20
-51.45
11
43.95
21
43.95
0
LINE
8
BLACK
6
CONTINUOUS
10
43.95
20
43.95
11
-43.95
21
43.95
0
LINE
8
BLACK
6
CONTINUOUS
10
-33.0354
20
14.4646
11
-33.05
21
14.5
0
LINE
8
BLACK
6
CONTINUOUS
10
-33.05
20
14.5
11
-33.05
21
32.5
0
LINE
8
BLACK
6
CONTINUOUS
10
-33.05
20
32.5
11
-33.0354
21
32.5354
0
LINE
8
BLACK
6
CONTINUOUS
10
-33.0354
20
32.5354
11
-33
21
32.55
0
LINE
8
BLACK
6
CONTINUOUS
10
-33
20
32.55
11
-27
21
32.55
0
LINE
8
BLACK
6
CONTINUOUS
10
-27
20
32.55
11
-26.9646
21
32.5354
0
LINE
8
BLACK
6
CONTINUOUS
10
-26.9646
20
32.5354
11
-26.95
21
32.5
0
LINE
8
BLACK
6
CONTINUOUS
10
-26.95
20
32.5
11
-26.95
21
14.5
0
LINE
8
BLACK
6
CONTINUOUS
10
-26.95
20
14.5
11
-26.9646
21
14.4646
0
LINE
8
BLACK
6
CONTINUOUS
10
-26.9646
20
14.4646
11
-27
21
14.45
0
LINE
8
BLACK
6
CONTINUOUS
10
-27
20
14.45
11
-33
21
14.45
0
LINE
8
BLACK
6
CONTINUOUS
10
-33
20
14.45
11
-33.0354
21
14.4646
0
LINE
8
BLACK
6
CONTINUOUS
10
-32.95
20
32.45
11
-32.95
21
14.55
0
LINE
8
BLACK
6
CONTINUOUS
10
-32.95
20
14.55
11
-27.05
21
14.55
0
LINE
8
BLACK
6
CONTINUOUS
10
-27.05
20
14.55
11
-27.05
21
32.45
0
LINE
8
BLACK
6
CONTINUOUS
10
-27.05
20
32.45
11
-32.95
21
32.45
0
LINE
8
BLACK
6
CONTINUOUS
10
-18.5354
20
14.4646
11
-18.55
21
14.5
0
LINE
8
BLACK
6
CONTINUOUS
10
-18.55
20
14.5
11
-18.55
21
32.5
0
LINE
8
BLACK
6
CONTINUOUS
10
-18.55
20
32.5
11
-18.5354
21
32.5354
0
LINE
8
BLACK
6
CONTINUOUS
10
-18.5354
20
32.5354
11
-18.5
21
32.55
0
LINE
8
BLACK
6
CONTINUOUS
10
-18.5
20
32.55
11
-12.5
21
32.55
0
LINE
8
BLACK
6
CONTINUOUS
10
-12.5
20
32.55
11
-12.4646
21
32.5354
0
LINE
8
BLACK
6
CONTINUOUS
10
-12.4646
20
32.5354
11
-12.45
21
32.5
0
LINE
8
BLACK
6
CONTINUOUS
10
-12.45
20
32.5
11
-12.45
21
14.5
0
LINE
8
BLACK
6
CONTINUOUS
10
-12.45
20
14.5
11
-12.4646
21
14.4646
0
LINE
8
BLACK
6
CONTINUOUS
10
-12.4646
20
14.4646
11
-12.5
21
14.45
0
LINE
8
BLACK
6
CONTINUOUS
10
-12.5
20
14.45
11
-18.5
21
14.45
0
LINE
8
BLACK
6
CONTINUOUS
10
-18.5
20
14.45
11
-18.5354
21
14.4646
0
LINE
8
BLACK
6
CONTINUOUS
10
-18.45
20
32.45
11
-18.45
21
14.55
0
LINE
8
BLACK
6
CONTINUOUS
10
-18.45
20
14.55
11
-12.55
21
14.55
0
LINE
8
BLACK
6
CONTINUOUS
10
-12.55
20
14.55
11
-12.55
21
32.45
0
LINE
8
BLACK
6
CONTINUOUS
10
-12.55
20
32.45
11
-18.45
21
32.45
0
LINE
8
BLACK
6
CONTINUOUS
10
38.9308
20
-47.4901
11
39.0298
21
-47.2509
0
LINE
8
BLACK
6
CONTINUOUS
10
39.0298
20
-47.2509
11
39.1651
21
-47.0302
0
LINE
8
BLACK
6
CONTINUOUS
10
39.1651
20
-47.0302
11
39.3333
21
-46.8333
0
LINE
8
BLACK
6
CONTINUOUS
10
39.3333
20
-46.8333
11
39.5302
21
-46.6651
0
LINE
8
BLACK
6
CONTINUOUS
10
39.5302
20
-46.6651
11
39.7509
21
-46.5298
0
LINE
8
BLACK
6
CONTINUOUS
10
39.7509
20
-46.5298
11
39.9901
21
-46.4308
0
LINE
8
BLACK
6
CONTINUOUS
10
39.9901
20
-46.4308
11
40.2419
21
-46.3703
0
LINE
8
BLACK
6
CONTINUOUS
10
40.2419
20
-46.3703
11
40.5
21
-46.35
0
LINE
8
BLACK
6
CONTINUOUS
10
40.5
20
-46.35
11
40.7581
21
-46.3703
0
LINE
8
BLACK
6
CONTINUOUS
10
40.7581
20
-46.3703
11
41.0099
21
-46.4308
0
LINE
8
BLACK
6
CONTINUOUS
10
41.0099
20
-46.4308
11
41.2491
21
-46.5298
0
LINE
8
BLACK
6
CONTINUOUS
10
41.2491
20
-46.5298
11
41.4698
21
-46.6651
0
LINE
8
BLACK
6
CONTINUOUS
10
41.4698
20
-46.6651
11
41.6667
21
-46.8333
0
LINE
8
BLACK
6
CONTINUOUS
10
41.6667
20
-46.8333
11
41.8349
21
-47.0302
0
LINE
8
BLACK
6
CONTINUOUS
10
41.8349
20
-47.0302
11
41.9702
21
-47.2509
0
LINE
8
BLACK
6
CONTINUOUS
10
41.9702
20
-47.2509
11
42.0692
21
-47.4901
0
LINE
8
BLACK
6
CONTINUOUS
10
42.0692
20
-47.4901
11
42.1297
21
-47.7419
0
LINE
8
BLACK
6
CONTINUOUS
10
42.1297
20
-47.7419
11
42.15
21
-48
0
LINE
8
BLACK
6
CONTINUOUS
10
42.15
20
-48
11
42.1297
21
-48.2581
0
LINE
8
BLACK
6
CONTINUOUS
10
42.1297
20
-48.2581
11
42.0692
21
-48.5099
0
LINE
8
BLACK
6
CONTINUOUS
10
42.0692
20
-48.5099
11
41.9702
21
-48.7491
0
LINE
8
BLACK
6
CONTINUOUS
10
41.9702
20
-48.7491
11
41.8349
21
-48.9698
0
LINE
8
BLACK
6
CONTINUOUS
10
41.8349
20
-48.9698
11
41.6667
21
-49.1667
0
LINE
8
BLACK
6
CONTINUOUS
10
41.6667
20
-49.1667
11
41.4698
21
-49.3349
0
LINE
8
BLACK
6
CONTINUOUS
10
41.4698
20
-49.3349
11
41.2491
21
-49.4702
0
LINE
8
BLACK
6
CONTINUOUS
10
41.2491
20
-49.4702
11
41.0099
21
-49.5692
0
LINE
8
BLACK
6
CONTINUOUS
10
41.0099
20
-49.5692
11
40.7581
21
-49.6297
0
LINE
8
BLACK
6
CONTINUOUS
10
40.7581
20
-49.6297
11
40.5
21
-49.65
0
LINE
8
BLACK
6
CONTINUOUS
10
40.5
20
-49.65
11
40.2419
21
-49.6297
0
LINE
8
BLACK
6
CONTINUOUS
10
40.2419
20
-49.6297
11
39.9901
21
-49.5692
0
LINE
8
BLACK
6
CONTINUOUS
10
39.9901
20
-49.5692
11
39.7509
21
-49.4702
0
LINE
8
BLACK
6
CONTINUOUS
10
39.7509
20
-49.4702
11
39.5302
21
-49.3349
0
LINE
8
BLACK
6
CONTINUOUS
10
39.5302
20
-49.3349
11
39.3333
21
-49.1667
0
LINE
8
BLACK
6
CONTINUOUS
10
39.3333
20
-49.1667
11
39.1651
21
-48.9698
0
LINE
8
BLACK
6
CONTINUOUS
10
39.1651
20
-48.9698
11
39.0298
21
-48.7491
0
LINE
8
BLACK
6
CONTINUOUS
10
39.0298
20
-48.7491
11
38.9308
21
-48.5099
0
LINE
8
BLACK
6
CONTINUOUS
10
38.9308
20
-48.5099
11
38.8703
21
-48.2581
0
LINE
8
BLACK
6
CONTINUOUS
10
38.8703
20
-48.2581
11
38.85
21
-48
0
LINE
8
BLACK
6
CONTINUOUS
10
38.85
20
-48
11
38.8703
21
-47.7419
0
LINE
8
BLACK
6
CONTINUOUS
10
38.8703
20
-47.7419
11
38.9308
21
-47.4901
0
LINE
8
BLACK
6
CONTINUOUS
10
39.0213
20
-48.4805
11
39.1147
21
-48.7059
0
LINE
8
BLACK
6
CONTINUOUS
10
39.1147
20
-48.7059
11
39.2421
21
-48.9139
0
LINE
8
BLACK
6
CONTINUOUS
10
39.2421
20
-48.9139
11
39.4006
21
-49.0994
0
LINE
8
BLACK
6
CONTINUOUS
10
39.4006
20
-49.0994
11
39.5861
21
-49.2579
0
LINE
8
BLACK
6
CONTINUOUS
10
39.5861
20
-49.2579
11
39.7941
21
-49.3853
0
LINE
8
BLACK
6
CONTINUOUS
10
39.7941
20
-49.3853
11
40.0195
21
-49.4787
0
LINE
8
BLACK
6
CONTINUOUS
10
40.0195
20
-49.4787
11
40.2568
21
-49.5357
0
LINE
8
BLACK
6
CONTINUOUS
10
40.2568
20
-49.5357
11
40.5
21
-49.5548
0
LINE
8
BLACK
6
CONTINUOUS
10
40.5
20
-49.5548
11
40.7432
21
-49.5357
0
LINE
8
BLACK
6
CONTINUOUS
10
40.7432
20
-49.5357
11
40.9805
21
-49.4787
0
LINE
8
BLACK
6
CONTINUOUS
10
40.9805
20
-49.4787
11
41.2059
21
-49.3853
0
LINE
8
BLACK
6
CONTINUOUS
10
41.2059
20
-49.3853
11
41.4139
21
-49.2579
0
LINE
8
BLACK
6
CONTINUOUS
10
41.4139
20
-49.2579
11
41.5994
21
-49.0994
0
LINE
8
BLACK
6
CONTINUOUS
10
41.5994
20
-49.0994
11
41.7579
21
-48.9139
0
LINE
8
BLACK
6
CONTINUOUS
10
41.7579
20
-48.9139
11
41.8853
21
-48.7059
0
LINE
8
BLACK
6
CONTINUOUS
10
41.8853
20
-48.7059
11
41.9787
21
-48.4805
0
LINE
8
BLACK
6
CONTINUOUS
10
41.9787
20
-48.4805
11
42.0357
21
-48.2432
0
LINE
8
BLACK
6
CONTINUOUS
10
42.0357
20
-48.2432
11
42.0548
21
-48
0
LINE
8
BLACK
6
CONTINUOUS
10
42.0548
20
-48
11
42.0357
21
-47.7568
0
LINE
8
BLACK
6
CONTINUOUS
10
42.0357
20
-47.7568
11
41.9787
21
-47.5195
0
LINE
8
BLACK
6
CONTINUOUS
10
41.9787
20
-47.5195
11
41.8853
21
-47.2941
0
LINE
8
BLACK
6
CONTINUOUS
10
41.8853
20
-47.2941
11
41.7579
21
-47.0861
0
LINE
8
BLACK
6
CONTINUOUS
10
41.7579
20
-47.0861
11
41.5994
21
-46.9006
0
LINE
8
BLACK
6
CONTINUOUS
10
41.5994
20
-46.9006
11
41.4139
21
-46.7421
0
LINE
8
BLACK
6
CONTINUOUS
10
41.4139
20
-46.7421
11
41.2059
21
-46.6147
0
LINE
8
BLACK
6
CONTINUOUS
10
41.2059
20
-46.6147
11
40.9805
21
-46.5213
0
LINE
8
BLACK
6
CONTINUOUS
10
40.9805
20
-46.5213
11
40.7432
21
-46.4643
0
LINE
8
BLACK
6
CONTINUOUS
10
40.7432
20
-46.4643
11
40.5
21
-46.4452
0
LINE
8
BLACK
6
CONTINUOUS
10
40.5
20
-46.4452
11
40.2568
21
-46.4643
0
LINE
8
BLACK
6
CONTINUOUS
10
40.2568
20
-46.4643
11
40.0195
21
-46.5213
0
LINE
8
BLACK
6
CONTINUOUS
10
40.0195
20
-46.5213
11
39.7941
21
-46.6147
0
LINE
8
BLACK
6
CONTINUOUS
10
39.7941
20
-46.6147
11
39.5861
21
-46.7421
0
LINE
8
BLACK
6
CONTINUOUS
10
39.5861
20
-46.7421
11
39.4006
21
-46.9006
0
LINE
8
BLACK
6
CONTINUOUS
10
39.4006
20
-46.9006
11
39.2421
21
-47.0861
0
LINE
8
BLACK
6
CONTINUOUS
10
39.2421
20
-47.0861
11
39.1147
21
-47.2941
0
LINE
8
BLACK
6
CONTINUOUS
10
39.1147
20
-47.2941
11
39.0213
21
-47.5195
0
LINE
8
BLACK
6
CONTINUOUS
10
39.0213
20
-47.5195
11
38.9643
21
-47.7568
0
LINE
8
BLACK
6
CONTINUOUS
10
38.9643
20
-47.7568
11
38.9452
21
-48
0
LINE
8
BLACK
6
CONTINUOUS
10
38.9452
20
-48
11
38.9643
21
-48.2432
0
LINE
8
BLACK
6
CONTINUOUS
10
38.9643
20
-48.2432
11
39.0213
21
-48.4805
0
LINE
8
BLACK
6
CONTINUOUS
10
-42.0692
20
-47.4901
11
-41.9702
21
-47.2509
0
LINE
8
BLACK
6
CONTINUOUS
10
-41.9702
20
-47.2509
11
-41.8349
21
-47.0302
0
LINE
8
BLACK
6
CONTINUOUS
10
-41.8349
20
-47.0302
11
-41.6667
21
-46.8333
0
LINE
8
BLACK
6
CONTINUOUS
10
-41.6667
20
-46.8333
11
-41.4698
21
-46.6651
0
LINE
8
BLACK
6
CONTINUOUS
10
-41.4698
20
-46.6651
11
-41.2491
21
-46.5298
0
LINE
8
BLACK
6
CONTINUOUS
10
-41.2491
20
-46.5298
11
-41.0099
21
-46.4308
0
LINE
8
BLACK
6
CONTINUOUS
10
-41.0099
20
-46.4308
11
-40.7581
21
-46.3703
0
LINE
8
BLACK
6
CONTINUOUS
10
-40.7581
20
-46.3703
11
-40.5
21
-46.35
0
LINE
8
BLACK
6
CONTINUOUS
10
-40.5
20
-46.35
11
-40.2419
21
-46.3703
0
LINE
8
BLACK
6
CONTINUOUS
10
-40.2419
20
-46.3703
11
-39.9901
21
-46.4308
0
LINE
8
BLACK
6
CONTINUOUS
10
-39.9901
20
-46.4308
11
-39.7509
21
-46.5298
0
LINE
8
BLACK
6
CONTINUOUS
10
-39.7509
20
-46.5298
11
-39.5302
21
-46.6651
0
LINE
8
BLACK
6
CONTINUOUS
10
-39.5302
20
-46.6651
11
-39.3333
21
-46.8333
0
LINE
8
BLACK
6
CONTINUOUS
10
-39.3333
20
-46.8333
11
-39.1651
21
-47.0302
0
LINE
8
BLACK
6
CONTINUOUS
10
-39.1651
20
-47.0302
11
-39.0298
21
-47.2509
0
LINE
8
BLACK
6
CONTINUOUS
10
-39.0298
20
-47.2509
11
-38.9308
21
-47.4901
0
LINE
8
BLACK
6
CONTINUOUS
10
-38.9308
20
-47.4901
11
-38.8703
21
-47.7419
0
LINE
8
BLACK
6
CONTINUOUS
10
-38.8703
20
-47.7419
11
-38.85
21
-48
0
LINE
8
BLACK
6
CONTINUOUS
10
-38.85
20
-48
11
-38.8703
21
-48.2581
0
LINE
8
BLACK
6
CONTINUOUS
10
-38.8703
20
-48.2581
11
-38.9308
21
-48.5099
0
LINE
8
BLACK
6
CONTINUOUS
10
-38.9308
20
-48.5099
11
-39.0298
21
-48.7491
0
LINE
8
BLACK
6
CONTINUOUS
10
-39.0298
20
-48.7491
11
-39.1651
21
-48.9698
0
LINE
8
BLACK
6
CONTINUOUS
10
-39.1651
20
-48.9698
11
-39.3333
21
-49.1667
0
LINE
8
BLACK
6
CONTINUOUS
10
-39.3333
20
-49.1667
11
-39.5302
21
-49.3349
0
LINE
8
BLACK
6
CONTINUOUS
10
-39.5302
20
-49.3349
11
-39.7509
21
-49.4702
0
LINE
8
BLACK
6
CONTINUOUS
10
-39.7509
20
-49.4702
11
-39.9901
21
-49.5692
0
LINE
8
BLACK
6
CONTINUOUS
10
-39.9901
20
-49.5692
11
-40.2419
21
-49.6297
0
LINE
8
BLACK
6
CONTINUOUS
10
-40.2419
20
-49.6297
11
-40.5
21
-49.65
0
LINE
8
BLACK
6
CONTINUOUS
10
-40.5
20
-49.65
11
-40.7581
21
-49.6297
0
LINE
8
BLACK
6
CONTINUOUS
10
-40.7581
20
-49.6297
11
-41.0099
21
-49.5692
0
LINE
8
BLACK
6
CONTINUOUS
10
-41.0099
20
-49.5692
11
-41.2491
21
-49.4702
0
LINE
8
BLACK
6
CONTINUOUS
10
-41.2491
20
-49.4702
11
-41.4698
21
-49.3349
0
LINE
8
BLACK
6
CONTINUOUS
10
-41.4698
20
-49.3349
11
-41.6667
21
-49.1667
0
LINE
8
BLACK
6
CONTINUOUS
10
-41.6667
20
-49.1667
11
-41.8349
21
-48.9698
0
LINE
8
BLACK
6
CONTINUOUS
10
-41.8349
20
-48.9698
11
-41.9702
21
-48.7491
0
LINE
8
BLACK
6
CONTINUOUS
10
-41.9702
20
-48.7491
11
-42.0692
21
-48.5099
0
LINE
8
BLACK
6
CONTINUOUS
10
-42.0692
20
-48.5099
11
-42.1297
21
-48.2581
0
LINE
8
BLACK
6
CONTINUOUS
10
-42.1297
20
-48.2581
11
-42.15
21
-48
0
LINE
8
BLACK
6
CONTINUOUS
10
-42.15
20
-48
11
-42.1297
21
-47.7419
0
LINE
8
BLACK
6
CONTINUOUS
10
-42.1297
20
-47.7419
11
-42.0692
21
-47.4901
0
LINE
8
BLACK
6
CONTINUOUS
10
-41.9787
20
-48.4805
11
-41.8853
21
-48.7059
0
LINE
8
BLACK
6
CONTINUOUS
10
-41.8853
20
-48.7059
11
-41.7579
21
-48.9139
0
LINE
8
BLACK
6
CONTINUOUS
10
-41.7579
20
-48.9139
11
-41.5994
21
-49.0994
0
LINE
8
BLACK
6
CONTINUOUS
10
-41.5994
20
-49.0994
11
-41.4139
21
-49.2579
0
LINE
8
BLACK
6
CONTINUOUS
10
-41.4139
20
-49.2579
11
-41.2059
21
-49.3853
0
LINE
8
BLACK
6
CONTINUOUS
10
-41.2059
20
-49.3853
11
-40.9805
21
-49.4787
0
LINE
8
BLACK
6
CONTINUOUS
10
-40.9805
20
-49.4787
11
-40.7432
21
-49.5357
0
LINE
8
BLACK
6
CONTINUOUS
10
-40.7432
20
-49.5357
11
-40.5
21
-49.5548
0
LINE
8
BLACK
6
CONTINUOUS
10
-40.5
20
-49.5548
11
-40.2568
21
-49.5357
0
LINE
8
BLACK
6
CONTINUOUS
10
-40.2568
20
-49.5357
11
-40.0195
21
-49.4787
0
LINE
8
BLACK
6
CONTINUOUS
10
-40.0195
20
-49.4787
11
-39.7941
21
-49.3853
0
LINE
8
BLACK
6
CONTINUOUS
10
-39.7941
20
-49.3853
11
-39.5861
21
-49.2579
0
LINE
8
BLACK
6
CONTINUOUS
10
-39.5861
20
-49.2579
11
-39.4006
21
-49.0994
0
LINE
8
BLACK
6
CONTINUOUS
10
-39.4006
20
-49.0994
11
-39.2421
21
-48.9139
0
LINE
8
BLACK
6
CONTINUOUS
10
-39.2421
20
-48.9139
11
-39.1147
21
-48.7059
0
LINE
8
BLACK
6
CONTINUOUS
10
-39.1147
20
-48.7059
11
-39.0213
21
-48.4805
0
LINE
8
BLACK
6
CONTINUOUS
10
-39.0213
20
-48.4805
11
-38.9643
21
-48.2432
0
LINE
8
BLACK
6
CONTINUOUS
10
-38.9643
20
-48.2432
11
-38.9452
21
-48
0
LINE
8
BLACK
6
CONTINUOUS
10
-38.9452
20
-48
11
-38.9643
21
-47.7568
0
LINE
8
BLACK
6
CONTINUOUS
10
-38.9643
20
-47.7568
11
-39.0213
21
-47.5195
0
LINE
8
BLACK
6
CONTINUOUS
10
-39.0213
20
-47.5195
11
-39.1147
21
-47.2941
0
LINE
8
BLACK
6
CONTINUOUS
10
-39.1147
20
-47.2941
11
-39.2421
21
-47.0861
0
LINE
8
BLACK
6
CONTINUOUS
10
-39.2421
20
-47.0861
11
-39.4006
21
-46.9006
0
LINE
8
BLACK
6
CONTINUOUS
10
-39.4006
20
-46.9006
11
-39.5861
21
-46.7421
0
LINE
8
BLACK
6
CONTINUOUS
10
-39.5861
20
-46.7421
11
-39.7941
21
-46.6147
0
LINE
8
BLACK
6
CONTINUOUS
10
-39.7941
20
-46.6147
11
-40.0195
21
-46.5213
0
LINE
8
BLACK
6
CONTINUOUS
10
-40.0195
20
-46.5213
11
-40.2568
21
-46.4643
0
LINE
8
BLACK
6
CONTINUOUS
10
-40.2568
20
-46.4643
11
-40.5
21
-46.4452
0
LINE
8
BLACK
6
CONTINUOUS
10
-40.5
20
-46.4452
11
-40.7432
21
-46.4643
0
LINE
8
BLACK
6
CONTINUOUS
10
-40.7432
20
-46.4643
11
-40.9805
21
-46.5213
0
LINE
8
BLACK
6
CONTINUOUS
10
-40.9805
20
-46.5213
11
-41.2059
21
-46.6147
0
LINE
8
BLACK
6
CONTINUOUS
10
-41.2059
20
-46.6147
11
-41.4139
21
-46.7421
0
LINE
8
BLACK
6
CONTINUOUS
10
-41.4139
20
-46.7421
11
-41.5994
21
-46.9006
0
LINE
8
BLACK
6
CONTINUOUS
10
-41.5994
20
-46.9006
11
-41.7579
21
-47.0861
0
LINE
8
BLACK
6
CONTINUOUS
10
-41.7579
20
-47.0861
11
-41.8853
21
-47.2941
0
LINE
8
BLACK
6
CONTINUOUS
10
-41.8853
20
-47.2941
11
-41.9787
21
-47.5195
0
LINE
8
BLACK
6
CONTINUOUS
10
-41.9787
20
-47.5195
11
-42.0357
21
-47.7568
0
LINE
8
BLACK
6
CONTINUOUS
10
-42.0357
20
-47.7568
11
-42.0548
21
-48
0
LINE
8
BLACK
6
CONTINUOUS
10
-42.0548
20
-48
11
-42.0357
21
-48.2432
0
LINE
8
BLACK
6
CONTINUOUS
10
-42.0357
20
-48.2432
11
-41.9787
21
-48.4805
0
LINE
8
BLACK
6
CONTINUOUS
10
38.9308
20
5.50988
11
39.0298
21
5.74908
0
LINE
8
BLACK
6
CONTINUOUS
10
39.0298
20
5.74908
11
39.1651
21
5.96985
0
LINE
8
BLACK
6
CONTINUOUS
10
39.1651
20
5.96985
11
39.3333
21
6.16673
0
LINE
8
BLACK
6
CONTINUOUS
10
39.3333
20
6.16673
11
39.5302
21
6.33488
0
LINE
8
BLACK
6
CONTINUOUS
10
39.5302
20
6.33488
11
39.7509
21
6.47016
0
LINE
8
BLACK
6
CONTINUOUS
10
39.7509
20
6.47016
11
39.9901
21
6.56924
0
LINE
8
BLACK
6
CONTINUOUS
10
39.9901
20
6.56924
11
40.2419
21
6.62969
0
LINE
8
BLACK
6
CONTINUOUS
10
40.2419
20
6.62969
11
40.5
21
6.65
0
LINE
8
BLACK
6
CONTINUOUS
10
40.5
20
6.65
11
40.7581
21
6.62969
0
LINE
8
BLACK
6
CONTINUOUS
10
40.7581
20
6.62969
11
41.0099
21
6.56924
0
LINE
8
BLACK
6
CONTINUOUS
10
41.0099
20
6.56924
11
41.2491
21
6.47016
0
LINE
8
BLACK
6
CONTINUOUS
10
41.2491
20
6.47016
11
41.4698
21
6.33488
0
LINE
8
BLACK
6
CONTINUOUS
10
41.4698
20
6.33488
11
41.6667
21
6.16673
0
LINE
8
BLACK
6
CONTINUOUS
10
41.6667
20
6.16673
11
41.8349
21
5.96985
0
LINE
8
BLACK
6
CONTINUOUS
10
41.8349
20
5.96985
11
41.9702
21
5.74908
0
LINE
8
BLACK
6
CONTINUOUS
10
41.9702
20
5.74908
11
42.0692
21
5.50988
0
LINE
8
BLACK
6
CONTINUOUS
10
42.0692
20
5.50988
11
42.1297
21
5.25812
0
LINE
8
BLACK
6
CONTINUOUS
10
42.1297
20
5.25812
11
42.15
21
5
0
LINE
8
BLACK
6
CONTINUOUS
10
42.15
20
5
11
42.1297
21
4.74188
0
LINE
8
BLACK
6
CONTINUOUS
10
42.1297
20
4.74188
11
42.0692
21
4.49012
0
LINE
8
BLACK
6
CONTINUOUS
10
42.0692
20
4.49012
11
41.9702
21
4.25092
0
LINE
8
BLACK
6
CONTINUOUS
10
41.9702
20
4.25092
11
41.8349
21
4.03015
0
LINE
8
BLACK
6
CONTINUOUS
10
41.8349
20
4.03015
11
41.6667
21
3.83327
0
LINE
8
BLACK
6
CONTINUOUS
10
41.6667
20
3.83327
11
41.4698
21
3.66512
0
LINE
8
BLACK
6
CONTINUOUS
10
41.4698
20
3.66512
11
41.2491
21
3.52984
0
LINE
8
BLACK
6
CONTINUOUS
10
41.2491
20
3.52984
11
41.0099
21
3.43076
0
LINE
8
BLACK
6
CONTINUOUS
10
41.0099
20
3.43076
11
40.7581
21
3.37031
0
LINE
8
BLACK
6
CONTINUOUS
10
40.7581
20
3.37031
11
40.5
21
3.35
0
LINE
8
BLACK
6
CONTINUOUS
10
40.5
20
3.35
11
40.2419
21
3.37031
0
LINE
8
BLACK
6
CONTINUOUS
10
40.2419
20
3.37031
11
39.9901
21
3.43076
0
LINE
8
BLACK
6
CONTINUOUS
10
39.9901
20
3.43076
11
39.7509
21
3.52984
0
LINE
8
BLACK
6
CONTINUOUS
10
39.7509
20
3.52984
11
39.5302
21
3.66512
0
LINE
8
BLACK
6
CONTINUOUS
10
39.5302
20
3.66512
11
39.3333
21
3.83327
0
LINE
8
BLACK
6
CONTINUOUS
10
39.3333
20
3.83327
11
39.1651
21
4.03015
0
LINE
8
BLACK
6
CONTINUOUS
10
39.1651
20
4.03015
11
39.0298
21
4.25092
0
LINE
8
BLACK
6
CONTINUOUS
10
39.0298
20
4.25092
11
38.9308
21
4.49012
0
LINE
8
BLACK
6
CONTINUOUS
10
38.9308
20
4.49012
11
38.8703
21
4.74188
0
LINE
8
BLACK
6
CONTINUOUS
10
38.8703
20
4.74188
11
38.85
21
5
0
LINE
8
BLACK
6
CONTINUOUS
10
38.85
20
5
11
38.8703
21
5.25812
0
LINE
8
BLACK
6
CONTINUOUS
10
38.8703
20
5.25812
11
38.9308
21
5.50988
0
LINE
8
BLACK
6
CONTINUOUS
10
39.0213
20
4.51954
11
39.1147
21
4.29414
0
LINE
8
BLACK
6
CONTINUOUS
10
39.1147
20
4.29414
11
39.2421
21
4.08612
0
LINE
8
BLACK
6
CONTINUOUS
10
39.2421
20
4.08612
11
39.4006
21
3.9006
0
LINE
8
BLACK
6
CONTINUOUS
10
39.4006
20
3.9006
11
39.5861
21
3.74215
0
LINE
8
BLACK
6
CONTINUOUS
10
39.5861
20
3.74215
11
39.7941
21
3.61467
0
LINE
8
BLACK
6
CONTINUOUS
10
39.7941
20
3.61467
11
40.0195
21
3.5213
0
LINE
8
BLACK
6
CONTINUOUS
10
40.0195
20
3.5213
11
40.2568
21
3.46435
0
LINE
8
BLACK
6
CONTINUOUS
10
40.2568
20
3.46435
11
40.5
21
3.44521
0
LINE
8
BLACK
6
CONTINUOUS
10
40.5
20
3.44521
11
40.7432
21
3.46435
0
LINE
8
BLACK
6
CONTINUOUS
10
40.7432
20
3.46435
11
40.9805
21
3.5213
0
LINE
8
BLACK
6
CONTINUOUS
10
40.9805
20
3.5213
11
41.2059
21
3.61467
0
LINE
8
BLACK
6
CONTINUOUS
10
41.2059
20
3.61467
11
41.4139
21
3.74215
0
LINE
8
BLACK
6
CONTINUOUS
10
41.4139
20
3.74215
11
41.5994
21
3.9006
0
LINE
8
BLACK
6
CONTINUOUS
10
41.5994
20
3.9006
11
41.7579
21
4.08612
0
LINE
8
BLACK
6
CONTINUOUS
10
41.7579
20
4.08612
11
41.8853
21
4.29414
0
LINE
8
BLACK
6
CONTINUOUS
10
41.8853
20
4.29414
11
41.9787
21
4.51954
0
LINE
8
BLACK
6
CONTINUOUS
10
41.9787
20
4.51954
11
42.0357
21
4.75678
0
LINE
8
BLACK
6
CONTINUOUS
10
42.0357
20
4.75678
11
42.0548
21
5
0
LINE
8
BLACK
6
CONTINUOUS
10
42.0548
20
5
11
42.0357
21
5.24322
0
LINE
8
BLACK
6
CONTINUOUS
10
42.0357
20
5.24322
11
41.9787
21
5.48046
0
LINE
8
BLACK
6
CONTINUOUS
10
41.9787
20
5.48046
11
41.8853
21
5.70586
0
LINE
8
BLACK
6
CONTINUOUS
10
41.8853
20
5.70586
11
41.7579
21
5.91388
0
LINE
8
BLACK
6
CONTINUOUS
10
41.7579
20
5.91388
11
41.5994
21
6.0994
0
LINE
8
BLACK
6
CONTINUOUS
10
41.5994
20
6.0994
11
41.4139
21
6.25785
0
LINE
8
BLACK
6
CONTINUOUS
10
41.4139
20
6.25785
11
41.2059
21
6.38533
0
LINE
8
BLACK
6
CONTINUOUS
10
41.2059
20
6.38533
11
40.9805
21
6.4787
0
LINE
8
BLACK
6
CONTINUOUS
10
40.9805
20
6.4787
11
40.7432
21
6.53565
0
LINE
8
BLACK
6
CONTINUOUS
10
40.7432
20
6.53565
11
40.5
21
6.55479
0
LINE
8
BLACK
6
CONTINUOUS
10
40.5
20
6.55479
11
40.2568
21
6.53565
0
LINE
8
BLACK
6
CONTINUOUS
10
40.2568
20
6.53565
11
40.0195
21
6.4787
0
LINE
8
BLACK
6
CONTINUOUS
10
40.0195
20
6.4787
11
39.7941
21
6.38533
0
LINE
8
BLACK
6
CONTINUOUS
10
39.7941
20
6.38533
11
39.5861
21
6.25785
0
LINE
8
BLACK
6
CONTINUOUS
10
39.5861
20
6.25785
11
39.4006
21
6.0994
0
LINE
8
BLACK
6
CONTINUOUS
10
39.4006
20
6.0994
11
39.2421
21
5.91388
0
LINE
8
BLACK
6
CONTINUOUS
10
39.2421
20
5.91388
11
39.1147
21
5.70586
0
LINE
8
BLACK
6
CONTINUOUS
10
39.1147
20
5.70586
11
39.0213
21
5.48046
0
LINE
8
BLACK
6
CONTINUOUS
10
39.0213
20
5.48046
11
38.9643
21
5.24322
0
LINE
8
BLACK
6
CONTINUOUS
10
38.9643
20
5.24322
11
38.9452
21
5
0
LINE
8
BLACK
6
CONTINUOUS
10
38.9452
20
5
11
38.9643
21
4.75678
0
LINE
8
BLACK
6
CONTINUOUS
10
38.9643
20
4.75678
11
39.0213
21
4.51954
0
LINE
8
BLACK
6
CONTINUOUS
10
-42.0692
20
5.50988
11
-41.9702
21
5.74908
0
LINE
8
BLACK
6
CONTINUOUS
10
-41.9702
20
5.74908
11
-41.8349
21
5.96985
0
LINE
8
BLACK
6
CONTINUOUS
10
-41.8349
20
5.96985
11
-41.6667
21
6.16673
0
LINE
8
BLACK
6
CONTINUOUS
10
-41.6667
20
6.16673
11
-41.4698
21
6.33488
0
LINE
8
BLACK
6
CONTINUOUS
10
-41.4698
20
6.33488
11
-41.2491
21
6.47016
0
LINE
8
BLACK
6
CONTINUOUS
10
-41.2491
20
6.47016
11
-41.0099
21
6.56924
0
LINE
8
BLACK
6
CONTINUOUS
10
-41.0099
20
6.56924
11
-40.7581
21
6.62969
0
LINE
8
BLACK
6
CONTINUOUS
10
-40.7581
20
6.62969
11
-40.5
21
6.65
0
LINE
8
BLACK
6
CONTINUOUS
10
-40.5
20
6.65
11
-40.2419
21
6.62969
0
LINE
8
BLACK
6
CONTINUOUS
10
-40.2419
20
6.62969
11
-39.9901
21
6.56924
0
LINE
8
BLACK
6
CONTINUOUS
10
-39.9901
20
6.56924
11
-39.7509
21
6.47016
0
LINE
8
BLACK
6
CONTINUOUS
10
-39.7509
20
6.47016
11
-39.5302
21
6.33488
0
LINE
8
BLACK
6
CONTINUOUS
10
-39.5302
20
6.33488
11
-39.3333
21
6.16673
0
LINE
8
BLACK
6
CONTINUOUS
10
-39.3333
20
6.16673
11
-39.1651
21
5.96985
0
LINE
8
BLACK
6
CONTINUOUS
10
-39.1651
20
5.96985
11
-39.0298
21
5.74908
0
LINE
8
BLACK
6
CONTINUOUS
10
-39.0298
20
5.74908
11
-38.9308
21
5.50988
0
LINE
8
BLACK
6
CONTINUOUS
10
-38.9308
20
5.50988
11
-38.8703
21
5.25812
0
LINE
8
BLACK
6
CONTINUOUS
10
-38.8703
20
5.25812
11
-38.85
21
5
0
LINE
8
BLACK
6
CONTINUOUS
10
-38.85
20
5
11
-38.8703
21
4.74188
0
LINE
8
BLACK
6
CONTINUOUS
10
-38.8703
20
4.74188
11
-38.9308
21
4.49012
0
LINE
8
BLACK
6
CONTINUOUS
10
-38.9308
20
4.49012
11
-39.0298
21
4.25092
0
LINE
8
BLACK
6
CONTINUOUS
10
-39.0298
20
4.25092
11
-39.1651
21
4.03015
0
LINE
8
BLACK
6
CONTINUOUS
10
-39.1651
20
4.03015
11
-39.3333
21
3.83327
0
LINE
8
BLACK
6
CONTINUOUS
10
-39.3333
20
3.83327
11
-39.5302
21
3.66512
0
LINE
8
BLACK
6
CONTINUOUS
10
-39.5302
20
3.66512
11
-39.7509
21
3.52984
0
LINE
8
BLACK
6
CONTINUOUS
10
-39.7509
20
3.52984
11
-39.9901
21
3.43076
0
LINE
8
BLACK
6
CONTINUOUS
10
-39.9901
20
3.43076
11
-40.2419
21
3.37031
0
LINE
8
BLACK
6
CONTINUOUS
10
-40.2419
20
3.37031
11
-40.5
21
3.35
0
LINE
8
BLACK
6
CONTINUOUS
10
-40.5
20
3.35
11
-40.7581
21
3.37031
0
LINE
8
BLACK
6
CONTINUOUS
10
-40.7581
20
3.37031
11
-41.0099
21
3.43076
0
LINE
8
BLACK
6
CONTINUOUS
10
-41.0099
20
3.43076
11
-41.2491
21
3.52984
0
LINE
8
BLACK
6
CONTINUOUS
10
-41.2491
20
3.52984
11
-41.4698
21
3.66512
0
LINE
8
BLACK
6
CONTINUOUS
10
-41.4698
20
3.66512
11
-41.6667
21
3.83327
0
LINE
8
BLACK
6
CONTINUOUS
10
-41.6667
20
3.83327
11
-41.8349
21
4.03015
0
LINE
8
BLACK
6
CONTINUOUS
10
-41.8349
20
4.03015
11
-41.9702
21
4.25092
0
LINE
8
BLACK
6
CONTINUOUS
10
-41.9702
20
4.25092
11
-42.0692
21
4.49012
0
LINE
8
BLACK
6
CONTINUOUS
10
-42.0692
20
4.49012
11
-42.1297
21
4.74188
0
LINE
8
BLACK
6
CONTINUOUS
10
-42.1297
20
4.74188
11
-42.15
21
5
0
LINE
8
BLACK
6
CONTINUOUS
10
-42.15
20
5
11
-42.1297
21
5.25812
0
LINE
8
BLACK
6
CONTINUOUS
10
-42.1297
20
5.25812
11
-42.0692
21
5.50988
0
LINE
8
BLACK
6
CONTINUOUS
10
-41.9787
20
4.51954
11
-41.8853
21
4.29414
0
LINE
8
BLACK
6
CONTINUOUS
10
-41.8853
20
4.29414
11
-41.7579
21
4.08612
0
LINE
8
BLACK
6
CONTINUOUS
10
-41.7579
20
4.08612
11
-41.5994
21
3.9006
0
LINE
8
BLACK
6
CONTINUOUS
10
-41.5994
20
3.9006
11
-41.4139
21
3.74215
0
LINE
8
BLACK
6
CONTINUOUS
10
-41.4139
20
3.74215
11
-41.2059
21
3.61467
0
LINE
8
BLACK
6
CONTINUOUS
10
-41.2059
20
3.61467
11
-40.9805
21
3.5213
0
LINE
8
BLACK
6
CONTINUOUS
10
-40.9805
20
3.5213
11
-40.7432
21
3.46435
0
LINE
8
BLACK
6
CONTINUOUS
10
-40.7432
20
3.46435
11
-40.5
21
3.44521
0
LINE
8
BLACK
6
CONTINUOUS
10
-40.5
20
3.44521
11
-40.2568
21
3.46435
0
LINE
8
BLACK
6
CONTINUOUS
10
-40.2568
20
3.46435
11
-40.0195
21
3.5213
0
LINE
8
BLACK
6
CONTINUOUS
10
-40.0195
20
3.5213
11
-39.7941
21
3.61467
0
LINE
8
BLACK
6
CONTINUOUS
10
-39.7941
20
3.61467
11
-39.5861
21
3.74215
0
LINE
8
BLACK
6
CONTINUOUS
10
-39.5861
20
3.74215
11
-39.4006
21
3.9006
0
LINE
8
BLACK
6
CONTINUOUS
10
-39.4006
20
3.9006
11
-39.2421
21
4.08612
0
LINE
8
BLACK
6
CONTINUOUS
10
-39.2421
20
4.08612
11
-39.1147
21
4.29414
0
LINE
8
BLACK
6
CONTINUOUS
10
-39.1147
20
4.29414
11
-39.0213
21
4.51954
0
LINE
8
BLACK
6
CONTINUOUS
10
-39.0213
20
4.51954
11
-38.9643
21
4.75678
0
LINE
8
BLACK
6
CONTINUOUS
10
-38.9643
20
4.75678
11
-38.9452
21
5
0
LINE
8
BLACK
6
CONTINUOUS
10
-38.9452
20
5
11
-38.9643
21
5.24322
0
LINE
8
BLACK
6
CONTINUOUS
10
-38.9643
20
5.24322
11
-39.0213
21
5.48046
0
LINE
8
BLACK
6
CONTINUOUS
10
-39.0213
20
5.48046
11
-39.1147
21
5.70586
0
LINE
8
BLACK
6
CONTINUOUS
10
-39.1147
20
5.70586
11
-39.2421
21
5.91388
0
LINE
8
BLACK
6
CONTINUOUS
10
-39.2421
20
5.91388
11
-39.4006
21
6.0994
0
LINE
8
BLACK
6
CONTINUOUS
10
-39.4006
20
6.0994
11
-39.5861
21
6.25785
0
LINE
8
BLACK
6
CONTINUOUS
10
-39.5861
20
6.25785
11
-39.7941
21
6.38533
0
LINE
8
BLACK
6
CONTINUOUS
10
-39.7941
20
6.38533
11
-40.0195
21
6.4787
0
LINE
8
BLACK
6
CONTINUOUS
10
-40.0195
20
6.4787
11
-40.2568
21
6.53565
0
LINE
8
BLACK
6
CONTINUOUS
10
-40.2568
20
6.53565
11
-40.5
21
6.55479
0
LINE
8
BLACK
6
CONTINUOUS
10
-40.5
20
6.55479
11
-40.7432
21
6.53565
0
LINE
8
BLACK
6
CONTINUOUS
10
-40.7432
20
6.53565
11
-40.9805
21
6.4787
0
LINE
8
BLACK
6
CONTINUOUS
10
-40.9805
20
6.4787
11
-41.2059
21
6.38533
0
LINE
8
BLACK
6
CONTINUOUS
10
-41.2059
20
6.38533
11
-41.4139
21
6.25785
0
LINE
8
BLACK
6
CONTINUOUS
10
-41.4139
20
6.25785
11
-41.5994
21
6.0994
0
LINE
8
BLACK
6
CONTINUOUS
10
-41.5994
20
6.0994
11
-41.7579
21
5.91388
0
LINE
8
BLACK
6
CONTINUOUS
10
-41.7579
20
5.91388
11
-41.8853
21
5.70586
0
LINE
8
BLACK
6
CONTINUOUS
10
-41.8853
20
5.70586
11
-41.9787
21
5.48046
0
LINE
8
BLACK
6
CONTINUOUS
10
-41.9787
20
5.48046
11
-42.0357
21
5.24322
0
LINE
8
BLACK
6
CONTINUOUS
10
-42.0357
20
5.24322
11
-42.0548
21
5
0
LINE
8
BLACK
6
CONTINUOUS
10
-42.0548
20
5
11
-42.0357
21
4.75678
0
LINE
8
BLACK
6
CONTINUOUS
10
-42.0357
20
4.75678
11
-41.9787
21
4.51954
0
LINE
8
BLACK
6
CONTINUOUS
10
-3.4285
20
30.7376
11
-3.36691
21
31.1056
0
LINE
8
BLACK
6
CONTINUOUS
10
-3.36691
20
31.1056
11
-3.26594
21
31.4648
0
LINE
8
BLACK
6
CONTINUOUS
10
-3.26594
20
31.4648
11
-3.12676
21
31.811
0
LINE
8
BLACK
6
CONTINUOUS
10
-3.12676
20
31.811
11
-2.95101
21
32.1402
0
LINE
8
BLACK
6
CONTINUOUS
10
-2.95101
20
32.1402
11
-2.74073
21
32.4484
0
LINE
8
BLACK
6
CONTINUOUS
10
-2.74073
20
32.4484
11
-2.49839
21
32.7322
0
LINE
8
BLACK
6
CONTINUOUS
10
-2.49839
20
32.7322
11
-2.22683
21
32.9881
0
LINE
8
BLACK
6
CONTINUOUS
10
-2.22683
20
32.9881
11
-1.92922
21
33.2132
0
LINE
8
BLACK
6
CONTINUOUS
10
-1.92922
20
33.2132
11
-1.60903
21
33.4048
0
LINE
8
BLACK
6
CONTINUOUS
10
-1.60903
20
33.4048
11
-1.27003
21
33.5607
0
LINE
8
BLACK
6
CONTINUOUS
10
-1.27003
20
33.5607
11
-0.916169
21
33.6791
0
LINE
8
BLACK
6
CONTINUOUS
10
-0.916169
20
33.6791
11
-0.55159
21
33.7586
0
LINE
8
BLACK
6
CONTINUOUS
10
-0.55159
20
33.7586
11
-0.180559
21
33.7983
0
LINE
8
BLACK
6
CONTINUOUS
10
-0.180559
20
33.7983
11
0.192584
21
33.7976
0
LINE
8
BLACK
6
CONTINUOUS
10
0.192584
20
33.7976
11
0.563475
21
33.7567
0
LINE
8
BLACK
6
CONTINUOUS
10
0.563475
20
33.7567
11
0.927773
21
33.6759
0
LINE
8
BLACK
6
CONTINUOUS
10
0.927773
20
33.6759
11
1.28122
21
33.5563
0
LINE
8
BLACK
6
CONTINUOUS
10
1.28122
20
33.5563
11
1.61968
21
33.3992
0
LINE
8
BLACK
6
CONTINUOUS
10
1.61968
20
33.3992
11
1.93919
21
33.2064
0
LINE
8
BLACK
6
CONTINUOUS
10
1.93919
20
33.2064
11
2.23601
21
32.9803
0
LINE
8
BLACK
6
CONTINUOUS
10
2.23601
20
32.9803
11
2.50668
21
32.7235
0
LINE
8
BLACK
6
CONTINUOUS
10
2.50668
20
32.7235
11
2.74803
21
32.4389
0
LINE
8
BLACK
6
CONTINUOUS
10
2.74803
20
32.4389
11
2.95723
21
32.1299
0
LINE
8
BLACK
6
CONTINUOUS
10
2.95723
20
32.1299
11
3.13183
21
31.8001
0
LINE
8
BLACK
6
CONTINUOUS
10
3.13183
20
31.8001
11
3.2698
21
31.4534
0
LINE
8
BLACK
6
CONTINUOUS
10
3.2698
20
31.4534
11
3.36952
21
31.0938
0
LINE
8
BLACK
6
CONTINUOUS
10
3.36952
20
31.0938
11
3.42982
21
30.7256
0
LINE
8
BLACK
6
CONTINUOUS
10
3.42982
20
30.7256
11
3.45
21
30.353
0
LINE
8
BLACK
6
CONTINUOUS
10
3.45
20
30.353
11
3.44992
21
30.3289
0
LINE
8
BLACK
6
CONTINUOUS
10
3.44992
20
30.3289
11
3.42714
21
29.9565
0
LINE
8
BLACK
6
CONTINUOUS
10
3.42714
20
29.9565
11
3.36427
21
29.5887
0
LINE
8
BLACK
6
CONTINUOUS
10
3.36427
20
29.5887
11
3.26204
21
29.2298
0
LINE
8
BLACK
6
CONTINUOUS
10
3.26204
20
29.2298
11
3.12165
21
28.8841
0
LINE
8
BLACK
6
CONTINUOUS
10
3.12165
20
28.8841
11
2.94475
21
28.5555
0
LINE
8
BLACK
6
CONTINUOUS
10
2.94475
20
28.5555
11
2.7334
21
28.248
0
LINE
8
BLACK
6
CONTINUOUS
10
2.7334
20
28.248
11
2.49007
21
27.9651
0
LINE
8
BLACK
6
CONTINUOUS
10
2.49007
20
27.9651
11
2.21762
21
27.7101
0
LINE
8
BLACK
6
CONTINUOUS
10
2.21762
20
27.7101
11
1.91922
21
27.4861
0
LINE
8
BLACK
6
CONTINUOUS
10
1.91922
20
27.4861
11
1.59837
21
27.2956
0
LINE
8
BLACK
6
CONTINUOUS
10
1.59837
20
27.2956
11
1.25882
21
27.1409
0
LINE
8
BLACK
6
CONTINUOUS
10
1.25882
20
27.1409
11
0.904553
21
27.0237
0
LINE
8
BLACK
6
CONTINUOUS
10
0.904553
20
27.0237
11
0.539699
21
26.9455
0
LINE
8
BLACK
6
CONTINUOUS
10
0.539699
20
26.9455
11
0.168532
21
26.9071
0
LINE
8
BLACK
6
CONTINUOUS
10
0.168532
20
26.9071
11
-0.204607
21
26.9091
0
LINE
8
BLACK
6
CONTINUOUS
10
-0.204607
20
26.9091
11
-0.575352
21
26.9513
0
LINE
8
BLACK
6
CONTINUOUS
10
-0.575352
20
26.9513
11
-0.939367
21
27.0333
0
LINE
8
BLACK
6
CONTINUOUS
10
-0.939367
20
27.0333
11
-1.29239
21
27.1542
0
LINE
8
BLACK
6
CONTINUOUS
10
-1.29239
20
27.1542
11
-1.6303
21
27.3125
0
LINE
8
BLACK
6
CONTINUOUS
10
-1.6303
20
27.3125
11
-1.94914
21
27.5064
0
LINE
8
BLACK
6
CONTINUOUS
10
-1.94914
20
27.5064
11
-2.24517
21
27.7335
0
LINE
8
BLACK
6
CONTINUOUS
10
-2.24517
20
27.7335
11
-2.51494
21
27.9913
0
LINE
8
BLACK
6
CONTINUOUS
10
-2.51494
20
27.9913
11
-2.75529
21
28.2767
0
LINE
8
BLACK
6
CONTINUOUS
10
-2.75529
20
28.2767
11
-2.96341
21
28.5865
0
LINE
8
BLACK
6
CONTINUOUS
10
-2.96341
20
28.5865
11
-3.13686
21
28.9168
0
LINE
8
BLACK
6
CONTINUOUS
10
-3.13686
20
28.9168
11
-3.27362
21
29.264
0
LINE
8
BLACK
6
CONTINUOUS
10
-3.27362
20
29.264
11
-3.37208
21
29.6239
0
LINE
8
BLACK
6
CONTINUOUS
10
-3.37208
20
29.6239
11
-3.4311
21
29.9924
0
LINE
8
BLACK
6
CONTINUOUS
10
-3.4311
20
29.9924
11
-3.44996
21
30.3647
0
LINE
8
BLACK
6
CONTINUOUS
10
-3.44996
20
30.3647
11
-3.44998
21
30.365
0
LINE
8
BLACK
6
CONTINUOUS
10
-3.44998
20
30.365
11
-3.4285
21
30.7376
0
LINE
8
BLACK
6
CONTINUOUS
10
-3.27915
20
29.644
11
-3.1834
21
29.294
0
LINE
8
BLACK
6
CONTINUOUS
10
-3.1834
20
29.294
11
-3.05041
21
28.9564
0
LINE
8
BLACK
6
CONTINUOUS
10
-3.05041
20
28.9564
11
-2.88174
21
28.6351
0
LINE
8
BLACK
6
CONTINUOUS
10
-2.88174
20
28.6351
11
-2.67936
21
28.334
0
LINE
8
BLACK
6
CONTINUOUS
10
-2.67936
20
28.334
11
-2.44563
21
28.0564
0
LINE
8
BLACK
6
CONTINUOUS
10
-2.44563
20
28.0564
11
-2.18329
21
27.8057
0
LINE
8
BLACK
6
CONTINUOUS
10
-2.18329
20
27.8057
11
-1.89542
21
27.5848
0
LINE
8
BLACK
6
CONTINUOUS
10
-1.89542
20
27.5848
11
-1.58537
21
27.3963
0
LINE
8
BLACK
6
CONTINUOUS
10
-1.58537
20
27.3963
11
-1.25677
21
27.2424
0
LINE
8
BLACK
6
CONTINUOUS
10
-1.25677
20
27.2424
11
-0.913478
21
27.1248
0
LINE
8
BLACK
6
CONTINUOUS
10
-0.913478
20
27.1248
11
-0.559496
21
27.0451
0
LINE
8
BLACK
6
CONTINUOUS
10
-0.559496
20
27.0451
11
-0.198968
21
27.004
0
LINE
8
BLACK
6
CONTINUOUS
10
-0.198968
20
27.004
11
0.163887
21
27.0021
0
LINE
8
BLACK
6
CONTINUOUS
10
0.163887
20
27.0021
11
0.524825
21
27.0394
0
LINE
8
BLACK
6
CONTINUOUS
10
0.524825
20
27.0394
11
0.879624
21
27.1154
0
LINE
8
BLACK
6
CONTINUOUS
10
0.879624
20
27.1154
11
1.22413
21
27.2294
0
LINE
8
BLACK
6
CONTINUOUS
10
1.22413
20
27.2294
11
1.55432
21
27.3799
0
LINE
8
BLACK
6
CONTINUOUS
10
1.55432
20
27.3799
11
1.86633
21
27.5651
0
LINE
8
BLACK
6
CONTINUOUS
10
1.86633
20
27.5651
11
2.1565
21
27.783
0
LINE
8
BLACK
6
CONTINUOUS
10
2.1565
20
27.783
11
2.42145
21
28.0309
0
LINE
8
BLACK
6
CONTINUOUS
10
2.42145
20
28.0309
11
2.65807
21
28.306
0
LINE
8
BLACK
6
CONTINUOUS
10
2.65807
20
28.306
11
2.86359
21
28.6051
0
LINE
8
BLACK
6
CONTINUOUS
10
2.86359
20
28.6051
11
3.03562
21
28.9245
0
LINE
8
BLACK
6
CONTINUOUS
10
3.03562
20
28.9245
11
3.17214
21
29.2607
0
LINE
8
BLACK
6
CONTINUOUS
10
3.17214
20
29.2607
11
3.27155
21
29.6097
0
LINE
8
BLACK
6
CONTINUOUS
10
3.27155
20
29.6097
11
3.33269
21
29.9674
0
LINE
8
BLACK
6
CONTINUOUS
10
3.33269
20
29.9674
11
3.35484
21
30.3296
0
LINE
8
BLACK
6
CONTINUOUS
10
3.35484
20
30.3296
11
3.35492
21
30.353
0
LINE
8
BLACK
6
CONTINUOUS
10
3.35492
20
30.353
11
3.3353
21
30.7153
0
LINE
8
BLACK
6
CONTINUOUS
10
3.3353
20
30.7153
11
3.27666
21
31.0734
0
LINE
8
BLACK
6
CONTINUOUS
10
3.27666
20
31.0734
11
3.17969
21
31.4231
0
LINE
8
BLACK
6
CONTINUOUS
10
3.17969
20
31.4231
11
3.04552
21
31.7602
0
LINE
8
BLACK
6
CONTINUOUS
10
3.04552
20
31.7602
11
2.87573
21
32.0809
0
LINE
8
BLACK
6
CONTINUOUS
10
2.87573
20
32.0809
11
2.67229
21
32.3814
0
LINE
8
BLACK
6
CONTINUOUS
10
2.67229
20
32.3814
11
2.4376
21
32.6581
0
LINE
8
BLACK
6
CONTINUOUS
10
2.4376
20
32.6581
11
2.17439
21
32.9079
0
LINE
8
BLACK
6
CONTINUOUS
10
2.17439
20
32.9079
11
1.88575
21
33.1278
0
LINE
8
BLACK
6
CONTINUOUS
10
1.88575
20
33.1278
11
1.57504
21
33.3152
0
LINE
8
BLACK
6
CONTINUOUS
10
1.57504
20
33.3152
11
1.24591
21
33.468
0
LINE
8
BLACK
6
CONTINUOUS
10
1.24591
20
33.468
11
0.902204
21
33.5843
0
LINE
8
BLACK
6
CONTINUOUS
10
0.902204
20
33.5843
11
0.547946
21
33.6629
0
LINE
8
BLACK
6
CONTINUOUS
10
0.547946
20
33.6629
11
0.187277
21
33.7027
0
LINE
8
BLACK
6
CONTINUOUS
10
0.187277
20
33.7027
11
-0.175583
21
33.7033
0
LINE
8
BLACK
6
CONTINUOUS
10
-0.175583
20
33.7033
11
-0.536389
21
33.6648
0
LINE
8
BLACK
6
CONTINUOUS
10
-0.536389
20
33.6648
11
-0.89092
21
33.5875
0
LINE
8
BLACK
6
CONTINUOUS
10
-0.89092
20
33.5875
11
-1.23503
21
33.4723
0
LINE
8
BLACK
6
CONTINUOUS
10
-1.23503
20
33.4723
11
-1.56469
21
33.3207
0
LINE
8
BLACK
6
CONTINUOUS
10
-1.56469
20
33.3207
11
-1.87605
21
33.1344
0
LINE
8
BLACK
6
CONTINUOUS
10
-1.87605
20
33.1344
11
-2.16546
21
32.9155
0
LINE
8
BLACK
6
CONTINUOUS
10
-2.16546
20
32.9155
11
-2.42954
21
32.6666
0
LINE
8
BLACK
6
CONTINUOUS
10
-2.42954
20
32.6666
11
-2.6652
21
32.3907
0
LINE
8
BLACK
6
CONTINUOUS
10
-2.6652
20
32.3907
11
-2.86968
21
32.0909
0
LINE
8
BLACK
6
CONTINUOUS
10
-2.86968
20
32.0909
11
-3.04059
21
31.7708
0
LINE
8
BLACK
6
CONTINUOUS
10
-3.04059
20
31.7708
11
-3.17593
21
31.4342
0
LINE
8
BLACK
6
CONTINUOUS
10
-3.17593
20
31.4342
11
-3.27412
21
31.0849
0
LINE
8
BLACK
6
CONTINUOUS
10
-3.27412
20
31.0849
11
-3.33401
21
30.727
0
LINE
8
BLACK
6
CONTINUOUS
10
-3.33401
20
30.727
11
-3.3549
21
30.3647
0
LINE
8
BLACK
6
CONTINUOUS
10
-3.3549
20
30.3647
11
-3.33654
21
30.0023
0
LINE
8
BLACK
6
CONTINUOUS
10
-3.33654
20
30.0023
11
-3.27915
21
29.644
0
LINE
8
BLACK
6
CONTINUOUS
10
-40.0193
20
31.5703
11
-39.9247
21
31.849
0
LINE
8
BLACK
6
CONTINUOUS
10
-39.9247
20
31.849
11
-39.7946
21
32.113
0
LINE
8
BLACK
6
CONTINUOUS
10
-39.7946
20
32.113
11
-39.631
21
32.3577
0
LINE
8
BLACK
6
CONTINUOUS
10
-39.631
20
32.3577
11
-39.437
21
32.579
0
LINE
8
BLACK
6
CONTINUOUS
10
-39.437
20
32.579
11
-39.2157
21
32.773
0
LINE
8
BLACK
6
CONTINUOUS
10
-39.2157
20
32.773
11
-38.971
21
32.9366
0
LINE
8
BLACK
6
CONTINUOUS
10
-38.971
20
32.9366
11
-38.707
21
33.0667
0
LINE
8
BLACK
6
CONTINUOUS
10
-38.707
20
33.0667
11
-38.4283
21
33.1613
0
LINE
8
BLACK
6
CONTINUOUS
10
-38.4283
20
33.1613
11
-38.1397
21
33.2188
0
LINE
8
BLACK
6
CONTINUOUS
10
-38.1397
20
33.2188
11
-37.846
21
33.238
0
LINE
8
BLACK
6
CONTINUOUS
10
-37.846
20
33.238
11
-37.5523
21
33.2188
0
LINE
8
BLACK
6
CONTINUOUS
10
-37.5523
20
33.2188
11
-37.2637
21
33.1613
0
LINE
8
BLACK
6
CONTINUOUS
10
-37.2637
20
33.1613
11
-36.985
21
33.0667
0
LINE
8
BLACK
6
CONTINUOUS
10
-36.985
20
33.0667
11
-36.721
21
32.9366
0
LINE
8
BLACK
6
CONTINUOUS
10
-36.721
20
32.9366
11
-36.4763
21
32.773
0
LINE
8
BLACK
6
CONTINUOUS
10
-36.4763
20
32.773
11
-36.255
21
32.579
0
LINE
8
BLACK
6
CONTINUOUS
10
-36.255
20
32.579
11
-36.061
21
32.3577
0
LINE
8
BLACK
6
CONTINUOUS
10
-36.061
20
32.3577
11
-35.8974
21
32.113
0
LINE
8
BLACK
6
CONTINUOUS
10
-35.8974
20
32.113
11
-35.7673
21
31.849
0
LINE
8
BLACK
6
CONTINUOUS
10
-35.7673
20
31.849
11
-35.6727
21
31.5703
0
LINE
8
BLACK
6
CONTINUOUS
10
-35.6727
20
31.5703
11
-35.6152
21
31.2817
0
LINE
8
BLACK
6
CONTINUOUS
10
-35.6152
20
31.2817
11
-35.596
21
30.988
0
LINE
8
BLACK
6
CONTINUOUS
10
-35.596
20
30.988
11
-35.6152
21
30.6943
0
LINE
8
BLACK
6
CONTINUOUS
10
-35.6152
20
30.6943
11
-35.6727
21
30.4057
0
LINE
8
BLACK
6
CONTINUOUS
10
-35.6727
20
30.4057
11
-35.7673
21
30.127
0
LINE
8
BLACK
6
CONTINUOUS
10
-35.7673
20
30.127
11
-35.8974
21
29.863
0
LINE
8
BLACK
6
CONTINUOUS
10
-35.8974
20
29.863
11
-36.061
21
29.6183
0
LINE
8
BLACK
6
CONTINUOUS
10
-36.061
20
29.6183
11
-36.255
21
29.397
0
LINE
8
BLACK
6
CONTINUOUS
10
-36.255
20
29.397
11
-36.4763
21
29.203
0
LINE
8
BLACK
6
CONTINUOUS
10
-36.4763
20
29.203
11
-36.721
21
29.0394
0
LINE
8
BLACK
6
CONTINUOUS
10
-36.721
20
29.0394
11
-36.985
21
28.9093
0
LINE
8
BLACK
6
CONTINUOUS
10
-36.985
20
28.9093
11
-37.2637
21
28.8147
0
LINE
8
BLACK
6
CONTINUOUS
10
-37.2637
20
28.8147
11
-37.5523
21
28.7572
0
LINE
8
BLACK
6
CONTINUOUS
10
-37.5523
20
28.7572
11
-37.846
21
28.738
0
LINE
8
BLACK
6
CONTINUOUS
10
-37.846
20
28.738
11
-38.1397
21
28.7572
0
LINE
8
BLACK
6
CONTINUOUS
10
-38.1397
20
28.7572
11
-38.4283
21
28.8147
0
LINE
8
BLACK
6
CONTINUOUS
10
-38.4283
20
28.8147
11
-38.707
21
28.9093
0
LINE
8
BLACK
6
CONTINUOUS
10
-38.707
20
28.9093
11
-38.971
21
29.0394
0
LINE
8
BLACK
6
CONTINUOUS
10
-38.971
20
29.0394
11
-39.2157
21
29.203
0
LINE
8
BLACK
6
CONTINUOUS
10
-39.2157
20
29.203
11
-39.437
21
29.397
0
LINE
8
BLACK
6
CONTINUOUS
10
-39.437
20
29.397
11
-39.631
21
29.6183
0
LINE
8
BLACK
6
CONTINUOUS
10
-39.631
20
29.6183
11
-39.7946
21
29.863
0
LINE
8
BLACK
6
CONTINUOUS
10
-39.7946
20
29.863
11
-39.9247
21
30.127
0
LINE
8
BLACK
6
CONTINUOUS
10
-39.9247
20
30.127
11
-40.0193
21
30.4057
0
LINE
8
BLACK
6
CONTINUOUS
10
-40.0193
20
30.4057
11
-40.0768
21
30.6943
0
LINE
8
BLACK
6
CONTINUOUS
10
-40.0768
20
30.6943
11
-40.096
21
30.988
0
LINE
8
BLACK
6
CONTINUOUS
10
-40.096
20
30.988
11
-40.0945
21
31.0106
0
LINE
8
BLACK
6
CONTINUOUS
10
-40.0945
20
31.0106
11
-40.0768
21
31.2817
0
LINE
8
BLACK
6
CONTINUOUS
10
-40.0768
20
31.2817
11
-40.0193
21
31.5703
0
LINE
8
BLACK
6
CONTINUOUS
10
-39.9276
20
30.4302
11
-39.8326
21
30.1529
0
LINE
8
BLACK
6
CONTINUOUS
10
-39.8326
20
30.1529
11
-39.7009
21
29.891
0
LINE
8
BLACK
6
CONTINUOUS
10
-39.7009
20
29.891
11
-39.5349
21
29.6494
0
LINE
8
BLACK
6
CONTINUOUS
10
-39.5349
20
29.6494
11
-39.3376
21
29.4326
0
LINE
8
BLACK
6
CONTINUOUS
10
-39.3376
20
29.4326
11
-39.1127
21
29.2445
0
LINE
8
BLACK
6
CONTINUOUS
10
-39.1127
20
29.2445
11
-38.8644
21
29.0888
0
LINE
8
BLACK
6
CONTINUOUS
10
-38.8644
20
29.0888
11
-38.5972
21
28.9681
0
LINE
8
BLACK
6
CONTINUOUS
10
-38.5972
20
28.9681
11
-38.3161
21
28.8849
0
LINE
8
BLACK
6
CONTINUOUS
10
-38.3161
20
28.8849
11
-38.0263
21
28.8405
0
LINE
8
BLACK
6
CONTINUOUS
10
-38.0263
20
28.8405
11
-37.7332
21
28.8359
0
LINE
8
BLACK
6
CONTINUOUS
10
-37.7332
20
28.8359
11
-37.4422
21
28.8711
0
LINE
8
BLACK
6
CONTINUOUS
10
-37.4422
20
28.8711
11
-37.1586
21
28.9455
0
LINE
8
BLACK
6
CONTINUOUS
10
-37.1586
20
28.9455
11
-36.8878
21
29.0577
0
LINE
8
BLACK
6
CONTINUOUS
10
-36.8878
20
29.0577
11
-36.6347
21
29.2056
0
LINE
8
BLACK
6
CONTINUOUS
10
-36.6347
20
29.2056
11
-36.404
21
29.3865
0
LINE
8
BLACK
6
CONTINUOUS
10
-36.404
20
29.3865
11
-36.2
21
29.597
0
LINE
8
BLACK
6
CONTINUOUS
10
-36.2
20
29.597
11
-36.0265
21
29.8333
0
LINE
8
BLACK
6
CONTINUOUS
10
-36.0265
20
29.8333
11
-35.8866
21
30.0909
0
LINE
8
BLACK
6
CONTINUOUS
10
-35.8866
20
30.0909
11
-35.783
21
30.3651
0
LINE
8
BLACK
6
CONTINUOUS
10
-35.783
20
30.3651
11
-35.7175
21
30.6509
0
LINE
8
BLACK
6
CONTINUOUS
10
-35.7175
20
30.6509
11
-35.6914
21
30.9429
0
LINE
8
BLACK
6
CONTINUOUS
10
-35.6914
20
30.9429
11
-35.691
21
30.988
0
LINE
8
BLACK
6
CONTINUOUS
10
-35.691
20
30.988
11
-35.7109
21
31.2805
0
LINE
8
BLACK
6
CONTINUOUS
10
-35.7109
20
31.2805
11
-35.7704
21
31.5675
0
LINE
8
BLACK
6
CONTINUOUS
10
-35.7704
20
31.5675
11
-35.8682
21
31.8439
0
LINE
8
BLACK
6
CONTINUOUS
10
-35.8682
20
31.8439
11
-36.0027
21
32.1044
0
LINE
8
BLACK
6
CONTINUOUS
10
-36.0027
20
32.1044
11
-36.1712
21
32.3442
0
LINE
8
BLACK
6
CONTINUOUS
10
-36.1712
20
32.3442
11
-36.3708
21
32.5589
0
LINE
8
BLACK
6
CONTINUOUS
10
-36.3708
20
32.5589
11
-36.5976
21
32.7446
0
LINE
8
BLACK
6
CONTINUOUS
10
-36.5976
20
32.7446
11
-36.8476
21
32.8978
0
LINE
8
BLACK
6
CONTINUOUS
10
-36.8476
20
32.8978
11
-37.116
21
33.0156
0
LINE
8
BLACK
6
CONTINUOUS
10
-37.116
20
33.0156
11
-37.3979
21
33.0959
0
LINE
8
BLACK
6
CONTINUOUS
10
-37.3979
20
33.0959
11
-37.6882
21
33.1372
0
LINE
8
BLACK
6
CONTINUOUS
10
-37.6882
20
33.1372
11
-37.9813
21
33.1388
0
LINE
8
BLACK
6
CONTINUOUS
10
-37.9813
20
33.1388
11
-38.272
21
33.1005
0
LINE
8
BLACK
6
CONTINUOUS
10
-38.272
20
33.1005
11
-38.5547
21
33.0232
0
LINE
8
BLACK
6
CONTINUOUS
10
-38.5547
20
33.0232
11
-38.8244
21
32.9081
0
LINE
8
BLACK
6
CONTINUOUS
10
-38.8244
20
32.9081
11
-39.0759
21
32.7576
0
LINE
8
BLACK
6
CONTINUOUS
10
-39.0759
20
32.7576
11
-39.3047
21
32.5743
0
LINE
8
BLACK
6
CONTINUOUS
10
-39.3047
20
32.5743
11
-39.5065
21
32.3617
0
LINE
8
BLACK
6
CONTINUOUS
10
-39.5065
20
32.3617
11
-39.6775
21
32.1236
0
LINE
8
BLACK
6
CONTINUOUS
10
-39.6775
20
32.1236
11
-39.8147
21
31.8645
0
LINE
8
BLACK
6
CONTINUOUS
10
-39.8147
20
31.8645
11
-39.9155
21
31.5892
0
LINE
8
BLACK
6
CONTINUOUS
10
-39.9155
20
31.5892
11
-39.9779
21
31.3028
0
LINE
8
BLACK
6
CONTINUOUS
10
-39.9779
20
31.3028
11
-40.0009
21
31.0106
0
LINE
8
BLACK
6
CONTINUOUS
10
-40.0009
20
31.0106
11
-39.984
21
30.7179
0
LINE
8
BLACK
6
CONTINUOUS
10
-39.984
20
30.7179
11
-39.9276
21
30.4302
0
LINE
8
BLACK
6
CONTINUOUS
10
38.9308
20
41.0099
11
39.0298
21
41.2491
0
LINE
8
BLACK
6
CONTINUOUS
10
39.0298
20
41.2491
11
39.1651
21
41.4698
0
LINE
8
BLACK
6
CONTINUOUS
10
39.1651
20
41.4698
11
39.3333
21
41.6667
0
LINE
8
BLACK
6
CONTINUOUS
10
39.3333
20
41.6667
11
39.5302
21
41.8349
0
LINE
8
BLACK
6
CONTINUOUS
10
39.5302
20
41.8349
11
39.7509
21
41.9702
0
LINE
8
BLACK
6
CONTINUOUS
10
39.7509
20
41.9702
11
39.9901
21
42.0692
0
LINE
8
BLACK
6
CONTINUOUS
10
39.9901
20
42.0692
11
40.2419
21
42.1297
0
LINE
8
BLACK
6
CONTINUOUS
10
40.2419
20
42.1297
11
40.5
21
42.15
0
LINE
8
BLACK
6
CONTINUOUS
10
40.5
20
42.15
11
40.7581
21
42.1297
0
LINE
8
BLACK
6
CONTINUOUS
10
40.7581
20
42.1297
11
41.0099
21
42.0692
0
LINE
8
BLACK
6
CONTINUOUS
10
41.0099
20
42.0692
11
41.2491
21
41.9702
0
LINE
8
BLACK
6
CONTINUOUS
10
41.2491
20
41.9702
11
41.4698
21
41.8349
0
LINE
8
BLACK
6
CONTINUOUS
10
41.4698
20
41.8349
11
41.6667
21
41.6667
0
LINE
8
BLACK
6
CONTINUOUS
10
41.6667
20
41.6667
11
41.8349
21
41.4698
0
LINE
8
BLACK
6
CONTINUOUS
10
41.8349
20
41.4698
11
41.9702
21
41.2491
0
LINE
8
BLACK
6
CONTINUOUS
10
41.9702
20
41.2491
11
42.0692
21
41.0099
0
LINE
8
BLACK
6
CONTINUOUS
10
42.0692
20
41.0099
11
42.1297
21
40.7581
0
LINE
8
BLACK
6
CONTINUOUS
10
42.1297
20
40.7581
11
42.15
21
40.5
0
LINE
8
BLACK
6
CONTINUOUS
10
42.15
20
40.5
11
42.1297
21
40.2419
0
LINE
8
BLACK
6
CONTINUOUS
10
42.1297
20
40.2419
11
42.0692
21
39.9901
0
LINE
8
BLACK
6
CONTINUOUS
10
42.0692
20
39.9901
11
41.9702
21
39.7509
0
LINE
8
BLACK
6
CONTINUOUS
10
41.9702
20
39.7509
11
41.8349
21
39.5302
0
LINE
8
BLACK
6
CONTINUOUS
10
41.8349
20
39.5302
11
41.6667
21
39.3333
0
LINE
8
BLACK
6
CONTINUOUS
10
41.6667
20
39.3333
11
41.4698
21
39.1651
0
LINE
8
BLACK
6
CONTINUOUS
10
41.4698
20
39.1651
11
41.2491
21
39.0298
0
LINE
8
BLACK
6
CONTINUOUS
10
41.2491
20
39.0298
11
41.0099
21
38.9308
0
LINE
8
BLACK
6
CONTINUOUS
10
41.0099
20
38.9308
11
40.7581
21
38.8703
0
LINE
8
BLACK
6
CONTINUOUS
10
40.7581
20
38.8703
11
40.5
21
38.85
0
LINE
8
BLACK
6
CONTINUOUS
10
40.5
20
38.85
11
40.2419
21
38.8703
0
LINE
8
BLACK
6
CONTINUOUS
10
40.2419
20
38.8703
11
39.9901
21
38.9308
0
LINE
8
BLACK
6
CONTINUOUS
10
39.9901
20
38.9308
11
39.7509
21
39.0298
0
LINE
8
BLACK
6
CONTINUOUS
10
39.7509
20
39.0298
11
39.5302
21
39.1651
0
LINE
8
BLACK
6
CONTINUOUS
10
39.5302
20
39.1651
11
39.3333
21
39.3333
0
LINE
8
BLACK
6
CONTINUOUS
10
39.3333
20
39.3333
11
39.1651
21
39.5302
0
LINE
8
BLACK
6
CONTINUOUS
10
39.1651
20
39.5302
11
39.0298
21
39.7509
0
LINE
8
BLACK
6
CONTINUOUS
10
39.0298
20
39.7509
11
38.9308
21
39.9901
0
LINE
8
BLACK
6
CONTINUOUS
10
38.9308
20
39.9901
11
38.8703
21
40.2419
0
LINE
8
BLACK
6
CONTINUOUS
10
38.8703
20
40.2419
11
38.85
21
40.5
0
LINE
8
BLACK
6
CONTINUOUS
10
38.85
20
40.5
11
38.8703
21
40.7581
0
LINE
8
BLACK
6
CONTINUOUS
10
38.8703
20
40.7581
11
38.9308
21
41.0099
0
LINE
8
BLACK
6
CONTINUOUS
10
39.0213
20
40.0195
11
39.1147
21
39.7941
0
LINE
8
BLACK
6
CONTINUOUS
10
39.1147
20
39.7941
11
39.2421
21
39.5861
0
LINE
8
BLACK
6
CONTINUOUS
10
39.2421
20
39.5861
11
39.4006
21
39.4006
0
LINE
8
BLACK
6
CONTINUOUS
10
39.4006
20
39.4006
11
39.5861
21
39.2421
0
LINE
8
BLACK
6
CONTINUOUS
10
39.5861
20
39.2421
11
39.7941
21
39.1147
0
LINE
8
BLACK
6
CONTINUOUS
10
39.7941
20
39.1147
11
40.0195
21
39.0213
0
LINE
8
BLACK
6
CONTINUOUS
10
40.0195
20
39.0213
11
40.2568
21
38.9643
0
LINE
8
BLACK
6
CONTINUOUS
10
40.2568
20
38.9643
11
40.5
21
38.9452
0
LINE
8
BLACK
6
CONTINUOUS
10
40.5
20
38.9452
11
40.7432
21
38.9643
0
LINE
8
BLACK
6
CONTINUOUS
10
40.7432
20
38.9643
11
40.9805
21
39.0213
0
LINE
8
BLACK
6
CONTINUOUS
10
40.9805
20
39.0213
11
41.2059
21
39.1147
0
LINE
8
BLACK
6
CONTINUOUS
10
41.2059
20
39.1147
11
41.4139
21
39.2421
0
LINE
8
BLACK
6
CONTINUOUS
10
41.4139
20
39.2421
11
41.5994
21
39.4006
0
LINE
8
BLACK
6
CONTINUOUS
10
41.5994
20
39.4006
11
41.7579
21
39.5861
0
LINE
8
BLACK
6
CONTINUOUS
10
41.7579
20
39.5861
11
41.8853
21
39.7941
0
LINE
8
BLACK
6
CONTINUOUS
10
41.8853
20
39.7941
11
41.9787
21
40.0195
0
LINE
8
BLACK
6
CONTINUOUS
10
41.9787
20
40.0195
11
42.0357
21
40.2568
0
LINE
8
BLACK
6
CONTINUOUS
10
42.0357
20
40.2568
11
42.0548
21
40.5
0
LINE
8
BLACK
6
CONTINUOUS
10
42.0548
20
40.5
11
42.0357
21
40.7432
0
LINE
8
BLACK
6
CONTINUOUS
10
42.0357
20
40.7432
11
41.9787
21
40.9805
0
LINE
8
BLACK
6
CONTINUOUS
10
41.9787
20
40.9805
11
41.8853
21
41.2059
0
LINE
8
BLACK
6
CONTINUOUS
10
41.8853
20
41.2059
11
41.7579
21
41.4139
0
LINE
8
BLACK
6
CONTINUOUS
10
41.7579
20
41.4139
11
41.5994
21
41.5994
0
LINE
8
BLACK
6
CONTINUOUS
10
41.5994
20
41.5994
11
41.4139
21
41.7579
0
LINE
8
BLACK
6
CONTINUOUS
10
41.4139
20
41.7579
11
41.2059
21
41.8853
0
LINE
8
BLACK
6
CONTINUOUS
10
41.2059
20
41.8853
11
40.9805
21
41.9787
0
LINE
8
BLACK
6
CONTINUOUS
10
40.9805
20
41.9787
11
40.7432
21
42.0357
0
LINE
8
BLACK
6
CONTINUOUS
10
40.7432
20
42.0357
11
40.5
21
42.0548
0
LINE
8
BLACK
6
CONTINUOUS
10
40.5
20
42.0548
11
40.2568
21
42.0357
0
LINE
8
BLACK
6
CONTINUOUS
10
40.2568
20
42.0357
11
40.0195
21
41.9787
0
LINE
8
BLACK
6
CONTINUOUS
10
40.0195
20
41.9787
11
39.7941
21
41.8853
0
LINE
8
BLACK
6
CONTINUOUS
10
39.7941
20
41.8853
11
39.5861
21
41.7579
0
LINE
8
BLACK
6
CONTINUOUS
10
39.5861
20
41.7579
11
39.4006
21
41.5994
0
LINE
8
BLACK
6
CONTINUOUS
10
39.4006
20
41.5994
11
39.2421
21
41.4139
0
LINE
8
BLACK
6
CONTINUOUS
10
39.2421
20
41.4139
11
39.1147
21
41.2059
0
LINE
8
BLACK
6
CONTINUOUS
10
39.1147
20
41.2059
11
39.0213
21
40.9805
0
LINE
8
BLACK
6
CONTINUOUS
10
39.0213
20
40.9805
11
38.9643
21
40.7432
0
LINE
8
BLACK
6
CONTINUOUS
10
38.9643
20
40.7432
11
38.9452
21
40.5
0
LINE
8
BLACK
6
CONTINUOUS
10
38.9452
20
40.5
11
38.9643
21
40.2568
0
LINE
8
BLACK
6
CONTINUOUS
10
38.9643
20
40.2568
11
39.0213
21
40.0195
0
LINE
8
BLACK
6
CONTINUOUS
10
-42.0692
20
41.0099
11
-41.9702
21
41.2491
0
LINE
8
BLACK
6
CONTINUOUS
10
-41.9702
20
41.2491
11
-41.8349
21
41.4698
0
LINE
8
BLACK
6
CONTINUOUS
10
-41.8349
20
41.4698
11
-41.6667
21
41.6667
0
LINE
8
BLACK
6
CONTINUOUS
10
-41.6667
20
41.6667
11
-41.4698
21
41.8349
0
LINE
8
BLACK
6
CONTINUOUS
10
-41.4698
20
41.8349
11
-41.2491
21
41.9702
0
LINE
8
BLACK
6
CONTINUOUS
10
-41.2491
20
41.9702
11
-41.0099
21
42.0692
0
LINE
8
BLACK
6
CONTINUOUS
10
-41.0099
20
42.0692
11
-40.7581
21
42.1297
0
LINE
8
BLACK
6
CONTINUOUS
10
-40.7581
20
42.1297
11
-40.5
21
42.15
0
LINE
8
BLACK
6
CONTINUOUS
10
-40.5
20
42.15
11
-40.2419
21
42.1297
0
LINE
8
BLACK
6
CONTINUOUS
10
-40.2419
20
42.1297
11
-39.9901
21
42.0692
0
LINE
8
BLACK
6
CONTINUOUS
10
-39.9901
20
42.0692
11
-39.7509
21
41.9702
0
LINE
8
BLACK
6
CONTINUOUS
10
-39.7509
20
41.9702
11
-39.5302
21
41.8349
0
LINE
8
BLACK
6
CONTINUOUS
10
-39.5302
20
41.8349
11
-39.3333
21
41.6667
0
LINE
8
BLACK
6
CONTINUOUS
10
-39.3333
20
41.6667
11
-39.1651
21
41.4698
0
LINE
8
BLACK
6
CONTINUOUS
10
-39.1651
20
41.4698
11
-39.0298
21
41.2491
0
LINE
8
BLACK
6
CONTINUOUS
10
-39.0298
20
41.2491
11
-38.9308
21
41.0099
0
LINE
8
BLACK
6
CONTINUOUS
10
-38.9308
20
41.0099
11
-38.8703
21
40.7581
0
LINE
8
BLACK
6
CONTINUOUS
10
-38.8703
20
40.7581
11
-38.85
21
40.5
0
LINE
8
BLACK
6
CONTINUOUS
10
-38.85
20
40.5
11
-38.8703
21
40.2419
0
LINE
8
BLACK
6
CONTINUOUS
10
-38.8703
20
40.2419
11
-38.9308
21
39.9901
0
LINE
8
BLACK
6
CONTINUOUS
10
-38.9308
20
39.9901
11
-39.0298
21
39.7509
0
LINE
8
BLACK
6
CONTINUOUS
10
-39.0298
20
39.7509
11
-39.1651
21
39.5302
0
LINE
8
BLACK
6
CONTINUOUS
10
-39.1651
20
39.5302
11
-39.3333
21
39.3333
0
LINE
8
BLACK
6
CONTINUOUS
10
-39.3333
20
39.3333
11
-39.5302
21
39.1651
0
LINE
8
BLACK
6
CONTINUOUS
10
-39.5302
20
39.1651
11
-39.7509
21
39.0298
0
LINE
8
BLACK
6
CONTINUOUS
10
-39.7509
20
39.0298
11
-39.9901
21
38.9308
0
LINE
8
BLACK
6
CONTINUOUS
10
-39.9901
20
38.9308
11
-40.2419
21
38.8703
0
LINE
8
BLACK
6
CONTINUOUS
10
-40.2419
20
38.8703
11
-40.5
21
38.85
0
LINE
8
BLACK
6
CONTINUOUS
10
-40.5
20
38.85
11
-40.7581
21
38.8703
0
LINE
8
BLACK
6
CONTINUOUS
10
-40.7581
20
38.8703
11
-41.0099
21
38.9308
0
LINE
8
BLACK
6
CONTINUOUS
10
-41.0099
20
38.9308
11
-41.2491
21
39.0298
0
LINE
8
BLACK
6
CONTINUOUS
10
-41.2491
20
39.0298
11
-41.4698
21
39.1651
0
LINE
8
BLACK
6
CONTINUOUS
10
-41.4698
20
39.1651
11
-41.6667
21
39.3333
0
LINE
8
BLACK
6
CONTINUOUS
10
-41.6667
20
39.3333
11
-41.8349
21
39.5302
0
LINE
8
BLACK
6
CONTINUOUS
10
-41.8349
20
39.5302
11
-41.9702
21
39.7509
0
LINE
8
BLACK
6
CONTINUOUS
10
-41.9702
20
39.7509
11
-42.0692
21
39.9901
0
LINE
8
BLACK
6
CONTINUOUS
10
-42.0692
20
39.9901
11
-42.1297
21
40.2419
0
LINE
8
BLACK
6
CONTINUOUS
10
-42.1297
20
40.2419
11
-42.15
21
40.5
0
LINE
8
BLACK
6
CONTINUOUS
10
-42.15
20
40.5
11
-42.1297
21
40.7581
0
LINE
8
BLACK
6
CONTINUOUS
10
-42.1297
20
40.7581
11
-42.0692
21
41.0099
0
LINE
8
BLACK
6
CONTINUOUS
10
-41.9787
20
40.0195
11
-41.8853
21
39.7941
0
LINE
8
BLACK
6
CONTINUOUS
10
-41.8853
20
39.7941
11
-41.7579
21
39.5861
0
LINE
8
BLACK
6
CONTINUOUS
10
-41.7579
20
39.5861
11
-41.5994
21
39.4006
0
LINE
8
BLACK
6
CONTINUOUS
10
-41.5994
20
39.4006
11
-41.4139
21
39.2421
0
LINE
8
BLACK
6
CONTINUOUS
10
-41.4139
20
39.2421
11
-41.2059
21
39.1147
0
LINE
8
BLACK
6
CONTINUOUS
10
-41.2059
20
39.1147
11
-40.9805
21
39.0213
0
LINE
8
BLACK
6
CONTINUOUS
10
-40.9805
20
39.0213
11
-40.7432
21
38.9643
0
LINE
8
BLACK
6
CONTINUOUS
10
-40.7432
20
38.9643
11
-40.5
21
38.9452
0
LINE
8
BLACK
6
CONTINUOUS
10
-40.5
20
38.9452
11
-40.2568
21
38.9643
0
LINE
8
BLACK
6
CONTINUOUS
10
-40.2568
20
38.9643
11
-40.0195
21
39.0213
0
LINE
8
BLACK
6
CONTINUOUS
10
-40.0195
20
39.0213
11
-39.7941
21
39.1147
0
LINE
8
BLACK
6
CONTINUOUS
10
-39.7941
20
39.1147
11
-39.5861
21
39.2421
0
LINE
8
BLACK
6
CONTINUOUS
10
-39.5861
20
39.2421
11
-39.4006
21
39.4006
0
LINE
8
BLACK
6
CONTINUOUS
10
-39.4006
20
39.4006
11
-39.2421
21
39.5861
0
LINE
8
BLACK
6
CONTINUOUS
10
-39.2421
20
39.5861
11
-39.1147
21
39.7941
0
LINE
8
BLACK
6
CONTINUOUS
10
-39.1147
20
39.7941
11
-39.0213
21
40.0195
0
LINE
8
BLACK
6
CONTINUOUS
10
-39.0213
20
40.0195
11
-38.9643
21
40.2568
0
LINE
8
BLACK
6
CONTINUOUS
10
-38.9643
20
40.2568
11
-38.9452
21
40.5
0
LINE
8
BLACK
6
CONTINUOUS
10
-38.9452
20
40.5
11
-38.9643
21
40.7432
0
LINE
8
BLACK
6
CONTINUOUS
10
-38.9643
20
40.7432
11
-39.0213
21
40.9805
0
LINE
8
BLACK
6
CONTINUOUS
10
-39.0213
20
40.9805
11
-39.1147
21
41.2059
0
LINE
8
BLACK
6
CONTINUOUS
10
-39.1147
20
41.2059
11
-39.2421
21
41.4139
0
LINE
8
BLACK
6
CONTINUOUS
10
-39.2421
20
41.4139
11
-39.4006
21
41.5994
0
LINE
8
BLACK
6
CONTINUOUS
10
-39.4006
20
41.5994
11
-39.5861
21
41.7579
0
LINE
8
BLACK
6
CONTINUOUS
10
-39.5861
20
41.7579
11
-39.7941
21
41.8853
0
LINE
8
BLACK
6
CONTINUOUS
10
-39.7941
20
41.8853
11
-40.0195
21
41.9787
0
LINE
8
BLACK
6
CONTINUOUS
10
-40.0195
20
41.9787
11
-40.2568
21
42.0357
0
LINE
8
BLACK
6
CONTINUOUS
10
-40.2568
20
42.0357
11
-40.5
21
42.0548
0
LINE
8
BLACK
6
CONTINUOUS
10
-40.5
20
42.0548
11
-40.7432
21
42.0357
0
LINE
8
BLACK
6
CONTINUOUS
10
-40.7432
20
42.0357
11
-40.9805
21
41.9787
0
LINE
8
BLACK
6
CONTINUOUS
10
-40.9805
20
41.9787
11
-41.2059
21
41.8853
0
LINE
8
BLACK
6
CONTINUOUS
10
-41.2059
20
41.8853
11
-41.4139
21
41.7579
0
LINE
8
BLACK
6
CONTINUOUS
10
-41.4139
20
41.7579
11
-41.5994
21
41.5994
0
LINE
8
BLACK
6
CONTINUOUS
10
-41.5994
20
41.5994
11
-41.7579
21
41.4139
0
LINE
8
BLACK
6
CONTINUOUS
10
-41.7579
20
41.4139
11
-41.8853
21
41.2059
0
LINE
8
BLACK
6
CONTINUOUS
10
-41.8853
20
41.2059
11
-41.9787
21
40.9805
0
LINE
8
BLACK
6
CONTINUOUS
10
-41.9787
20
40.9805
11
-42.0357
21
40.7432
0
LINE
8
BLACK
6
CONTINUOUS
10
-42.0357
20
40.7432
11
-42.0548
21
40.5
0
LINE
8
BLACK
6
CONTINUOUS
10
-42.0548
20
40.5
11
-42.0357
21
40.2568
0
LINE
8
BLACK
6
CONTINUOUS
10
-42.0357
20
40.2568
11
-41.9787
21
40.0195
  0
ENDSEC
  0
EOF
